%TF.GenerationSoftware,KiCad,Pcbnew,5.1.10-88a1d61d58~88~ubuntu18.04.1*%
%TF.CreationDate,2021-05-23T19:09:43+03:00*%
%TF.ProjectId,Micra Cruise Control Schemantics,4d696372-6120-4437-9275-69736520436f,rev?*%
%TF.SameCoordinates,Original*%
%TF.FileFunction,Soldermask,Bot*%
%TF.FilePolarity,Negative*%
%FSLAX46Y46*%
G04 Gerber Fmt 4.6, Leading zero omitted, Abs format (unit mm)*
G04 Created by KiCad (PCBNEW 5.1.10-88a1d61d58~88~ubuntu18.04.1) date 2021-05-23 19:09:43*
%MOMM*%
%LPD*%
G01*
G04 APERTURE LIST*
%ADD10O,1.600000X1.600000*%
%ADD11R,1.600000X1.600000*%
%ADD12O,1.950000X1.700000*%
%ADD13R,1.050000X1.500000*%
%ADD14O,1.050000X1.500000*%
%ADD15R,1.500000X1.000000*%
%ADD16O,1.700000X1.950000*%
%ADD17O,2.000000X1.700000*%
%ADD18R,3.500000X1.800000*%
%ADD19R,3.500000X2.300000*%
%ADD20R,1.800000X3.500000*%
%ADD21O,2.200000X2.200000*%
%ADD22R,2.200000X2.200000*%
%ADD23C,1.600000*%
G04 APERTURE END LIST*
D10*
%TO.C,A1*%
X89840000Y-86310000D03*
X74600000Y-86310000D03*
X89840000Y-50750000D03*
X74600000Y-83770000D03*
X89840000Y-53290000D03*
X74600000Y-81230000D03*
X89840000Y-55830000D03*
X74600000Y-78690000D03*
X89840000Y-58370000D03*
X74600000Y-76150000D03*
X89840000Y-60910000D03*
X74600000Y-73610000D03*
X89840000Y-63450000D03*
X74600000Y-71070000D03*
X89840000Y-65990000D03*
X74600000Y-68530000D03*
X89840000Y-68530000D03*
X74600000Y-65990000D03*
X89840000Y-71070000D03*
X74600000Y-63450000D03*
X89840000Y-73610000D03*
X74600000Y-60910000D03*
X89840000Y-76150000D03*
X74600000Y-58370000D03*
X89840000Y-78690000D03*
X74600000Y-55830000D03*
X89840000Y-81230000D03*
X74600000Y-53290000D03*
X89840000Y-83770000D03*
D11*
X74600000Y-50750000D03*
%TD*%
D12*
%TO.C,J1*%
X71800000Y-128800000D03*
X71800000Y-126300000D03*
X71800000Y-123800000D03*
X71800000Y-121300000D03*
G36*
G01*
X71075000Y-117950000D02*
X72525000Y-117950000D01*
G75*
G02*
X72775000Y-118200000I0J-250000D01*
G01*
X72775000Y-119400000D01*
G75*
G02*
X72525000Y-119650000I-250000J0D01*
G01*
X71075000Y-119650000D01*
G75*
G02*
X70825000Y-119400000I0J250000D01*
G01*
X70825000Y-118200000D01*
G75*
G02*
X71075000Y-117950000I250000J0D01*
G01*
G37*
%TD*%
%TO.C,R26*%
G36*
G01*
X113200000Y-64725000D02*
X113200000Y-63475000D01*
G75*
G02*
X113450000Y-63225000I250000J0D01*
G01*
X114250000Y-63225000D01*
G75*
G02*
X114500000Y-63475000I0J-250000D01*
G01*
X114500000Y-64725000D01*
G75*
G02*
X114250000Y-64975000I-250000J0D01*
G01*
X113450000Y-64975000D01*
G75*
G02*
X113200000Y-64725000I0J250000D01*
G01*
G37*
G36*
G01*
X110100000Y-64725000D02*
X110100000Y-63475000D01*
G75*
G02*
X110350000Y-63225000I250000J0D01*
G01*
X111150000Y-63225000D01*
G75*
G02*
X111400000Y-63475000I0J-250000D01*
G01*
X111400000Y-64725000D01*
G75*
G02*
X111150000Y-64975000I-250000J0D01*
G01*
X110350000Y-64975000D01*
G75*
G02*
X110100000Y-64725000I0J250000D01*
G01*
G37*
%TD*%
%TO.C,R25*%
G36*
G01*
X71125000Y-84950000D02*
X69875000Y-84950000D01*
G75*
G02*
X69625000Y-84700000I0J250000D01*
G01*
X69625000Y-83900000D01*
G75*
G02*
X69875000Y-83650000I250000J0D01*
G01*
X71125000Y-83650000D01*
G75*
G02*
X71375000Y-83900000I0J-250000D01*
G01*
X71375000Y-84700000D01*
G75*
G02*
X71125000Y-84950000I-250000J0D01*
G01*
G37*
G36*
G01*
X71125000Y-88050000D02*
X69875000Y-88050000D01*
G75*
G02*
X69625000Y-87800000I0J250000D01*
G01*
X69625000Y-87000000D01*
G75*
G02*
X69875000Y-86750000I250000J0D01*
G01*
X71125000Y-86750000D01*
G75*
G02*
X71375000Y-87000000I0J-250000D01*
G01*
X71375000Y-87800000D01*
G75*
G02*
X71125000Y-88050000I-250000J0D01*
G01*
G37*
%TD*%
%TO.C,R24*%
G36*
G01*
X69550000Y-76325000D02*
X69550000Y-75075000D01*
G75*
G02*
X69800000Y-74825000I250000J0D01*
G01*
X70600000Y-74825000D01*
G75*
G02*
X70850000Y-75075000I0J-250000D01*
G01*
X70850000Y-76325000D01*
G75*
G02*
X70600000Y-76575000I-250000J0D01*
G01*
X69800000Y-76575000D01*
G75*
G02*
X69550000Y-76325000I0J250000D01*
G01*
G37*
G36*
G01*
X66450000Y-76325000D02*
X66450000Y-75075000D01*
G75*
G02*
X66700000Y-74825000I250000J0D01*
G01*
X67500000Y-74825000D01*
G75*
G02*
X67750000Y-75075000I0J-250000D01*
G01*
X67750000Y-76325000D01*
G75*
G02*
X67500000Y-76575000I-250000J0D01*
G01*
X66700000Y-76575000D01*
G75*
G02*
X66450000Y-76325000I0J250000D01*
G01*
G37*
%TD*%
%TO.C,R23*%
G36*
G01*
X67100000Y-85575000D02*
X67100000Y-84325000D01*
G75*
G02*
X67350000Y-84075000I250000J0D01*
G01*
X68150000Y-84075000D01*
G75*
G02*
X68400000Y-84325000I0J-250000D01*
G01*
X68400000Y-85575000D01*
G75*
G02*
X68150000Y-85825000I-250000J0D01*
G01*
X67350000Y-85825000D01*
G75*
G02*
X67100000Y-85575000I0J250000D01*
G01*
G37*
G36*
G01*
X64000000Y-85575000D02*
X64000000Y-84325000D01*
G75*
G02*
X64250000Y-84075000I250000J0D01*
G01*
X65050000Y-84075000D01*
G75*
G02*
X65300000Y-84325000I0J-250000D01*
G01*
X65300000Y-85575000D01*
G75*
G02*
X65050000Y-85825000I-250000J0D01*
G01*
X64250000Y-85825000D01*
G75*
G02*
X64000000Y-85575000I0J250000D01*
G01*
G37*
%TD*%
%TO.C,R22*%
G36*
G01*
X68625000Y-79050000D02*
X67375000Y-79050000D01*
G75*
G02*
X67125000Y-78800000I0J250000D01*
G01*
X67125000Y-78000000D01*
G75*
G02*
X67375000Y-77750000I250000J0D01*
G01*
X68625000Y-77750000D01*
G75*
G02*
X68875000Y-78000000I0J-250000D01*
G01*
X68875000Y-78800000D01*
G75*
G02*
X68625000Y-79050000I-250000J0D01*
G01*
G37*
G36*
G01*
X68625000Y-82150000D02*
X67375000Y-82150000D01*
G75*
G02*
X67125000Y-81900000I0J250000D01*
G01*
X67125000Y-81100000D01*
G75*
G02*
X67375000Y-80850000I250000J0D01*
G01*
X68625000Y-80850000D01*
G75*
G02*
X68875000Y-81100000I0J-250000D01*
G01*
X68875000Y-81900000D01*
G75*
G02*
X68625000Y-82150000I-250000J0D01*
G01*
G37*
%TD*%
%TO.C,R21*%
G36*
G01*
X43043000Y-67654000D02*
X41793000Y-67654000D01*
G75*
G02*
X41543000Y-67404000I0J250000D01*
G01*
X41543000Y-66604000D01*
G75*
G02*
X41793000Y-66354000I250000J0D01*
G01*
X43043000Y-66354000D01*
G75*
G02*
X43293000Y-66604000I0J-250000D01*
G01*
X43293000Y-67404000D01*
G75*
G02*
X43043000Y-67654000I-250000J0D01*
G01*
G37*
G36*
G01*
X43043000Y-70754000D02*
X41793000Y-70754000D01*
G75*
G02*
X41543000Y-70504000I0J250000D01*
G01*
X41543000Y-69704000D01*
G75*
G02*
X41793000Y-69454000I250000J0D01*
G01*
X43043000Y-69454000D01*
G75*
G02*
X43293000Y-69704000I0J-250000D01*
G01*
X43293000Y-70504000D01*
G75*
G02*
X43043000Y-70754000I-250000J0D01*
G01*
G37*
%TD*%
%TO.C,R20*%
G36*
G01*
X52969000Y-70496000D02*
X54219000Y-70496000D01*
G75*
G02*
X54469000Y-70746000I0J-250000D01*
G01*
X54469000Y-71546000D01*
G75*
G02*
X54219000Y-71796000I-250000J0D01*
G01*
X52969000Y-71796000D01*
G75*
G02*
X52719000Y-71546000I0J250000D01*
G01*
X52719000Y-70746000D01*
G75*
G02*
X52969000Y-70496000I250000J0D01*
G01*
G37*
G36*
G01*
X52969000Y-67396000D02*
X54219000Y-67396000D01*
G75*
G02*
X54469000Y-67646000I0J-250000D01*
G01*
X54469000Y-68446000D01*
G75*
G02*
X54219000Y-68696000I-250000J0D01*
G01*
X52969000Y-68696000D01*
G75*
G02*
X52719000Y-68446000I0J250000D01*
G01*
X52719000Y-67646000D01*
G75*
G02*
X52969000Y-67396000I250000J0D01*
G01*
G37*
%TD*%
%TO.C,R19*%
G36*
G01*
X45837000Y-67706000D02*
X44587000Y-67706000D01*
G75*
G02*
X44337000Y-67456000I0J250000D01*
G01*
X44337000Y-66656000D01*
G75*
G02*
X44587000Y-66406000I250000J0D01*
G01*
X45837000Y-66406000D01*
G75*
G02*
X46087000Y-66656000I0J-250000D01*
G01*
X46087000Y-67456000D01*
G75*
G02*
X45837000Y-67706000I-250000J0D01*
G01*
G37*
G36*
G01*
X45837000Y-70806000D02*
X44587000Y-70806000D01*
G75*
G02*
X44337000Y-70556000I0J250000D01*
G01*
X44337000Y-69756000D01*
G75*
G02*
X44587000Y-69506000I250000J0D01*
G01*
X45837000Y-69506000D01*
G75*
G02*
X46087000Y-69756000I0J-250000D01*
G01*
X46087000Y-70556000D01*
G75*
G02*
X45837000Y-70806000I-250000J0D01*
G01*
G37*
%TD*%
%TO.C,R18*%
G36*
G01*
X80375000Y-65400000D02*
X81625000Y-65400000D01*
G75*
G02*
X81875000Y-65650000I0J-250000D01*
G01*
X81875000Y-66450000D01*
G75*
G02*
X81625000Y-66700000I-250000J0D01*
G01*
X80375000Y-66700000D01*
G75*
G02*
X80125000Y-66450000I0J250000D01*
G01*
X80125000Y-65650000D01*
G75*
G02*
X80375000Y-65400000I250000J0D01*
G01*
G37*
G36*
G01*
X80375000Y-62300000D02*
X81625000Y-62300000D01*
G75*
G02*
X81875000Y-62550000I0J-250000D01*
G01*
X81875000Y-63350000D01*
G75*
G02*
X81625000Y-63600000I-250000J0D01*
G01*
X80375000Y-63600000D01*
G75*
G02*
X80125000Y-63350000I0J250000D01*
G01*
X80125000Y-62550000D01*
G75*
G02*
X80375000Y-62300000I250000J0D01*
G01*
G37*
%TD*%
%TO.C,R17*%
G36*
G01*
X49667000Y-70470000D02*
X50917000Y-70470000D01*
G75*
G02*
X51167000Y-70720000I0J-250000D01*
G01*
X51167000Y-71520000D01*
G75*
G02*
X50917000Y-71770000I-250000J0D01*
G01*
X49667000Y-71770000D01*
G75*
G02*
X49417000Y-71520000I0J250000D01*
G01*
X49417000Y-70720000D01*
G75*
G02*
X49667000Y-70470000I250000J0D01*
G01*
G37*
G36*
G01*
X49667000Y-67370000D02*
X50917000Y-67370000D01*
G75*
G02*
X51167000Y-67620000I0J-250000D01*
G01*
X51167000Y-68420000D01*
G75*
G02*
X50917000Y-68670000I-250000J0D01*
G01*
X49667000Y-68670000D01*
G75*
G02*
X49417000Y-68420000I0J250000D01*
G01*
X49417000Y-67620000D01*
G75*
G02*
X49667000Y-67370000I250000J0D01*
G01*
G37*
%TD*%
%TO.C,R14*%
G36*
G01*
X106100000Y-60775000D02*
X106100000Y-62025000D01*
G75*
G02*
X105850000Y-62275000I-250000J0D01*
G01*
X105050000Y-62275000D01*
G75*
G02*
X104800000Y-62025000I0J250000D01*
G01*
X104800000Y-60775000D01*
G75*
G02*
X105050000Y-60525000I250000J0D01*
G01*
X105850000Y-60525000D01*
G75*
G02*
X106100000Y-60775000I0J-250000D01*
G01*
G37*
G36*
G01*
X109200000Y-60775000D02*
X109200000Y-62025000D01*
G75*
G02*
X108950000Y-62275000I-250000J0D01*
G01*
X108150000Y-62275000D01*
G75*
G02*
X107900000Y-62025000I0J250000D01*
G01*
X107900000Y-60775000D01*
G75*
G02*
X108150000Y-60525000I250000J0D01*
G01*
X108950000Y-60525000D01*
G75*
G02*
X109200000Y-60775000I0J-250000D01*
G01*
G37*
%TD*%
%TO.C,R13*%
G36*
G01*
X107800000Y-65025000D02*
X107800000Y-63775000D01*
G75*
G02*
X108050000Y-63525000I250000J0D01*
G01*
X108850000Y-63525000D01*
G75*
G02*
X109100000Y-63775000I0J-250000D01*
G01*
X109100000Y-65025000D01*
G75*
G02*
X108850000Y-65275000I-250000J0D01*
G01*
X108050000Y-65275000D01*
G75*
G02*
X107800000Y-65025000I0J250000D01*
G01*
G37*
G36*
G01*
X104700000Y-65025000D02*
X104700000Y-63775000D01*
G75*
G02*
X104950000Y-63525000I250000J0D01*
G01*
X105750000Y-63525000D01*
G75*
G02*
X106000000Y-63775000I0J-250000D01*
G01*
X106000000Y-65025000D01*
G75*
G02*
X105750000Y-65275000I-250000J0D01*
G01*
X104950000Y-65275000D01*
G75*
G02*
X104700000Y-65025000I0J250000D01*
G01*
G37*
%TD*%
%TO.C,R12*%
G36*
G01*
X74900000Y-108025000D02*
X74900000Y-109275000D01*
G75*
G02*
X74650000Y-109525000I-250000J0D01*
G01*
X73850000Y-109525000D01*
G75*
G02*
X73600000Y-109275000I0J250000D01*
G01*
X73600000Y-108025000D01*
G75*
G02*
X73850000Y-107775000I250000J0D01*
G01*
X74650000Y-107775000D01*
G75*
G02*
X74900000Y-108025000I0J-250000D01*
G01*
G37*
G36*
G01*
X78000000Y-108025000D02*
X78000000Y-109275000D01*
G75*
G02*
X77750000Y-109525000I-250000J0D01*
G01*
X76950000Y-109525000D01*
G75*
G02*
X76700000Y-109275000I0J250000D01*
G01*
X76700000Y-108025000D01*
G75*
G02*
X76950000Y-107775000I250000J0D01*
G01*
X77750000Y-107775000D01*
G75*
G02*
X78000000Y-108025000I0J-250000D01*
G01*
G37*
%TD*%
%TO.C,R11*%
G36*
G01*
X75000000Y-105275000D02*
X75000000Y-106525000D01*
G75*
G02*
X74750000Y-106775000I-250000J0D01*
G01*
X73950000Y-106775000D01*
G75*
G02*
X73700000Y-106525000I0J250000D01*
G01*
X73700000Y-105275000D01*
G75*
G02*
X73950000Y-105025000I250000J0D01*
G01*
X74750000Y-105025000D01*
G75*
G02*
X75000000Y-105275000I0J-250000D01*
G01*
G37*
G36*
G01*
X78100000Y-105275000D02*
X78100000Y-106525000D01*
G75*
G02*
X77850000Y-106775000I-250000J0D01*
G01*
X77050000Y-106775000D01*
G75*
G02*
X76800000Y-106525000I0J250000D01*
G01*
X76800000Y-105275000D01*
G75*
G02*
X77050000Y-105025000I250000J0D01*
G01*
X77850000Y-105025000D01*
G75*
G02*
X78100000Y-105275000I0J-250000D01*
G01*
G37*
%TD*%
%TO.C,R10*%
G36*
G01*
X89175000Y-109700000D02*
X87925000Y-109700000D01*
G75*
G02*
X87675000Y-109450000I0J250000D01*
G01*
X87675000Y-108650000D01*
G75*
G02*
X87925000Y-108400000I250000J0D01*
G01*
X89175000Y-108400000D01*
G75*
G02*
X89425000Y-108650000I0J-250000D01*
G01*
X89425000Y-109450000D01*
G75*
G02*
X89175000Y-109700000I-250000J0D01*
G01*
G37*
G36*
G01*
X89175000Y-112800000D02*
X87925000Y-112800000D01*
G75*
G02*
X87675000Y-112550000I0J250000D01*
G01*
X87675000Y-111750000D01*
G75*
G02*
X87925000Y-111500000I250000J0D01*
G01*
X89175000Y-111500000D01*
G75*
G02*
X89425000Y-111750000I0J-250000D01*
G01*
X89425000Y-112550000D01*
G75*
G02*
X89175000Y-112800000I-250000J0D01*
G01*
G37*
%TD*%
%TO.C,R9*%
G36*
G01*
X86625000Y-106100000D02*
X85375000Y-106100000D01*
G75*
G02*
X85125000Y-105850000I0J250000D01*
G01*
X85125000Y-105050000D01*
G75*
G02*
X85375000Y-104800000I250000J0D01*
G01*
X86625000Y-104800000D01*
G75*
G02*
X86875000Y-105050000I0J-250000D01*
G01*
X86875000Y-105850000D01*
G75*
G02*
X86625000Y-106100000I-250000J0D01*
G01*
G37*
G36*
G01*
X86625000Y-109200000D02*
X85375000Y-109200000D01*
G75*
G02*
X85125000Y-108950000I0J250000D01*
G01*
X85125000Y-108150000D01*
G75*
G02*
X85375000Y-107900000I250000J0D01*
G01*
X86625000Y-107900000D01*
G75*
G02*
X86875000Y-108150000I0J-250000D01*
G01*
X86875000Y-108950000D01*
G75*
G02*
X86625000Y-109200000I-250000J0D01*
G01*
G37*
%TD*%
%TO.C,R8*%
G36*
G01*
X67050000Y-88175000D02*
X67050000Y-86925000D01*
G75*
G02*
X67300000Y-86675000I250000J0D01*
G01*
X68100000Y-86675000D01*
G75*
G02*
X68350000Y-86925000I0J-250000D01*
G01*
X68350000Y-88175000D01*
G75*
G02*
X68100000Y-88425000I-250000J0D01*
G01*
X67300000Y-88425000D01*
G75*
G02*
X67050000Y-88175000I0J250000D01*
G01*
G37*
G36*
G01*
X63950000Y-88175000D02*
X63950000Y-86925000D01*
G75*
G02*
X64200000Y-86675000I250000J0D01*
G01*
X65000000Y-86675000D01*
G75*
G02*
X65250000Y-86925000I0J-250000D01*
G01*
X65250000Y-88175000D01*
G75*
G02*
X65000000Y-88425000I-250000J0D01*
G01*
X64200000Y-88425000D01*
G75*
G02*
X63950000Y-88175000I0J250000D01*
G01*
G37*
%TD*%
%TO.C,R7*%
G36*
G01*
X64100000Y-76375000D02*
X64100000Y-75125000D01*
G75*
G02*
X64350000Y-74875000I250000J0D01*
G01*
X65150000Y-74875000D01*
G75*
G02*
X65400000Y-75125000I0J-250000D01*
G01*
X65400000Y-76375000D01*
G75*
G02*
X65150000Y-76625000I-250000J0D01*
G01*
X64350000Y-76625000D01*
G75*
G02*
X64100000Y-76375000I0J250000D01*
G01*
G37*
G36*
G01*
X61000000Y-76375000D02*
X61000000Y-75125000D01*
G75*
G02*
X61250000Y-74875000I250000J0D01*
G01*
X62050000Y-74875000D01*
G75*
G02*
X62300000Y-75125000I0J-250000D01*
G01*
X62300000Y-76375000D01*
G75*
G02*
X62050000Y-76625000I-250000J0D01*
G01*
X61250000Y-76625000D01*
G75*
G02*
X61000000Y-76375000I0J250000D01*
G01*
G37*
%TD*%
%TO.C,R6*%
G36*
G01*
X58975000Y-87050000D02*
X60225000Y-87050000D01*
G75*
G02*
X60475000Y-87300000I0J-250000D01*
G01*
X60475000Y-88100000D01*
G75*
G02*
X60225000Y-88350000I-250000J0D01*
G01*
X58975000Y-88350000D01*
G75*
G02*
X58725000Y-88100000I0J250000D01*
G01*
X58725000Y-87300000D01*
G75*
G02*
X58975000Y-87050000I250000J0D01*
G01*
G37*
G36*
G01*
X58975000Y-83950000D02*
X60225000Y-83950000D01*
G75*
G02*
X60475000Y-84200000I0J-250000D01*
G01*
X60475000Y-85000000D01*
G75*
G02*
X60225000Y-85250000I-250000J0D01*
G01*
X58975000Y-85250000D01*
G75*
G02*
X58725000Y-85000000I0J250000D01*
G01*
X58725000Y-84200000D01*
G75*
G02*
X58975000Y-83950000I250000J0D01*
G01*
G37*
%TD*%
%TO.C,R5*%
G36*
G01*
X58525000Y-78050000D02*
X59775000Y-78050000D01*
G75*
G02*
X60025000Y-78300000I0J-250000D01*
G01*
X60025000Y-79100000D01*
G75*
G02*
X59775000Y-79350000I-250000J0D01*
G01*
X58525000Y-79350000D01*
G75*
G02*
X58275000Y-79100000I0J250000D01*
G01*
X58275000Y-78300000D01*
G75*
G02*
X58525000Y-78050000I250000J0D01*
G01*
G37*
G36*
G01*
X58525000Y-74950000D02*
X59775000Y-74950000D01*
G75*
G02*
X60025000Y-75200000I0J-250000D01*
G01*
X60025000Y-76000000D01*
G75*
G02*
X59775000Y-76250000I-250000J0D01*
G01*
X58525000Y-76250000D01*
G75*
G02*
X58275000Y-76000000I0J250000D01*
G01*
X58275000Y-75200000D01*
G75*
G02*
X58525000Y-74950000I250000J0D01*
G01*
G37*
%TD*%
%TO.C,R4*%
G36*
G01*
X70268000Y-43043000D02*
X70268000Y-41793000D01*
G75*
G02*
X70518000Y-41543000I250000J0D01*
G01*
X71318000Y-41543000D01*
G75*
G02*
X71568000Y-41793000I0J-250000D01*
G01*
X71568000Y-43043000D01*
G75*
G02*
X71318000Y-43293000I-250000J0D01*
G01*
X70518000Y-43293000D01*
G75*
G02*
X70268000Y-43043000I0J250000D01*
G01*
G37*
G36*
G01*
X67168000Y-43043000D02*
X67168000Y-41793000D01*
G75*
G02*
X67418000Y-41543000I250000J0D01*
G01*
X68218000Y-41543000D01*
G75*
G02*
X68468000Y-41793000I0J-250000D01*
G01*
X68468000Y-43043000D01*
G75*
G02*
X68218000Y-43293000I-250000J0D01*
G01*
X67418000Y-43293000D01*
G75*
G02*
X67168000Y-43043000I0J250000D01*
G01*
G37*
%TD*%
%TO.C,R3*%
G36*
G01*
X64680000Y-43043000D02*
X64680000Y-41793000D01*
G75*
G02*
X64930000Y-41543000I250000J0D01*
G01*
X65730000Y-41543000D01*
G75*
G02*
X65980000Y-41793000I0J-250000D01*
G01*
X65980000Y-43043000D01*
G75*
G02*
X65730000Y-43293000I-250000J0D01*
G01*
X64930000Y-43293000D01*
G75*
G02*
X64680000Y-43043000I0J250000D01*
G01*
G37*
G36*
G01*
X61580000Y-43043000D02*
X61580000Y-41793000D01*
G75*
G02*
X61830000Y-41543000I250000J0D01*
G01*
X62630000Y-41543000D01*
G75*
G02*
X62880000Y-41793000I0J-250000D01*
G01*
X62880000Y-43043000D01*
G75*
G02*
X62630000Y-43293000I-250000J0D01*
G01*
X61830000Y-43293000D01*
G75*
G02*
X61580000Y-43043000I0J250000D01*
G01*
G37*
%TD*%
D13*
%TO.C,Q2*%
X75000000Y-102800000D03*
D14*
X72460000Y-102800000D03*
X73730000Y-102800000D03*
%TD*%
D13*
%TO.C,Q1*%
X78750000Y-114000000D03*
D14*
X76210000Y-114000000D03*
X77480000Y-114000000D03*
%TD*%
D15*
%TO.C,JP1*%
X116700000Y-62600000D03*
X116700000Y-63900000D03*
X116700000Y-65200000D03*
%TD*%
%TO.C,J5*%
G36*
G01*
X55335000Y-64564000D02*
X53885000Y-64564000D01*
G75*
G02*
X53635000Y-64314000I0J250000D01*
G01*
X53635000Y-63114000D01*
G75*
G02*
X53885000Y-62864000I250000J0D01*
G01*
X55335000Y-62864000D01*
G75*
G02*
X55585000Y-63114000I0J-250000D01*
G01*
X55585000Y-64314000D01*
G75*
G02*
X55335000Y-64564000I-250000J0D01*
G01*
G37*
D12*
X54610000Y-61214000D03*
X54610000Y-58714000D03*
X54610000Y-56214000D03*
%TD*%
D16*
%TO.C,J4*%
X126430000Y-58930000D03*
X123930000Y-58930000D03*
G36*
G01*
X120580000Y-59655000D02*
X120580000Y-58205000D01*
G75*
G02*
X120830000Y-57955000I250000J0D01*
G01*
X122030000Y-57955000D01*
G75*
G02*
X122280000Y-58205000I0J-250000D01*
G01*
X122280000Y-59655000D01*
G75*
G02*
X122030000Y-59905000I-250000J0D01*
G01*
X120830000Y-59905000D01*
G75*
G02*
X120580000Y-59655000I0J250000D01*
G01*
G37*
%TD*%
D12*
%TO.C,J3*%
X98938000Y-50930000D03*
X98938000Y-48430000D03*
X98938000Y-45930000D03*
G36*
G01*
X98213000Y-42580000D02*
X99663000Y-42580000D01*
G75*
G02*
X99913000Y-42830000I0J-250000D01*
G01*
X99913000Y-44030000D01*
G75*
G02*
X99663000Y-44280000I-250000J0D01*
G01*
X98213000Y-44280000D01*
G75*
G02*
X97963000Y-44030000I0J250000D01*
G01*
X97963000Y-42830000D01*
G75*
G02*
X98213000Y-42580000I250000J0D01*
G01*
G37*
%TD*%
D17*
%TO.C,J2*%
X54356000Y-44918000D03*
G36*
G01*
X53606000Y-41568000D02*
X55106000Y-41568000D01*
G75*
G02*
X55356000Y-41818000I0J-250000D01*
G01*
X55356000Y-43018000D01*
G75*
G02*
X55106000Y-43268000I-250000J0D01*
G01*
X53606000Y-43268000D01*
G75*
G02*
X53356000Y-43018000I0J250000D01*
G01*
X53356000Y-41818000D01*
G75*
G02*
X53606000Y-41568000I250000J0D01*
G01*
G37*
%TD*%
D18*
%TO.C,D13*%
X43728000Y-62484000D03*
X48728000Y-62484000D03*
%TD*%
D19*
%TO.C,D12*%
X41336000Y-47000000D03*
X46736000Y-47000000D03*
%TD*%
%TO.C,D11*%
X41402000Y-42418000D03*
X46802000Y-42418000D03*
%TD*%
D20*
%TO.C,D10*%
X120650000Y-47630000D03*
X120650000Y-52630000D03*
%TD*%
%TO.C,D9*%
X126750000Y-47630000D03*
X126750000Y-52630000D03*
%TD*%
D19*
%TO.C,D6*%
X85300000Y-119450000D03*
X79900000Y-119450000D03*
%TD*%
D18*
%TO.C,D5*%
X43768000Y-58674000D03*
X48768000Y-58674000D03*
%TD*%
%TO.C,D4*%
X43728000Y-54864000D03*
X48728000Y-54864000D03*
%TD*%
D19*
%TO.C,D3*%
X85350000Y-128800000D03*
X79950000Y-128800000D03*
%TD*%
%TO.C,D2*%
X85300000Y-124050000D03*
X79900000Y-124050000D03*
%TD*%
D21*
%TO.C,D1*%
X68350000Y-103110000D03*
D22*
X68350000Y-92950000D03*
%TD*%
D23*
%TO.C,C8*%
X62000000Y-85200000D03*
D11*
X62000000Y-87700000D03*
%TD*%
D23*
%TO.C,C7*%
X64400000Y-78800000D03*
D11*
X61900000Y-78800000D03*
%TD*%
D23*
%TO.C,C6*%
X55000000Y-82850000D03*
D11*
X55000000Y-85350000D03*
%TD*%
D23*
%TO.C,C5*%
X56250000Y-78300000D03*
D11*
X56250000Y-75800000D03*
%TD*%
M02*
