%TF.GenerationSoftware,KiCad,Pcbnew,5.1.10-88a1d61d58~88~ubuntu18.04.1*%
%TF.CreationDate,2021-05-23T19:09:43+03:00*%
%TF.ProjectId,Micra Cruise Control Schemantics,4d696372-6120-4437-9275-69736520436f,rev?*%
%TF.SameCoordinates,Original*%
%TF.FileFunction,Legend,Top*%
%TF.FilePolarity,Positive*%
%FSLAX46Y46*%
G04 Gerber Fmt 4.6, Leading zero omitted, Abs format (unit mm)*
G04 Created by KiCad (PCBNEW 5.1.10-88a1d61d58~88~ubuntu18.04.1) date 2021-05-23 19:09:43*
%MOMM*%
%LPD*%
G01*
G04 APERTURE LIST*
%ADD10C,0.150000*%
%ADD11C,0.120000*%
G04 APERTURE END LIST*
D10*
X117619047Y-56404761D02*
X116876190Y-56404761D01*
X117247619Y-56404761D02*
X117247619Y-54404761D01*
X117123809Y-54690476D01*
X117000000Y-54880952D01*
X116876190Y-54976190D01*
X118114285Y-54595238D02*
X118176190Y-54500000D01*
X118300000Y-54404761D01*
X118609523Y-54404761D01*
X118733333Y-54500000D01*
X118795238Y-54595238D01*
X118857142Y-54785714D01*
X118857142Y-54976190D01*
X118795238Y-55261904D01*
X118052380Y-56404761D01*
X118857142Y-56404761D01*
X119228571Y-54404761D02*
X119661904Y-56404761D01*
X120095238Y-54404761D01*
X120838095Y-57071428D02*
X120838095Y-54214285D01*
X122447619Y-54500000D02*
X122323809Y-54404761D01*
X122138095Y-54404761D01*
X121952380Y-54500000D01*
X121828571Y-54690476D01*
X121766666Y-54880952D01*
X121704761Y-55261904D01*
X121704761Y-55547619D01*
X121766666Y-55928571D01*
X121828571Y-56119047D01*
X121952380Y-56309523D01*
X122138095Y-56404761D01*
X122261904Y-56404761D01*
X122447619Y-56309523D01*
X122509523Y-56214285D01*
X122509523Y-55547619D01*
X122261904Y-55547619D01*
X123066666Y-56404761D02*
X123066666Y-54404761D01*
X123809523Y-56404761D01*
X123809523Y-54404761D01*
X124428571Y-56404761D02*
X124428571Y-54404761D01*
X124738095Y-54404761D01*
X124923809Y-54500000D01*
X125047619Y-54690476D01*
X125109523Y-54880952D01*
X125171428Y-55261904D01*
X125171428Y-55547619D01*
X125109523Y-55928571D01*
X125047619Y-56119047D01*
X124923809Y-56309523D01*
X124738095Y-56404761D01*
X124428571Y-56404761D01*
X126038095Y-57071428D02*
X126038095Y-54214285D01*
X126904761Y-55833333D02*
X127523809Y-55833333D01*
X126780952Y-56404761D02*
X127214285Y-54404761D01*
X127647619Y-56404761D01*
X128823809Y-56214285D02*
X128761904Y-56309523D01*
X128576190Y-56404761D01*
X128452380Y-56404761D01*
X128266666Y-56309523D01*
X128142857Y-56119047D01*
X128080952Y-55928571D01*
X128019047Y-55547619D01*
X128019047Y-55261904D01*
X128080952Y-54880952D01*
X128142857Y-54690476D01*
X128266666Y-54500000D01*
X128452380Y-54404761D01*
X128576190Y-54404761D01*
X128761904Y-54500000D01*
X128823809Y-54595238D01*
X130123809Y-56214285D02*
X130061904Y-56309523D01*
X129876190Y-56404761D01*
X129752380Y-56404761D01*
X129566666Y-56309523D01*
X129442857Y-56119047D01*
X129380952Y-55928571D01*
X129319047Y-55547619D01*
X129319047Y-55261904D01*
X129380952Y-54880952D01*
X129442857Y-54690476D01*
X129566666Y-54500000D01*
X129752380Y-54404761D01*
X129876190Y-54404761D01*
X130061904Y-54500000D01*
X130123809Y-54595238D01*
X97361904Y-39566666D02*
X97838095Y-39566666D01*
X97266666Y-39852380D02*
X97600000Y-38852380D01*
X97933333Y-39852380D01*
X98266666Y-38852380D02*
X98266666Y-39661904D01*
X98314285Y-39757142D01*
X98361904Y-39804761D01*
X98457142Y-39852380D01*
X98647619Y-39852380D01*
X98742857Y-39804761D01*
X98790476Y-39757142D01*
X98838095Y-39661904D01*
X98838095Y-38852380D01*
X99219047Y-38852380D02*
X99885714Y-39852380D01*
X99885714Y-38852380D02*
X99219047Y-39852380D01*
X50428571Y-65166666D02*
X50476190Y-65023809D01*
X50523809Y-64976190D01*
X50619047Y-64928571D01*
X50761904Y-64928571D01*
X50857142Y-64976190D01*
X50904761Y-65023809D01*
X50952380Y-65119047D01*
X50952380Y-65500000D01*
X49952380Y-65500000D01*
X49952380Y-65166666D01*
X50000000Y-65071428D01*
X50047619Y-65023809D01*
X50142857Y-64976190D01*
X50238095Y-64976190D01*
X50333333Y-65023809D01*
X50380952Y-65071428D01*
X50428571Y-65166666D01*
X50428571Y-65500000D01*
X49952380Y-64500000D02*
X50761904Y-64500000D01*
X50857142Y-64452380D01*
X50904761Y-64404761D01*
X50952380Y-64309523D01*
X50952380Y-64119047D01*
X50904761Y-64023809D01*
X50857142Y-63976190D01*
X50761904Y-63928571D01*
X49952380Y-63928571D01*
X49952380Y-63595238D02*
X49952380Y-63023809D01*
X50952380Y-63309523D02*
X49952380Y-63309523D01*
X49952380Y-62833333D02*
X49952380Y-62261904D01*
X50952380Y-62547619D02*
X49952380Y-62547619D01*
X49952380Y-61738095D02*
X49952380Y-61547619D01*
X50000000Y-61452380D01*
X50095238Y-61357142D01*
X50285714Y-61309523D01*
X50619047Y-61309523D01*
X50809523Y-61357142D01*
X50904761Y-61452380D01*
X50952380Y-61547619D01*
X50952380Y-61738095D01*
X50904761Y-61833333D01*
X50809523Y-61928571D01*
X50619047Y-61976190D01*
X50285714Y-61976190D01*
X50095238Y-61928571D01*
X50000000Y-61833333D01*
X49952380Y-61738095D01*
X50952380Y-60880952D02*
X49952380Y-60880952D01*
X50952380Y-60309523D01*
X49952380Y-60309523D01*
X50952380Y-58595238D02*
X50952380Y-59071428D01*
X49952380Y-59071428D01*
X50952380Y-58261904D02*
X49952380Y-58261904D01*
X50000000Y-57261904D02*
X49952380Y-57357142D01*
X49952380Y-57500000D01*
X50000000Y-57642857D01*
X50095238Y-57738095D01*
X50190476Y-57785714D01*
X50380952Y-57833333D01*
X50523809Y-57833333D01*
X50714285Y-57785714D01*
X50809523Y-57738095D01*
X50904761Y-57642857D01*
X50952380Y-57500000D01*
X50952380Y-57404761D01*
X50904761Y-57261904D01*
X50857142Y-57214285D01*
X50523809Y-57214285D01*
X50523809Y-57404761D01*
X50952380Y-56785714D02*
X49952380Y-56785714D01*
X50428571Y-56785714D02*
X50428571Y-56214285D01*
X50952380Y-56214285D02*
X49952380Y-56214285D01*
X49952380Y-55880952D02*
X49952380Y-55309523D01*
X50952380Y-55595238D02*
X49952380Y-55595238D01*
X50904761Y-55023809D02*
X50952380Y-54880952D01*
X50952380Y-54642857D01*
X50904761Y-54547619D01*
X50857142Y-54500000D01*
X50761904Y-54452380D01*
X50666666Y-54452380D01*
X50571428Y-54500000D01*
X50523809Y-54547619D01*
X50476190Y-54642857D01*
X50428571Y-54833333D01*
X50380952Y-54928571D01*
X50333333Y-54976190D01*
X50238095Y-55023809D01*
X50142857Y-55023809D01*
X50047619Y-54976190D01*
X50000000Y-54928571D01*
X49952380Y-54833333D01*
X49952380Y-54595238D01*
X50000000Y-54452380D01*
X47127380Y-45761904D02*
X48127380Y-45523809D01*
X47413095Y-45333333D01*
X48127380Y-45142857D01*
X47127380Y-44904761D01*
X48127380Y-44523809D02*
X47127380Y-44523809D01*
X47603571Y-44523809D02*
X47603571Y-43952380D01*
X48127380Y-43952380D02*
X47127380Y-43952380D01*
X47603571Y-43476190D02*
X47603571Y-43142857D01*
X48127380Y-43000000D02*
X48127380Y-43476190D01*
X47127380Y-43476190D01*
X47127380Y-43000000D01*
X47603571Y-42571428D02*
X47603571Y-42238095D01*
X48127380Y-42095238D02*
X48127380Y-42571428D01*
X47127380Y-42571428D01*
X47127380Y-42095238D01*
X48127380Y-41190476D02*
X48127380Y-41666666D01*
X47127380Y-41666666D01*
X49729761Y-46738095D02*
X49777380Y-46595238D01*
X49777380Y-46357142D01*
X49729761Y-46261904D01*
X49682142Y-46214285D01*
X49586904Y-46166666D01*
X49491666Y-46166666D01*
X49396428Y-46214285D01*
X49348809Y-46261904D01*
X49301190Y-46357142D01*
X49253571Y-46547619D01*
X49205952Y-46642857D01*
X49158333Y-46690476D01*
X49063095Y-46738095D01*
X48967857Y-46738095D01*
X48872619Y-46690476D01*
X48825000Y-46642857D01*
X48777380Y-46547619D01*
X48777380Y-46309523D01*
X48825000Y-46166666D01*
X49253571Y-45738095D02*
X49253571Y-45404761D01*
X49777380Y-45261904D02*
X49777380Y-45738095D01*
X48777380Y-45738095D01*
X48777380Y-45261904D01*
X49777380Y-44833333D02*
X48777380Y-44833333D01*
X49777380Y-44261904D01*
X48777380Y-44261904D01*
X49729761Y-43833333D02*
X49777380Y-43690476D01*
X49777380Y-43452380D01*
X49729761Y-43357142D01*
X49682142Y-43309523D01*
X49586904Y-43261904D01*
X49491666Y-43261904D01*
X49396428Y-43309523D01*
X49348809Y-43357142D01*
X49301190Y-43452380D01*
X49253571Y-43642857D01*
X49205952Y-43738095D01*
X49158333Y-43785714D01*
X49063095Y-43833333D01*
X48967857Y-43833333D01*
X48872619Y-43785714D01*
X48825000Y-43738095D01*
X48777380Y-43642857D01*
X48777380Y-43404761D01*
X48825000Y-43261904D01*
X48777380Y-42642857D02*
X48777380Y-42452380D01*
X48825000Y-42357142D01*
X48920238Y-42261904D01*
X49110714Y-42214285D01*
X49444047Y-42214285D01*
X49634523Y-42261904D01*
X49729761Y-42357142D01*
X49777380Y-42452380D01*
X49777380Y-42642857D01*
X49729761Y-42738095D01*
X49634523Y-42833333D01*
X49444047Y-42880952D01*
X49110714Y-42880952D01*
X48920238Y-42833333D01*
X48825000Y-42738095D01*
X48777380Y-42642857D01*
X49777380Y-41214285D02*
X49301190Y-41547619D01*
X49777380Y-41785714D02*
X48777380Y-41785714D01*
X48777380Y-41404761D01*
X48825000Y-41309523D01*
X48872619Y-41261904D01*
X48967857Y-41214285D01*
X49110714Y-41214285D01*
X49205952Y-41261904D01*
X49253571Y-41309523D01*
X49301190Y-41404761D01*
X49301190Y-41785714D01*
X49729761Y-40833333D02*
X49777380Y-40690476D01*
X49777380Y-40452380D01*
X49729761Y-40357142D01*
X49682142Y-40309523D01*
X49586904Y-40261904D01*
X49491666Y-40261904D01*
X49396428Y-40309523D01*
X49348809Y-40357142D01*
X49301190Y-40452380D01*
X49253571Y-40642857D01*
X49205952Y-40738095D01*
X49158333Y-40785714D01*
X49063095Y-40833333D01*
X48967857Y-40833333D01*
X48872619Y-40785714D01*
X48825000Y-40738095D01*
X48777380Y-40642857D01*
X48777380Y-40404761D01*
X48825000Y-40261904D01*
D11*
%TO.C,A1*%
X75870000Y-52020000D02*
X75870000Y-49480000D01*
X75870000Y-49480000D02*
X73200000Y-49480000D01*
X73200000Y-52020000D02*
X73200000Y-90250000D01*
X73200000Y-46810000D02*
X73200000Y-49480000D01*
X88570000Y-49480000D02*
X91240000Y-49480000D01*
X88570000Y-49480000D02*
X88570000Y-87580000D01*
X88570000Y-87580000D02*
X91240000Y-87580000D01*
X75870000Y-52020000D02*
X73200000Y-52020000D01*
X75870000Y-52020000D02*
X75870000Y-87580000D01*
X75870000Y-87580000D02*
X73200000Y-87580000D01*
X73200000Y-90250000D02*
X91240000Y-90250000D01*
X91240000Y-90250000D02*
X91240000Y-46810000D01*
X91240000Y-46810000D02*
X73200000Y-46810000D01*
%TO.C,J1*%
X74260000Y-116240000D02*
X68290000Y-116240000D01*
X68290000Y-116240000D02*
X68290000Y-131360000D01*
X68290000Y-131360000D02*
X74260000Y-131360000D01*
X74260000Y-131360000D02*
X74260000Y-116240000D01*
X74250000Y-119550000D02*
X73500000Y-119550000D01*
X73500000Y-119550000D02*
X73500000Y-128050000D01*
X73500000Y-128050000D02*
X74250000Y-128050000D01*
X74250000Y-128050000D02*
X74250000Y-119550000D01*
X74250000Y-116250000D02*
X73500000Y-116250000D01*
X73500000Y-116250000D02*
X73500000Y-118050000D01*
X73500000Y-118050000D02*
X74250000Y-118050000D01*
X74250000Y-118050000D02*
X74250000Y-116250000D01*
X74250000Y-129550000D02*
X73500000Y-129550000D01*
X73500000Y-129550000D02*
X73500000Y-131350000D01*
X73500000Y-131350000D02*
X74250000Y-131350000D01*
X74250000Y-131350000D02*
X74250000Y-129550000D01*
X72000000Y-116250000D02*
X72000000Y-117000000D01*
X72000000Y-117000000D02*
X69050000Y-117000000D01*
X69050000Y-117000000D02*
X69050000Y-123800000D01*
X72000000Y-131350000D02*
X72000000Y-130600000D01*
X72000000Y-130600000D02*
X69050000Y-130600000D01*
X69050000Y-130600000D02*
X69050000Y-123800000D01*
X74550000Y-117200000D02*
X74550000Y-115950000D01*
X74550000Y-115950000D02*
X73300000Y-115950000D01*
%TO.C,K2*%
X63650000Y-113750000D02*
X63650000Y-112750000D01*
X63650000Y-116250000D02*
X63650000Y-115350000D01*
X63650000Y-120750000D02*
X63650000Y-117950000D01*
X55950000Y-120750000D02*
X63650000Y-120750000D01*
X55950000Y-117950000D02*
X55950000Y-120750000D01*
X55950000Y-115350000D02*
X55950000Y-116250000D01*
X55950000Y-112750000D02*
X55950000Y-113750000D01*
X55950000Y-107750000D02*
X54750000Y-107750000D01*
X55950000Y-107750000D02*
X55950000Y-111050000D01*
X63650000Y-107750000D02*
X63650000Y-111050000D01*
X63650000Y-105650000D02*
X63650000Y-106050000D01*
X55950000Y-105650000D02*
X63650000Y-105650000D01*
X55950000Y-106050000D02*
X55950000Y-105650000D01*
X54750000Y-106050000D02*
X55950000Y-106050000D01*
%TO.C,K1*%
X56920000Y-100750000D02*
X57920000Y-100750000D01*
X54420000Y-100750000D02*
X55320000Y-100750000D01*
X49920000Y-100750000D02*
X52720000Y-100750000D01*
X49920000Y-93050000D02*
X49920000Y-100750000D01*
X52720000Y-93050000D02*
X49920000Y-93050000D01*
X55320000Y-93050000D02*
X54420000Y-93050000D01*
X57920000Y-93050000D02*
X56920000Y-93050000D01*
X62920000Y-93050000D02*
X62920000Y-91850000D01*
X62920000Y-93050000D02*
X59620000Y-93050000D01*
X62920000Y-100750000D02*
X59620000Y-100750000D01*
X65020000Y-100750000D02*
X64620000Y-100750000D01*
X65020000Y-93050000D02*
X65020000Y-100750000D01*
X64620000Y-93050000D02*
X65020000Y-93050000D01*
X64620000Y-91850000D02*
X64620000Y-93050000D01*
%TO.C,U4*%
X83560000Y-99720000D02*
X83560000Y-97820000D01*
X81240000Y-98320000D02*
X81240000Y-99720000D01*
%TO.C,U3*%
X91183500Y-94311000D02*
X89303500Y-94311000D01*
X91183500Y-94311000D02*
X93063500Y-94311000D01*
X91183500Y-99491000D02*
X89303500Y-99491000D01*
X91183500Y-99491000D02*
X94708500Y-99491000D01*
%TO.C,U2*%
X69713000Y-49465000D02*
X69713000Y-47515000D01*
X69713000Y-49465000D02*
X69713000Y-51415000D01*
X60843000Y-49465000D02*
X60843000Y-47515000D01*
X60843000Y-49465000D02*
X60843000Y-52915000D01*
%TO.C,U1*%
X111156000Y-86136000D02*
X109396000Y-86136000D01*
X109396000Y-89206000D02*
X111826000Y-89206000D01*
%TO.C,R27*%
X106066000Y-89924936D02*
X106066000Y-91379064D01*
X104246000Y-89924936D02*
X104246000Y-91379064D01*
%TO.C,R16*%
X107057064Y-54754000D02*
X105602936Y-54754000D01*
X107057064Y-52934000D02*
X105602936Y-52934000D01*
%TO.C,R15*%
X105602936Y-55728000D02*
X107057064Y-55728000D01*
X105602936Y-57548000D02*
X107057064Y-57548000D01*
%TO.C,R2*%
X98090000Y-84827064D02*
X98090000Y-83372936D01*
X99910000Y-84827064D02*
X99910000Y-83372936D01*
%TO.C,R1*%
X104410000Y-83346936D02*
X104410000Y-84801064D01*
X102590000Y-83346936D02*
X102590000Y-84801064D01*
%TO.C,Q2*%
X71891522Y-100961522D02*
G75*
G03*
X73730000Y-105400000I1838478J-1838478D01*
G01*
X75568478Y-100961522D02*
G75*
G02*
X73730000Y-105400000I-1838478J-1838478D01*
G01*
X75530000Y-100950000D02*
X71930000Y-100950000D01*
%TO.C,Q1*%
X75641522Y-112161522D02*
G75*
G03*
X77480000Y-116600000I1838478J-1838478D01*
G01*
X79318478Y-112161522D02*
G75*
G02*
X77480000Y-116600000I-1838478J-1838478D01*
G01*
X79280000Y-112150000D02*
X75680000Y-112150000D01*
%TO.C,L1*%
X124200000Y-89400000D02*
X124200000Y-91700000D01*
X124200000Y-91700000D02*
X116800000Y-91700000D01*
X116800000Y-91700000D02*
X116800000Y-89400000D01*
X116800000Y-86600000D02*
X116800000Y-84300000D01*
X116800000Y-84300000D02*
X124200000Y-84300000D01*
X124200000Y-84300000D02*
X124200000Y-86600000D01*
%TO.C,J5*%
X51860000Y-66564000D02*
X53110000Y-66564000D01*
X51860000Y-65314000D02*
X51860000Y-66564000D01*
X57360000Y-54414000D02*
X57360000Y-59964000D01*
X54410000Y-54414000D02*
X57360000Y-54414000D01*
X54410000Y-53664000D02*
X54410000Y-54414000D01*
X57360000Y-65514000D02*
X57360000Y-59964000D01*
X54410000Y-65514000D02*
X57360000Y-65514000D01*
X54410000Y-66264000D02*
X54410000Y-65514000D01*
X52160000Y-53664000D02*
X52160000Y-55464000D01*
X52910000Y-53664000D02*
X52160000Y-53664000D01*
X52910000Y-55464000D02*
X52910000Y-53664000D01*
X52160000Y-55464000D02*
X52910000Y-55464000D01*
X52160000Y-64464000D02*
X52160000Y-66264000D01*
X52910000Y-64464000D02*
X52160000Y-64464000D01*
X52910000Y-66264000D02*
X52910000Y-64464000D01*
X52160000Y-66264000D02*
X52910000Y-66264000D01*
X52160000Y-56964000D02*
X52160000Y-62964000D01*
X52910000Y-56964000D02*
X52160000Y-56964000D01*
X52910000Y-62964000D02*
X52910000Y-56964000D01*
X52160000Y-62964000D02*
X52910000Y-62964000D01*
X52150000Y-53654000D02*
X52150000Y-66274000D01*
X58120000Y-53654000D02*
X52150000Y-53654000D01*
X58120000Y-66274000D02*
X58120000Y-53654000D01*
X52150000Y-66274000D02*
X58120000Y-66274000D01*
%TO.C,J4*%
X118870000Y-56470000D02*
X118870000Y-62440000D01*
X118870000Y-62440000D02*
X128990000Y-62440000D01*
X128990000Y-62440000D02*
X128990000Y-56470000D01*
X128990000Y-56470000D02*
X118870000Y-56470000D01*
X122180000Y-56480000D02*
X122180000Y-57230000D01*
X122180000Y-57230000D02*
X125680000Y-57230000D01*
X125680000Y-57230000D02*
X125680000Y-56480000D01*
X125680000Y-56480000D02*
X122180000Y-56480000D01*
X118880000Y-56480000D02*
X118880000Y-57230000D01*
X118880000Y-57230000D02*
X120680000Y-57230000D01*
X120680000Y-57230000D02*
X120680000Y-56480000D01*
X120680000Y-56480000D02*
X118880000Y-56480000D01*
X127180000Y-56480000D02*
X127180000Y-57230000D01*
X127180000Y-57230000D02*
X128980000Y-57230000D01*
X128980000Y-57230000D02*
X128980000Y-56480000D01*
X128980000Y-56480000D02*
X127180000Y-56480000D01*
X118880000Y-58730000D02*
X119630000Y-58730000D01*
X119630000Y-58730000D02*
X119630000Y-61680000D01*
X119630000Y-61680000D02*
X123930000Y-61680000D01*
X128980000Y-58730000D02*
X128230000Y-58730000D01*
X128230000Y-58730000D02*
X128230000Y-61680000D01*
X128230000Y-61680000D02*
X123930000Y-61680000D01*
X119830000Y-56180000D02*
X118580000Y-56180000D01*
X118580000Y-56180000D02*
X118580000Y-57430000D01*
%TO.C,J3*%
X101398000Y-40870000D02*
X95428000Y-40870000D01*
X95428000Y-40870000D02*
X95428000Y-53490000D01*
X95428000Y-53490000D02*
X101398000Y-53490000D01*
X101398000Y-53490000D02*
X101398000Y-40870000D01*
X101388000Y-44180000D02*
X100638000Y-44180000D01*
X100638000Y-44180000D02*
X100638000Y-50180000D01*
X100638000Y-50180000D02*
X101388000Y-50180000D01*
X101388000Y-50180000D02*
X101388000Y-44180000D01*
X101388000Y-40880000D02*
X100638000Y-40880000D01*
X100638000Y-40880000D02*
X100638000Y-42680000D01*
X100638000Y-42680000D02*
X101388000Y-42680000D01*
X101388000Y-42680000D02*
X101388000Y-40880000D01*
X101388000Y-51680000D02*
X100638000Y-51680000D01*
X100638000Y-51680000D02*
X100638000Y-53480000D01*
X100638000Y-53480000D02*
X101388000Y-53480000D01*
X101388000Y-53480000D02*
X101388000Y-51680000D01*
X99138000Y-40880000D02*
X99138000Y-41630000D01*
X99138000Y-41630000D02*
X96188000Y-41630000D01*
X96188000Y-41630000D02*
X96188000Y-47180000D01*
X99138000Y-53480000D02*
X99138000Y-52730000D01*
X99138000Y-52730000D02*
X96188000Y-52730000D01*
X96188000Y-52730000D02*
X96188000Y-47180000D01*
X101688000Y-41830000D02*
X101688000Y-40580000D01*
X101688000Y-40580000D02*
X100438000Y-40580000D01*
%TO.C,J2*%
X56816000Y-39858000D02*
X50846000Y-39858000D01*
X50846000Y-39858000D02*
X50846000Y-47478000D01*
X50846000Y-47478000D02*
X56816000Y-47478000D01*
X56816000Y-47478000D02*
X56816000Y-39858000D01*
X56806000Y-43168000D02*
X56056000Y-43168000D01*
X56056000Y-43168000D02*
X56056000Y-44168000D01*
X56056000Y-44168000D02*
X56806000Y-44168000D01*
X56806000Y-44168000D02*
X56806000Y-43168000D01*
X56806000Y-39868000D02*
X56056000Y-39868000D01*
X56056000Y-39868000D02*
X56056000Y-41668000D01*
X56056000Y-41668000D02*
X56806000Y-41668000D01*
X56806000Y-41668000D02*
X56806000Y-39868000D01*
X56806000Y-45668000D02*
X56056000Y-45668000D01*
X56056000Y-45668000D02*
X56056000Y-47468000D01*
X56056000Y-47468000D02*
X56806000Y-47468000D01*
X56806000Y-47468000D02*
X56806000Y-45668000D01*
X54556000Y-39868000D02*
X54556000Y-40618000D01*
X54556000Y-40618000D02*
X51606000Y-40618000D01*
X51606000Y-40618000D02*
X51606000Y-43668000D01*
X54556000Y-47468000D02*
X54556000Y-46718000D01*
X54556000Y-46718000D02*
X51606000Y-46718000D01*
X51606000Y-46718000D02*
X51606000Y-43668000D01*
X57106000Y-40818000D02*
X57106000Y-39568000D01*
X57106000Y-39568000D02*
X55856000Y-39568000D01*
%TO.C,F1*%
X120998752Y-71910000D02*
X119576248Y-71910000D01*
X120998752Y-70090000D02*
X119576248Y-70090000D01*
%TO.C,D8*%
X102960000Y-44574000D02*
X102960000Y-47874000D01*
X102960000Y-47874000D02*
X109860000Y-47874000D01*
X102960000Y-44574000D02*
X109860000Y-44574000D01*
%TO.C,D7*%
X102880000Y-48384000D02*
X102880000Y-51684000D01*
X102880000Y-51684000D02*
X109780000Y-51684000D01*
X102880000Y-48384000D02*
X109780000Y-48384000D01*
%TO.C,C8*%
X65270000Y-86450000D02*
G75*
G03*
X65270000Y-86450000I-3270000J0D01*
G01*
X58770000Y-86450000D02*
X65230000Y-86450000D01*
X58770000Y-86410000D02*
X65230000Y-86410000D01*
X58770000Y-86370000D02*
X65230000Y-86370000D01*
X58772000Y-86330000D02*
X65228000Y-86330000D01*
X58773000Y-86290000D02*
X65227000Y-86290000D01*
X58776000Y-86250000D02*
X65224000Y-86250000D01*
X58778000Y-86210000D02*
X60960000Y-86210000D01*
X63040000Y-86210000D02*
X65222000Y-86210000D01*
X58782000Y-86170000D02*
X60960000Y-86170000D01*
X63040000Y-86170000D02*
X65218000Y-86170000D01*
X58785000Y-86130000D02*
X60960000Y-86130000D01*
X63040000Y-86130000D02*
X65215000Y-86130000D01*
X58789000Y-86090000D02*
X60960000Y-86090000D01*
X63040000Y-86090000D02*
X65211000Y-86090000D01*
X58794000Y-86050000D02*
X60960000Y-86050000D01*
X63040000Y-86050000D02*
X65206000Y-86050000D01*
X58799000Y-86010000D02*
X60960000Y-86010000D01*
X63040000Y-86010000D02*
X65201000Y-86010000D01*
X58805000Y-85970000D02*
X60960000Y-85970000D01*
X63040000Y-85970000D02*
X65195000Y-85970000D01*
X58811000Y-85930000D02*
X60960000Y-85930000D01*
X63040000Y-85930000D02*
X65189000Y-85930000D01*
X58818000Y-85890000D02*
X60960000Y-85890000D01*
X63040000Y-85890000D02*
X65182000Y-85890000D01*
X58825000Y-85850000D02*
X60960000Y-85850000D01*
X63040000Y-85850000D02*
X65175000Y-85850000D01*
X58833000Y-85810000D02*
X60960000Y-85810000D01*
X63040000Y-85810000D02*
X65167000Y-85810000D01*
X58841000Y-85770000D02*
X60960000Y-85770000D01*
X63040000Y-85770000D02*
X65159000Y-85770000D01*
X58850000Y-85729000D02*
X60960000Y-85729000D01*
X63040000Y-85729000D02*
X65150000Y-85729000D01*
X58859000Y-85689000D02*
X60960000Y-85689000D01*
X63040000Y-85689000D02*
X65141000Y-85689000D01*
X58869000Y-85649000D02*
X60960000Y-85649000D01*
X63040000Y-85649000D02*
X65131000Y-85649000D01*
X58879000Y-85609000D02*
X60960000Y-85609000D01*
X63040000Y-85609000D02*
X65121000Y-85609000D01*
X58890000Y-85569000D02*
X60960000Y-85569000D01*
X63040000Y-85569000D02*
X65110000Y-85569000D01*
X58902000Y-85529000D02*
X60960000Y-85529000D01*
X63040000Y-85529000D02*
X65098000Y-85529000D01*
X58914000Y-85489000D02*
X60960000Y-85489000D01*
X63040000Y-85489000D02*
X65086000Y-85489000D01*
X58926000Y-85449000D02*
X60960000Y-85449000D01*
X63040000Y-85449000D02*
X65074000Y-85449000D01*
X58939000Y-85409000D02*
X60960000Y-85409000D01*
X63040000Y-85409000D02*
X65061000Y-85409000D01*
X58953000Y-85369000D02*
X60960000Y-85369000D01*
X63040000Y-85369000D02*
X65047000Y-85369000D01*
X58967000Y-85329000D02*
X60960000Y-85329000D01*
X63040000Y-85329000D02*
X65033000Y-85329000D01*
X58982000Y-85289000D02*
X60960000Y-85289000D01*
X63040000Y-85289000D02*
X65018000Y-85289000D01*
X58998000Y-85249000D02*
X60960000Y-85249000D01*
X63040000Y-85249000D02*
X65002000Y-85249000D01*
X59014000Y-85209000D02*
X60960000Y-85209000D01*
X63040000Y-85209000D02*
X64986000Y-85209000D01*
X59030000Y-85169000D02*
X60960000Y-85169000D01*
X63040000Y-85169000D02*
X64970000Y-85169000D01*
X59048000Y-85129000D02*
X60960000Y-85129000D01*
X63040000Y-85129000D02*
X64952000Y-85129000D01*
X59066000Y-85089000D02*
X60960000Y-85089000D01*
X63040000Y-85089000D02*
X64934000Y-85089000D01*
X59084000Y-85049000D02*
X60960000Y-85049000D01*
X63040000Y-85049000D02*
X64916000Y-85049000D01*
X59104000Y-85009000D02*
X60960000Y-85009000D01*
X63040000Y-85009000D02*
X64896000Y-85009000D01*
X59124000Y-84969000D02*
X60960000Y-84969000D01*
X63040000Y-84969000D02*
X64876000Y-84969000D01*
X59144000Y-84929000D02*
X60960000Y-84929000D01*
X63040000Y-84929000D02*
X64856000Y-84929000D01*
X59166000Y-84889000D02*
X60960000Y-84889000D01*
X63040000Y-84889000D02*
X64834000Y-84889000D01*
X59188000Y-84849000D02*
X60960000Y-84849000D01*
X63040000Y-84849000D02*
X64812000Y-84849000D01*
X59210000Y-84809000D02*
X60960000Y-84809000D01*
X63040000Y-84809000D02*
X64790000Y-84809000D01*
X59234000Y-84769000D02*
X60960000Y-84769000D01*
X63040000Y-84769000D02*
X64766000Y-84769000D01*
X59258000Y-84729000D02*
X60960000Y-84729000D01*
X63040000Y-84729000D02*
X64742000Y-84729000D01*
X59284000Y-84689000D02*
X60960000Y-84689000D01*
X63040000Y-84689000D02*
X64716000Y-84689000D01*
X59310000Y-84649000D02*
X60960000Y-84649000D01*
X63040000Y-84649000D02*
X64690000Y-84649000D01*
X59336000Y-84609000D02*
X60960000Y-84609000D01*
X63040000Y-84609000D02*
X64664000Y-84609000D01*
X59364000Y-84569000D02*
X60960000Y-84569000D01*
X63040000Y-84569000D02*
X64636000Y-84569000D01*
X59393000Y-84529000D02*
X60960000Y-84529000D01*
X63040000Y-84529000D02*
X64607000Y-84529000D01*
X59422000Y-84489000D02*
X60960000Y-84489000D01*
X63040000Y-84489000D02*
X64578000Y-84489000D01*
X59452000Y-84449000D02*
X60960000Y-84449000D01*
X63040000Y-84449000D02*
X64548000Y-84449000D01*
X59484000Y-84409000D02*
X60960000Y-84409000D01*
X63040000Y-84409000D02*
X64516000Y-84409000D01*
X59516000Y-84369000D02*
X60960000Y-84369000D01*
X63040000Y-84369000D02*
X64484000Y-84369000D01*
X59550000Y-84329000D02*
X60960000Y-84329000D01*
X63040000Y-84329000D02*
X64450000Y-84329000D01*
X59584000Y-84289000D02*
X60960000Y-84289000D01*
X63040000Y-84289000D02*
X64416000Y-84289000D01*
X59620000Y-84249000D02*
X60960000Y-84249000D01*
X63040000Y-84249000D02*
X64380000Y-84249000D01*
X59657000Y-84209000D02*
X60960000Y-84209000D01*
X63040000Y-84209000D02*
X64343000Y-84209000D01*
X59695000Y-84169000D02*
X60960000Y-84169000D01*
X63040000Y-84169000D02*
X64305000Y-84169000D01*
X59735000Y-84129000D02*
X64265000Y-84129000D01*
X59776000Y-84089000D02*
X64224000Y-84089000D01*
X59818000Y-84049000D02*
X64182000Y-84049000D01*
X59863000Y-84009000D02*
X64137000Y-84009000D01*
X59908000Y-83969000D02*
X64092000Y-83969000D01*
X59956000Y-83929000D02*
X64044000Y-83929000D01*
X60005000Y-83889000D02*
X63995000Y-83889000D01*
X60056000Y-83849000D02*
X63944000Y-83849000D01*
X60110000Y-83809000D02*
X63890000Y-83809000D01*
X60166000Y-83769000D02*
X63834000Y-83769000D01*
X60224000Y-83729000D02*
X63776000Y-83729000D01*
X60286000Y-83689000D02*
X63714000Y-83689000D01*
X60350000Y-83649000D02*
X63650000Y-83649000D01*
X60419000Y-83609000D02*
X63581000Y-83609000D01*
X60491000Y-83569000D02*
X63509000Y-83569000D01*
X60568000Y-83529000D02*
X63432000Y-83529000D01*
X60650000Y-83489000D02*
X63350000Y-83489000D01*
X60738000Y-83449000D02*
X63262000Y-83449000D01*
X60835000Y-83409000D02*
X63165000Y-83409000D01*
X60941000Y-83369000D02*
X63059000Y-83369000D01*
X61060000Y-83329000D02*
X62940000Y-83329000D01*
X61198000Y-83289000D02*
X62802000Y-83289000D01*
X61367000Y-83249000D02*
X62633000Y-83249000D01*
X61598000Y-83209000D02*
X62402000Y-83209000D01*
X60161000Y-89950241D02*
X60161000Y-89320241D01*
X59846000Y-89635241D02*
X60476000Y-89635241D01*
%TO.C,C7*%
X66420000Y-78800000D02*
G75*
G03*
X66420000Y-78800000I-3270000J0D01*
G01*
X63150000Y-75570000D02*
X63150000Y-82030000D01*
X63190000Y-75570000D02*
X63190000Y-82030000D01*
X63230000Y-75570000D02*
X63230000Y-82030000D01*
X63270000Y-75572000D02*
X63270000Y-82028000D01*
X63310000Y-75573000D02*
X63310000Y-82027000D01*
X63350000Y-75576000D02*
X63350000Y-82024000D01*
X63390000Y-75578000D02*
X63390000Y-77760000D01*
X63390000Y-79840000D02*
X63390000Y-82022000D01*
X63430000Y-75582000D02*
X63430000Y-77760000D01*
X63430000Y-79840000D02*
X63430000Y-82018000D01*
X63470000Y-75585000D02*
X63470000Y-77760000D01*
X63470000Y-79840000D02*
X63470000Y-82015000D01*
X63510000Y-75589000D02*
X63510000Y-77760000D01*
X63510000Y-79840000D02*
X63510000Y-82011000D01*
X63550000Y-75594000D02*
X63550000Y-77760000D01*
X63550000Y-79840000D02*
X63550000Y-82006000D01*
X63590000Y-75599000D02*
X63590000Y-77760000D01*
X63590000Y-79840000D02*
X63590000Y-82001000D01*
X63630000Y-75605000D02*
X63630000Y-77760000D01*
X63630000Y-79840000D02*
X63630000Y-81995000D01*
X63670000Y-75611000D02*
X63670000Y-77760000D01*
X63670000Y-79840000D02*
X63670000Y-81989000D01*
X63710000Y-75618000D02*
X63710000Y-77760000D01*
X63710000Y-79840000D02*
X63710000Y-81982000D01*
X63750000Y-75625000D02*
X63750000Y-77760000D01*
X63750000Y-79840000D02*
X63750000Y-81975000D01*
X63790000Y-75633000D02*
X63790000Y-77760000D01*
X63790000Y-79840000D02*
X63790000Y-81967000D01*
X63830000Y-75641000D02*
X63830000Y-77760000D01*
X63830000Y-79840000D02*
X63830000Y-81959000D01*
X63871000Y-75650000D02*
X63871000Y-77760000D01*
X63871000Y-79840000D02*
X63871000Y-81950000D01*
X63911000Y-75659000D02*
X63911000Y-77760000D01*
X63911000Y-79840000D02*
X63911000Y-81941000D01*
X63951000Y-75669000D02*
X63951000Y-77760000D01*
X63951000Y-79840000D02*
X63951000Y-81931000D01*
X63991000Y-75679000D02*
X63991000Y-77760000D01*
X63991000Y-79840000D02*
X63991000Y-81921000D01*
X64031000Y-75690000D02*
X64031000Y-77760000D01*
X64031000Y-79840000D02*
X64031000Y-81910000D01*
X64071000Y-75702000D02*
X64071000Y-77760000D01*
X64071000Y-79840000D02*
X64071000Y-81898000D01*
X64111000Y-75714000D02*
X64111000Y-77760000D01*
X64111000Y-79840000D02*
X64111000Y-81886000D01*
X64151000Y-75726000D02*
X64151000Y-77760000D01*
X64151000Y-79840000D02*
X64151000Y-81874000D01*
X64191000Y-75739000D02*
X64191000Y-77760000D01*
X64191000Y-79840000D02*
X64191000Y-81861000D01*
X64231000Y-75753000D02*
X64231000Y-77760000D01*
X64231000Y-79840000D02*
X64231000Y-81847000D01*
X64271000Y-75767000D02*
X64271000Y-77760000D01*
X64271000Y-79840000D02*
X64271000Y-81833000D01*
X64311000Y-75782000D02*
X64311000Y-77760000D01*
X64311000Y-79840000D02*
X64311000Y-81818000D01*
X64351000Y-75798000D02*
X64351000Y-77760000D01*
X64351000Y-79840000D02*
X64351000Y-81802000D01*
X64391000Y-75814000D02*
X64391000Y-77760000D01*
X64391000Y-79840000D02*
X64391000Y-81786000D01*
X64431000Y-75830000D02*
X64431000Y-77760000D01*
X64431000Y-79840000D02*
X64431000Y-81770000D01*
X64471000Y-75848000D02*
X64471000Y-77760000D01*
X64471000Y-79840000D02*
X64471000Y-81752000D01*
X64511000Y-75866000D02*
X64511000Y-77760000D01*
X64511000Y-79840000D02*
X64511000Y-81734000D01*
X64551000Y-75884000D02*
X64551000Y-77760000D01*
X64551000Y-79840000D02*
X64551000Y-81716000D01*
X64591000Y-75904000D02*
X64591000Y-77760000D01*
X64591000Y-79840000D02*
X64591000Y-81696000D01*
X64631000Y-75924000D02*
X64631000Y-77760000D01*
X64631000Y-79840000D02*
X64631000Y-81676000D01*
X64671000Y-75944000D02*
X64671000Y-77760000D01*
X64671000Y-79840000D02*
X64671000Y-81656000D01*
X64711000Y-75966000D02*
X64711000Y-77760000D01*
X64711000Y-79840000D02*
X64711000Y-81634000D01*
X64751000Y-75988000D02*
X64751000Y-77760000D01*
X64751000Y-79840000D02*
X64751000Y-81612000D01*
X64791000Y-76010000D02*
X64791000Y-77760000D01*
X64791000Y-79840000D02*
X64791000Y-81590000D01*
X64831000Y-76034000D02*
X64831000Y-77760000D01*
X64831000Y-79840000D02*
X64831000Y-81566000D01*
X64871000Y-76058000D02*
X64871000Y-77760000D01*
X64871000Y-79840000D02*
X64871000Y-81542000D01*
X64911000Y-76084000D02*
X64911000Y-77760000D01*
X64911000Y-79840000D02*
X64911000Y-81516000D01*
X64951000Y-76110000D02*
X64951000Y-77760000D01*
X64951000Y-79840000D02*
X64951000Y-81490000D01*
X64991000Y-76136000D02*
X64991000Y-77760000D01*
X64991000Y-79840000D02*
X64991000Y-81464000D01*
X65031000Y-76164000D02*
X65031000Y-77760000D01*
X65031000Y-79840000D02*
X65031000Y-81436000D01*
X65071000Y-76193000D02*
X65071000Y-77760000D01*
X65071000Y-79840000D02*
X65071000Y-81407000D01*
X65111000Y-76222000D02*
X65111000Y-77760000D01*
X65111000Y-79840000D02*
X65111000Y-81378000D01*
X65151000Y-76252000D02*
X65151000Y-77760000D01*
X65151000Y-79840000D02*
X65151000Y-81348000D01*
X65191000Y-76284000D02*
X65191000Y-77760000D01*
X65191000Y-79840000D02*
X65191000Y-81316000D01*
X65231000Y-76316000D02*
X65231000Y-77760000D01*
X65231000Y-79840000D02*
X65231000Y-81284000D01*
X65271000Y-76350000D02*
X65271000Y-77760000D01*
X65271000Y-79840000D02*
X65271000Y-81250000D01*
X65311000Y-76384000D02*
X65311000Y-77760000D01*
X65311000Y-79840000D02*
X65311000Y-81216000D01*
X65351000Y-76420000D02*
X65351000Y-77760000D01*
X65351000Y-79840000D02*
X65351000Y-81180000D01*
X65391000Y-76457000D02*
X65391000Y-77760000D01*
X65391000Y-79840000D02*
X65391000Y-81143000D01*
X65431000Y-76495000D02*
X65431000Y-77760000D01*
X65431000Y-79840000D02*
X65431000Y-81105000D01*
X65471000Y-76535000D02*
X65471000Y-81065000D01*
X65511000Y-76576000D02*
X65511000Y-81024000D01*
X65551000Y-76618000D02*
X65551000Y-80982000D01*
X65591000Y-76663000D02*
X65591000Y-80937000D01*
X65631000Y-76708000D02*
X65631000Y-80892000D01*
X65671000Y-76756000D02*
X65671000Y-80844000D01*
X65711000Y-76805000D02*
X65711000Y-80795000D01*
X65751000Y-76856000D02*
X65751000Y-80744000D01*
X65791000Y-76910000D02*
X65791000Y-80690000D01*
X65831000Y-76966000D02*
X65831000Y-80634000D01*
X65871000Y-77024000D02*
X65871000Y-80576000D01*
X65911000Y-77086000D02*
X65911000Y-80514000D01*
X65951000Y-77150000D02*
X65951000Y-80450000D01*
X65991000Y-77219000D02*
X65991000Y-80381000D01*
X66031000Y-77291000D02*
X66031000Y-80309000D01*
X66071000Y-77368000D02*
X66071000Y-80232000D01*
X66111000Y-77450000D02*
X66111000Y-80150000D01*
X66151000Y-77538000D02*
X66151000Y-80062000D01*
X66191000Y-77635000D02*
X66191000Y-79965000D01*
X66231000Y-77741000D02*
X66231000Y-79859000D01*
X66271000Y-77860000D02*
X66271000Y-79740000D01*
X66311000Y-77998000D02*
X66311000Y-79602000D01*
X66351000Y-78167000D02*
X66351000Y-79433000D01*
X66391000Y-78398000D02*
X66391000Y-79202000D01*
X59649759Y-76961000D02*
X60279759Y-76961000D01*
X59964759Y-76646000D02*
X59964759Y-77276000D01*
%TO.C,C6*%
X58270000Y-84100000D02*
G75*
G03*
X58270000Y-84100000I-3270000J0D01*
G01*
X51770000Y-84100000D02*
X58230000Y-84100000D01*
X51770000Y-84060000D02*
X58230000Y-84060000D01*
X51770000Y-84020000D02*
X58230000Y-84020000D01*
X51772000Y-83980000D02*
X58228000Y-83980000D01*
X51773000Y-83940000D02*
X58227000Y-83940000D01*
X51776000Y-83900000D02*
X58224000Y-83900000D01*
X51778000Y-83860000D02*
X53960000Y-83860000D01*
X56040000Y-83860000D02*
X58222000Y-83860000D01*
X51782000Y-83820000D02*
X53960000Y-83820000D01*
X56040000Y-83820000D02*
X58218000Y-83820000D01*
X51785000Y-83780000D02*
X53960000Y-83780000D01*
X56040000Y-83780000D02*
X58215000Y-83780000D01*
X51789000Y-83740000D02*
X53960000Y-83740000D01*
X56040000Y-83740000D02*
X58211000Y-83740000D01*
X51794000Y-83700000D02*
X53960000Y-83700000D01*
X56040000Y-83700000D02*
X58206000Y-83700000D01*
X51799000Y-83660000D02*
X53960000Y-83660000D01*
X56040000Y-83660000D02*
X58201000Y-83660000D01*
X51805000Y-83620000D02*
X53960000Y-83620000D01*
X56040000Y-83620000D02*
X58195000Y-83620000D01*
X51811000Y-83580000D02*
X53960000Y-83580000D01*
X56040000Y-83580000D02*
X58189000Y-83580000D01*
X51818000Y-83540000D02*
X53960000Y-83540000D01*
X56040000Y-83540000D02*
X58182000Y-83540000D01*
X51825000Y-83500000D02*
X53960000Y-83500000D01*
X56040000Y-83500000D02*
X58175000Y-83500000D01*
X51833000Y-83460000D02*
X53960000Y-83460000D01*
X56040000Y-83460000D02*
X58167000Y-83460000D01*
X51841000Y-83420000D02*
X53960000Y-83420000D01*
X56040000Y-83420000D02*
X58159000Y-83420000D01*
X51850000Y-83379000D02*
X53960000Y-83379000D01*
X56040000Y-83379000D02*
X58150000Y-83379000D01*
X51859000Y-83339000D02*
X53960000Y-83339000D01*
X56040000Y-83339000D02*
X58141000Y-83339000D01*
X51869000Y-83299000D02*
X53960000Y-83299000D01*
X56040000Y-83299000D02*
X58131000Y-83299000D01*
X51879000Y-83259000D02*
X53960000Y-83259000D01*
X56040000Y-83259000D02*
X58121000Y-83259000D01*
X51890000Y-83219000D02*
X53960000Y-83219000D01*
X56040000Y-83219000D02*
X58110000Y-83219000D01*
X51902000Y-83179000D02*
X53960000Y-83179000D01*
X56040000Y-83179000D02*
X58098000Y-83179000D01*
X51914000Y-83139000D02*
X53960000Y-83139000D01*
X56040000Y-83139000D02*
X58086000Y-83139000D01*
X51926000Y-83099000D02*
X53960000Y-83099000D01*
X56040000Y-83099000D02*
X58074000Y-83099000D01*
X51939000Y-83059000D02*
X53960000Y-83059000D01*
X56040000Y-83059000D02*
X58061000Y-83059000D01*
X51953000Y-83019000D02*
X53960000Y-83019000D01*
X56040000Y-83019000D02*
X58047000Y-83019000D01*
X51967000Y-82979000D02*
X53960000Y-82979000D01*
X56040000Y-82979000D02*
X58033000Y-82979000D01*
X51982000Y-82939000D02*
X53960000Y-82939000D01*
X56040000Y-82939000D02*
X58018000Y-82939000D01*
X51998000Y-82899000D02*
X53960000Y-82899000D01*
X56040000Y-82899000D02*
X58002000Y-82899000D01*
X52014000Y-82859000D02*
X53960000Y-82859000D01*
X56040000Y-82859000D02*
X57986000Y-82859000D01*
X52030000Y-82819000D02*
X53960000Y-82819000D01*
X56040000Y-82819000D02*
X57970000Y-82819000D01*
X52048000Y-82779000D02*
X53960000Y-82779000D01*
X56040000Y-82779000D02*
X57952000Y-82779000D01*
X52066000Y-82739000D02*
X53960000Y-82739000D01*
X56040000Y-82739000D02*
X57934000Y-82739000D01*
X52084000Y-82699000D02*
X53960000Y-82699000D01*
X56040000Y-82699000D02*
X57916000Y-82699000D01*
X52104000Y-82659000D02*
X53960000Y-82659000D01*
X56040000Y-82659000D02*
X57896000Y-82659000D01*
X52124000Y-82619000D02*
X53960000Y-82619000D01*
X56040000Y-82619000D02*
X57876000Y-82619000D01*
X52144000Y-82579000D02*
X53960000Y-82579000D01*
X56040000Y-82579000D02*
X57856000Y-82579000D01*
X52166000Y-82539000D02*
X53960000Y-82539000D01*
X56040000Y-82539000D02*
X57834000Y-82539000D01*
X52188000Y-82499000D02*
X53960000Y-82499000D01*
X56040000Y-82499000D02*
X57812000Y-82499000D01*
X52210000Y-82459000D02*
X53960000Y-82459000D01*
X56040000Y-82459000D02*
X57790000Y-82459000D01*
X52234000Y-82419000D02*
X53960000Y-82419000D01*
X56040000Y-82419000D02*
X57766000Y-82419000D01*
X52258000Y-82379000D02*
X53960000Y-82379000D01*
X56040000Y-82379000D02*
X57742000Y-82379000D01*
X52284000Y-82339000D02*
X53960000Y-82339000D01*
X56040000Y-82339000D02*
X57716000Y-82339000D01*
X52310000Y-82299000D02*
X53960000Y-82299000D01*
X56040000Y-82299000D02*
X57690000Y-82299000D01*
X52336000Y-82259000D02*
X53960000Y-82259000D01*
X56040000Y-82259000D02*
X57664000Y-82259000D01*
X52364000Y-82219000D02*
X53960000Y-82219000D01*
X56040000Y-82219000D02*
X57636000Y-82219000D01*
X52393000Y-82179000D02*
X53960000Y-82179000D01*
X56040000Y-82179000D02*
X57607000Y-82179000D01*
X52422000Y-82139000D02*
X53960000Y-82139000D01*
X56040000Y-82139000D02*
X57578000Y-82139000D01*
X52452000Y-82099000D02*
X53960000Y-82099000D01*
X56040000Y-82099000D02*
X57548000Y-82099000D01*
X52484000Y-82059000D02*
X53960000Y-82059000D01*
X56040000Y-82059000D02*
X57516000Y-82059000D01*
X52516000Y-82019000D02*
X53960000Y-82019000D01*
X56040000Y-82019000D02*
X57484000Y-82019000D01*
X52550000Y-81979000D02*
X53960000Y-81979000D01*
X56040000Y-81979000D02*
X57450000Y-81979000D01*
X52584000Y-81939000D02*
X53960000Y-81939000D01*
X56040000Y-81939000D02*
X57416000Y-81939000D01*
X52620000Y-81899000D02*
X53960000Y-81899000D01*
X56040000Y-81899000D02*
X57380000Y-81899000D01*
X52657000Y-81859000D02*
X53960000Y-81859000D01*
X56040000Y-81859000D02*
X57343000Y-81859000D01*
X52695000Y-81819000D02*
X53960000Y-81819000D01*
X56040000Y-81819000D02*
X57305000Y-81819000D01*
X52735000Y-81779000D02*
X57265000Y-81779000D01*
X52776000Y-81739000D02*
X57224000Y-81739000D01*
X52818000Y-81699000D02*
X57182000Y-81699000D01*
X52863000Y-81659000D02*
X57137000Y-81659000D01*
X52908000Y-81619000D02*
X57092000Y-81619000D01*
X52956000Y-81579000D02*
X57044000Y-81579000D01*
X53005000Y-81539000D02*
X56995000Y-81539000D01*
X53056000Y-81499000D02*
X56944000Y-81499000D01*
X53110000Y-81459000D02*
X56890000Y-81459000D01*
X53166000Y-81419000D02*
X56834000Y-81419000D01*
X53224000Y-81379000D02*
X56776000Y-81379000D01*
X53286000Y-81339000D02*
X56714000Y-81339000D01*
X53350000Y-81299000D02*
X56650000Y-81299000D01*
X53419000Y-81259000D02*
X56581000Y-81259000D01*
X53491000Y-81219000D02*
X56509000Y-81219000D01*
X53568000Y-81179000D02*
X56432000Y-81179000D01*
X53650000Y-81139000D02*
X56350000Y-81139000D01*
X53738000Y-81099000D02*
X56262000Y-81099000D01*
X53835000Y-81059000D02*
X56165000Y-81059000D01*
X53941000Y-81019000D02*
X56059000Y-81019000D01*
X54060000Y-80979000D02*
X55940000Y-80979000D01*
X54198000Y-80939000D02*
X55802000Y-80939000D01*
X54367000Y-80899000D02*
X55633000Y-80899000D01*
X54598000Y-80859000D02*
X55402000Y-80859000D01*
X53161000Y-87600241D02*
X53161000Y-86970241D01*
X52846000Y-87285241D02*
X53476000Y-87285241D01*
%TO.C,C5*%
X59520000Y-77050000D02*
G75*
G03*
X59520000Y-77050000I-3270000J0D01*
G01*
X59480000Y-77050000D02*
X53020000Y-77050000D01*
X59480000Y-77090000D02*
X53020000Y-77090000D01*
X59480000Y-77130000D02*
X53020000Y-77130000D01*
X59478000Y-77170000D02*
X53022000Y-77170000D01*
X59477000Y-77210000D02*
X53023000Y-77210000D01*
X59474000Y-77250000D02*
X53026000Y-77250000D01*
X59472000Y-77290000D02*
X57290000Y-77290000D01*
X55210000Y-77290000D02*
X53028000Y-77290000D01*
X59468000Y-77330000D02*
X57290000Y-77330000D01*
X55210000Y-77330000D02*
X53032000Y-77330000D01*
X59465000Y-77370000D02*
X57290000Y-77370000D01*
X55210000Y-77370000D02*
X53035000Y-77370000D01*
X59461000Y-77410000D02*
X57290000Y-77410000D01*
X55210000Y-77410000D02*
X53039000Y-77410000D01*
X59456000Y-77450000D02*
X57290000Y-77450000D01*
X55210000Y-77450000D02*
X53044000Y-77450000D01*
X59451000Y-77490000D02*
X57290000Y-77490000D01*
X55210000Y-77490000D02*
X53049000Y-77490000D01*
X59445000Y-77530000D02*
X57290000Y-77530000D01*
X55210000Y-77530000D02*
X53055000Y-77530000D01*
X59439000Y-77570000D02*
X57290000Y-77570000D01*
X55210000Y-77570000D02*
X53061000Y-77570000D01*
X59432000Y-77610000D02*
X57290000Y-77610000D01*
X55210000Y-77610000D02*
X53068000Y-77610000D01*
X59425000Y-77650000D02*
X57290000Y-77650000D01*
X55210000Y-77650000D02*
X53075000Y-77650000D01*
X59417000Y-77690000D02*
X57290000Y-77690000D01*
X55210000Y-77690000D02*
X53083000Y-77690000D01*
X59409000Y-77730000D02*
X57290000Y-77730000D01*
X55210000Y-77730000D02*
X53091000Y-77730000D01*
X59400000Y-77771000D02*
X57290000Y-77771000D01*
X55210000Y-77771000D02*
X53100000Y-77771000D01*
X59391000Y-77811000D02*
X57290000Y-77811000D01*
X55210000Y-77811000D02*
X53109000Y-77811000D01*
X59381000Y-77851000D02*
X57290000Y-77851000D01*
X55210000Y-77851000D02*
X53119000Y-77851000D01*
X59371000Y-77891000D02*
X57290000Y-77891000D01*
X55210000Y-77891000D02*
X53129000Y-77891000D01*
X59360000Y-77931000D02*
X57290000Y-77931000D01*
X55210000Y-77931000D02*
X53140000Y-77931000D01*
X59348000Y-77971000D02*
X57290000Y-77971000D01*
X55210000Y-77971000D02*
X53152000Y-77971000D01*
X59336000Y-78011000D02*
X57290000Y-78011000D01*
X55210000Y-78011000D02*
X53164000Y-78011000D01*
X59324000Y-78051000D02*
X57290000Y-78051000D01*
X55210000Y-78051000D02*
X53176000Y-78051000D01*
X59311000Y-78091000D02*
X57290000Y-78091000D01*
X55210000Y-78091000D02*
X53189000Y-78091000D01*
X59297000Y-78131000D02*
X57290000Y-78131000D01*
X55210000Y-78131000D02*
X53203000Y-78131000D01*
X59283000Y-78171000D02*
X57290000Y-78171000D01*
X55210000Y-78171000D02*
X53217000Y-78171000D01*
X59268000Y-78211000D02*
X57290000Y-78211000D01*
X55210000Y-78211000D02*
X53232000Y-78211000D01*
X59252000Y-78251000D02*
X57290000Y-78251000D01*
X55210000Y-78251000D02*
X53248000Y-78251000D01*
X59236000Y-78291000D02*
X57290000Y-78291000D01*
X55210000Y-78291000D02*
X53264000Y-78291000D01*
X59220000Y-78331000D02*
X57290000Y-78331000D01*
X55210000Y-78331000D02*
X53280000Y-78331000D01*
X59202000Y-78371000D02*
X57290000Y-78371000D01*
X55210000Y-78371000D02*
X53298000Y-78371000D01*
X59184000Y-78411000D02*
X57290000Y-78411000D01*
X55210000Y-78411000D02*
X53316000Y-78411000D01*
X59166000Y-78451000D02*
X57290000Y-78451000D01*
X55210000Y-78451000D02*
X53334000Y-78451000D01*
X59146000Y-78491000D02*
X57290000Y-78491000D01*
X55210000Y-78491000D02*
X53354000Y-78491000D01*
X59126000Y-78531000D02*
X57290000Y-78531000D01*
X55210000Y-78531000D02*
X53374000Y-78531000D01*
X59106000Y-78571000D02*
X57290000Y-78571000D01*
X55210000Y-78571000D02*
X53394000Y-78571000D01*
X59084000Y-78611000D02*
X57290000Y-78611000D01*
X55210000Y-78611000D02*
X53416000Y-78611000D01*
X59062000Y-78651000D02*
X57290000Y-78651000D01*
X55210000Y-78651000D02*
X53438000Y-78651000D01*
X59040000Y-78691000D02*
X57290000Y-78691000D01*
X55210000Y-78691000D02*
X53460000Y-78691000D01*
X59016000Y-78731000D02*
X57290000Y-78731000D01*
X55210000Y-78731000D02*
X53484000Y-78731000D01*
X58992000Y-78771000D02*
X57290000Y-78771000D01*
X55210000Y-78771000D02*
X53508000Y-78771000D01*
X58966000Y-78811000D02*
X57290000Y-78811000D01*
X55210000Y-78811000D02*
X53534000Y-78811000D01*
X58940000Y-78851000D02*
X57290000Y-78851000D01*
X55210000Y-78851000D02*
X53560000Y-78851000D01*
X58914000Y-78891000D02*
X57290000Y-78891000D01*
X55210000Y-78891000D02*
X53586000Y-78891000D01*
X58886000Y-78931000D02*
X57290000Y-78931000D01*
X55210000Y-78931000D02*
X53614000Y-78931000D01*
X58857000Y-78971000D02*
X57290000Y-78971000D01*
X55210000Y-78971000D02*
X53643000Y-78971000D01*
X58828000Y-79011000D02*
X57290000Y-79011000D01*
X55210000Y-79011000D02*
X53672000Y-79011000D01*
X58798000Y-79051000D02*
X57290000Y-79051000D01*
X55210000Y-79051000D02*
X53702000Y-79051000D01*
X58766000Y-79091000D02*
X57290000Y-79091000D01*
X55210000Y-79091000D02*
X53734000Y-79091000D01*
X58734000Y-79131000D02*
X57290000Y-79131000D01*
X55210000Y-79131000D02*
X53766000Y-79131000D01*
X58700000Y-79171000D02*
X57290000Y-79171000D01*
X55210000Y-79171000D02*
X53800000Y-79171000D01*
X58666000Y-79211000D02*
X57290000Y-79211000D01*
X55210000Y-79211000D02*
X53834000Y-79211000D01*
X58630000Y-79251000D02*
X57290000Y-79251000D01*
X55210000Y-79251000D02*
X53870000Y-79251000D01*
X58593000Y-79291000D02*
X57290000Y-79291000D01*
X55210000Y-79291000D02*
X53907000Y-79291000D01*
X58555000Y-79331000D02*
X57290000Y-79331000D01*
X55210000Y-79331000D02*
X53945000Y-79331000D01*
X58515000Y-79371000D02*
X53985000Y-79371000D01*
X58474000Y-79411000D02*
X54026000Y-79411000D01*
X58432000Y-79451000D02*
X54068000Y-79451000D01*
X58387000Y-79491000D02*
X54113000Y-79491000D01*
X58342000Y-79531000D02*
X54158000Y-79531000D01*
X58294000Y-79571000D02*
X54206000Y-79571000D01*
X58245000Y-79611000D02*
X54255000Y-79611000D01*
X58194000Y-79651000D02*
X54306000Y-79651000D01*
X58140000Y-79691000D02*
X54360000Y-79691000D01*
X58084000Y-79731000D02*
X54416000Y-79731000D01*
X58026000Y-79771000D02*
X54474000Y-79771000D01*
X57964000Y-79811000D02*
X54536000Y-79811000D01*
X57900000Y-79851000D02*
X54600000Y-79851000D01*
X57831000Y-79891000D02*
X54669000Y-79891000D01*
X57759000Y-79931000D02*
X54741000Y-79931000D01*
X57682000Y-79971000D02*
X54818000Y-79971000D01*
X57600000Y-80011000D02*
X54900000Y-80011000D01*
X57512000Y-80051000D02*
X54988000Y-80051000D01*
X57415000Y-80091000D02*
X55085000Y-80091000D01*
X57309000Y-80131000D02*
X55191000Y-80131000D01*
X57190000Y-80171000D02*
X55310000Y-80171000D01*
X57052000Y-80211000D02*
X55448000Y-80211000D01*
X56883000Y-80251000D02*
X55617000Y-80251000D01*
X56652000Y-80291000D02*
X55848000Y-80291000D01*
X58089000Y-73549759D02*
X58089000Y-74179759D01*
X58404000Y-73864759D02*
X57774000Y-73864759D01*
%TO.C,C4*%
X121226248Y-94590000D02*
X122648752Y-94590000D01*
X121226248Y-96410000D02*
X122648752Y-96410000D01*
%TO.C,C3*%
X107411252Y-96460000D02*
X105988748Y-96460000D01*
X107411252Y-94640000D02*
X105988748Y-94640000D01*
%TO.C,C2*%
X111148752Y-83910000D02*
X109726248Y-83910000D01*
X111148752Y-82090000D02*
X109726248Y-82090000D01*
%TO.C,C1*%
X111023752Y-80410000D02*
X109601248Y-80410000D01*
X111023752Y-78590000D02*
X109601248Y-78590000D01*
%TO.C,A1*%
D10*
X81505714Y-45836666D02*
X81981904Y-45836666D01*
X81410476Y-46122380D02*
X81743809Y-45122380D01*
X82077142Y-46122380D01*
X82934285Y-46122380D02*
X82362857Y-46122380D01*
X82648571Y-46122380D02*
X82648571Y-45122380D01*
X82553333Y-45265238D01*
X82458095Y-45360476D01*
X82362857Y-45408095D01*
%TO.C,J1*%
X74802380Y-124133333D02*
X75516666Y-124133333D01*
X75659523Y-124180952D01*
X75754761Y-124276190D01*
X75802380Y-124419047D01*
X75802380Y-124514285D01*
X75802380Y-123133333D02*
X75802380Y-123704761D01*
X75802380Y-123419047D02*
X74802380Y-123419047D01*
X74945238Y-123514285D01*
X75040476Y-123609523D01*
X75088095Y-123704761D01*
%TO.C,K2*%
X59071904Y-105152380D02*
X59071904Y-104152380D01*
X59643333Y-105152380D02*
X59214761Y-104580952D01*
X59643333Y-104152380D02*
X59071904Y-104723809D01*
X60024285Y-104247619D02*
X60071904Y-104200000D01*
X60167142Y-104152380D01*
X60405238Y-104152380D01*
X60500476Y-104200000D01*
X60548095Y-104247619D01*
X60595714Y-104342857D01*
X60595714Y-104438095D01*
X60548095Y-104580952D01*
X59976666Y-105152380D01*
X60595714Y-105152380D01*
%TO.C,K1*%
X66422380Y-97648095D02*
X65422380Y-97648095D01*
X66422380Y-97076666D02*
X65850952Y-97505238D01*
X65422380Y-97076666D02*
X65993809Y-97648095D01*
X66422380Y-96124285D02*
X66422380Y-96695714D01*
X66422380Y-96410000D02*
X65422380Y-96410000D01*
X65565238Y-96505238D01*
X65660476Y-96600476D01*
X65708095Y-96695714D01*
%TO.C,U4*%
X83852380Y-99781904D02*
X84661904Y-99781904D01*
X84757142Y-99734285D01*
X84804761Y-99686666D01*
X84852380Y-99591428D01*
X84852380Y-99400952D01*
X84804761Y-99305714D01*
X84757142Y-99258095D01*
X84661904Y-99210476D01*
X83852380Y-99210476D01*
X84185714Y-98305714D02*
X84852380Y-98305714D01*
X83804761Y-98543809D02*
X84519047Y-98781904D01*
X84519047Y-98162857D01*
%TO.C,U3*%
X90421595Y-99783380D02*
X90421595Y-100592904D01*
X90469214Y-100688142D01*
X90516833Y-100735761D01*
X90612071Y-100783380D01*
X90802547Y-100783380D01*
X90897785Y-100735761D01*
X90945404Y-100688142D01*
X90993023Y-100592904D01*
X90993023Y-99783380D01*
X91373976Y-99783380D02*
X91993023Y-99783380D01*
X91659690Y-100164333D01*
X91802547Y-100164333D01*
X91897785Y-100211952D01*
X91945404Y-100259571D01*
X91993023Y-100354809D01*
X91993023Y-100592904D01*
X91945404Y-100688142D01*
X91897785Y-100735761D01*
X91802547Y-100783380D01*
X91516833Y-100783380D01*
X91421595Y-100735761D01*
X91373976Y-100688142D01*
%TO.C,U2*%
X59450380Y-50226904D02*
X60259904Y-50226904D01*
X60355142Y-50179285D01*
X60402761Y-50131666D01*
X60450380Y-50036428D01*
X60450380Y-49845952D01*
X60402761Y-49750714D01*
X60355142Y-49703095D01*
X60259904Y-49655476D01*
X59450380Y-49655476D01*
X59545619Y-49226904D02*
X59498000Y-49179285D01*
X59450380Y-49084047D01*
X59450380Y-48845952D01*
X59498000Y-48750714D01*
X59545619Y-48703095D01*
X59640857Y-48655476D01*
X59736095Y-48655476D01*
X59878952Y-48703095D01*
X60450380Y-49274523D01*
X60450380Y-48655476D01*
%TO.C,U1*%
X109514095Y-89598380D02*
X109514095Y-90407904D01*
X109561714Y-90503142D01*
X109609333Y-90550761D01*
X109704571Y-90598380D01*
X109895047Y-90598380D01*
X109990285Y-90550761D01*
X110037904Y-90503142D01*
X110085523Y-90407904D01*
X110085523Y-89598380D01*
X111085523Y-90598380D02*
X110514095Y-90598380D01*
X110799809Y-90598380D02*
X110799809Y-89598380D01*
X110704571Y-89741238D01*
X110609333Y-89836476D01*
X110514095Y-89884095D01*
%TO.C,R27*%
X107428380Y-91294857D02*
X106952190Y-91628190D01*
X107428380Y-91866285D02*
X106428380Y-91866285D01*
X106428380Y-91485333D01*
X106476000Y-91390095D01*
X106523619Y-91342476D01*
X106618857Y-91294857D01*
X106761714Y-91294857D01*
X106856952Y-91342476D01*
X106904571Y-91390095D01*
X106952190Y-91485333D01*
X106952190Y-91866285D01*
X106523619Y-90913904D02*
X106476000Y-90866285D01*
X106428380Y-90771047D01*
X106428380Y-90532952D01*
X106476000Y-90437714D01*
X106523619Y-90390095D01*
X106618857Y-90342476D01*
X106714095Y-90342476D01*
X106856952Y-90390095D01*
X107428380Y-90961523D01*
X107428380Y-90342476D01*
X106428380Y-90009142D02*
X106428380Y-89342476D01*
X107428380Y-89771047D01*
%TO.C,R16*%
X105687142Y-56116380D02*
X105353809Y-55640190D01*
X105115714Y-56116380D02*
X105115714Y-55116380D01*
X105496666Y-55116380D01*
X105591904Y-55164000D01*
X105639523Y-55211619D01*
X105687142Y-55306857D01*
X105687142Y-55449714D01*
X105639523Y-55544952D01*
X105591904Y-55592571D01*
X105496666Y-55640190D01*
X105115714Y-55640190D01*
X106639523Y-56116380D02*
X106068095Y-56116380D01*
X106353809Y-56116380D02*
X106353809Y-55116380D01*
X106258571Y-55259238D01*
X106163333Y-55354476D01*
X106068095Y-55402095D01*
X107496666Y-55116380D02*
X107306190Y-55116380D01*
X107210952Y-55164000D01*
X107163333Y-55211619D01*
X107068095Y-55354476D01*
X107020476Y-55544952D01*
X107020476Y-55925904D01*
X107068095Y-56021142D01*
X107115714Y-56068761D01*
X107210952Y-56116380D01*
X107401428Y-56116380D01*
X107496666Y-56068761D01*
X107544285Y-56021142D01*
X107591904Y-55925904D01*
X107591904Y-55687809D01*
X107544285Y-55592571D01*
X107496666Y-55544952D01*
X107401428Y-55497333D01*
X107210952Y-55497333D01*
X107115714Y-55544952D01*
X107068095Y-55592571D01*
X107020476Y-55687809D01*
%TO.C,R15*%
X105687142Y-55270380D02*
X105353809Y-54794190D01*
X105115714Y-55270380D02*
X105115714Y-54270380D01*
X105496666Y-54270380D01*
X105591904Y-54318000D01*
X105639523Y-54365619D01*
X105687142Y-54460857D01*
X105687142Y-54603714D01*
X105639523Y-54698952D01*
X105591904Y-54746571D01*
X105496666Y-54794190D01*
X105115714Y-54794190D01*
X106639523Y-55270380D02*
X106068095Y-55270380D01*
X106353809Y-55270380D02*
X106353809Y-54270380D01*
X106258571Y-54413238D01*
X106163333Y-54508476D01*
X106068095Y-54556095D01*
X107544285Y-54270380D02*
X107068095Y-54270380D01*
X107020476Y-54746571D01*
X107068095Y-54698952D01*
X107163333Y-54651333D01*
X107401428Y-54651333D01*
X107496666Y-54698952D01*
X107544285Y-54746571D01*
X107591904Y-54841809D01*
X107591904Y-55079904D01*
X107544285Y-55175142D01*
X107496666Y-55222761D01*
X107401428Y-55270380D01*
X107163333Y-55270380D01*
X107068095Y-55222761D01*
X107020476Y-55175142D01*
%TO.C,R2*%
X97632380Y-84266666D02*
X97156190Y-84600000D01*
X97632380Y-84838095D02*
X96632380Y-84838095D01*
X96632380Y-84457142D01*
X96680000Y-84361904D01*
X96727619Y-84314285D01*
X96822857Y-84266666D01*
X96965714Y-84266666D01*
X97060952Y-84314285D01*
X97108571Y-84361904D01*
X97156190Y-84457142D01*
X97156190Y-84838095D01*
X96727619Y-83885714D02*
X96680000Y-83838095D01*
X96632380Y-83742857D01*
X96632380Y-83504761D01*
X96680000Y-83409523D01*
X96727619Y-83361904D01*
X96822857Y-83314285D01*
X96918095Y-83314285D01*
X97060952Y-83361904D01*
X97632380Y-83933333D01*
X97632380Y-83314285D01*
%TO.C,R1*%
X105772380Y-84240666D02*
X105296190Y-84574000D01*
X105772380Y-84812095D02*
X104772380Y-84812095D01*
X104772380Y-84431142D01*
X104820000Y-84335904D01*
X104867619Y-84288285D01*
X104962857Y-84240666D01*
X105105714Y-84240666D01*
X105200952Y-84288285D01*
X105248571Y-84335904D01*
X105296190Y-84431142D01*
X105296190Y-84812095D01*
X105772380Y-83288285D02*
X105772380Y-83859714D01*
X105772380Y-83574000D02*
X104772380Y-83574000D01*
X104915238Y-83669238D01*
X105010476Y-83764476D01*
X105058095Y-83859714D01*
%TO.C,Q2*%
X73634761Y-106907619D02*
X73539523Y-106860000D01*
X73444285Y-106764761D01*
X73301428Y-106621904D01*
X73206190Y-106574285D01*
X73110952Y-106574285D01*
X73158571Y-106812380D02*
X73063333Y-106764761D01*
X72968095Y-106669523D01*
X72920476Y-106479047D01*
X72920476Y-106145714D01*
X72968095Y-105955238D01*
X73063333Y-105860000D01*
X73158571Y-105812380D01*
X73349047Y-105812380D01*
X73444285Y-105860000D01*
X73539523Y-105955238D01*
X73587142Y-106145714D01*
X73587142Y-106479047D01*
X73539523Y-106669523D01*
X73444285Y-106764761D01*
X73349047Y-106812380D01*
X73158571Y-106812380D01*
X73968095Y-105907619D02*
X74015714Y-105860000D01*
X74110952Y-105812380D01*
X74349047Y-105812380D01*
X74444285Y-105860000D01*
X74491904Y-105907619D01*
X74539523Y-106002857D01*
X74539523Y-106098095D01*
X74491904Y-106240952D01*
X73920476Y-106812380D01*
X74539523Y-106812380D01*
%TO.C,Q1*%
X77384761Y-118107619D02*
X77289523Y-118060000D01*
X77194285Y-117964761D01*
X77051428Y-117821904D01*
X76956190Y-117774285D01*
X76860952Y-117774285D01*
X76908571Y-118012380D02*
X76813333Y-117964761D01*
X76718095Y-117869523D01*
X76670476Y-117679047D01*
X76670476Y-117345714D01*
X76718095Y-117155238D01*
X76813333Y-117060000D01*
X76908571Y-117012380D01*
X77099047Y-117012380D01*
X77194285Y-117060000D01*
X77289523Y-117155238D01*
X77337142Y-117345714D01*
X77337142Y-117679047D01*
X77289523Y-117869523D01*
X77194285Y-117964761D01*
X77099047Y-118012380D01*
X76908571Y-118012380D01*
X78289523Y-118012380D02*
X77718095Y-118012380D01*
X78003809Y-118012380D02*
X78003809Y-117012380D01*
X77908571Y-117155238D01*
X77813333Y-117250476D01*
X77718095Y-117298095D01*
%TO.C,L1*%
X120333333Y-84002380D02*
X119857142Y-84002380D01*
X119857142Y-83002380D01*
X121190476Y-84002380D02*
X120619047Y-84002380D01*
X120904761Y-84002380D02*
X120904761Y-83002380D01*
X120809523Y-83145238D01*
X120714285Y-83240476D01*
X120619047Y-83288095D01*
%TO.C,J5*%
X58952380Y-64833333D02*
X59666666Y-64833333D01*
X59809523Y-64880952D01*
X59904761Y-64976190D01*
X59952380Y-65119047D01*
X59952380Y-65214285D01*
X58952380Y-63880952D02*
X58952380Y-64357142D01*
X59428571Y-64404761D01*
X59380952Y-64357142D01*
X59333333Y-64261904D01*
X59333333Y-64023809D01*
X59380952Y-63928571D01*
X59428571Y-63880952D01*
X59523809Y-63833333D01*
X59761904Y-63833333D01*
X59857142Y-63880952D01*
X59904761Y-63928571D01*
X59952380Y-64023809D01*
X59952380Y-64261904D01*
X59904761Y-64357142D01*
X59857142Y-64404761D01*
%TO.C,J4*%
X123596666Y-54832380D02*
X123596666Y-55546666D01*
X123549047Y-55689523D01*
X123453809Y-55784761D01*
X123310952Y-55832380D01*
X123215714Y-55832380D01*
X124501428Y-55165714D02*
X124501428Y-55832380D01*
X124263333Y-54784761D02*
X124025238Y-55499047D01*
X124644285Y-55499047D01*
%TO.C,J3*%
X101940380Y-47513333D02*
X102654666Y-47513333D01*
X102797523Y-47560952D01*
X102892761Y-47656190D01*
X102940380Y-47799047D01*
X102940380Y-47894285D01*
X101940380Y-47132380D02*
X101940380Y-46513333D01*
X102321333Y-46846666D01*
X102321333Y-46703809D01*
X102368952Y-46608571D01*
X102416571Y-46560952D01*
X102511809Y-46513333D01*
X102749904Y-46513333D01*
X102845142Y-46560952D01*
X102892761Y-46608571D01*
X102940380Y-46703809D01*
X102940380Y-46989523D01*
X102892761Y-47084761D01*
X102845142Y-47132380D01*
%TO.C,J2*%
X57358380Y-44001333D02*
X58072666Y-44001333D01*
X58215523Y-44048952D01*
X58310761Y-44144190D01*
X58358380Y-44287047D01*
X58358380Y-44382285D01*
X57453619Y-43572761D02*
X57406000Y-43525142D01*
X57358380Y-43429904D01*
X57358380Y-43191809D01*
X57406000Y-43096571D01*
X57453619Y-43048952D01*
X57548857Y-43001333D01*
X57644095Y-43001333D01*
X57786952Y-43048952D01*
X58358380Y-43620380D01*
X58358380Y-43001333D01*
%TO.C,F1*%
X119954166Y-72778571D02*
X119620833Y-72778571D01*
X119620833Y-73302380D02*
X119620833Y-72302380D01*
X120097023Y-72302380D01*
X121001785Y-73302380D02*
X120430357Y-73302380D01*
X120716071Y-73302380D02*
X120716071Y-72302380D01*
X120620833Y-72445238D01*
X120525595Y-72540476D01*
X120430357Y-72588095D01*
%TO.C,D8*%
X106621904Y-44176380D02*
X106621904Y-43176380D01*
X106860000Y-43176380D01*
X107002857Y-43224000D01*
X107098095Y-43319238D01*
X107145714Y-43414476D01*
X107193333Y-43604952D01*
X107193333Y-43747809D01*
X107145714Y-43938285D01*
X107098095Y-44033523D01*
X107002857Y-44128761D01*
X106860000Y-44176380D01*
X106621904Y-44176380D01*
X107764761Y-43604952D02*
X107669523Y-43557333D01*
X107621904Y-43509714D01*
X107574285Y-43414476D01*
X107574285Y-43366857D01*
X107621904Y-43271619D01*
X107669523Y-43224000D01*
X107764761Y-43176380D01*
X107955238Y-43176380D01*
X108050476Y-43224000D01*
X108098095Y-43271619D01*
X108145714Y-43366857D01*
X108145714Y-43414476D01*
X108098095Y-43509714D01*
X108050476Y-43557333D01*
X107955238Y-43604952D01*
X107764761Y-43604952D01*
X107669523Y-43652571D01*
X107621904Y-43700190D01*
X107574285Y-43795428D01*
X107574285Y-43985904D01*
X107621904Y-44081142D01*
X107669523Y-44128761D01*
X107764761Y-44176380D01*
X107955238Y-44176380D01*
X108050476Y-44128761D01*
X108098095Y-44081142D01*
X108145714Y-43985904D01*
X108145714Y-43795428D01*
X108098095Y-43700190D01*
X108050476Y-43652571D01*
X107955238Y-43604952D01*
%TO.C,D7*%
X106541904Y-47986380D02*
X106541904Y-46986380D01*
X106780000Y-46986380D01*
X106922857Y-47034000D01*
X107018095Y-47129238D01*
X107065714Y-47224476D01*
X107113333Y-47414952D01*
X107113333Y-47557809D01*
X107065714Y-47748285D01*
X107018095Y-47843523D01*
X106922857Y-47938761D01*
X106780000Y-47986380D01*
X106541904Y-47986380D01*
X107446666Y-46986380D02*
X108113333Y-46986380D01*
X107684761Y-47986380D01*
%TO.C,C8*%
X57957142Y-86616666D02*
X58004761Y-86664285D01*
X58052380Y-86807142D01*
X58052380Y-86902380D01*
X58004761Y-87045238D01*
X57909523Y-87140476D01*
X57814285Y-87188095D01*
X57623809Y-87235714D01*
X57480952Y-87235714D01*
X57290476Y-87188095D01*
X57195238Y-87140476D01*
X57100000Y-87045238D01*
X57052380Y-86902380D01*
X57052380Y-86807142D01*
X57100000Y-86664285D01*
X57147619Y-86616666D01*
X57480952Y-86045238D02*
X57433333Y-86140476D01*
X57385714Y-86188095D01*
X57290476Y-86235714D01*
X57242857Y-86235714D01*
X57147619Y-86188095D01*
X57100000Y-86140476D01*
X57052380Y-86045238D01*
X57052380Y-85854761D01*
X57100000Y-85759523D01*
X57147619Y-85711904D01*
X57242857Y-85664285D01*
X57290476Y-85664285D01*
X57385714Y-85711904D01*
X57433333Y-85759523D01*
X57480952Y-85854761D01*
X57480952Y-86045238D01*
X57528571Y-86140476D01*
X57576190Y-86188095D01*
X57671428Y-86235714D01*
X57861904Y-86235714D01*
X57957142Y-86188095D01*
X58004761Y-86140476D01*
X58052380Y-86045238D01*
X58052380Y-85854761D01*
X58004761Y-85759523D01*
X57957142Y-85711904D01*
X57861904Y-85664285D01*
X57671428Y-85664285D01*
X57576190Y-85711904D01*
X57528571Y-85759523D01*
X57480952Y-85854761D01*
%TO.C,C7*%
X62983333Y-74757142D02*
X62935714Y-74804761D01*
X62792857Y-74852380D01*
X62697619Y-74852380D01*
X62554761Y-74804761D01*
X62459523Y-74709523D01*
X62411904Y-74614285D01*
X62364285Y-74423809D01*
X62364285Y-74280952D01*
X62411904Y-74090476D01*
X62459523Y-73995238D01*
X62554761Y-73900000D01*
X62697619Y-73852380D01*
X62792857Y-73852380D01*
X62935714Y-73900000D01*
X62983333Y-73947619D01*
X63316666Y-73852380D02*
X63983333Y-73852380D01*
X63554761Y-74852380D01*
%TO.C,C6*%
X50957142Y-84266666D02*
X51004761Y-84314285D01*
X51052380Y-84457142D01*
X51052380Y-84552380D01*
X51004761Y-84695238D01*
X50909523Y-84790476D01*
X50814285Y-84838095D01*
X50623809Y-84885714D01*
X50480952Y-84885714D01*
X50290476Y-84838095D01*
X50195238Y-84790476D01*
X50100000Y-84695238D01*
X50052380Y-84552380D01*
X50052380Y-84457142D01*
X50100000Y-84314285D01*
X50147619Y-84266666D01*
X50052380Y-83409523D02*
X50052380Y-83600000D01*
X50100000Y-83695238D01*
X50147619Y-83742857D01*
X50290476Y-83838095D01*
X50480952Y-83885714D01*
X50861904Y-83885714D01*
X50957142Y-83838095D01*
X51004761Y-83790476D01*
X51052380Y-83695238D01*
X51052380Y-83504761D01*
X51004761Y-83409523D01*
X50957142Y-83361904D01*
X50861904Y-83314285D01*
X50623809Y-83314285D01*
X50528571Y-83361904D01*
X50480952Y-83409523D01*
X50433333Y-83504761D01*
X50433333Y-83695238D01*
X50480952Y-83790476D01*
X50528571Y-83838095D01*
X50623809Y-83885714D01*
%TO.C,C5*%
X61007142Y-77216666D02*
X61054761Y-77264285D01*
X61102380Y-77407142D01*
X61102380Y-77502380D01*
X61054761Y-77645238D01*
X60959523Y-77740476D01*
X60864285Y-77788095D01*
X60673809Y-77835714D01*
X60530952Y-77835714D01*
X60340476Y-77788095D01*
X60245238Y-77740476D01*
X60150000Y-77645238D01*
X60102380Y-77502380D01*
X60102380Y-77407142D01*
X60150000Y-77264285D01*
X60197619Y-77216666D01*
X60102380Y-76311904D02*
X60102380Y-76788095D01*
X60578571Y-76835714D01*
X60530952Y-76788095D01*
X60483333Y-76692857D01*
X60483333Y-76454761D01*
X60530952Y-76359523D01*
X60578571Y-76311904D01*
X60673809Y-76264285D01*
X60911904Y-76264285D01*
X61007142Y-76311904D01*
X61054761Y-76359523D01*
X61102380Y-76454761D01*
X61102380Y-76692857D01*
X61054761Y-76788095D01*
X61007142Y-76835714D01*
%TO.C,C4*%
X121770833Y-94007142D02*
X121723214Y-94054761D01*
X121580357Y-94102380D01*
X121485119Y-94102380D01*
X121342261Y-94054761D01*
X121247023Y-93959523D01*
X121199404Y-93864285D01*
X121151785Y-93673809D01*
X121151785Y-93530952D01*
X121199404Y-93340476D01*
X121247023Y-93245238D01*
X121342261Y-93150000D01*
X121485119Y-93102380D01*
X121580357Y-93102380D01*
X121723214Y-93150000D01*
X121770833Y-93197619D01*
X122627976Y-93435714D02*
X122627976Y-94102380D01*
X122389880Y-93054761D02*
X122151785Y-93769047D01*
X122770833Y-93769047D01*
%TO.C,C3*%
X106533333Y-97757142D02*
X106485714Y-97804761D01*
X106342857Y-97852380D01*
X106247619Y-97852380D01*
X106104761Y-97804761D01*
X106009523Y-97709523D01*
X105961904Y-97614285D01*
X105914285Y-97423809D01*
X105914285Y-97280952D01*
X105961904Y-97090476D01*
X106009523Y-96995238D01*
X106104761Y-96900000D01*
X106247619Y-96852380D01*
X106342857Y-96852380D01*
X106485714Y-96900000D01*
X106533333Y-96947619D01*
X106866666Y-96852380D02*
X107485714Y-96852380D01*
X107152380Y-97233333D01*
X107295238Y-97233333D01*
X107390476Y-97280952D01*
X107438095Y-97328571D01*
X107485714Y-97423809D01*
X107485714Y-97661904D01*
X107438095Y-97757142D01*
X107390476Y-97804761D01*
X107295238Y-97852380D01*
X107009523Y-97852380D01*
X106914285Y-97804761D01*
X106866666Y-97757142D01*
%TO.C,C2*%
X110270833Y-85207142D02*
X110223214Y-85254761D01*
X110080357Y-85302380D01*
X109985119Y-85302380D01*
X109842261Y-85254761D01*
X109747023Y-85159523D01*
X109699404Y-85064285D01*
X109651785Y-84873809D01*
X109651785Y-84730952D01*
X109699404Y-84540476D01*
X109747023Y-84445238D01*
X109842261Y-84350000D01*
X109985119Y-84302380D01*
X110080357Y-84302380D01*
X110223214Y-84350000D01*
X110270833Y-84397619D01*
X110651785Y-84397619D02*
X110699404Y-84350000D01*
X110794642Y-84302380D01*
X111032738Y-84302380D01*
X111127976Y-84350000D01*
X111175595Y-84397619D01*
X111223214Y-84492857D01*
X111223214Y-84588095D01*
X111175595Y-84730952D01*
X110604166Y-85302380D01*
X111223214Y-85302380D01*
%TO.C,C1*%
X110145833Y-81707142D02*
X110098214Y-81754761D01*
X109955357Y-81802380D01*
X109860119Y-81802380D01*
X109717261Y-81754761D01*
X109622023Y-81659523D01*
X109574404Y-81564285D01*
X109526785Y-81373809D01*
X109526785Y-81230952D01*
X109574404Y-81040476D01*
X109622023Y-80945238D01*
X109717261Y-80850000D01*
X109860119Y-80802380D01*
X109955357Y-80802380D01*
X110098214Y-80850000D01*
X110145833Y-80897619D01*
X111098214Y-81802380D02*
X110526785Y-81802380D01*
X110812500Y-81802380D02*
X110812500Y-80802380D01*
X110717261Y-80945238D01*
X110622023Y-81040476D01*
X110526785Y-81088095D01*
%TD*%
M02*
