%TF.GenerationSoftware,KiCad,Pcbnew,5.1.10-88a1d61d58~88~ubuntu18.04.1*%
%TF.CreationDate,2021-05-23T19:09:43+03:00*%
%TF.ProjectId,Micra Cruise Control Schemantics,4d696372-6120-4437-9275-69736520436f,rev?*%
%TF.SameCoordinates,Original*%
%TF.FileFunction,Legend,Bot*%
%TF.FilePolarity,Positive*%
%FSLAX46Y46*%
G04 Gerber Fmt 4.6, Leading zero omitted, Abs format (unit mm)*
G04 Created by KiCad (PCBNEW 5.1.10-88a1d61d58~88~ubuntu18.04.1) date 2021-05-23 19:09:43*
%MOMM*%
%LPD*%
G01*
G04 APERTURE LIST*
%ADD10C,0.120000*%
%ADD11C,0.150000*%
G04 APERTURE END LIST*
D10*
%TO.C,R26*%
X111572936Y-65010000D02*
X113027064Y-65010000D01*
X111572936Y-63190000D02*
X113027064Y-63190000D01*
%TO.C,R25*%
X71410000Y-86577064D02*
X71410000Y-85122936D01*
X69590000Y-86577064D02*
X69590000Y-85122936D01*
%TO.C,R24*%
X67922936Y-76610000D02*
X69377064Y-76610000D01*
X67922936Y-74790000D02*
X69377064Y-74790000D01*
%TO.C,R23*%
X65472936Y-85860000D02*
X66927064Y-85860000D01*
X65472936Y-84040000D02*
X66927064Y-84040000D01*
%TO.C,R22*%
X68910000Y-80677064D02*
X68910000Y-79222936D01*
X67090000Y-80677064D02*
X67090000Y-79222936D01*
%TO.C,R21*%
X43328000Y-69281064D02*
X43328000Y-67826936D01*
X41508000Y-69281064D02*
X41508000Y-67826936D01*
%TO.C,R20*%
X52684000Y-68868936D02*
X52684000Y-70323064D01*
X54504000Y-68868936D02*
X54504000Y-70323064D01*
%TO.C,R19*%
X46122000Y-69333064D02*
X46122000Y-67878936D01*
X44302000Y-69333064D02*
X44302000Y-67878936D01*
%TO.C,R18*%
X80090000Y-63772936D02*
X80090000Y-65227064D01*
X81910000Y-63772936D02*
X81910000Y-65227064D01*
%TO.C,R17*%
X49382000Y-68842936D02*
X49382000Y-70297064D01*
X51202000Y-68842936D02*
X51202000Y-70297064D01*
%TO.C,R14*%
X107727064Y-60490000D02*
X106272936Y-60490000D01*
X107727064Y-62310000D02*
X106272936Y-62310000D01*
%TO.C,R13*%
X106172936Y-65310000D02*
X107627064Y-65310000D01*
X106172936Y-63490000D02*
X107627064Y-63490000D01*
%TO.C,R12*%
X76527064Y-107740000D02*
X75072936Y-107740000D01*
X76527064Y-109560000D02*
X75072936Y-109560000D01*
%TO.C,R11*%
X76627064Y-104990000D02*
X75172936Y-104990000D01*
X76627064Y-106810000D02*
X75172936Y-106810000D01*
%TO.C,R10*%
X89460000Y-111327064D02*
X89460000Y-109872936D01*
X87640000Y-111327064D02*
X87640000Y-109872936D01*
%TO.C,R9*%
X86910000Y-107727064D02*
X86910000Y-106272936D01*
X85090000Y-107727064D02*
X85090000Y-106272936D01*
%TO.C,R8*%
X65422936Y-88460000D02*
X66877064Y-88460000D01*
X65422936Y-86640000D02*
X66877064Y-86640000D01*
%TO.C,R7*%
X62472936Y-76660000D02*
X63927064Y-76660000D01*
X62472936Y-74840000D02*
X63927064Y-74840000D01*
%TO.C,R6*%
X58690000Y-85422936D02*
X58690000Y-86877064D01*
X60510000Y-85422936D02*
X60510000Y-86877064D01*
%TO.C,R5*%
X58240000Y-76422936D02*
X58240000Y-77877064D01*
X60060000Y-76422936D02*
X60060000Y-77877064D01*
%TO.C,R4*%
X68640936Y-43328000D02*
X70095064Y-43328000D01*
X68640936Y-41508000D02*
X70095064Y-41508000D01*
%TO.C,R3*%
X63052936Y-43328000D02*
X64507064Y-43328000D01*
X63052936Y-41508000D02*
X64507064Y-41508000D01*
%TO.C,JP1*%
X117700000Y-61850000D02*
X115700000Y-61850000D01*
X117700000Y-65950000D02*
X117700000Y-61850000D01*
X115700000Y-65950000D02*
X117700000Y-65950000D01*
X115700000Y-61850000D02*
X115700000Y-65950000D01*
%TO.C,D13*%
X50628000Y-60834000D02*
X50628000Y-64134000D01*
X50628000Y-64134000D02*
X43728000Y-64134000D01*
X50628000Y-60834000D02*
X43728000Y-60834000D01*
%TO.C,D12*%
X48636000Y-44850000D02*
X48636000Y-49150000D01*
X48636000Y-49150000D02*
X41336000Y-49150000D01*
X48636000Y-44850000D02*
X41336000Y-44850000D01*
%TO.C,D11*%
X48702000Y-40268000D02*
X48702000Y-44568000D01*
X48702000Y-44568000D02*
X41402000Y-44568000D01*
X48702000Y-40268000D02*
X41402000Y-40268000D01*
%TO.C,D10*%
X122300000Y-54530000D02*
X119000000Y-54530000D01*
X119000000Y-54530000D02*
X119000000Y-47630000D01*
X122300000Y-54530000D02*
X122300000Y-47630000D01*
%TO.C,D9*%
X128400000Y-54530000D02*
X125100000Y-54530000D01*
X125100000Y-54530000D02*
X125100000Y-47630000D01*
X128400000Y-54530000D02*
X128400000Y-47630000D01*
%TO.C,D6*%
X78000000Y-121600000D02*
X78000000Y-117300000D01*
X78000000Y-117300000D02*
X85300000Y-117300000D01*
X78000000Y-121600000D02*
X85300000Y-121600000D01*
%TO.C,D5*%
X50668000Y-57024000D02*
X50668000Y-60324000D01*
X50668000Y-60324000D02*
X43768000Y-60324000D01*
X50668000Y-57024000D02*
X43768000Y-57024000D01*
%TO.C,D4*%
X50628000Y-53214000D02*
X50628000Y-56514000D01*
X50628000Y-56514000D02*
X43728000Y-56514000D01*
X50628000Y-53214000D02*
X43728000Y-53214000D01*
%TO.C,D3*%
X78050000Y-130950000D02*
X78050000Y-126650000D01*
X78050000Y-126650000D02*
X85350000Y-126650000D01*
X78050000Y-130950000D02*
X85350000Y-130950000D01*
%TO.C,D2*%
X78000000Y-126200000D02*
X78000000Y-121900000D01*
X78000000Y-121900000D02*
X85300000Y-121900000D01*
X78000000Y-126200000D02*
X85300000Y-126200000D01*
%TO.C,D1*%
X66880000Y-95310000D02*
X69820000Y-95310000D01*
X69820000Y-95310000D02*
X69820000Y-100750000D01*
X69820000Y-100750000D02*
X66880000Y-100750000D01*
X66880000Y-100750000D02*
X66880000Y-95310000D01*
X68350000Y-94290000D02*
X68350000Y-95310000D01*
X68350000Y-101770000D02*
X68350000Y-100750000D01*
X66880000Y-96210000D02*
X69820000Y-96210000D01*
X66880000Y-96330000D02*
X69820000Y-96330000D01*
X66880000Y-96090000D02*
X69820000Y-96090000D01*
%TO.C,R26*%
D11*
X112942857Y-66372380D02*
X113276190Y-65896190D01*
X113514285Y-66372380D02*
X113514285Y-65372380D01*
X113133333Y-65372380D01*
X113038095Y-65420000D01*
X112990476Y-65467619D01*
X112942857Y-65562857D01*
X112942857Y-65705714D01*
X112990476Y-65800952D01*
X113038095Y-65848571D01*
X113133333Y-65896190D01*
X113514285Y-65896190D01*
X112561904Y-65467619D02*
X112514285Y-65420000D01*
X112419047Y-65372380D01*
X112180952Y-65372380D01*
X112085714Y-65420000D01*
X112038095Y-65467619D01*
X111990476Y-65562857D01*
X111990476Y-65658095D01*
X112038095Y-65800952D01*
X112609523Y-66372380D01*
X111990476Y-66372380D01*
X111133333Y-65372380D02*
X111323809Y-65372380D01*
X111419047Y-65420000D01*
X111466666Y-65467619D01*
X111561904Y-65610476D01*
X111609523Y-65800952D01*
X111609523Y-66181904D01*
X111561904Y-66277142D01*
X111514285Y-66324761D01*
X111419047Y-66372380D01*
X111228571Y-66372380D01*
X111133333Y-66324761D01*
X111085714Y-66277142D01*
X111038095Y-66181904D01*
X111038095Y-65943809D01*
X111085714Y-65848571D01*
X111133333Y-65800952D01*
X111228571Y-65753333D01*
X111419047Y-65753333D01*
X111514285Y-65800952D01*
X111561904Y-65848571D01*
X111609523Y-65943809D01*
%TO.C,R25*%
X72772380Y-85207142D02*
X72296190Y-84873809D01*
X72772380Y-84635714D02*
X71772380Y-84635714D01*
X71772380Y-85016666D01*
X71820000Y-85111904D01*
X71867619Y-85159523D01*
X71962857Y-85207142D01*
X72105714Y-85207142D01*
X72200952Y-85159523D01*
X72248571Y-85111904D01*
X72296190Y-85016666D01*
X72296190Y-84635714D01*
X71867619Y-85588095D02*
X71820000Y-85635714D01*
X71772380Y-85730952D01*
X71772380Y-85969047D01*
X71820000Y-86064285D01*
X71867619Y-86111904D01*
X71962857Y-86159523D01*
X72058095Y-86159523D01*
X72200952Y-86111904D01*
X72772380Y-85540476D01*
X72772380Y-86159523D01*
X71772380Y-87064285D02*
X71772380Y-86588095D01*
X72248571Y-86540476D01*
X72200952Y-86588095D01*
X72153333Y-86683333D01*
X72153333Y-86921428D01*
X72200952Y-87016666D01*
X72248571Y-87064285D01*
X72343809Y-87111904D01*
X72581904Y-87111904D01*
X72677142Y-87064285D01*
X72724761Y-87016666D01*
X72772380Y-86921428D01*
X72772380Y-86683333D01*
X72724761Y-86588095D01*
X72677142Y-86540476D01*
%TO.C,R24*%
X69292857Y-77972380D02*
X69626190Y-77496190D01*
X69864285Y-77972380D02*
X69864285Y-76972380D01*
X69483333Y-76972380D01*
X69388095Y-77020000D01*
X69340476Y-77067619D01*
X69292857Y-77162857D01*
X69292857Y-77305714D01*
X69340476Y-77400952D01*
X69388095Y-77448571D01*
X69483333Y-77496190D01*
X69864285Y-77496190D01*
X68911904Y-77067619D02*
X68864285Y-77020000D01*
X68769047Y-76972380D01*
X68530952Y-76972380D01*
X68435714Y-77020000D01*
X68388095Y-77067619D01*
X68340476Y-77162857D01*
X68340476Y-77258095D01*
X68388095Y-77400952D01*
X68959523Y-77972380D01*
X68340476Y-77972380D01*
X67483333Y-77305714D02*
X67483333Y-77972380D01*
X67721428Y-76924761D02*
X67959523Y-77639047D01*
X67340476Y-77639047D01*
%TO.C,R23*%
X66842857Y-87222380D02*
X67176190Y-86746190D01*
X67414285Y-87222380D02*
X67414285Y-86222380D01*
X67033333Y-86222380D01*
X66938095Y-86270000D01*
X66890476Y-86317619D01*
X66842857Y-86412857D01*
X66842857Y-86555714D01*
X66890476Y-86650952D01*
X66938095Y-86698571D01*
X67033333Y-86746190D01*
X67414285Y-86746190D01*
X66461904Y-86317619D02*
X66414285Y-86270000D01*
X66319047Y-86222380D01*
X66080952Y-86222380D01*
X65985714Y-86270000D01*
X65938095Y-86317619D01*
X65890476Y-86412857D01*
X65890476Y-86508095D01*
X65938095Y-86650952D01*
X66509523Y-87222380D01*
X65890476Y-87222380D01*
X65557142Y-86222380D02*
X64938095Y-86222380D01*
X65271428Y-86603333D01*
X65128571Y-86603333D01*
X65033333Y-86650952D01*
X64985714Y-86698571D01*
X64938095Y-86793809D01*
X64938095Y-87031904D01*
X64985714Y-87127142D01*
X65033333Y-87174761D01*
X65128571Y-87222380D01*
X65414285Y-87222380D01*
X65509523Y-87174761D01*
X65557142Y-87127142D01*
%TO.C,R22*%
X70272380Y-79307142D02*
X69796190Y-78973809D01*
X70272380Y-78735714D02*
X69272380Y-78735714D01*
X69272380Y-79116666D01*
X69320000Y-79211904D01*
X69367619Y-79259523D01*
X69462857Y-79307142D01*
X69605714Y-79307142D01*
X69700952Y-79259523D01*
X69748571Y-79211904D01*
X69796190Y-79116666D01*
X69796190Y-78735714D01*
X69367619Y-79688095D02*
X69320000Y-79735714D01*
X69272380Y-79830952D01*
X69272380Y-80069047D01*
X69320000Y-80164285D01*
X69367619Y-80211904D01*
X69462857Y-80259523D01*
X69558095Y-80259523D01*
X69700952Y-80211904D01*
X70272380Y-79640476D01*
X70272380Y-80259523D01*
X69367619Y-80640476D02*
X69320000Y-80688095D01*
X69272380Y-80783333D01*
X69272380Y-81021428D01*
X69320000Y-81116666D01*
X69367619Y-81164285D01*
X69462857Y-81211904D01*
X69558095Y-81211904D01*
X69700952Y-81164285D01*
X70272380Y-80592857D01*
X70272380Y-81211904D01*
%TO.C,R21*%
X44690380Y-67911142D02*
X44214190Y-67577809D01*
X44690380Y-67339714D02*
X43690380Y-67339714D01*
X43690380Y-67720666D01*
X43738000Y-67815904D01*
X43785619Y-67863523D01*
X43880857Y-67911142D01*
X44023714Y-67911142D01*
X44118952Y-67863523D01*
X44166571Y-67815904D01*
X44214190Y-67720666D01*
X44214190Y-67339714D01*
X43785619Y-68292095D02*
X43738000Y-68339714D01*
X43690380Y-68434952D01*
X43690380Y-68673047D01*
X43738000Y-68768285D01*
X43785619Y-68815904D01*
X43880857Y-68863523D01*
X43976095Y-68863523D01*
X44118952Y-68815904D01*
X44690380Y-68244476D01*
X44690380Y-68863523D01*
X44690380Y-69815904D02*
X44690380Y-69244476D01*
X44690380Y-69530190D02*
X43690380Y-69530190D01*
X43833238Y-69434952D01*
X43928476Y-69339714D01*
X43976095Y-69244476D01*
%TO.C,R20*%
X52226380Y-68953142D02*
X51750190Y-68619809D01*
X52226380Y-68381714D02*
X51226380Y-68381714D01*
X51226380Y-68762666D01*
X51274000Y-68857904D01*
X51321619Y-68905523D01*
X51416857Y-68953142D01*
X51559714Y-68953142D01*
X51654952Y-68905523D01*
X51702571Y-68857904D01*
X51750190Y-68762666D01*
X51750190Y-68381714D01*
X51321619Y-69334095D02*
X51274000Y-69381714D01*
X51226380Y-69476952D01*
X51226380Y-69715047D01*
X51274000Y-69810285D01*
X51321619Y-69857904D01*
X51416857Y-69905523D01*
X51512095Y-69905523D01*
X51654952Y-69857904D01*
X52226380Y-69286476D01*
X52226380Y-69905523D01*
X51226380Y-70524571D02*
X51226380Y-70619809D01*
X51274000Y-70715047D01*
X51321619Y-70762666D01*
X51416857Y-70810285D01*
X51607333Y-70857904D01*
X51845428Y-70857904D01*
X52035904Y-70810285D01*
X52131142Y-70762666D01*
X52178761Y-70715047D01*
X52226380Y-70619809D01*
X52226380Y-70524571D01*
X52178761Y-70429333D01*
X52131142Y-70381714D01*
X52035904Y-70334095D01*
X51845428Y-70286476D01*
X51607333Y-70286476D01*
X51416857Y-70334095D01*
X51321619Y-70381714D01*
X51274000Y-70429333D01*
X51226380Y-70524571D01*
%TO.C,R19*%
X47484380Y-67963142D02*
X47008190Y-67629809D01*
X47484380Y-67391714D02*
X46484380Y-67391714D01*
X46484380Y-67772666D01*
X46532000Y-67867904D01*
X46579619Y-67915523D01*
X46674857Y-67963142D01*
X46817714Y-67963142D01*
X46912952Y-67915523D01*
X46960571Y-67867904D01*
X47008190Y-67772666D01*
X47008190Y-67391714D01*
X47484380Y-68915523D02*
X47484380Y-68344095D01*
X47484380Y-68629809D02*
X46484380Y-68629809D01*
X46627238Y-68534571D01*
X46722476Y-68439333D01*
X46770095Y-68344095D01*
X47484380Y-69391714D02*
X47484380Y-69582190D01*
X47436761Y-69677428D01*
X47389142Y-69725047D01*
X47246285Y-69820285D01*
X47055809Y-69867904D01*
X46674857Y-69867904D01*
X46579619Y-69820285D01*
X46532000Y-69772666D01*
X46484380Y-69677428D01*
X46484380Y-69486952D01*
X46532000Y-69391714D01*
X46579619Y-69344095D01*
X46674857Y-69296476D01*
X46912952Y-69296476D01*
X47008190Y-69344095D01*
X47055809Y-69391714D01*
X47103428Y-69486952D01*
X47103428Y-69677428D01*
X47055809Y-69772666D01*
X47008190Y-69820285D01*
X46912952Y-69867904D01*
%TO.C,R18*%
X79632380Y-63857142D02*
X79156190Y-63523809D01*
X79632380Y-63285714D02*
X78632380Y-63285714D01*
X78632380Y-63666666D01*
X78680000Y-63761904D01*
X78727619Y-63809523D01*
X78822857Y-63857142D01*
X78965714Y-63857142D01*
X79060952Y-63809523D01*
X79108571Y-63761904D01*
X79156190Y-63666666D01*
X79156190Y-63285714D01*
X79632380Y-64809523D02*
X79632380Y-64238095D01*
X79632380Y-64523809D02*
X78632380Y-64523809D01*
X78775238Y-64428571D01*
X78870476Y-64333333D01*
X78918095Y-64238095D01*
X79060952Y-65380952D02*
X79013333Y-65285714D01*
X78965714Y-65238095D01*
X78870476Y-65190476D01*
X78822857Y-65190476D01*
X78727619Y-65238095D01*
X78680000Y-65285714D01*
X78632380Y-65380952D01*
X78632380Y-65571428D01*
X78680000Y-65666666D01*
X78727619Y-65714285D01*
X78822857Y-65761904D01*
X78870476Y-65761904D01*
X78965714Y-65714285D01*
X79013333Y-65666666D01*
X79060952Y-65571428D01*
X79060952Y-65380952D01*
X79108571Y-65285714D01*
X79156190Y-65238095D01*
X79251428Y-65190476D01*
X79441904Y-65190476D01*
X79537142Y-65238095D01*
X79584761Y-65285714D01*
X79632380Y-65380952D01*
X79632380Y-65571428D01*
X79584761Y-65666666D01*
X79537142Y-65714285D01*
X79441904Y-65761904D01*
X79251428Y-65761904D01*
X79156190Y-65714285D01*
X79108571Y-65666666D01*
X79060952Y-65571428D01*
%TO.C,R17*%
X48924380Y-68927142D02*
X48448190Y-68593809D01*
X48924380Y-68355714D02*
X47924380Y-68355714D01*
X47924380Y-68736666D01*
X47972000Y-68831904D01*
X48019619Y-68879523D01*
X48114857Y-68927142D01*
X48257714Y-68927142D01*
X48352952Y-68879523D01*
X48400571Y-68831904D01*
X48448190Y-68736666D01*
X48448190Y-68355714D01*
X48924380Y-69879523D02*
X48924380Y-69308095D01*
X48924380Y-69593809D02*
X47924380Y-69593809D01*
X48067238Y-69498571D01*
X48162476Y-69403333D01*
X48210095Y-69308095D01*
X47924380Y-70212857D02*
X47924380Y-70879523D01*
X48924380Y-70450952D01*
%TO.C,R14*%
X107642857Y-60032380D02*
X107976190Y-59556190D01*
X108214285Y-60032380D02*
X108214285Y-59032380D01*
X107833333Y-59032380D01*
X107738095Y-59080000D01*
X107690476Y-59127619D01*
X107642857Y-59222857D01*
X107642857Y-59365714D01*
X107690476Y-59460952D01*
X107738095Y-59508571D01*
X107833333Y-59556190D01*
X108214285Y-59556190D01*
X106690476Y-60032380D02*
X107261904Y-60032380D01*
X106976190Y-60032380D02*
X106976190Y-59032380D01*
X107071428Y-59175238D01*
X107166666Y-59270476D01*
X107261904Y-59318095D01*
X105833333Y-59365714D02*
X105833333Y-60032380D01*
X106071428Y-58984761D02*
X106309523Y-59699047D01*
X105690476Y-59699047D01*
%TO.C,R13*%
X107542857Y-66672380D02*
X107876190Y-66196190D01*
X108114285Y-66672380D02*
X108114285Y-65672380D01*
X107733333Y-65672380D01*
X107638095Y-65720000D01*
X107590476Y-65767619D01*
X107542857Y-65862857D01*
X107542857Y-66005714D01*
X107590476Y-66100952D01*
X107638095Y-66148571D01*
X107733333Y-66196190D01*
X108114285Y-66196190D01*
X106590476Y-66672380D02*
X107161904Y-66672380D01*
X106876190Y-66672380D02*
X106876190Y-65672380D01*
X106971428Y-65815238D01*
X107066666Y-65910476D01*
X107161904Y-65958095D01*
X106257142Y-65672380D02*
X105638095Y-65672380D01*
X105971428Y-66053333D01*
X105828571Y-66053333D01*
X105733333Y-66100952D01*
X105685714Y-66148571D01*
X105638095Y-66243809D01*
X105638095Y-66481904D01*
X105685714Y-66577142D01*
X105733333Y-66624761D01*
X105828571Y-66672380D01*
X106114285Y-66672380D01*
X106209523Y-66624761D01*
X106257142Y-66577142D01*
%TO.C,R12*%
X76442857Y-107282380D02*
X76776190Y-106806190D01*
X77014285Y-107282380D02*
X77014285Y-106282380D01*
X76633333Y-106282380D01*
X76538095Y-106330000D01*
X76490476Y-106377619D01*
X76442857Y-106472857D01*
X76442857Y-106615714D01*
X76490476Y-106710952D01*
X76538095Y-106758571D01*
X76633333Y-106806190D01*
X77014285Y-106806190D01*
X75490476Y-107282380D02*
X76061904Y-107282380D01*
X75776190Y-107282380D02*
X75776190Y-106282380D01*
X75871428Y-106425238D01*
X75966666Y-106520476D01*
X76061904Y-106568095D01*
X75109523Y-106377619D02*
X75061904Y-106330000D01*
X74966666Y-106282380D01*
X74728571Y-106282380D01*
X74633333Y-106330000D01*
X74585714Y-106377619D01*
X74538095Y-106472857D01*
X74538095Y-106568095D01*
X74585714Y-106710952D01*
X75157142Y-107282380D01*
X74538095Y-107282380D01*
%TO.C,R11*%
X76542857Y-104532380D02*
X76876190Y-104056190D01*
X77114285Y-104532380D02*
X77114285Y-103532380D01*
X76733333Y-103532380D01*
X76638095Y-103580000D01*
X76590476Y-103627619D01*
X76542857Y-103722857D01*
X76542857Y-103865714D01*
X76590476Y-103960952D01*
X76638095Y-104008571D01*
X76733333Y-104056190D01*
X77114285Y-104056190D01*
X75590476Y-104532380D02*
X76161904Y-104532380D01*
X75876190Y-104532380D02*
X75876190Y-103532380D01*
X75971428Y-103675238D01*
X76066666Y-103770476D01*
X76161904Y-103818095D01*
X74638095Y-104532380D02*
X75209523Y-104532380D01*
X74923809Y-104532380D02*
X74923809Y-103532380D01*
X75019047Y-103675238D01*
X75114285Y-103770476D01*
X75209523Y-103818095D01*
%TO.C,R10*%
X90822380Y-109957142D02*
X90346190Y-109623809D01*
X90822380Y-109385714D02*
X89822380Y-109385714D01*
X89822380Y-109766666D01*
X89870000Y-109861904D01*
X89917619Y-109909523D01*
X90012857Y-109957142D01*
X90155714Y-109957142D01*
X90250952Y-109909523D01*
X90298571Y-109861904D01*
X90346190Y-109766666D01*
X90346190Y-109385714D01*
X90822380Y-110909523D02*
X90822380Y-110338095D01*
X90822380Y-110623809D02*
X89822380Y-110623809D01*
X89965238Y-110528571D01*
X90060476Y-110433333D01*
X90108095Y-110338095D01*
X89822380Y-111528571D02*
X89822380Y-111623809D01*
X89870000Y-111719047D01*
X89917619Y-111766666D01*
X90012857Y-111814285D01*
X90203333Y-111861904D01*
X90441428Y-111861904D01*
X90631904Y-111814285D01*
X90727142Y-111766666D01*
X90774761Y-111719047D01*
X90822380Y-111623809D01*
X90822380Y-111528571D01*
X90774761Y-111433333D01*
X90727142Y-111385714D01*
X90631904Y-111338095D01*
X90441428Y-111290476D01*
X90203333Y-111290476D01*
X90012857Y-111338095D01*
X89917619Y-111385714D01*
X89870000Y-111433333D01*
X89822380Y-111528571D01*
%TO.C,R9*%
X88272380Y-106833333D02*
X87796190Y-106500000D01*
X88272380Y-106261904D02*
X87272380Y-106261904D01*
X87272380Y-106642857D01*
X87320000Y-106738095D01*
X87367619Y-106785714D01*
X87462857Y-106833333D01*
X87605714Y-106833333D01*
X87700952Y-106785714D01*
X87748571Y-106738095D01*
X87796190Y-106642857D01*
X87796190Y-106261904D01*
X88272380Y-107309523D02*
X88272380Y-107500000D01*
X88224761Y-107595238D01*
X88177142Y-107642857D01*
X88034285Y-107738095D01*
X87843809Y-107785714D01*
X87462857Y-107785714D01*
X87367619Y-107738095D01*
X87320000Y-107690476D01*
X87272380Y-107595238D01*
X87272380Y-107404761D01*
X87320000Y-107309523D01*
X87367619Y-107261904D01*
X87462857Y-107214285D01*
X87700952Y-107214285D01*
X87796190Y-107261904D01*
X87843809Y-107309523D01*
X87891428Y-107404761D01*
X87891428Y-107595238D01*
X87843809Y-107690476D01*
X87796190Y-107738095D01*
X87700952Y-107785714D01*
%TO.C,R8*%
X66316666Y-89822380D02*
X66650000Y-89346190D01*
X66888095Y-89822380D02*
X66888095Y-88822380D01*
X66507142Y-88822380D01*
X66411904Y-88870000D01*
X66364285Y-88917619D01*
X66316666Y-89012857D01*
X66316666Y-89155714D01*
X66364285Y-89250952D01*
X66411904Y-89298571D01*
X66507142Y-89346190D01*
X66888095Y-89346190D01*
X65745238Y-89250952D02*
X65840476Y-89203333D01*
X65888095Y-89155714D01*
X65935714Y-89060476D01*
X65935714Y-89012857D01*
X65888095Y-88917619D01*
X65840476Y-88870000D01*
X65745238Y-88822380D01*
X65554761Y-88822380D01*
X65459523Y-88870000D01*
X65411904Y-88917619D01*
X65364285Y-89012857D01*
X65364285Y-89060476D01*
X65411904Y-89155714D01*
X65459523Y-89203333D01*
X65554761Y-89250952D01*
X65745238Y-89250952D01*
X65840476Y-89298571D01*
X65888095Y-89346190D01*
X65935714Y-89441428D01*
X65935714Y-89631904D01*
X65888095Y-89727142D01*
X65840476Y-89774761D01*
X65745238Y-89822380D01*
X65554761Y-89822380D01*
X65459523Y-89774761D01*
X65411904Y-89727142D01*
X65364285Y-89631904D01*
X65364285Y-89441428D01*
X65411904Y-89346190D01*
X65459523Y-89298571D01*
X65554761Y-89250952D01*
%TO.C,R7*%
X63366666Y-78022380D02*
X63700000Y-77546190D01*
X63938095Y-78022380D02*
X63938095Y-77022380D01*
X63557142Y-77022380D01*
X63461904Y-77070000D01*
X63414285Y-77117619D01*
X63366666Y-77212857D01*
X63366666Y-77355714D01*
X63414285Y-77450952D01*
X63461904Y-77498571D01*
X63557142Y-77546190D01*
X63938095Y-77546190D01*
X63033333Y-77022380D02*
X62366666Y-77022380D01*
X62795238Y-78022380D01*
%TO.C,R6*%
X58232380Y-85983333D02*
X57756190Y-85650000D01*
X58232380Y-85411904D02*
X57232380Y-85411904D01*
X57232380Y-85792857D01*
X57280000Y-85888095D01*
X57327619Y-85935714D01*
X57422857Y-85983333D01*
X57565714Y-85983333D01*
X57660952Y-85935714D01*
X57708571Y-85888095D01*
X57756190Y-85792857D01*
X57756190Y-85411904D01*
X57232380Y-86840476D02*
X57232380Y-86650000D01*
X57280000Y-86554761D01*
X57327619Y-86507142D01*
X57470476Y-86411904D01*
X57660952Y-86364285D01*
X58041904Y-86364285D01*
X58137142Y-86411904D01*
X58184761Y-86459523D01*
X58232380Y-86554761D01*
X58232380Y-86745238D01*
X58184761Y-86840476D01*
X58137142Y-86888095D01*
X58041904Y-86935714D01*
X57803809Y-86935714D01*
X57708571Y-86888095D01*
X57660952Y-86840476D01*
X57613333Y-86745238D01*
X57613333Y-86554761D01*
X57660952Y-86459523D01*
X57708571Y-86411904D01*
X57803809Y-86364285D01*
%TO.C,R5*%
X57782380Y-76983333D02*
X57306190Y-76650000D01*
X57782380Y-76411904D02*
X56782380Y-76411904D01*
X56782380Y-76792857D01*
X56830000Y-76888095D01*
X56877619Y-76935714D01*
X56972857Y-76983333D01*
X57115714Y-76983333D01*
X57210952Y-76935714D01*
X57258571Y-76888095D01*
X57306190Y-76792857D01*
X57306190Y-76411904D01*
X56782380Y-77888095D02*
X56782380Y-77411904D01*
X57258571Y-77364285D01*
X57210952Y-77411904D01*
X57163333Y-77507142D01*
X57163333Y-77745238D01*
X57210952Y-77840476D01*
X57258571Y-77888095D01*
X57353809Y-77935714D01*
X57591904Y-77935714D01*
X57687142Y-77888095D01*
X57734761Y-77840476D01*
X57782380Y-77745238D01*
X57782380Y-77507142D01*
X57734761Y-77411904D01*
X57687142Y-77364285D01*
%TO.C,R4*%
X69534666Y-44690380D02*
X69868000Y-44214190D01*
X70106095Y-44690380D02*
X70106095Y-43690380D01*
X69725142Y-43690380D01*
X69629904Y-43738000D01*
X69582285Y-43785619D01*
X69534666Y-43880857D01*
X69534666Y-44023714D01*
X69582285Y-44118952D01*
X69629904Y-44166571D01*
X69725142Y-44214190D01*
X70106095Y-44214190D01*
X68677523Y-44023714D02*
X68677523Y-44690380D01*
X68915619Y-43642761D02*
X69153714Y-44357047D01*
X68534666Y-44357047D01*
%TO.C,R3*%
X63946666Y-44690380D02*
X64280000Y-44214190D01*
X64518095Y-44690380D02*
X64518095Y-43690380D01*
X64137142Y-43690380D01*
X64041904Y-43738000D01*
X63994285Y-43785619D01*
X63946666Y-43880857D01*
X63946666Y-44023714D01*
X63994285Y-44118952D01*
X64041904Y-44166571D01*
X64137142Y-44214190D01*
X64518095Y-44214190D01*
X63613333Y-43690380D02*
X62994285Y-43690380D01*
X63327619Y-44071333D01*
X63184761Y-44071333D01*
X63089523Y-44118952D01*
X63041904Y-44166571D01*
X62994285Y-44261809D01*
X62994285Y-44499904D01*
X63041904Y-44595142D01*
X63089523Y-44642761D01*
X63184761Y-44690380D01*
X63470476Y-44690380D01*
X63565714Y-44642761D01*
X63613333Y-44595142D01*
%TO.C,JP1*%
X114352380Y-63066666D02*
X115066666Y-63066666D01*
X115209523Y-63019047D01*
X115304761Y-62923809D01*
X115352380Y-62780952D01*
X115352380Y-62685714D01*
X115352380Y-63542857D02*
X114352380Y-63542857D01*
X114352380Y-63923809D01*
X114400000Y-64019047D01*
X114447619Y-64066666D01*
X114542857Y-64114285D01*
X114685714Y-64114285D01*
X114780952Y-64066666D01*
X114828571Y-64019047D01*
X114876190Y-63923809D01*
X114876190Y-63542857D01*
X115352380Y-65066666D02*
X115352380Y-64495238D01*
X115352380Y-64780952D02*
X114352380Y-64780952D01*
X114495238Y-64685714D01*
X114590476Y-64590476D01*
X114638095Y-64495238D01*
X117152380Y-61585714D02*
X117152380Y-61014285D01*
X117152380Y-61300000D02*
X116152380Y-61300000D01*
X116295238Y-61204761D01*
X116390476Y-61109523D01*
X116438095Y-61014285D01*
X116152380Y-66166666D02*
X116152380Y-66785714D01*
X116533333Y-66452380D01*
X116533333Y-66595238D01*
X116580952Y-66690476D01*
X116628571Y-66738095D01*
X116723809Y-66785714D01*
X116961904Y-66785714D01*
X117057142Y-66738095D01*
X117104761Y-66690476D01*
X117152380Y-66595238D01*
X117152380Y-66309523D01*
X117104761Y-66214285D01*
X117057142Y-66166666D01*
%TO.C,D13*%
X47442285Y-60436380D02*
X47442285Y-59436380D01*
X47204190Y-59436380D01*
X47061333Y-59484000D01*
X46966095Y-59579238D01*
X46918476Y-59674476D01*
X46870857Y-59864952D01*
X46870857Y-60007809D01*
X46918476Y-60198285D01*
X46966095Y-60293523D01*
X47061333Y-60388761D01*
X47204190Y-60436380D01*
X47442285Y-60436380D01*
X45918476Y-60436380D02*
X46489904Y-60436380D01*
X46204190Y-60436380D02*
X46204190Y-59436380D01*
X46299428Y-59579238D01*
X46394666Y-59674476D01*
X46489904Y-59722095D01*
X45585142Y-59436380D02*
X44966095Y-59436380D01*
X45299428Y-59817333D01*
X45156571Y-59817333D01*
X45061333Y-59864952D01*
X45013714Y-59912571D01*
X44966095Y-60007809D01*
X44966095Y-60245904D01*
X45013714Y-60341142D01*
X45061333Y-60388761D01*
X45156571Y-60436380D01*
X45442285Y-60436380D01*
X45537523Y-60388761D01*
X45585142Y-60341142D01*
%TO.C,D12*%
X45250285Y-44452380D02*
X45250285Y-43452380D01*
X45012190Y-43452380D01*
X44869333Y-43500000D01*
X44774095Y-43595238D01*
X44726476Y-43690476D01*
X44678857Y-43880952D01*
X44678857Y-44023809D01*
X44726476Y-44214285D01*
X44774095Y-44309523D01*
X44869333Y-44404761D01*
X45012190Y-44452380D01*
X45250285Y-44452380D01*
X43726476Y-44452380D02*
X44297904Y-44452380D01*
X44012190Y-44452380D02*
X44012190Y-43452380D01*
X44107428Y-43595238D01*
X44202666Y-43690476D01*
X44297904Y-43738095D01*
X43345523Y-43547619D02*
X43297904Y-43500000D01*
X43202666Y-43452380D01*
X42964571Y-43452380D01*
X42869333Y-43500000D01*
X42821714Y-43547619D01*
X42774095Y-43642857D01*
X42774095Y-43738095D01*
X42821714Y-43880952D01*
X43393142Y-44452380D01*
X42774095Y-44452380D01*
%TO.C,D11*%
X45316285Y-39870380D02*
X45316285Y-38870380D01*
X45078190Y-38870380D01*
X44935333Y-38918000D01*
X44840095Y-39013238D01*
X44792476Y-39108476D01*
X44744857Y-39298952D01*
X44744857Y-39441809D01*
X44792476Y-39632285D01*
X44840095Y-39727523D01*
X44935333Y-39822761D01*
X45078190Y-39870380D01*
X45316285Y-39870380D01*
X43792476Y-39870380D02*
X44363904Y-39870380D01*
X44078190Y-39870380D02*
X44078190Y-38870380D01*
X44173428Y-39013238D01*
X44268666Y-39108476D01*
X44363904Y-39156095D01*
X42840095Y-39870380D02*
X43411523Y-39870380D01*
X43125809Y-39870380D02*
X43125809Y-38870380D01*
X43221047Y-39013238D01*
X43316285Y-39108476D01*
X43411523Y-39156095D01*
%TO.C,D10*%
X123602380Y-48915714D02*
X122602380Y-48915714D01*
X122602380Y-49153809D01*
X122650000Y-49296666D01*
X122745238Y-49391904D01*
X122840476Y-49439523D01*
X123030952Y-49487142D01*
X123173809Y-49487142D01*
X123364285Y-49439523D01*
X123459523Y-49391904D01*
X123554761Y-49296666D01*
X123602380Y-49153809D01*
X123602380Y-48915714D01*
X123602380Y-50439523D02*
X123602380Y-49868095D01*
X123602380Y-50153809D02*
X122602380Y-50153809D01*
X122745238Y-50058571D01*
X122840476Y-49963333D01*
X122888095Y-49868095D01*
X122602380Y-51058571D02*
X122602380Y-51153809D01*
X122650000Y-51249047D01*
X122697619Y-51296666D01*
X122792857Y-51344285D01*
X122983333Y-51391904D01*
X123221428Y-51391904D01*
X123411904Y-51344285D01*
X123507142Y-51296666D01*
X123554761Y-51249047D01*
X123602380Y-51153809D01*
X123602380Y-51058571D01*
X123554761Y-50963333D01*
X123507142Y-50915714D01*
X123411904Y-50868095D01*
X123221428Y-50820476D01*
X122983333Y-50820476D01*
X122792857Y-50868095D01*
X122697619Y-50915714D01*
X122650000Y-50963333D01*
X122602380Y-51058571D01*
%TO.C,D9*%
X129702380Y-49391904D02*
X128702380Y-49391904D01*
X128702380Y-49630000D01*
X128750000Y-49772857D01*
X128845238Y-49868095D01*
X128940476Y-49915714D01*
X129130952Y-49963333D01*
X129273809Y-49963333D01*
X129464285Y-49915714D01*
X129559523Y-49868095D01*
X129654761Y-49772857D01*
X129702380Y-49630000D01*
X129702380Y-49391904D01*
X129702380Y-50439523D02*
X129702380Y-50630000D01*
X129654761Y-50725238D01*
X129607142Y-50772857D01*
X129464285Y-50868095D01*
X129273809Y-50915714D01*
X128892857Y-50915714D01*
X128797619Y-50868095D01*
X128750000Y-50820476D01*
X128702380Y-50725238D01*
X128702380Y-50534761D01*
X128750000Y-50439523D01*
X128797619Y-50391904D01*
X128892857Y-50344285D01*
X129130952Y-50344285D01*
X129226190Y-50391904D01*
X129273809Y-50439523D01*
X129321428Y-50534761D01*
X129321428Y-50725238D01*
X129273809Y-50820476D01*
X129226190Y-50868095D01*
X129130952Y-50915714D01*
%TO.C,D6*%
X83338095Y-122902380D02*
X83338095Y-121902380D01*
X83100000Y-121902380D01*
X82957142Y-121950000D01*
X82861904Y-122045238D01*
X82814285Y-122140476D01*
X82766666Y-122330952D01*
X82766666Y-122473809D01*
X82814285Y-122664285D01*
X82861904Y-122759523D01*
X82957142Y-122854761D01*
X83100000Y-122902380D01*
X83338095Y-122902380D01*
X81909523Y-121902380D02*
X82100000Y-121902380D01*
X82195238Y-121950000D01*
X82242857Y-121997619D01*
X82338095Y-122140476D01*
X82385714Y-122330952D01*
X82385714Y-122711904D01*
X82338095Y-122807142D01*
X82290476Y-122854761D01*
X82195238Y-122902380D01*
X82004761Y-122902380D01*
X81909523Y-122854761D01*
X81861904Y-122807142D01*
X81814285Y-122711904D01*
X81814285Y-122473809D01*
X81861904Y-122378571D01*
X81909523Y-122330952D01*
X82004761Y-122283333D01*
X82195238Y-122283333D01*
X82290476Y-122330952D01*
X82338095Y-122378571D01*
X82385714Y-122473809D01*
%TO.C,D5*%
X47006095Y-56626380D02*
X47006095Y-55626380D01*
X46768000Y-55626380D01*
X46625142Y-55674000D01*
X46529904Y-55769238D01*
X46482285Y-55864476D01*
X46434666Y-56054952D01*
X46434666Y-56197809D01*
X46482285Y-56388285D01*
X46529904Y-56483523D01*
X46625142Y-56578761D01*
X46768000Y-56626380D01*
X47006095Y-56626380D01*
X45529904Y-55626380D02*
X46006095Y-55626380D01*
X46053714Y-56102571D01*
X46006095Y-56054952D01*
X45910857Y-56007333D01*
X45672761Y-56007333D01*
X45577523Y-56054952D01*
X45529904Y-56102571D01*
X45482285Y-56197809D01*
X45482285Y-56435904D01*
X45529904Y-56531142D01*
X45577523Y-56578761D01*
X45672761Y-56626380D01*
X45910857Y-56626380D01*
X46006095Y-56578761D01*
X46053714Y-56531142D01*
%TO.C,D4*%
X46966095Y-52816380D02*
X46966095Y-51816380D01*
X46728000Y-51816380D01*
X46585142Y-51864000D01*
X46489904Y-51959238D01*
X46442285Y-52054476D01*
X46394666Y-52244952D01*
X46394666Y-52387809D01*
X46442285Y-52578285D01*
X46489904Y-52673523D01*
X46585142Y-52768761D01*
X46728000Y-52816380D01*
X46966095Y-52816380D01*
X45537523Y-52149714D02*
X45537523Y-52816380D01*
X45775619Y-51768761D02*
X46013714Y-52483047D01*
X45394666Y-52483047D01*
%TO.C,D3*%
X83388095Y-132252380D02*
X83388095Y-131252380D01*
X83150000Y-131252380D01*
X83007142Y-131300000D01*
X82911904Y-131395238D01*
X82864285Y-131490476D01*
X82816666Y-131680952D01*
X82816666Y-131823809D01*
X82864285Y-132014285D01*
X82911904Y-132109523D01*
X83007142Y-132204761D01*
X83150000Y-132252380D01*
X83388095Y-132252380D01*
X82483333Y-131252380D02*
X81864285Y-131252380D01*
X82197619Y-131633333D01*
X82054761Y-131633333D01*
X81959523Y-131680952D01*
X81911904Y-131728571D01*
X81864285Y-131823809D01*
X81864285Y-132061904D01*
X81911904Y-132157142D01*
X81959523Y-132204761D01*
X82054761Y-132252380D01*
X82340476Y-132252380D01*
X82435714Y-132204761D01*
X82483333Y-132157142D01*
%TO.C,D2*%
X83338095Y-127502380D02*
X83338095Y-126502380D01*
X83100000Y-126502380D01*
X82957142Y-126550000D01*
X82861904Y-126645238D01*
X82814285Y-126740476D01*
X82766666Y-126930952D01*
X82766666Y-127073809D01*
X82814285Y-127264285D01*
X82861904Y-127359523D01*
X82957142Y-127454761D01*
X83100000Y-127502380D01*
X83338095Y-127502380D01*
X82385714Y-126597619D02*
X82338095Y-126550000D01*
X82242857Y-126502380D01*
X82004761Y-126502380D01*
X81909523Y-126550000D01*
X81861904Y-126597619D01*
X81814285Y-126692857D01*
X81814285Y-126788095D01*
X81861904Y-126930952D01*
X82433333Y-127502380D01*
X81814285Y-127502380D01*
%TO.C,D1*%
X66332380Y-97291904D02*
X65332380Y-97291904D01*
X65332380Y-97530000D01*
X65380000Y-97672857D01*
X65475238Y-97768095D01*
X65570476Y-97815714D01*
X65760952Y-97863333D01*
X65903809Y-97863333D01*
X66094285Y-97815714D01*
X66189523Y-97768095D01*
X66284761Y-97672857D01*
X66332380Y-97530000D01*
X66332380Y-97291904D01*
X66332380Y-98815714D02*
X66332380Y-98244285D01*
X66332380Y-98530000D02*
X65332380Y-98530000D01*
X65475238Y-98434761D01*
X65570476Y-98339523D01*
X65618095Y-98244285D01*
X66702380Y-92688095D02*
X65702380Y-92688095D01*
X66702380Y-93259523D02*
X66130952Y-92830952D01*
X65702380Y-93259523D02*
X66273809Y-92688095D01*
%TD*%
M02*
