%TF.GenerationSoftware,KiCad,Pcbnew,5.1.10-88a1d61d58~88~ubuntu18.04.1*%
%TF.CreationDate,2021-05-26T02:41:18+03:00*%
%TF.ProjectId,Micra Cruise Control Schemantics,4d696372-6120-4437-9275-69736520436f,rev?*%
%TF.SameCoordinates,Original*%
%TF.FileFunction,Legend,Top*%
%TF.FilePolarity,Positive*%
%FSLAX46Y46*%
G04 Gerber Fmt 4.6, Leading zero omitted, Abs format (unit mm)*
G04 Created by KiCad (PCBNEW 5.1.10-88a1d61d58~88~ubuntu18.04.1) date 2021-05-26 02:41:18*
%MOMM*%
%LPD*%
G01*
G04 APERTURE LIST*
%ADD10C,0.150000*%
%ADD11C,0.120000*%
%ADD12O,1.600000X1.600000*%
%ADD13R,1.600000X1.600000*%
%ADD14C,3.700000*%
%ADD15R,3.500000X1.800000*%
%ADD16O,1.950000X1.700000*%
%ADD17R,2.200000X1.000000*%
%ADD18R,1.000000X2.200000*%
%ADD19R,0.400000X1.500000*%
%ADD20R,1.220000X0.650000*%
%ADD21R,1.050000X1.500000*%
%ADD22O,1.050000X1.500000*%
%ADD23R,1.500000X2.200000*%
%ADD24O,1.700000X1.950000*%
%ADD25O,2.000000X1.700000*%
%ADD26O,2.200000X2.200000*%
%ADD27R,2.200000X2.200000*%
%ADD28C,1.600000*%
G04 APERTURE END LIST*
D10*
X90957523Y-129167380D02*
X90957523Y-128167380D01*
X91528952Y-129167380D01*
X91528952Y-128167380D01*
X92005142Y-129167380D02*
X92005142Y-128167380D01*
X92433714Y-129119761D02*
X92576571Y-129167380D01*
X92814666Y-129167380D01*
X92909904Y-129119761D01*
X92957523Y-129072142D01*
X93005142Y-128976904D01*
X93005142Y-128881666D01*
X92957523Y-128786428D01*
X92909904Y-128738809D01*
X92814666Y-128691190D01*
X92624190Y-128643571D01*
X92528952Y-128595952D01*
X92481333Y-128548333D01*
X92433714Y-128453095D01*
X92433714Y-128357857D01*
X92481333Y-128262619D01*
X92528952Y-128215000D01*
X92624190Y-128167380D01*
X92862285Y-128167380D01*
X93005142Y-128215000D01*
X93386095Y-129119761D02*
X93528952Y-129167380D01*
X93767047Y-129167380D01*
X93862285Y-129119761D01*
X93909904Y-129072142D01*
X93957523Y-128976904D01*
X93957523Y-128881666D01*
X93909904Y-128786428D01*
X93862285Y-128738809D01*
X93767047Y-128691190D01*
X93576571Y-128643571D01*
X93481333Y-128595952D01*
X93433714Y-128548333D01*
X93386095Y-128453095D01*
X93386095Y-128357857D01*
X93433714Y-128262619D01*
X93481333Y-128215000D01*
X93576571Y-128167380D01*
X93814666Y-128167380D01*
X93957523Y-128215000D01*
X94338476Y-128881666D02*
X94814666Y-128881666D01*
X94243238Y-129167380D02*
X94576571Y-128167380D01*
X94909904Y-129167380D01*
X95243238Y-129167380D02*
X95243238Y-128167380D01*
X95814666Y-129167380D01*
X95814666Y-128167380D01*
X97052761Y-129167380D02*
X97052761Y-128167380D01*
X97386095Y-128881666D01*
X97719428Y-128167380D01*
X97719428Y-129167380D01*
X98195619Y-129167380D02*
X98195619Y-128167380D01*
X99243238Y-129072142D02*
X99195619Y-129119761D01*
X99052761Y-129167380D01*
X98957523Y-129167380D01*
X98814666Y-129119761D01*
X98719428Y-129024523D01*
X98671809Y-128929285D01*
X98624190Y-128738809D01*
X98624190Y-128595952D01*
X98671809Y-128405476D01*
X98719428Y-128310238D01*
X98814666Y-128215000D01*
X98957523Y-128167380D01*
X99052761Y-128167380D01*
X99195619Y-128215000D01*
X99243238Y-128262619D01*
X100243238Y-129167380D02*
X99909904Y-128691190D01*
X99671809Y-129167380D02*
X99671809Y-128167380D01*
X100052761Y-128167380D01*
X100148000Y-128215000D01*
X100195619Y-128262619D01*
X100243238Y-128357857D01*
X100243238Y-128500714D01*
X100195619Y-128595952D01*
X100148000Y-128643571D01*
X100052761Y-128691190D01*
X99671809Y-128691190D01*
X100624190Y-128881666D02*
X101100380Y-128881666D01*
X100528952Y-129167380D02*
X100862285Y-128167380D01*
X101195619Y-129167380D01*
X102290857Y-129167380D02*
X102290857Y-128167380D01*
X102862285Y-129167380D02*
X102433714Y-128595952D01*
X102862285Y-128167380D02*
X102290857Y-128738809D01*
X103814666Y-129167380D02*
X103243238Y-129167380D01*
X103528952Y-129167380D02*
X103528952Y-128167380D01*
X103433714Y-128310238D01*
X103338476Y-128405476D01*
X103243238Y-128453095D01*
X104195619Y-128262619D02*
X104243238Y-128215000D01*
X104338476Y-128167380D01*
X104576571Y-128167380D01*
X104671809Y-128215000D01*
X104719428Y-128262619D01*
X104767047Y-128357857D01*
X104767047Y-128453095D01*
X104719428Y-128595952D01*
X104148000Y-129167380D01*
X104767047Y-129167380D01*
X106528952Y-129072142D02*
X106481333Y-129119761D01*
X106338476Y-129167380D01*
X106243238Y-129167380D01*
X106100380Y-129119761D01*
X106005142Y-129024523D01*
X105957523Y-128929285D01*
X105909904Y-128738809D01*
X105909904Y-128595952D01*
X105957523Y-128405476D01*
X106005142Y-128310238D01*
X106100380Y-128215000D01*
X106243238Y-128167380D01*
X106338476Y-128167380D01*
X106481333Y-128215000D01*
X106528952Y-128262619D01*
X107528952Y-129167380D02*
X107195619Y-128691190D01*
X106957523Y-129167380D02*
X106957523Y-128167380D01*
X107338476Y-128167380D01*
X107433714Y-128215000D01*
X107481333Y-128262619D01*
X107528952Y-128357857D01*
X107528952Y-128500714D01*
X107481333Y-128595952D01*
X107433714Y-128643571D01*
X107338476Y-128691190D01*
X106957523Y-128691190D01*
X107957523Y-128167380D02*
X107957523Y-128976904D01*
X108005142Y-129072142D01*
X108052761Y-129119761D01*
X108147999Y-129167380D01*
X108338476Y-129167380D01*
X108433714Y-129119761D01*
X108481333Y-129072142D01*
X108528952Y-128976904D01*
X108528952Y-128167380D01*
X109005142Y-129167380D02*
X109005142Y-128167380D01*
X109433714Y-129119761D02*
X109576571Y-129167380D01*
X109814666Y-129167380D01*
X109909904Y-129119761D01*
X109957523Y-129072142D01*
X110005142Y-128976904D01*
X110005142Y-128881666D01*
X109957523Y-128786428D01*
X109909904Y-128738809D01*
X109814666Y-128691190D01*
X109624190Y-128643571D01*
X109528952Y-128595952D01*
X109481333Y-128548333D01*
X109433714Y-128453095D01*
X109433714Y-128357857D01*
X109481333Y-128262619D01*
X109528952Y-128215000D01*
X109624190Y-128167380D01*
X109862285Y-128167380D01*
X110005142Y-128215000D01*
X110433714Y-128643571D02*
X110767047Y-128643571D01*
X110909904Y-129167380D02*
X110433714Y-129167380D01*
X110433714Y-128167380D01*
X110909904Y-128167380D01*
X112671809Y-129072142D02*
X112624190Y-129119761D01*
X112481333Y-129167380D01*
X112386095Y-129167380D01*
X112243238Y-129119761D01*
X112147999Y-129024523D01*
X112100380Y-128929285D01*
X112052761Y-128738809D01*
X112052761Y-128595952D01*
X112100380Y-128405476D01*
X112147999Y-128310238D01*
X112243238Y-128215000D01*
X112386095Y-128167380D01*
X112481333Y-128167380D01*
X112624190Y-128215000D01*
X112671809Y-128262619D01*
X113290857Y-128167380D02*
X113481333Y-128167380D01*
X113576571Y-128215000D01*
X113671809Y-128310238D01*
X113719428Y-128500714D01*
X113719428Y-128834047D01*
X113671809Y-129024523D01*
X113576571Y-129119761D01*
X113481333Y-129167380D01*
X113290857Y-129167380D01*
X113195619Y-129119761D01*
X113100380Y-129024523D01*
X113052761Y-128834047D01*
X113052761Y-128500714D01*
X113100380Y-128310238D01*
X113195619Y-128215000D01*
X113290857Y-128167380D01*
X114147999Y-129167380D02*
X114147999Y-128167380D01*
X114719428Y-129167380D01*
X114719428Y-128167380D01*
X115052761Y-128167380D02*
X115624190Y-128167380D01*
X115338476Y-129167380D02*
X115338476Y-128167380D01*
X116528952Y-129167380D02*
X116195619Y-128691190D01*
X115957523Y-129167380D02*
X115957523Y-128167380D01*
X116338476Y-128167380D01*
X116433714Y-128215000D01*
X116481333Y-128262619D01*
X116528952Y-128357857D01*
X116528952Y-128500714D01*
X116481333Y-128595952D01*
X116433714Y-128643571D01*
X116338476Y-128691190D01*
X115957523Y-128691190D01*
X117147999Y-128167380D02*
X117338476Y-128167380D01*
X117433714Y-128215000D01*
X117528952Y-128310238D01*
X117576571Y-128500714D01*
X117576571Y-128834047D01*
X117528952Y-129024523D01*
X117433714Y-129119761D01*
X117338476Y-129167380D01*
X117147999Y-129167380D01*
X117052761Y-129119761D01*
X116957523Y-129024523D01*
X116909904Y-128834047D01*
X116909904Y-128500714D01*
X116957523Y-128310238D01*
X117052761Y-128215000D01*
X117147999Y-128167380D01*
X118481333Y-129167380D02*
X118005142Y-129167380D01*
X118005142Y-128167380D01*
X95338476Y-130817380D02*
X95338476Y-129817380D01*
X95576571Y-129817380D01*
X95719428Y-129865000D01*
X95814666Y-129960238D01*
X95862285Y-130055476D01*
X95909904Y-130245952D01*
X95909904Y-130388809D01*
X95862285Y-130579285D01*
X95814666Y-130674523D01*
X95719428Y-130769761D01*
X95576571Y-130817380D01*
X95338476Y-130817380D01*
X96338476Y-130293571D02*
X96671809Y-130293571D01*
X96814666Y-130817380D02*
X96338476Y-130817380D01*
X96338476Y-129817380D01*
X96814666Y-129817380D01*
X97195619Y-130769761D02*
X97338476Y-130817380D01*
X97576571Y-130817380D01*
X97671809Y-130769761D01*
X97719428Y-130722142D01*
X97767047Y-130626904D01*
X97767047Y-130531666D01*
X97719428Y-130436428D01*
X97671809Y-130388809D01*
X97576571Y-130341190D01*
X97386095Y-130293571D01*
X97290857Y-130245952D01*
X97243238Y-130198333D01*
X97195619Y-130103095D01*
X97195619Y-130007857D01*
X97243238Y-129912619D01*
X97290857Y-129865000D01*
X97386095Y-129817380D01*
X97624190Y-129817380D01*
X97767047Y-129865000D01*
X98195619Y-130817380D02*
X98195619Y-129817380D01*
X99195619Y-129865000D02*
X99100380Y-129817380D01*
X98957523Y-129817380D01*
X98814666Y-129865000D01*
X98719428Y-129960238D01*
X98671809Y-130055476D01*
X98624190Y-130245952D01*
X98624190Y-130388809D01*
X98671809Y-130579285D01*
X98719428Y-130674523D01*
X98814666Y-130769761D01*
X98957523Y-130817380D01*
X99052761Y-130817380D01*
X99195619Y-130769761D01*
X99243238Y-130722142D01*
X99243238Y-130388809D01*
X99052761Y-130388809D01*
X99671809Y-130817380D02*
X99671809Y-129817380D01*
X100243238Y-130817380D01*
X100243238Y-129817380D01*
X100719428Y-130293571D02*
X101052761Y-130293571D01*
X101195619Y-130817380D02*
X100719428Y-130817380D01*
X100719428Y-129817380D01*
X101195619Y-129817380D01*
X101624190Y-130817380D02*
X101624190Y-129817380D01*
X101862285Y-129817380D01*
X102005142Y-129865000D01*
X102100380Y-129960238D01*
X102148000Y-130055476D01*
X102195619Y-130245952D01*
X102195619Y-130388809D01*
X102148000Y-130579285D01*
X102100380Y-130674523D01*
X102005142Y-130769761D01*
X101862285Y-130817380D01*
X101624190Y-130817380D01*
X103719428Y-130293571D02*
X103862285Y-130341190D01*
X103909904Y-130388809D01*
X103957523Y-130484047D01*
X103957523Y-130626904D01*
X103909904Y-130722142D01*
X103862285Y-130769761D01*
X103767047Y-130817380D01*
X103386095Y-130817380D01*
X103386095Y-129817380D01*
X103719428Y-129817380D01*
X103814666Y-129865000D01*
X103862285Y-129912619D01*
X103909904Y-130007857D01*
X103909904Y-130103095D01*
X103862285Y-130198333D01*
X103814666Y-130245952D01*
X103719428Y-130293571D01*
X103386095Y-130293571D01*
X104576571Y-130341190D02*
X104576571Y-130817380D01*
X104243238Y-129817380D02*
X104576571Y-130341190D01*
X104909904Y-129817380D01*
X106005142Y-130817380D02*
X106005142Y-129817380D01*
X106957523Y-130817380D02*
X106481333Y-130817380D01*
X106481333Y-129817380D01*
X107290857Y-130817380D02*
X107290857Y-129817380D01*
X107719428Y-130531666D02*
X108195619Y-130531666D01*
X107624190Y-130817380D02*
X107957523Y-129817380D01*
X108290857Y-130817380D01*
X108576571Y-130769761D02*
X108719428Y-130817380D01*
X108957523Y-130817380D01*
X109052761Y-130769761D01*
X109100380Y-130722142D01*
X109148000Y-130626904D01*
X109148000Y-130531666D01*
X109100380Y-130436428D01*
X109052761Y-130388809D01*
X108957523Y-130341190D01*
X108767047Y-130293571D01*
X108671809Y-130245952D01*
X108624190Y-130198333D01*
X108576571Y-130103095D01*
X108576571Y-130007857D01*
X108624190Y-129912619D01*
X108671809Y-129865000D01*
X108767047Y-129817380D01*
X109005142Y-129817380D01*
X109148000Y-129865000D01*
X110814666Y-130817380D02*
X110338476Y-130817380D01*
X110338476Y-129817380D01*
X111338476Y-129817380D02*
X111528952Y-129817380D01*
X111624190Y-129865000D01*
X111719428Y-129960238D01*
X111767047Y-130150714D01*
X111767047Y-130484047D01*
X111719428Y-130674523D01*
X111624190Y-130769761D01*
X111528952Y-130817380D01*
X111338476Y-130817380D01*
X111243238Y-130769761D01*
X111148000Y-130674523D01*
X111100380Y-130484047D01*
X111100380Y-130150714D01*
X111148000Y-129960238D01*
X111243238Y-129865000D01*
X111338476Y-129817380D01*
X112671809Y-130817380D02*
X112195619Y-130817380D01*
X112195619Y-129817380D01*
X113005142Y-130817380D02*
X113005142Y-129817380D01*
X113433714Y-130769761D02*
X113576571Y-130817380D01*
X113814666Y-130817380D01*
X113909904Y-130769761D01*
X113957523Y-130722142D01*
X114005142Y-130626904D01*
X114005142Y-130531666D01*
X113957523Y-130436428D01*
X113909904Y-130388809D01*
X113814666Y-130341190D01*
X113624190Y-130293571D01*
X113528952Y-130245952D01*
X113481333Y-130198333D01*
X113433714Y-130103095D01*
X113433714Y-130007857D01*
X113481333Y-129912619D01*
X113528952Y-129865000D01*
X113624190Y-129817380D01*
X113862285Y-129817380D01*
X114005142Y-129865000D01*
X65421666Y-131338095D02*
X65421666Y-130861904D01*
X65707380Y-131433333D02*
X64707380Y-131100000D01*
X65707380Y-130766666D01*
X65612142Y-129861904D02*
X65659761Y-129909523D01*
X65707380Y-130052380D01*
X65707380Y-130147619D01*
X65659761Y-130290476D01*
X65564523Y-130385714D01*
X65469285Y-130433333D01*
X65278809Y-130480952D01*
X65135952Y-130480952D01*
X64945476Y-130433333D01*
X64850238Y-130385714D01*
X64755000Y-130290476D01*
X64707380Y-130147619D01*
X64707380Y-130052380D01*
X64755000Y-129909523D01*
X64802619Y-129861904D01*
X65612142Y-128861904D02*
X65659761Y-128909523D01*
X65707380Y-129052380D01*
X65707380Y-129147619D01*
X65659761Y-129290476D01*
X65564523Y-129385714D01*
X65469285Y-129433333D01*
X65278809Y-129480952D01*
X65135952Y-129480952D01*
X64945476Y-129433333D01*
X64850238Y-129385714D01*
X64755000Y-129290476D01*
X64707380Y-129147619D01*
X64707380Y-129052380D01*
X64755000Y-128909523D01*
X64802619Y-128861904D01*
X65183571Y-128433333D02*
X65183571Y-128100000D01*
X65707380Y-127957142D02*
X65707380Y-128433333D01*
X64707380Y-128433333D01*
X64707380Y-127957142D01*
X65707380Y-127052380D02*
X65707380Y-127528571D01*
X64707380Y-127528571D01*
X65707380Y-125957142D02*
X64707380Y-125957142D01*
X64707380Y-125576190D01*
X64755000Y-125480952D01*
X64802619Y-125433333D01*
X64897857Y-125385714D01*
X65040714Y-125385714D01*
X65135952Y-125433333D01*
X65183571Y-125480952D01*
X65231190Y-125576190D01*
X65231190Y-125957142D01*
X65183571Y-124957142D02*
X65183571Y-124623809D01*
X65707380Y-124480952D02*
X65707380Y-124957142D01*
X64707380Y-124957142D01*
X64707380Y-124480952D01*
X65707380Y-124052380D02*
X64707380Y-124052380D01*
X64707380Y-123814285D01*
X64755000Y-123671428D01*
X64850238Y-123576190D01*
X64945476Y-123528571D01*
X65135952Y-123480952D01*
X65278809Y-123480952D01*
X65469285Y-123528571D01*
X65564523Y-123576190D01*
X65659761Y-123671428D01*
X65707380Y-123814285D01*
X65707380Y-124052380D01*
X65421666Y-123100000D02*
X65421666Y-122623809D01*
X65707380Y-123195238D02*
X64707380Y-122861904D01*
X65707380Y-122528571D01*
X65707380Y-121719047D02*
X65707380Y-122195238D01*
X64707380Y-122195238D01*
X65659761Y-121433333D02*
X65707380Y-121290476D01*
X65707380Y-121052380D01*
X65659761Y-120957142D01*
X65612142Y-120909523D01*
X65516904Y-120861904D01*
X65421666Y-120861904D01*
X65326428Y-120909523D01*
X65278809Y-120957142D01*
X65231190Y-121052380D01*
X65183571Y-121242857D01*
X65135952Y-121338095D01*
X65088333Y-121385714D01*
X64993095Y-121433333D01*
X64897857Y-121433333D01*
X64802619Y-121385714D01*
X64755000Y-121338095D01*
X64707380Y-121242857D01*
X64707380Y-121004761D01*
X64755000Y-120861904D01*
X67357380Y-128671428D02*
X66357380Y-128671428D01*
X67357380Y-128195238D02*
X66357380Y-128195238D01*
X67357380Y-127623809D01*
X66357380Y-127623809D01*
X67357380Y-126338095D02*
X67357380Y-126385714D01*
X67309761Y-126480952D01*
X67166904Y-126623809D01*
X66881190Y-126861904D01*
X66738333Y-126957142D01*
X66595476Y-127004761D01*
X66500238Y-127004761D01*
X66405000Y-126957142D01*
X66357380Y-126861904D01*
X66357380Y-126814285D01*
X66405000Y-126719047D01*
X66500238Y-126671428D01*
X66547857Y-126671428D01*
X66643095Y-126719047D01*
X66690714Y-126766666D01*
X66881190Y-127052380D01*
X66928809Y-127100000D01*
X67024047Y-127147619D01*
X67166904Y-127147619D01*
X67262142Y-127100000D01*
X67309761Y-127052380D01*
X67357380Y-126957142D01*
X67357380Y-126814285D01*
X67309761Y-126719047D01*
X67262142Y-126671428D01*
X67071666Y-126528571D01*
X66928809Y-126480952D01*
X66833571Y-126480952D01*
X66357380Y-125719047D02*
X66357380Y-125528571D01*
X66405000Y-125433333D01*
X66500238Y-125338095D01*
X66690714Y-125290476D01*
X67024047Y-125290476D01*
X67214523Y-125338095D01*
X67309761Y-125433333D01*
X67357380Y-125528571D01*
X67357380Y-125719047D01*
X67309761Y-125814285D01*
X67214523Y-125909523D01*
X67024047Y-125957142D01*
X66690714Y-125957142D01*
X66500238Y-125909523D01*
X66405000Y-125814285D01*
X66357380Y-125719047D01*
X66357380Y-124861904D02*
X67166904Y-124861904D01*
X67262142Y-124814285D01*
X67309761Y-124766666D01*
X67357380Y-124671428D01*
X67357380Y-124480952D01*
X67309761Y-124385714D01*
X67262142Y-124338095D01*
X67166904Y-124290476D01*
X66357380Y-124290476D01*
X66357380Y-123957142D02*
X66357380Y-123385714D01*
X67357380Y-123671428D02*
X66357380Y-123671428D01*
X117619047Y-56404761D02*
X116876190Y-56404761D01*
X117247619Y-56404761D02*
X117247619Y-54404761D01*
X117123809Y-54690476D01*
X117000000Y-54880952D01*
X116876190Y-54976190D01*
X118114285Y-54595238D02*
X118176190Y-54500000D01*
X118300000Y-54404761D01*
X118609523Y-54404761D01*
X118733333Y-54500000D01*
X118795238Y-54595238D01*
X118857142Y-54785714D01*
X118857142Y-54976190D01*
X118795238Y-55261904D01*
X118052380Y-56404761D01*
X118857142Y-56404761D01*
X119228571Y-54404761D02*
X119661904Y-56404761D01*
X120095238Y-54404761D01*
X120838095Y-57071428D02*
X120838095Y-54214285D01*
X122447619Y-54500000D02*
X122323809Y-54404761D01*
X122138095Y-54404761D01*
X121952380Y-54500000D01*
X121828571Y-54690476D01*
X121766666Y-54880952D01*
X121704761Y-55261904D01*
X121704761Y-55547619D01*
X121766666Y-55928571D01*
X121828571Y-56119047D01*
X121952380Y-56309523D01*
X122138095Y-56404761D01*
X122261904Y-56404761D01*
X122447619Y-56309523D01*
X122509523Y-56214285D01*
X122509523Y-55547619D01*
X122261904Y-55547619D01*
X123066666Y-56404761D02*
X123066666Y-54404761D01*
X123809523Y-56404761D01*
X123809523Y-54404761D01*
X124428571Y-56404761D02*
X124428571Y-54404761D01*
X124738095Y-54404761D01*
X124923809Y-54500000D01*
X125047619Y-54690476D01*
X125109523Y-54880952D01*
X125171428Y-55261904D01*
X125171428Y-55547619D01*
X125109523Y-55928571D01*
X125047619Y-56119047D01*
X124923809Y-56309523D01*
X124738095Y-56404761D01*
X124428571Y-56404761D01*
X126038095Y-57071428D02*
X126038095Y-54214285D01*
X126904761Y-55833333D02*
X127523809Y-55833333D01*
X126780952Y-56404761D02*
X127214285Y-54404761D01*
X127647619Y-56404761D01*
X128823809Y-56214285D02*
X128761904Y-56309523D01*
X128576190Y-56404761D01*
X128452380Y-56404761D01*
X128266666Y-56309523D01*
X128142857Y-56119047D01*
X128080952Y-55928571D01*
X128019047Y-55547619D01*
X128019047Y-55261904D01*
X128080952Y-54880952D01*
X128142857Y-54690476D01*
X128266666Y-54500000D01*
X128452380Y-54404761D01*
X128576190Y-54404761D01*
X128761904Y-54500000D01*
X128823809Y-54595238D01*
X130123809Y-56214285D02*
X130061904Y-56309523D01*
X129876190Y-56404761D01*
X129752380Y-56404761D01*
X129566666Y-56309523D01*
X129442857Y-56119047D01*
X129380952Y-55928571D01*
X129319047Y-55547619D01*
X129319047Y-55261904D01*
X129380952Y-54880952D01*
X129442857Y-54690476D01*
X129566666Y-54500000D01*
X129752380Y-54404761D01*
X129876190Y-54404761D01*
X130061904Y-54500000D01*
X130123809Y-54595238D01*
X97361904Y-39566666D02*
X97838095Y-39566666D01*
X97266666Y-39852380D02*
X97600000Y-38852380D01*
X97933333Y-39852380D01*
X98266666Y-38852380D02*
X98266666Y-39661904D01*
X98314285Y-39757142D01*
X98361904Y-39804761D01*
X98457142Y-39852380D01*
X98647619Y-39852380D01*
X98742857Y-39804761D01*
X98790476Y-39757142D01*
X98838095Y-39661904D01*
X98838095Y-38852380D01*
X99219047Y-38852380D02*
X99885714Y-39852380D01*
X99885714Y-38852380D02*
X99219047Y-39852380D01*
X50428571Y-65166666D02*
X50476190Y-65023809D01*
X50523809Y-64976190D01*
X50619047Y-64928571D01*
X50761904Y-64928571D01*
X50857142Y-64976190D01*
X50904761Y-65023809D01*
X50952380Y-65119047D01*
X50952380Y-65500000D01*
X49952380Y-65500000D01*
X49952380Y-65166666D01*
X50000000Y-65071428D01*
X50047619Y-65023809D01*
X50142857Y-64976190D01*
X50238095Y-64976190D01*
X50333333Y-65023809D01*
X50380952Y-65071428D01*
X50428571Y-65166666D01*
X50428571Y-65500000D01*
X49952380Y-64500000D02*
X50761904Y-64500000D01*
X50857142Y-64452380D01*
X50904761Y-64404761D01*
X50952380Y-64309523D01*
X50952380Y-64119047D01*
X50904761Y-64023809D01*
X50857142Y-63976190D01*
X50761904Y-63928571D01*
X49952380Y-63928571D01*
X49952380Y-63595238D02*
X49952380Y-63023809D01*
X50952380Y-63309523D02*
X49952380Y-63309523D01*
X49952380Y-62833333D02*
X49952380Y-62261904D01*
X50952380Y-62547619D02*
X49952380Y-62547619D01*
X49952380Y-61738095D02*
X49952380Y-61547619D01*
X50000000Y-61452380D01*
X50095238Y-61357142D01*
X50285714Y-61309523D01*
X50619047Y-61309523D01*
X50809523Y-61357142D01*
X50904761Y-61452380D01*
X50952380Y-61547619D01*
X50952380Y-61738095D01*
X50904761Y-61833333D01*
X50809523Y-61928571D01*
X50619047Y-61976190D01*
X50285714Y-61976190D01*
X50095238Y-61928571D01*
X50000000Y-61833333D01*
X49952380Y-61738095D01*
X50952380Y-60880952D02*
X49952380Y-60880952D01*
X50952380Y-60309523D01*
X49952380Y-60309523D01*
X50952380Y-58595238D02*
X50952380Y-59071428D01*
X49952380Y-59071428D01*
X50952380Y-58261904D02*
X49952380Y-58261904D01*
X50000000Y-57261904D02*
X49952380Y-57357142D01*
X49952380Y-57500000D01*
X50000000Y-57642857D01*
X50095238Y-57738095D01*
X50190476Y-57785714D01*
X50380952Y-57833333D01*
X50523809Y-57833333D01*
X50714285Y-57785714D01*
X50809523Y-57738095D01*
X50904761Y-57642857D01*
X50952380Y-57500000D01*
X50952380Y-57404761D01*
X50904761Y-57261904D01*
X50857142Y-57214285D01*
X50523809Y-57214285D01*
X50523809Y-57404761D01*
X50952380Y-56785714D02*
X49952380Y-56785714D01*
X50428571Y-56785714D02*
X50428571Y-56214285D01*
X50952380Y-56214285D02*
X49952380Y-56214285D01*
X49952380Y-55880952D02*
X49952380Y-55309523D01*
X50952380Y-55595238D02*
X49952380Y-55595238D01*
X50904761Y-55023809D02*
X50952380Y-54880952D01*
X50952380Y-54642857D01*
X50904761Y-54547619D01*
X50857142Y-54500000D01*
X50761904Y-54452380D01*
X50666666Y-54452380D01*
X50571428Y-54500000D01*
X50523809Y-54547619D01*
X50476190Y-54642857D01*
X50428571Y-54833333D01*
X50380952Y-54928571D01*
X50333333Y-54976190D01*
X50238095Y-55023809D01*
X50142857Y-55023809D01*
X50047619Y-54976190D01*
X50000000Y-54928571D01*
X49952380Y-54833333D01*
X49952380Y-54595238D01*
X50000000Y-54452380D01*
X47127380Y-45761904D02*
X48127380Y-45523809D01*
X47413095Y-45333333D01*
X48127380Y-45142857D01*
X47127380Y-44904761D01*
X48127380Y-44523809D02*
X47127380Y-44523809D01*
X47603571Y-44523809D02*
X47603571Y-43952380D01*
X48127380Y-43952380D02*
X47127380Y-43952380D01*
X47603571Y-43476190D02*
X47603571Y-43142857D01*
X48127380Y-43000000D02*
X48127380Y-43476190D01*
X47127380Y-43476190D01*
X47127380Y-43000000D01*
X47603571Y-42571428D02*
X47603571Y-42238095D01*
X48127380Y-42095238D02*
X48127380Y-42571428D01*
X47127380Y-42571428D01*
X47127380Y-42095238D01*
X48127380Y-41190476D02*
X48127380Y-41666666D01*
X47127380Y-41666666D01*
X49729761Y-46738095D02*
X49777380Y-46595238D01*
X49777380Y-46357142D01*
X49729761Y-46261904D01*
X49682142Y-46214285D01*
X49586904Y-46166666D01*
X49491666Y-46166666D01*
X49396428Y-46214285D01*
X49348809Y-46261904D01*
X49301190Y-46357142D01*
X49253571Y-46547619D01*
X49205952Y-46642857D01*
X49158333Y-46690476D01*
X49063095Y-46738095D01*
X48967857Y-46738095D01*
X48872619Y-46690476D01*
X48825000Y-46642857D01*
X48777380Y-46547619D01*
X48777380Y-46309523D01*
X48825000Y-46166666D01*
X49253571Y-45738095D02*
X49253571Y-45404761D01*
X49777380Y-45261904D02*
X49777380Y-45738095D01*
X48777380Y-45738095D01*
X48777380Y-45261904D01*
X49777380Y-44833333D02*
X48777380Y-44833333D01*
X49777380Y-44261904D01*
X48777380Y-44261904D01*
X49729761Y-43833333D02*
X49777380Y-43690476D01*
X49777380Y-43452380D01*
X49729761Y-43357142D01*
X49682142Y-43309523D01*
X49586904Y-43261904D01*
X49491666Y-43261904D01*
X49396428Y-43309523D01*
X49348809Y-43357142D01*
X49301190Y-43452380D01*
X49253571Y-43642857D01*
X49205952Y-43738095D01*
X49158333Y-43785714D01*
X49063095Y-43833333D01*
X48967857Y-43833333D01*
X48872619Y-43785714D01*
X48825000Y-43738095D01*
X48777380Y-43642857D01*
X48777380Y-43404761D01*
X48825000Y-43261904D01*
X48777380Y-42642857D02*
X48777380Y-42452380D01*
X48825000Y-42357142D01*
X48920238Y-42261904D01*
X49110714Y-42214285D01*
X49444047Y-42214285D01*
X49634523Y-42261904D01*
X49729761Y-42357142D01*
X49777380Y-42452380D01*
X49777380Y-42642857D01*
X49729761Y-42738095D01*
X49634523Y-42833333D01*
X49444047Y-42880952D01*
X49110714Y-42880952D01*
X48920238Y-42833333D01*
X48825000Y-42738095D01*
X48777380Y-42642857D01*
X49777380Y-41214285D02*
X49301190Y-41547619D01*
X49777380Y-41785714D02*
X48777380Y-41785714D01*
X48777380Y-41404761D01*
X48825000Y-41309523D01*
X48872619Y-41261904D01*
X48967857Y-41214285D01*
X49110714Y-41214285D01*
X49205952Y-41261904D01*
X49253571Y-41309523D01*
X49301190Y-41404761D01*
X49301190Y-41785714D01*
X49729761Y-40833333D02*
X49777380Y-40690476D01*
X49777380Y-40452380D01*
X49729761Y-40357142D01*
X49682142Y-40309523D01*
X49586904Y-40261904D01*
X49491666Y-40261904D01*
X49396428Y-40309523D01*
X49348809Y-40357142D01*
X49301190Y-40452380D01*
X49253571Y-40642857D01*
X49205952Y-40738095D01*
X49158333Y-40785714D01*
X49063095Y-40833333D01*
X48967857Y-40833333D01*
X48872619Y-40785714D01*
X48825000Y-40738095D01*
X48777380Y-40642857D01*
X48777380Y-40404761D01*
X48825000Y-40261904D01*
D11*
%TO.C,A1*%
X75870000Y-52020000D02*
X75870000Y-49480000D01*
X75870000Y-49480000D02*
X73200000Y-49480000D01*
X73200000Y-52020000D02*
X73200000Y-90250000D01*
X73200000Y-46810000D02*
X73200000Y-49480000D01*
X88570000Y-49480000D02*
X91240000Y-49480000D01*
X88570000Y-49480000D02*
X88570000Y-87580000D01*
X88570000Y-87580000D02*
X91240000Y-87580000D01*
X75870000Y-52020000D02*
X73200000Y-52020000D01*
X75870000Y-52020000D02*
X75870000Y-87580000D01*
X75870000Y-87580000D02*
X73200000Y-87580000D01*
X73200000Y-90250000D02*
X91240000Y-90250000D01*
X91240000Y-90250000D02*
X91240000Y-46810000D01*
X91240000Y-46810000D02*
X73200000Y-46810000D01*
%TO.C,D14*%
X126150000Y-101300000D02*
X126150000Y-98000000D01*
X126150000Y-98000000D02*
X119250000Y-98000000D01*
X126150000Y-101300000D02*
X119250000Y-101300000D01*
%TO.C,J1*%
X74260000Y-116240000D02*
X68290000Y-116240000D01*
X68290000Y-116240000D02*
X68290000Y-131360000D01*
X68290000Y-131360000D02*
X74260000Y-131360000D01*
X74260000Y-131360000D02*
X74260000Y-116240000D01*
X74250000Y-119550000D02*
X73500000Y-119550000D01*
X73500000Y-119550000D02*
X73500000Y-128050000D01*
X73500000Y-128050000D02*
X74250000Y-128050000D01*
X74250000Y-128050000D02*
X74250000Y-119550000D01*
X74250000Y-116250000D02*
X73500000Y-116250000D01*
X73500000Y-116250000D02*
X73500000Y-118050000D01*
X73500000Y-118050000D02*
X74250000Y-118050000D01*
X74250000Y-118050000D02*
X74250000Y-116250000D01*
X74250000Y-129550000D02*
X73500000Y-129550000D01*
X73500000Y-129550000D02*
X73500000Y-131350000D01*
X73500000Y-131350000D02*
X74250000Y-131350000D01*
X74250000Y-131350000D02*
X74250000Y-129550000D01*
X72000000Y-116250000D02*
X72000000Y-117000000D01*
X72000000Y-117000000D02*
X69050000Y-117000000D01*
X69050000Y-117000000D02*
X69050000Y-123800000D01*
X72000000Y-131350000D02*
X72000000Y-130600000D01*
X72000000Y-130600000D02*
X69050000Y-130600000D01*
X69050000Y-130600000D02*
X69050000Y-123800000D01*
X74550000Y-117200000D02*
X74550000Y-115950000D01*
X74550000Y-115950000D02*
X73300000Y-115950000D01*
%TO.C,K2*%
X63650000Y-113750000D02*
X63650000Y-112750000D01*
X63650000Y-116250000D02*
X63650000Y-115350000D01*
X63650000Y-120750000D02*
X63650000Y-117950000D01*
X55950000Y-120750000D02*
X63650000Y-120750000D01*
X55950000Y-117950000D02*
X55950000Y-120750000D01*
X55950000Y-115350000D02*
X55950000Y-116250000D01*
X55950000Y-112750000D02*
X55950000Y-113750000D01*
X55950000Y-107750000D02*
X54750000Y-107750000D01*
X55950000Y-107750000D02*
X55950000Y-111050000D01*
X63650000Y-107750000D02*
X63650000Y-111050000D01*
X63650000Y-105650000D02*
X63650000Y-106050000D01*
X55950000Y-105650000D02*
X63650000Y-105650000D01*
X55950000Y-106050000D02*
X55950000Y-105650000D01*
X54750000Y-106050000D02*
X55950000Y-106050000D01*
%TO.C,K1*%
X56920000Y-100750000D02*
X57920000Y-100750000D01*
X54420000Y-100750000D02*
X55320000Y-100750000D01*
X49920000Y-100750000D02*
X52720000Y-100750000D01*
X49920000Y-93050000D02*
X49920000Y-100750000D01*
X52720000Y-93050000D02*
X49920000Y-93050000D01*
X55320000Y-93050000D02*
X54420000Y-93050000D01*
X57920000Y-93050000D02*
X56920000Y-93050000D01*
X62920000Y-93050000D02*
X62920000Y-91850000D01*
X62920000Y-93050000D02*
X59620000Y-93050000D01*
X62920000Y-100750000D02*
X59620000Y-100750000D01*
X65020000Y-100750000D02*
X64620000Y-100750000D01*
X65020000Y-93050000D02*
X65020000Y-100750000D01*
X64620000Y-93050000D02*
X65020000Y-93050000D01*
X64620000Y-91850000D02*
X64620000Y-93050000D01*
%TO.C,U4*%
X83560000Y-99720000D02*
X83560000Y-97820000D01*
X81240000Y-98320000D02*
X81240000Y-99720000D01*
%TO.C,U3*%
X91183500Y-94311000D02*
X89303500Y-94311000D01*
X91183500Y-94311000D02*
X93063500Y-94311000D01*
X91183500Y-99491000D02*
X89303500Y-99491000D01*
X91183500Y-99491000D02*
X94708500Y-99491000D01*
%TO.C,U2*%
X69713000Y-49465000D02*
X69713000Y-47515000D01*
X69713000Y-49465000D02*
X69713000Y-51415000D01*
X60843000Y-49465000D02*
X60843000Y-47515000D01*
X60843000Y-49465000D02*
X60843000Y-52915000D01*
%TO.C,U1*%
X111156000Y-86136000D02*
X109396000Y-86136000D01*
X109396000Y-89206000D02*
X111826000Y-89206000D01*
%TO.C,R27*%
X106066000Y-89924936D02*
X106066000Y-91379064D01*
X104246000Y-89924936D02*
X104246000Y-91379064D01*
%TO.C,R16*%
X107057064Y-54754000D02*
X105602936Y-54754000D01*
X107057064Y-52934000D02*
X105602936Y-52934000D01*
%TO.C,R15*%
X105602936Y-55728000D02*
X107057064Y-55728000D01*
X105602936Y-57548000D02*
X107057064Y-57548000D01*
%TO.C,R2*%
X98090000Y-84827064D02*
X98090000Y-83372936D01*
X99910000Y-84827064D02*
X99910000Y-83372936D01*
%TO.C,R1*%
X104410000Y-83346936D02*
X104410000Y-84801064D01*
X102590000Y-83346936D02*
X102590000Y-84801064D01*
%TO.C,Q2*%
X75530000Y-100950000D02*
X71930000Y-100950000D01*
X71891522Y-100961522D02*
G75*
G03*
X73730000Y-105400000I1838478J-1838478D01*
G01*
X75568478Y-100961522D02*
G75*
G02*
X73730000Y-105400000I-1838478J-1838478D01*
G01*
%TO.C,Q1*%
X79280000Y-112150000D02*
X75680000Y-112150000D01*
X75641522Y-112161522D02*
G75*
G03*
X77480000Y-116600000I1838478J-1838478D01*
G01*
X79318478Y-112161522D02*
G75*
G02*
X77480000Y-116600000I-1838478J-1838478D01*
G01*
%TO.C,L1*%
X124200000Y-89400000D02*
X124200000Y-91700000D01*
X124200000Y-91700000D02*
X116800000Y-91700000D01*
X116800000Y-91700000D02*
X116800000Y-89400000D01*
X116800000Y-86600000D02*
X116800000Y-84300000D01*
X116800000Y-84300000D02*
X124200000Y-84300000D01*
X124200000Y-84300000D02*
X124200000Y-86600000D01*
%TO.C,J5*%
X51860000Y-66564000D02*
X53110000Y-66564000D01*
X51860000Y-65314000D02*
X51860000Y-66564000D01*
X57360000Y-54414000D02*
X57360000Y-59964000D01*
X54410000Y-54414000D02*
X57360000Y-54414000D01*
X54410000Y-53664000D02*
X54410000Y-54414000D01*
X57360000Y-65514000D02*
X57360000Y-59964000D01*
X54410000Y-65514000D02*
X57360000Y-65514000D01*
X54410000Y-66264000D02*
X54410000Y-65514000D01*
X52160000Y-53664000D02*
X52160000Y-55464000D01*
X52910000Y-53664000D02*
X52160000Y-53664000D01*
X52910000Y-55464000D02*
X52910000Y-53664000D01*
X52160000Y-55464000D02*
X52910000Y-55464000D01*
X52160000Y-64464000D02*
X52160000Y-66264000D01*
X52910000Y-64464000D02*
X52160000Y-64464000D01*
X52910000Y-66264000D02*
X52910000Y-64464000D01*
X52160000Y-66264000D02*
X52910000Y-66264000D01*
X52160000Y-56964000D02*
X52160000Y-62964000D01*
X52910000Y-56964000D02*
X52160000Y-56964000D01*
X52910000Y-62964000D02*
X52910000Y-56964000D01*
X52160000Y-62964000D02*
X52910000Y-62964000D01*
X52150000Y-53654000D02*
X52150000Y-66274000D01*
X58120000Y-53654000D02*
X52150000Y-53654000D01*
X58120000Y-66274000D02*
X58120000Y-53654000D01*
X52150000Y-66274000D02*
X58120000Y-66274000D01*
%TO.C,J4*%
X118870000Y-56470000D02*
X118870000Y-62440000D01*
X118870000Y-62440000D02*
X128990000Y-62440000D01*
X128990000Y-62440000D02*
X128990000Y-56470000D01*
X128990000Y-56470000D02*
X118870000Y-56470000D01*
X122180000Y-56480000D02*
X122180000Y-57230000D01*
X122180000Y-57230000D02*
X125680000Y-57230000D01*
X125680000Y-57230000D02*
X125680000Y-56480000D01*
X125680000Y-56480000D02*
X122180000Y-56480000D01*
X118880000Y-56480000D02*
X118880000Y-57230000D01*
X118880000Y-57230000D02*
X120680000Y-57230000D01*
X120680000Y-57230000D02*
X120680000Y-56480000D01*
X120680000Y-56480000D02*
X118880000Y-56480000D01*
X127180000Y-56480000D02*
X127180000Y-57230000D01*
X127180000Y-57230000D02*
X128980000Y-57230000D01*
X128980000Y-57230000D02*
X128980000Y-56480000D01*
X128980000Y-56480000D02*
X127180000Y-56480000D01*
X118880000Y-58730000D02*
X119630000Y-58730000D01*
X119630000Y-58730000D02*
X119630000Y-61680000D01*
X119630000Y-61680000D02*
X123930000Y-61680000D01*
X128980000Y-58730000D02*
X128230000Y-58730000D01*
X128230000Y-58730000D02*
X128230000Y-61680000D01*
X128230000Y-61680000D02*
X123930000Y-61680000D01*
X119830000Y-56180000D02*
X118580000Y-56180000D01*
X118580000Y-56180000D02*
X118580000Y-57430000D01*
%TO.C,J3*%
X101398000Y-40870000D02*
X95428000Y-40870000D01*
X95428000Y-40870000D02*
X95428000Y-53490000D01*
X95428000Y-53490000D02*
X101398000Y-53490000D01*
X101398000Y-53490000D02*
X101398000Y-40870000D01*
X101388000Y-44180000D02*
X100638000Y-44180000D01*
X100638000Y-44180000D02*
X100638000Y-50180000D01*
X100638000Y-50180000D02*
X101388000Y-50180000D01*
X101388000Y-50180000D02*
X101388000Y-44180000D01*
X101388000Y-40880000D02*
X100638000Y-40880000D01*
X100638000Y-40880000D02*
X100638000Y-42680000D01*
X100638000Y-42680000D02*
X101388000Y-42680000D01*
X101388000Y-42680000D02*
X101388000Y-40880000D01*
X101388000Y-51680000D02*
X100638000Y-51680000D01*
X100638000Y-51680000D02*
X100638000Y-53480000D01*
X100638000Y-53480000D02*
X101388000Y-53480000D01*
X101388000Y-53480000D02*
X101388000Y-51680000D01*
X99138000Y-40880000D02*
X99138000Y-41630000D01*
X99138000Y-41630000D02*
X96188000Y-41630000D01*
X96188000Y-41630000D02*
X96188000Y-47180000D01*
X99138000Y-53480000D02*
X99138000Y-52730000D01*
X99138000Y-52730000D02*
X96188000Y-52730000D01*
X96188000Y-52730000D02*
X96188000Y-47180000D01*
X101688000Y-41830000D02*
X101688000Y-40580000D01*
X101688000Y-40580000D02*
X100438000Y-40580000D01*
%TO.C,J2*%
X56816000Y-39858000D02*
X50846000Y-39858000D01*
X50846000Y-39858000D02*
X50846000Y-47478000D01*
X50846000Y-47478000D02*
X56816000Y-47478000D01*
X56816000Y-47478000D02*
X56816000Y-39858000D01*
X56806000Y-43168000D02*
X56056000Y-43168000D01*
X56056000Y-43168000D02*
X56056000Y-44168000D01*
X56056000Y-44168000D02*
X56806000Y-44168000D01*
X56806000Y-44168000D02*
X56806000Y-43168000D01*
X56806000Y-39868000D02*
X56056000Y-39868000D01*
X56056000Y-39868000D02*
X56056000Y-41668000D01*
X56056000Y-41668000D02*
X56806000Y-41668000D01*
X56806000Y-41668000D02*
X56806000Y-39868000D01*
X56806000Y-45668000D02*
X56056000Y-45668000D01*
X56056000Y-45668000D02*
X56056000Y-47468000D01*
X56056000Y-47468000D02*
X56806000Y-47468000D01*
X56806000Y-47468000D02*
X56806000Y-45668000D01*
X54556000Y-39868000D02*
X54556000Y-40618000D01*
X54556000Y-40618000D02*
X51606000Y-40618000D01*
X51606000Y-40618000D02*
X51606000Y-43668000D01*
X54556000Y-47468000D02*
X54556000Y-46718000D01*
X54556000Y-46718000D02*
X51606000Y-46718000D01*
X51606000Y-46718000D02*
X51606000Y-43668000D01*
X57106000Y-40818000D02*
X57106000Y-39568000D01*
X57106000Y-39568000D02*
X55856000Y-39568000D01*
%TO.C,F1*%
X120998752Y-71910000D02*
X119576248Y-71910000D01*
X120998752Y-70090000D02*
X119576248Y-70090000D01*
%TO.C,D8*%
X102960000Y-44574000D02*
X102960000Y-47874000D01*
X102960000Y-47874000D02*
X109860000Y-47874000D01*
X102960000Y-44574000D02*
X109860000Y-44574000D01*
%TO.C,D7*%
X102880000Y-48384000D02*
X102880000Y-51684000D01*
X102880000Y-51684000D02*
X109780000Y-51684000D01*
X102880000Y-48384000D02*
X109780000Y-48384000D01*
%TO.C,C8*%
X65210000Y-86420000D02*
G75*
G03*
X65210000Y-86420000I-3270000J0D01*
G01*
X58710000Y-86420000D02*
X65170000Y-86420000D01*
X58710000Y-86380000D02*
X65170000Y-86380000D01*
X58710000Y-86340000D02*
X65170000Y-86340000D01*
X58712000Y-86300000D02*
X65168000Y-86300000D01*
X58713000Y-86260000D02*
X65167000Y-86260000D01*
X58716000Y-86220000D02*
X65164000Y-86220000D01*
X58718000Y-86180000D02*
X60900000Y-86180000D01*
X62980000Y-86180000D02*
X65162000Y-86180000D01*
X58722000Y-86140000D02*
X60900000Y-86140000D01*
X62980000Y-86140000D02*
X65158000Y-86140000D01*
X58725000Y-86100000D02*
X60900000Y-86100000D01*
X62980000Y-86100000D02*
X65155000Y-86100000D01*
X58729000Y-86060000D02*
X60900000Y-86060000D01*
X62980000Y-86060000D02*
X65151000Y-86060000D01*
X58734000Y-86020000D02*
X60900000Y-86020000D01*
X62980000Y-86020000D02*
X65146000Y-86020000D01*
X58739000Y-85980000D02*
X60900000Y-85980000D01*
X62980000Y-85980000D02*
X65141000Y-85980000D01*
X58745000Y-85940000D02*
X60900000Y-85940000D01*
X62980000Y-85940000D02*
X65135000Y-85940000D01*
X58751000Y-85900000D02*
X60900000Y-85900000D01*
X62980000Y-85900000D02*
X65129000Y-85900000D01*
X58758000Y-85860000D02*
X60900000Y-85860000D01*
X62980000Y-85860000D02*
X65122000Y-85860000D01*
X58765000Y-85820000D02*
X60900000Y-85820000D01*
X62980000Y-85820000D02*
X65115000Y-85820000D01*
X58773000Y-85780000D02*
X60900000Y-85780000D01*
X62980000Y-85780000D02*
X65107000Y-85780000D01*
X58781000Y-85740000D02*
X60900000Y-85740000D01*
X62980000Y-85740000D02*
X65099000Y-85740000D01*
X58790000Y-85699000D02*
X60900000Y-85699000D01*
X62980000Y-85699000D02*
X65090000Y-85699000D01*
X58799000Y-85659000D02*
X60900000Y-85659000D01*
X62980000Y-85659000D02*
X65081000Y-85659000D01*
X58809000Y-85619000D02*
X60900000Y-85619000D01*
X62980000Y-85619000D02*
X65071000Y-85619000D01*
X58819000Y-85579000D02*
X60900000Y-85579000D01*
X62980000Y-85579000D02*
X65061000Y-85579000D01*
X58830000Y-85539000D02*
X60900000Y-85539000D01*
X62980000Y-85539000D02*
X65050000Y-85539000D01*
X58842000Y-85499000D02*
X60900000Y-85499000D01*
X62980000Y-85499000D02*
X65038000Y-85499000D01*
X58854000Y-85459000D02*
X60900000Y-85459000D01*
X62980000Y-85459000D02*
X65026000Y-85459000D01*
X58866000Y-85419000D02*
X60900000Y-85419000D01*
X62980000Y-85419000D02*
X65014000Y-85419000D01*
X58879000Y-85379000D02*
X60900000Y-85379000D01*
X62980000Y-85379000D02*
X65001000Y-85379000D01*
X58893000Y-85339000D02*
X60900000Y-85339000D01*
X62980000Y-85339000D02*
X64987000Y-85339000D01*
X58907000Y-85299000D02*
X60900000Y-85299000D01*
X62980000Y-85299000D02*
X64973000Y-85299000D01*
X58922000Y-85259000D02*
X60900000Y-85259000D01*
X62980000Y-85259000D02*
X64958000Y-85259000D01*
X58938000Y-85219000D02*
X60900000Y-85219000D01*
X62980000Y-85219000D02*
X64942000Y-85219000D01*
X58954000Y-85179000D02*
X60900000Y-85179000D01*
X62980000Y-85179000D02*
X64926000Y-85179000D01*
X58970000Y-85139000D02*
X60900000Y-85139000D01*
X62980000Y-85139000D02*
X64910000Y-85139000D01*
X58988000Y-85099000D02*
X60900000Y-85099000D01*
X62980000Y-85099000D02*
X64892000Y-85099000D01*
X59006000Y-85059000D02*
X60900000Y-85059000D01*
X62980000Y-85059000D02*
X64874000Y-85059000D01*
X59024000Y-85019000D02*
X60900000Y-85019000D01*
X62980000Y-85019000D02*
X64856000Y-85019000D01*
X59044000Y-84979000D02*
X60900000Y-84979000D01*
X62980000Y-84979000D02*
X64836000Y-84979000D01*
X59064000Y-84939000D02*
X60900000Y-84939000D01*
X62980000Y-84939000D02*
X64816000Y-84939000D01*
X59084000Y-84899000D02*
X60900000Y-84899000D01*
X62980000Y-84899000D02*
X64796000Y-84899000D01*
X59106000Y-84859000D02*
X60900000Y-84859000D01*
X62980000Y-84859000D02*
X64774000Y-84859000D01*
X59128000Y-84819000D02*
X60900000Y-84819000D01*
X62980000Y-84819000D02*
X64752000Y-84819000D01*
X59150000Y-84779000D02*
X60900000Y-84779000D01*
X62980000Y-84779000D02*
X64730000Y-84779000D01*
X59174000Y-84739000D02*
X60900000Y-84739000D01*
X62980000Y-84739000D02*
X64706000Y-84739000D01*
X59198000Y-84699000D02*
X60900000Y-84699000D01*
X62980000Y-84699000D02*
X64682000Y-84699000D01*
X59224000Y-84659000D02*
X60900000Y-84659000D01*
X62980000Y-84659000D02*
X64656000Y-84659000D01*
X59250000Y-84619000D02*
X60900000Y-84619000D01*
X62980000Y-84619000D02*
X64630000Y-84619000D01*
X59276000Y-84579000D02*
X60900000Y-84579000D01*
X62980000Y-84579000D02*
X64604000Y-84579000D01*
X59304000Y-84539000D02*
X60900000Y-84539000D01*
X62980000Y-84539000D02*
X64576000Y-84539000D01*
X59333000Y-84499000D02*
X60900000Y-84499000D01*
X62980000Y-84499000D02*
X64547000Y-84499000D01*
X59362000Y-84459000D02*
X60900000Y-84459000D01*
X62980000Y-84459000D02*
X64518000Y-84459000D01*
X59392000Y-84419000D02*
X60900000Y-84419000D01*
X62980000Y-84419000D02*
X64488000Y-84419000D01*
X59424000Y-84379000D02*
X60900000Y-84379000D01*
X62980000Y-84379000D02*
X64456000Y-84379000D01*
X59456000Y-84339000D02*
X60900000Y-84339000D01*
X62980000Y-84339000D02*
X64424000Y-84339000D01*
X59490000Y-84299000D02*
X60900000Y-84299000D01*
X62980000Y-84299000D02*
X64390000Y-84299000D01*
X59524000Y-84259000D02*
X60900000Y-84259000D01*
X62980000Y-84259000D02*
X64356000Y-84259000D01*
X59560000Y-84219000D02*
X60900000Y-84219000D01*
X62980000Y-84219000D02*
X64320000Y-84219000D01*
X59597000Y-84179000D02*
X60900000Y-84179000D01*
X62980000Y-84179000D02*
X64283000Y-84179000D01*
X59635000Y-84139000D02*
X60900000Y-84139000D01*
X62980000Y-84139000D02*
X64245000Y-84139000D01*
X59675000Y-84099000D02*
X64205000Y-84099000D01*
X59716000Y-84059000D02*
X64164000Y-84059000D01*
X59758000Y-84019000D02*
X64122000Y-84019000D01*
X59803000Y-83979000D02*
X64077000Y-83979000D01*
X59848000Y-83939000D02*
X64032000Y-83939000D01*
X59896000Y-83899000D02*
X63984000Y-83899000D01*
X59945000Y-83859000D02*
X63935000Y-83859000D01*
X59996000Y-83819000D02*
X63884000Y-83819000D01*
X60050000Y-83779000D02*
X63830000Y-83779000D01*
X60106000Y-83739000D02*
X63774000Y-83739000D01*
X60164000Y-83699000D02*
X63716000Y-83699000D01*
X60226000Y-83659000D02*
X63654000Y-83659000D01*
X60290000Y-83619000D02*
X63590000Y-83619000D01*
X60359000Y-83579000D02*
X63521000Y-83579000D01*
X60431000Y-83539000D02*
X63449000Y-83539000D01*
X60508000Y-83499000D02*
X63372000Y-83499000D01*
X60590000Y-83459000D02*
X63290000Y-83459000D01*
X60678000Y-83419000D02*
X63202000Y-83419000D01*
X60775000Y-83379000D02*
X63105000Y-83379000D01*
X60881000Y-83339000D02*
X62999000Y-83339000D01*
X61000000Y-83299000D02*
X62880000Y-83299000D01*
X61138000Y-83259000D02*
X62742000Y-83259000D01*
X61307000Y-83219000D02*
X62573000Y-83219000D01*
X61538000Y-83179000D02*
X62342000Y-83179000D01*
X60101000Y-89920241D02*
X60101000Y-89290241D01*
X59786000Y-89605241D02*
X60416000Y-89605241D01*
%TO.C,C7*%
X66420000Y-78800000D02*
G75*
G03*
X66420000Y-78800000I-3270000J0D01*
G01*
X63150000Y-75570000D02*
X63150000Y-82030000D01*
X63190000Y-75570000D02*
X63190000Y-82030000D01*
X63230000Y-75570000D02*
X63230000Y-82030000D01*
X63270000Y-75572000D02*
X63270000Y-82028000D01*
X63310000Y-75573000D02*
X63310000Y-82027000D01*
X63350000Y-75576000D02*
X63350000Y-82024000D01*
X63390000Y-75578000D02*
X63390000Y-77760000D01*
X63390000Y-79840000D02*
X63390000Y-82022000D01*
X63430000Y-75582000D02*
X63430000Y-77760000D01*
X63430000Y-79840000D02*
X63430000Y-82018000D01*
X63470000Y-75585000D02*
X63470000Y-77760000D01*
X63470000Y-79840000D02*
X63470000Y-82015000D01*
X63510000Y-75589000D02*
X63510000Y-77760000D01*
X63510000Y-79840000D02*
X63510000Y-82011000D01*
X63550000Y-75594000D02*
X63550000Y-77760000D01*
X63550000Y-79840000D02*
X63550000Y-82006000D01*
X63590000Y-75599000D02*
X63590000Y-77760000D01*
X63590000Y-79840000D02*
X63590000Y-82001000D01*
X63630000Y-75605000D02*
X63630000Y-77760000D01*
X63630000Y-79840000D02*
X63630000Y-81995000D01*
X63670000Y-75611000D02*
X63670000Y-77760000D01*
X63670000Y-79840000D02*
X63670000Y-81989000D01*
X63710000Y-75618000D02*
X63710000Y-77760000D01*
X63710000Y-79840000D02*
X63710000Y-81982000D01*
X63750000Y-75625000D02*
X63750000Y-77760000D01*
X63750000Y-79840000D02*
X63750000Y-81975000D01*
X63790000Y-75633000D02*
X63790000Y-77760000D01*
X63790000Y-79840000D02*
X63790000Y-81967000D01*
X63830000Y-75641000D02*
X63830000Y-77760000D01*
X63830000Y-79840000D02*
X63830000Y-81959000D01*
X63871000Y-75650000D02*
X63871000Y-77760000D01*
X63871000Y-79840000D02*
X63871000Y-81950000D01*
X63911000Y-75659000D02*
X63911000Y-77760000D01*
X63911000Y-79840000D02*
X63911000Y-81941000D01*
X63951000Y-75669000D02*
X63951000Y-77760000D01*
X63951000Y-79840000D02*
X63951000Y-81931000D01*
X63991000Y-75679000D02*
X63991000Y-77760000D01*
X63991000Y-79840000D02*
X63991000Y-81921000D01*
X64031000Y-75690000D02*
X64031000Y-77760000D01*
X64031000Y-79840000D02*
X64031000Y-81910000D01*
X64071000Y-75702000D02*
X64071000Y-77760000D01*
X64071000Y-79840000D02*
X64071000Y-81898000D01*
X64111000Y-75714000D02*
X64111000Y-77760000D01*
X64111000Y-79840000D02*
X64111000Y-81886000D01*
X64151000Y-75726000D02*
X64151000Y-77760000D01*
X64151000Y-79840000D02*
X64151000Y-81874000D01*
X64191000Y-75739000D02*
X64191000Y-77760000D01*
X64191000Y-79840000D02*
X64191000Y-81861000D01*
X64231000Y-75753000D02*
X64231000Y-77760000D01*
X64231000Y-79840000D02*
X64231000Y-81847000D01*
X64271000Y-75767000D02*
X64271000Y-77760000D01*
X64271000Y-79840000D02*
X64271000Y-81833000D01*
X64311000Y-75782000D02*
X64311000Y-77760000D01*
X64311000Y-79840000D02*
X64311000Y-81818000D01*
X64351000Y-75798000D02*
X64351000Y-77760000D01*
X64351000Y-79840000D02*
X64351000Y-81802000D01*
X64391000Y-75814000D02*
X64391000Y-77760000D01*
X64391000Y-79840000D02*
X64391000Y-81786000D01*
X64431000Y-75830000D02*
X64431000Y-77760000D01*
X64431000Y-79840000D02*
X64431000Y-81770000D01*
X64471000Y-75848000D02*
X64471000Y-77760000D01*
X64471000Y-79840000D02*
X64471000Y-81752000D01*
X64511000Y-75866000D02*
X64511000Y-77760000D01*
X64511000Y-79840000D02*
X64511000Y-81734000D01*
X64551000Y-75884000D02*
X64551000Y-77760000D01*
X64551000Y-79840000D02*
X64551000Y-81716000D01*
X64591000Y-75904000D02*
X64591000Y-77760000D01*
X64591000Y-79840000D02*
X64591000Y-81696000D01*
X64631000Y-75924000D02*
X64631000Y-77760000D01*
X64631000Y-79840000D02*
X64631000Y-81676000D01*
X64671000Y-75944000D02*
X64671000Y-77760000D01*
X64671000Y-79840000D02*
X64671000Y-81656000D01*
X64711000Y-75966000D02*
X64711000Y-77760000D01*
X64711000Y-79840000D02*
X64711000Y-81634000D01*
X64751000Y-75988000D02*
X64751000Y-77760000D01*
X64751000Y-79840000D02*
X64751000Y-81612000D01*
X64791000Y-76010000D02*
X64791000Y-77760000D01*
X64791000Y-79840000D02*
X64791000Y-81590000D01*
X64831000Y-76034000D02*
X64831000Y-77760000D01*
X64831000Y-79840000D02*
X64831000Y-81566000D01*
X64871000Y-76058000D02*
X64871000Y-77760000D01*
X64871000Y-79840000D02*
X64871000Y-81542000D01*
X64911000Y-76084000D02*
X64911000Y-77760000D01*
X64911000Y-79840000D02*
X64911000Y-81516000D01*
X64951000Y-76110000D02*
X64951000Y-77760000D01*
X64951000Y-79840000D02*
X64951000Y-81490000D01*
X64991000Y-76136000D02*
X64991000Y-77760000D01*
X64991000Y-79840000D02*
X64991000Y-81464000D01*
X65031000Y-76164000D02*
X65031000Y-77760000D01*
X65031000Y-79840000D02*
X65031000Y-81436000D01*
X65071000Y-76193000D02*
X65071000Y-77760000D01*
X65071000Y-79840000D02*
X65071000Y-81407000D01*
X65111000Y-76222000D02*
X65111000Y-77760000D01*
X65111000Y-79840000D02*
X65111000Y-81378000D01*
X65151000Y-76252000D02*
X65151000Y-77760000D01*
X65151000Y-79840000D02*
X65151000Y-81348000D01*
X65191000Y-76284000D02*
X65191000Y-77760000D01*
X65191000Y-79840000D02*
X65191000Y-81316000D01*
X65231000Y-76316000D02*
X65231000Y-77760000D01*
X65231000Y-79840000D02*
X65231000Y-81284000D01*
X65271000Y-76350000D02*
X65271000Y-77760000D01*
X65271000Y-79840000D02*
X65271000Y-81250000D01*
X65311000Y-76384000D02*
X65311000Y-77760000D01*
X65311000Y-79840000D02*
X65311000Y-81216000D01*
X65351000Y-76420000D02*
X65351000Y-77760000D01*
X65351000Y-79840000D02*
X65351000Y-81180000D01*
X65391000Y-76457000D02*
X65391000Y-77760000D01*
X65391000Y-79840000D02*
X65391000Y-81143000D01*
X65431000Y-76495000D02*
X65431000Y-77760000D01*
X65431000Y-79840000D02*
X65431000Y-81105000D01*
X65471000Y-76535000D02*
X65471000Y-81065000D01*
X65511000Y-76576000D02*
X65511000Y-81024000D01*
X65551000Y-76618000D02*
X65551000Y-80982000D01*
X65591000Y-76663000D02*
X65591000Y-80937000D01*
X65631000Y-76708000D02*
X65631000Y-80892000D01*
X65671000Y-76756000D02*
X65671000Y-80844000D01*
X65711000Y-76805000D02*
X65711000Y-80795000D01*
X65751000Y-76856000D02*
X65751000Y-80744000D01*
X65791000Y-76910000D02*
X65791000Y-80690000D01*
X65831000Y-76966000D02*
X65831000Y-80634000D01*
X65871000Y-77024000D02*
X65871000Y-80576000D01*
X65911000Y-77086000D02*
X65911000Y-80514000D01*
X65951000Y-77150000D02*
X65951000Y-80450000D01*
X65991000Y-77219000D02*
X65991000Y-80381000D01*
X66031000Y-77291000D02*
X66031000Y-80309000D01*
X66071000Y-77368000D02*
X66071000Y-80232000D01*
X66111000Y-77450000D02*
X66111000Y-80150000D01*
X66151000Y-77538000D02*
X66151000Y-80062000D01*
X66191000Y-77635000D02*
X66191000Y-79965000D01*
X66231000Y-77741000D02*
X66231000Y-79859000D01*
X66271000Y-77860000D02*
X66271000Y-79740000D01*
X66311000Y-77998000D02*
X66311000Y-79602000D01*
X66351000Y-78167000D02*
X66351000Y-79433000D01*
X66391000Y-78398000D02*
X66391000Y-79202000D01*
X59649759Y-76961000D02*
X60279759Y-76961000D01*
X59964759Y-76646000D02*
X59964759Y-77276000D01*
%TO.C,C6*%
X57800000Y-84120000D02*
G75*
G03*
X57800000Y-84120000I-3270000J0D01*
G01*
X51300000Y-84120000D02*
X57760000Y-84120000D01*
X51300000Y-84080000D02*
X57760000Y-84080000D01*
X51300000Y-84040000D02*
X57760000Y-84040000D01*
X51302000Y-84000000D02*
X57758000Y-84000000D01*
X51303000Y-83960000D02*
X57757000Y-83960000D01*
X51306000Y-83920000D02*
X57754000Y-83920000D01*
X51308000Y-83880000D02*
X53490000Y-83880000D01*
X55570000Y-83880000D02*
X57752000Y-83880000D01*
X51312000Y-83840000D02*
X53490000Y-83840000D01*
X55570000Y-83840000D02*
X57748000Y-83840000D01*
X51315000Y-83800000D02*
X53490000Y-83800000D01*
X55570000Y-83800000D02*
X57745000Y-83800000D01*
X51319000Y-83760000D02*
X53490000Y-83760000D01*
X55570000Y-83760000D02*
X57741000Y-83760000D01*
X51324000Y-83720000D02*
X53490000Y-83720000D01*
X55570000Y-83720000D02*
X57736000Y-83720000D01*
X51329000Y-83680000D02*
X53490000Y-83680000D01*
X55570000Y-83680000D02*
X57731000Y-83680000D01*
X51335000Y-83640000D02*
X53490000Y-83640000D01*
X55570000Y-83640000D02*
X57725000Y-83640000D01*
X51341000Y-83600000D02*
X53490000Y-83600000D01*
X55570000Y-83600000D02*
X57719000Y-83600000D01*
X51348000Y-83560000D02*
X53490000Y-83560000D01*
X55570000Y-83560000D02*
X57712000Y-83560000D01*
X51355000Y-83520000D02*
X53490000Y-83520000D01*
X55570000Y-83520000D02*
X57705000Y-83520000D01*
X51363000Y-83480000D02*
X53490000Y-83480000D01*
X55570000Y-83480000D02*
X57697000Y-83480000D01*
X51371000Y-83440000D02*
X53490000Y-83440000D01*
X55570000Y-83440000D02*
X57689000Y-83440000D01*
X51380000Y-83399000D02*
X53490000Y-83399000D01*
X55570000Y-83399000D02*
X57680000Y-83399000D01*
X51389000Y-83359000D02*
X53490000Y-83359000D01*
X55570000Y-83359000D02*
X57671000Y-83359000D01*
X51399000Y-83319000D02*
X53490000Y-83319000D01*
X55570000Y-83319000D02*
X57661000Y-83319000D01*
X51409000Y-83279000D02*
X53490000Y-83279000D01*
X55570000Y-83279000D02*
X57651000Y-83279000D01*
X51420000Y-83239000D02*
X53490000Y-83239000D01*
X55570000Y-83239000D02*
X57640000Y-83239000D01*
X51432000Y-83199000D02*
X53490000Y-83199000D01*
X55570000Y-83199000D02*
X57628000Y-83199000D01*
X51444000Y-83159000D02*
X53490000Y-83159000D01*
X55570000Y-83159000D02*
X57616000Y-83159000D01*
X51456000Y-83119000D02*
X53490000Y-83119000D01*
X55570000Y-83119000D02*
X57604000Y-83119000D01*
X51469000Y-83079000D02*
X53490000Y-83079000D01*
X55570000Y-83079000D02*
X57591000Y-83079000D01*
X51483000Y-83039000D02*
X53490000Y-83039000D01*
X55570000Y-83039000D02*
X57577000Y-83039000D01*
X51497000Y-82999000D02*
X53490000Y-82999000D01*
X55570000Y-82999000D02*
X57563000Y-82999000D01*
X51512000Y-82959000D02*
X53490000Y-82959000D01*
X55570000Y-82959000D02*
X57548000Y-82959000D01*
X51528000Y-82919000D02*
X53490000Y-82919000D01*
X55570000Y-82919000D02*
X57532000Y-82919000D01*
X51544000Y-82879000D02*
X53490000Y-82879000D01*
X55570000Y-82879000D02*
X57516000Y-82879000D01*
X51560000Y-82839000D02*
X53490000Y-82839000D01*
X55570000Y-82839000D02*
X57500000Y-82839000D01*
X51578000Y-82799000D02*
X53490000Y-82799000D01*
X55570000Y-82799000D02*
X57482000Y-82799000D01*
X51596000Y-82759000D02*
X53490000Y-82759000D01*
X55570000Y-82759000D02*
X57464000Y-82759000D01*
X51614000Y-82719000D02*
X53490000Y-82719000D01*
X55570000Y-82719000D02*
X57446000Y-82719000D01*
X51634000Y-82679000D02*
X53490000Y-82679000D01*
X55570000Y-82679000D02*
X57426000Y-82679000D01*
X51654000Y-82639000D02*
X53490000Y-82639000D01*
X55570000Y-82639000D02*
X57406000Y-82639000D01*
X51674000Y-82599000D02*
X53490000Y-82599000D01*
X55570000Y-82599000D02*
X57386000Y-82599000D01*
X51696000Y-82559000D02*
X53490000Y-82559000D01*
X55570000Y-82559000D02*
X57364000Y-82559000D01*
X51718000Y-82519000D02*
X53490000Y-82519000D01*
X55570000Y-82519000D02*
X57342000Y-82519000D01*
X51740000Y-82479000D02*
X53490000Y-82479000D01*
X55570000Y-82479000D02*
X57320000Y-82479000D01*
X51764000Y-82439000D02*
X53490000Y-82439000D01*
X55570000Y-82439000D02*
X57296000Y-82439000D01*
X51788000Y-82399000D02*
X53490000Y-82399000D01*
X55570000Y-82399000D02*
X57272000Y-82399000D01*
X51814000Y-82359000D02*
X53490000Y-82359000D01*
X55570000Y-82359000D02*
X57246000Y-82359000D01*
X51840000Y-82319000D02*
X53490000Y-82319000D01*
X55570000Y-82319000D02*
X57220000Y-82319000D01*
X51866000Y-82279000D02*
X53490000Y-82279000D01*
X55570000Y-82279000D02*
X57194000Y-82279000D01*
X51894000Y-82239000D02*
X53490000Y-82239000D01*
X55570000Y-82239000D02*
X57166000Y-82239000D01*
X51923000Y-82199000D02*
X53490000Y-82199000D01*
X55570000Y-82199000D02*
X57137000Y-82199000D01*
X51952000Y-82159000D02*
X53490000Y-82159000D01*
X55570000Y-82159000D02*
X57108000Y-82159000D01*
X51982000Y-82119000D02*
X53490000Y-82119000D01*
X55570000Y-82119000D02*
X57078000Y-82119000D01*
X52014000Y-82079000D02*
X53490000Y-82079000D01*
X55570000Y-82079000D02*
X57046000Y-82079000D01*
X52046000Y-82039000D02*
X53490000Y-82039000D01*
X55570000Y-82039000D02*
X57014000Y-82039000D01*
X52080000Y-81999000D02*
X53490000Y-81999000D01*
X55570000Y-81999000D02*
X56980000Y-81999000D01*
X52114000Y-81959000D02*
X53490000Y-81959000D01*
X55570000Y-81959000D02*
X56946000Y-81959000D01*
X52150000Y-81919000D02*
X53490000Y-81919000D01*
X55570000Y-81919000D02*
X56910000Y-81919000D01*
X52187000Y-81879000D02*
X53490000Y-81879000D01*
X55570000Y-81879000D02*
X56873000Y-81879000D01*
X52225000Y-81839000D02*
X53490000Y-81839000D01*
X55570000Y-81839000D02*
X56835000Y-81839000D01*
X52265000Y-81799000D02*
X56795000Y-81799000D01*
X52306000Y-81759000D02*
X56754000Y-81759000D01*
X52348000Y-81719000D02*
X56712000Y-81719000D01*
X52393000Y-81679000D02*
X56667000Y-81679000D01*
X52438000Y-81639000D02*
X56622000Y-81639000D01*
X52486000Y-81599000D02*
X56574000Y-81599000D01*
X52535000Y-81559000D02*
X56525000Y-81559000D01*
X52586000Y-81519000D02*
X56474000Y-81519000D01*
X52640000Y-81479000D02*
X56420000Y-81479000D01*
X52696000Y-81439000D02*
X56364000Y-81439000D01*
X52754000Y-81399000D02*
X56306000Y-81399000D01*
X52816000Y-81359000D02*
X56244000Y-81359000D01*
X52880000Y-81319000D02*
X56180000Y-81319000D01*
X52949000Y-81279000D02*
X56111000Y-81279000D01*
X53021000Y-81239000D02*
X56039000Y-81239000D01*
X53098000Y-81199000D02*
X55962000Y-81199000D01*
X53180000Y-81159000D02*
X55880000Y-81159000D01*
X53268000Y-81119000D02*
X55792000Y-81119000D01*
X53365000Y-81079000D02*
X55695000Y-81079000D01*
X53471000Y-81039000D02*
X55589000Y-81039000D01*
X53590000Y-80999000D02*
X55470000Y-80999000D01*
X53728000Y-80959000D02*
X55332000Y-80959000D01*
X53897000Y-80919000D02*
X55163000Y-80919000D01*
X54128000Y-80879000D02*
X54932000Y-80879000D01*
X52691000Y-87620241D02*
X52691000Y-86990241D01*
X52376000Y-87305241D02*
X53006000Y-87305241D01*
%TO.C,C5*%
X59520000Y-77050000D02*
G75*
G03*
X59520000Y-77050000I-3270000J0D01*
G01*
X59480000Y-77050000D02*
X53020000Y-77050000D01*
X59480000Y-77090000D02*
X53020000Y-77090000D01*
X59480000Y-77130000D02*
X53020000Y-77130000D01*
X59478000Y-77170000D02*
X53022000Y-77170000D01*
X59477000Y-77210000D02*
X53023000Y-77210000D01*
X59474000Y-77250000D02*
X53026000Y-77250000D01*
X59472000Y-77290000D02*
X57290000Y-77290000D01*
X55210000Y-77290000D02*
X53028000Y-77290000D01*
X59468000Y-77330000D02*
X57290000Y-77330000D01*
X55210000Y-77330000D02*
X53032000Y-77330000D01*
X59465000Y-77370000D02*
X57290000Y-77370000D01*
X55210000Y-77370000D02*
X53035000Y-77370000D01*
X59461000Y-77410000D02*
X57290000Y-77410000D01*
X55210000Y-77410000D02*
X53039000Y-77410000D01*
X59456000Y-77450000D02*
X57290000Y-77450000D01*
X55210000Y-77450000D02*
X53044000Y-77450000D01*
X59451000Y-77490000D02*
X57290000Y-77490000D01*
X55210000Y-77490000D02*
X53049000Y-77490000D01*
X59445000Y-77530000D02*
X57290000Y-77530000D01*
X55210000Y-77530000D02*
X53055000Y-77530000D01*
X59439000Y-77570000D02*
X57290000Y-77570000D01*
X55210000Y-77570000D02*
X53061000Y-77570000D01*
X59432000Y-77610000D02*
X57290000Y-77610000D01*
X55210000Y-77610000D02*
X53068000Y-77610000D01*
X59425000Y-77650000D02*
X57290000Y-77650000D01*
X55210000Y-77650000D02*
X53075000Y-77650000D01*
X59417000Y-77690000D02*
X57290000Y-77690000D01*
X55210000Y-77690000D02*
X53083000Y-77690000D01*
X59409000Y-77730000D02*
X57290000Y-77730000D01*
X55210000Y-77730000D02*
X53091000Y-77730000D01*
X59400000Y-77771000D02*
X57290000Y-77771000D01*
X55210000Y-77771000D02*
X53100000Y-77771000D01*
X59391000Y-77811000D02*
X57290000Y-77811000D01*
X55210000Y-77811000D02*
X53109000Y-77811000D01*
X59381000Y-77851000D02*
X57290000Y-77851000D01*
X55210000Y-77851000D02*
X53119000Y-77851000D01*
X59371000Y-77891000D02*
X57290000Y-77891000D01*
X55210000Y-77891000D02*
X53129000Y-77891000D01*
X59360000Y-77931000D02*
X57290000Y-77931000D01*
X55210000Y-77931000D02*
X53140000Y-77931000D01*
X59348000Y-77971000D02*
X57290000Y-77971000D01*
X55210000Y-77971000D02*
X53152000Y-77971000D01*
X59336000Y-78011000D02*
X57290000Y-78011000D01*
X55210000Y-78011000D02*
X53164000Y-78011000D01*
X59324000Y-78051000D02*
X57290000Y-78051000D01*
X55210000Y-78051000D02*
X53176000Y-78051000D01*
X59311000Y-78091000D02*
X57290000Y-78091000D01*
X55210000Y-78091000D02*
X53189000Y-78091000D01*
X59297000Y-78131000D02*
X57290000Y-78131000D01*
X55210000Y-78131000D02*
X53203000Y-78131000D01*
X59283000Y-78171000D02*
X57290000Y-78171000D01*
X55210000Y-78171000D02*
X53217000Y-78171000D01*
X59268000Y-78211000D02*
X57290000Y-78211000D01*
X55210000Y-78211000D02*
X53232000Y-78211000D01*
X59252000Y-78251000D02*
X57290000Y-78251000D01*
X55210000Y-78251000D02*
X53248000Y-78251000D01*
X59236000Y-78291000D02*
X57290000Y-78291000D01*
X55210000Y-78291000D02*
X53264000Y-78291000D01*
X59220000Y-78331000D02*
X57290000Y-78331000D01*
X55210000Y-78331000D02*
X53280000Y-78331000D01*
X59202000Y-78371000D02*
X57290000Y-78371000D01*
X55210000Y-78371000D02*
X53298000Y-78371000D01*
X59184000Y-78411000D02*
X57290000Y-78411000D01*
X55210000Y-78411000D02*
X53316000Y-78411000D01*
X59166000Y-78451000D02*
X57290000Y-78451000D01*
X55210000Y-78451000D02*
X53334000Y-78451000D01*
X59146000Y-78491000D02*
X57290000Y-78491000D01*
X55210000Y-78491000D02*
X53354000Y-78491000D01*
X59126000Y-78531000D02*
X57290000Y-78531000D01*
X55210000Y-78531000D02*
X53374000Y-78531000D01*
X59106000Y-78571000D02*
X57290000Y-78571000D01*
X55210000Y-78571000D02*
X53394000Y-78571000D01*
X59084000Y-78611000D02*
X57290000Y-78611000D01*
X55210000Y-78611000D02*
X53416000Y-78611000D01*
X59062000Y-78651000D02*
X57290000Y-78651000D01*
X55210000Y-78651000D02*
X53438000Y-78651000D01*
X59040000Y-78691000D02*
X57290000Y-78691000D01*
X55210000Y-78691000D02*
X53460000Y-78691000D01*
X59016000Y-78731000D02*
X57290000Y-78731000D01*
X55210000Y-78731000D02*
X53484000Y-78731000D01*
X58992000Y-78771000D02*
X57290000Y-78771000D01*
X55210000Y-78771000D02*
X53508000Y-78771000D01*
X58966000Y-78811000D02*
X57290000Y-78811000D01*
X55210000Y-78811000D02*
X53534000Y-78811000D01*
X58940000Y-78851000D02*
X57290000Y-78851000D01*
X55210000Y-78851000D02*
X53560000Y-78851000D01*
X58914000Y-78891000D02*
X57290000Y-78891000D01*
X55210000Y-78891000D02*
X53586000Y-78891000D01*
X58886000Y-78931000D02*
X57290000Y-78931000D01*
X55210000Y-78931000D02*
X53614000Y-78931000D01*
X58857000Y-78971000D02*
X57290000Y-78971000D01*
X55210000Y-78971000D02*
X53643000Y-78971000D01*
X58828000Y-79011000D02*
X57290000Y-79011000D01*
X55210000Y-79011000D02*
X53672000Y-79011000D01*
X58798000Y-79051000D02*
X57290000Y-79051000D01*
X55210000Y-79051000D02*
X53702000Y-79051000D01*
X58766000Y-79091000D02*
X57290000Y-79091000D01*
X55210000Y-79091000D02*
X53734000Y-79091000D01*
X58734000Y-79131000D02*
X57290000Y-79131000D01*
X55210000Y-79131000D02*
X53766000Y-79131000D01*
X58700000Y-79171000D02*
X57290000Y-79171000D01*
X55210000Y-79171000D02*
X53800000Y-79171000D01*
X58666000Y-79211000D02*
X57290000Y-79211000D01*
X55210000Y-79211000D02*
X53834000Y-79211000D01*
X58630000Y-79251000D02*
X57290000Y-79251000D01*
X55210000Y-79251000D02*
X53870000Y-79251000D01*
X58593000Y-79291000D02*
X57290000Y-79291000D01*
X55210000Y-79291000D02*
X53907000Y-79291000D01*
X58555000Y-79331000D02*
X57290000Y-79331000D01*
X55210000Y-79331000D02*
X53945000Y-79331000D01*
X58515000Y-79371000D02*
X53985000Y-79371000D01*
X58474000Y-79411000D02*
X54026000Y-79411000D01*
X58432000Y-79451000D02*
X54068000Y-79451000D01*
X58387000Y-79491000D02*
X54113000Y-79491000D01*
X58342000Y-79531000D02*
X54158000Y-79531000D01*
X58294000Y-79571000D02*
X54206000Y-79571000D01*
X58245000Y-79611000D02*
X54255000Y-79611000D01*
X58194000Y-79651000D02*
X54306000Y-79651000D01*
X58140000Y-79691000D02*
X54360000Y-79691000D01*
X58084000Y-79731000D02*
X54416000Y-79731000D01*
X58026000Y-79771000D02*
X54474000Y-79771000D01*
X57964000Y-79811000D02*
X54536000Y-79811000D01*
X57900000Y-79851000D02*
X54600000Y-79851000D01*
X57831000Y-79891000D02*
X54669000Y-79891000D01*
X57759000Y-79931000D02*
X54741000Y-79931000D01*
X57682000Y-79971000D02*
X54818000Y-79971000D01*
X57600000Y-80011000D02*
X54900000Y-80011000D01*
X57512000Y-80051000D02*
X54988000Y-80051000D01*
X57415000Y-80091000D02*
X55085000Y-80091000D01*
X57309000Y-80131000D02*
X55191000Y-80131000D01*
X57190000Y-80171000D02*
X55310000Y-80171000D01*
X57052000Y-80211000D02*
X55448000Y-80211000D01*
X56883000Y-80251000D02*
X55617000Y-80251000D01*
X56652000Y-80291000D02*
X55848000Y-80291000D01*
X58089000Y-73549759D02*
X58089000Y-74179759D01*
X58404000Y-73864759D02*
X57774000Y-73864759D01*
%TO.C,C4*%
X121226248Y-94590000D02*
X122648752Y-94590000D01*
X121226248Y-96410000D02*
X122648752Y-96410000D01*
%TO.C,C3*%
X107411252Y-96460000D02*
X105988748Y-96460000D01*
X107411252Y-94640000D02*
X105988748Y-94640000D01*
%TO.C,C2*%
X111148752Y-83910000D02*
X109726248Y-83910000D01*
X111148752Y-82090000D02*
X109726248Y-82090000D01*
%TO.C,C1*%
X111023752Y-80410000D02*
X109601248Y-80410000D01*
X111023752Y-78590000D02*
X109601248Y-78590000D01*
%TO.C,A1*%
D10*
X81505714Y-45836666D02*
X81981904Y-45836666D01*
X81410476Y-46122380D02*
X81743809Y-45122380D01*
X82077142Y-46122380D01*
X82934285Y-46122380D02*
X82362857Y-46122380D01*
X82648571Y-46122380D02*
X82648571Y-45122380D01*
X82553333Y-45265238D01*
X82458095Y-45360476D01*
X82362857Y-45408095D01*
%TO.C,H3*%
X80264095Y-38424380D02*
X80264095Y-37424380D01*
X80264095Y-37900571D02*
X80835523Y-37900571D01*
X80835523Y-38424380D02*
X80835523Y-37424380D01*
X81216476Y-37424380D02*
X81835523Y-37424380D01*
X81502190Y-37805333D01*
X81645047Y-37805333D01*
X81740285Y-37852952D01*
X81787904Y-37900571D01*
X81835523Y-37995809D01*
X81835523Y-38233904D01*
X81787904Y-38329142D01*
X81740285Y-38376761D01*
X81645047Y-38424380D01*
X81359333Y-38424380D01*
X81264095Y-38376761D01*
X81216476Y-38329142D01*
%TO.C,H2*%
X45974095Y-121228380D02*
X45974095Y-120228380D01*
X45974095Y-120704571D02*
X46545523Y-120704571D01*
X46545523Y-121228380D02*
X46545523Y-120228380D01*
X46974095Y-120323619D02*
X47021714Y-120276000D01*
X47116952Y-120228380D01*
X47355047Y-120228380D01*
X47450285Y-120276000D01*
X47497904Y-120323619D01*
X47545523Y-120418857D01*
X47545523Y-120514095D01*
X47497904Y-120656952D01*
X46926476Y-121228380D01*
X47545523Y-121228380D01*
%TO.C,H1*%
X122428095Y-122752380D02*
X122428095Y-121752380D01*
X122428095Y-122228571D02*
X122999523Y-122228571D01*
X122999523Y-122752380D02*
X122999523Y-121752380D01*
X123999523Y-122752380D02*
X123428095Y-122752380D01*
X123713809Y-122752380D02*
X123713809Y-121752380D01*
X123618571Y-121895238D01*
X123523333Y-121990476D01*
X123428095Y-122038095D01*
%TO.C,D14*%
X120535714Y-102602380D02*
X120535714Y-101602380D01*
X120773809Y-101602380D01*
X120916666Y-101650000D01*
X121011904Y-101745238D01*
X121059523Y-101840476D01*
X121107142Y-102030952D01*
X121107142Y-102173809D01*
X121059523Y-102364285D01*
X121011904Y-102459523D01*
X120916666Y-102554761D01*
X120773809Y-102602380D01*
X120535714Y-102602380D01*
X122059523Y-102602380D02*
X121488095Y-102602380D01*
X121773809Y-102602380D02*
X121773809Y-101602380D01*
X121678571Y-101745238D01*
X121583333Y-101840476D01*
X121488095Y-101888095D01*
X122916666Y-101935714D02*
X122916666Y-102602380D01*
X122678571Y-101554761D02*
X122440476Y-102269047D01*
X123059523Y-102269047D01*
%TO.C,J1*%
X74942380Y-131463333D02*
X75656666Y-131463333D01*
X75799523Y-131510952D01*
X75894761Y-131606190D01*
X75942380Y-131749047D01*
X75942380Y-131844285D01*
X75942380Y-130463333D02*
X75942380Y-131034761D01*
X75942380Y-130749047D02*
X74942380Y-130749047D01*
X75085238Y-130844285D01*
X75180476Y-130939523D01*
X75228095Y-131034761D01*
%TO.C,K2*%
X59071904Y-105152380D02*
X59071904Y-104152380D01*
X59643333Y-105152380D02*
X59214761Y-104580952D01*
X59643333Y-104152380D02*
X59071904Y-104723809D01*
X60024285Y-104247619D02*
X60071904Y-104200000D01*
X60167142Y-104152380D01*
X60405238Y-104152380D01*
X60500476Y-104200000D01*
X60548095Y-104247619D01*
X60595714Y-104342857D01*
X60595714Y-104438095D01*
X60548095Y-104580952D01*
X59976666Y-105152380D01*
X60595714Y-105152380D01*
%TO.C,K1*%
X49582380Y-97498095D02*
X48582380Y-97498095D01*
X49582380Y-96926666D02*
X49010952Y-97355238D01*
X48582380Y-96926666D02*
X49153809Y-97498095D01*
X49582380Y-95974285D02*
X49582380Y-96545714D01*
X49582380Y-96260000D02*
X48582380Y-96260000D01*
X48725238Y-96355238D01*
X48820476Y-96450476D01*
X48868095Y-96545714D01*
%TO.C,U4*%
X83852380Y-99781904D02*
X84661904Y-99781904D01*
X84757142Y-99734285D01*
X84804761Y-99686666D01*
X84852380Y-99591428D01*
X84852380Y-99400952D01*
X84804761Y-99305714D01*
X84757142Y-99258095D01*
X84661904Y-99210476D01*
X83852380Y-99210476D01*
X84185714Y-98305714D02*
X84852380Y-98305714D01*
X83804761Y-98543809D02*
X84519047Y-98781904D01*
X84519047Y-98162857D01*
%TO.C,U3*%
X90421595Y-99783380D02*
X90421595Y-100592904D01*
X90469214Y-100688142D01*
X90516833Y-100735761D01*
X90612071Y-100783380D01*
X90802547Y-100783380D01*
X90897785Y-100735761D01*
X90945404Y-100688142D01*
X90993023Y-100592904D01*
X90993023Y-99783380D01*
X91373976Y-99783380D02*
X91993023Y-99783380D01*
X91659690Y-100164333D01*
X91802547Y-100164333D01*
X91897785Y-100211952D01*
X91945404Y-100259571D01*
X91993023Y-100354809D01*
X91993023Y-100592904D01*
X91945404Y-100688142D01*
X91897785Y-100735761D01*
X91802547Y-100783380D01*
X91516833Y-100783380D01*
X91421595Y-100735761D01*
X91373976Y-100688142D01*
%TO.C,U2*%
X59450380Y-50226904D02*
X60259904Y-50226904D01*
X60355142Y-50179285D01*
X60402761Y-50131666D01*
X60450380Y-50036428D01*
X60450380Y-49845952D01*
X60402761Y-49750714D01*
X60355142Y-49703095D01*
X60259904Y-49655476D01*
X59450380Y-49655476D01*
X59545619Y-49226904D02*
X59498000Y-49179285D01*
X59450380Y-49084047D01*
X59450380Y-48845952D01*
X59498000Y-48750714D01*
X59545619Y-48703095D01*
X59640857Y-48655476D01*
X59736095Y-48655476D01*
X59878952Y-48703095D01*
X60450380Y-49274523D01*
X60450380Y-48655476D01*
%TO.C,U1*%
X109514095Y-89598380D02*
X109514095Y-90407904D01*
X109561714Y-90503142D01*
X109609333Y-90550761D01*
X109704571Y-90598380D01*
X109895047Y-90598380D01*
X109990285Y-90550761D01*
X110037904Y-90503142D01*
X110085523Y-90407904D01*
X110085523Y-89598380D01*
X111085523Y-90598380D02*
X110514095Y-90598380D01*
X110799809Y-90598380D02*
X110799809Y-89598380D01*
X110704571Y-89741238D01*
X110609333Y-89836476D01*
X110514095Y-89884095D01*
%TO.C,R27*%
X107428380Y-91294857D02*
X106952190Y-91628190D01*
X107428380Y-91866285D02*
X106428380Y-91866285D01*
X106428380Y-91485333D01*
X106476000Y-91390095D01*
X106523619Y-91342476D01*
X106618857Y-91294857D01*
X106761714Y-91294857D01*
X106856952Y-91342476D01*
X106904571Y-91390095D01*
X106952190Y-91485333D01*
X106952190Y-91866285D01*
X106523619Y-90913904D02*
X106476000Y-90866285D01*
X106428380Y-90771047D01*
X106428380Y-90532952D01*
X106476000Y-90437714D01*
X106523619Y-90390095D01*
X106618857Y-90342476D01*
X106714095Y-90342476D01*
X106856952Y-90390095D01*
X107428380Y-90961523D01*
X107428380Y-90342476D01*
X106428380Y-90009142D02*
X106428380Y-89342476D01*
X107428380Y-89771047D01*
%TO.C,R16*%
X103582380Y-57402857D02*
X103106190Y-57736190D01*
X103582380Y-57974285D02*
X102582380Y-57974285D01*
X102582380Y-57593333D01*
X102630000Y-57498095D01*
X102677619Y-57450476D01*
X102772857Y-57402857D01*
X102915714Y-57402857D01*
X103010952Y-57450476D01*
X103058571Y-57498095D01*
X103106190Y-57593333D01*
X103106190Y-57974285D01*
X103582380Y-56450476D02*
X103582380Y-57021904D01*
X103582380Y-56736190D02*
X102582380Y-56736190D01*
X102725238Y-56831428D01*
X102820476Y-56926666D01*
X102868095Y-57021904D01*
X102582380Y-55593333D02*
X102582380Y-55783809D01*
X102630000Y-55879047D01*
X102677619Y-55926666D01*
X102820476Y-56021904D01*
X103010952Y-56069523D01*
X103391904Y-56069523D01*
X103487142Y-56021904D01*
X103534761Y-55974285D01*
X103582380Y-55879047D01*
X103582380Y-55688571D01*
X103534761Y-55593333D01*
X103487142Y-55545714D01*
X103391904Y-55498095D01*
X103153809Y-55498095D01*
X103058571Y-55545714D01*
X103010952Y-55593333D01*
X102963333Y-55688571D01*
X102963333Y-55879047D01*
X103010952Y-55974285D01*
X103058571Y-56021904D01*
X103153809Y-56069523D01*
%TO.C,R15*%
X103542380Y-54342857D02*
X103066190Y-54676190D01*
X103542380Y-54914285D02*
X102542380Y-54914285D01*
X102542380Y-54533333D01*
X102590000Y-54438095D01*
X102637619Y-54390476D01*
X102732857Y-54342857D01*
X102875714Y-54342857D01*
X102970952Y-54390476D01*
X103018571Y-54438095D01*
X103066190Y-54533333D01*
X103066190Y-54914285D01*
X103542380Y-53390476D02*
X103542380Y-53961904D01*
X103542380Y-53676190D02*
X102542380Y-53676190D01*
X102685238Y-53771428D01*
X102780476Y-53866666D01*
X102828095Y-53961904D01*
X102542380Y-52485714D02*
X102542380Y-52961904D01*
X103018571Y-53009523D01*
X102970952Y-52961904D01*
X102923333Y-52866666D01*
X102923333Y-52628571D01*
X102970952Y-52533333D01*
X103018571Y-52485714D01*
X103113809Y-52438095D01*
X103351904Y-52438095D01*
X103447142Y-52485714D01*
X103494761Y-52533333D01*
X103542380Y-52628571D01*
X103542380Y-52866666D01*
X103494761Y-52961904D01*
X103447142Y-53009523D01*
%TO.C,R2*%
X97632380Y-84266666D02*
X97156190Y-84600000D01*
X97632380Y-84838095D02*
X96632380Y-84838095D01*
X96632380Y-84457142D01*
X96680000Y-84361904D01*
X96727619Y-84314285D01*
X96822857Y-84266666D01*
X96965714Y-84266666D01*
X97060952Y-84314285D01*
X97108571Y-84361904D01*
X97156190Y-84457142D01*
X97156190Y-84838095D01*
X96727619Y-83885714D02*
X96680000Y-83838095D01*
X96632380Y-83742857D01*
X96632380Y-83504761D01*
X96680000Y-83409523D01*
X96727619Y-83361904D01*
X96822857Y-83314285D01*
X96918095Y-83314285D01*
X97060952Y-83361904D01*
X97632380Y-83933333D01*
X97632380Y-83314285D01*
%TO.C,R1*%
X105772380Y-84240666D02*
X105296190Y-84574000D01*
X105772380Y-84812095D02*
X104772380Y-84812095D01*
X104772380Y-84431142D01*
X104820000Y-84335904D01*
X104867619Y-84288285D01*
X104962857Y-84240666D01*
X105105714Y-84240666D01*
X105200952Y-84288285D01*
X105248571Y-84335904D01*
X105296190Y-84431142D01*
X105296190Y-84812095D01*
X105772380Y-83288285D02*
X105772380Y-83859714D01*
X105772380Y-83574000D02*
X104772380Y-83574000D01*
X104915238Y-83669238D01*
X105010476Y-83764476D01*
X105058095Y-83859714D01*
%TO.C,Q2*%
X73634761Y-106907619D02*
X73539523Y-106860000D01*
X73444285Y-106764761D01*
X73301428Y-106621904D01*
X73206190Y-106574285D01*
X73110952Y-106574285D01*
X73158571Y-106812380D02*
X73063333Y-106764761D01*
X72968095Y-106669523D01*
X72920476Y-106479047D01*
X72920476Y-106145714D01*
X72968095Y-105955238D01*
X73063333Y-105860000D01*
X73158571Y-105812380D01*
X73349047Y-105812380D01*
X73444285Y-105860000D01*
X73539523Y-105955238D01*
X73587142Y-106145714D01*
X73587142Y-106479047D01*
X73539523Y-106669523D01*
X73444285Y-106764761D01*
X73349047Y-106812380D01*
X73158571Y-106812380D01*
X73968095Y-105907619D02*
X74015714Y-105860000D01*
X74110952Y-105812380D01*
X74349047Y-105812380D01*
X74444285Y-105860000D01*
X74491904Y-105907619D01*
X74539523Y-106002857D01*
X74539523Y-106098095D01*
X74491904Y-106240952D01*
X73920476Y-106812380D01*
X74539523Y-106812380D01*
%TO.C,Q1*%
X77384761Y-118107619D02*
X77289523Y-118060000D01*
X77194285Y-117964761D01*
X77051428Y-117821904D01*
X76956190Y-117774285D01*
X76860952Y-117774285D01*
X76908571Y-118012380D02*
X76813333Y-117964761D01*
X76718095Y-117869523D01*
X76670476Y-117679047D01*
X76670476Y-117345714D01*
X76718095Y-117155238D01*
X76813333Y-117060000D01*
X76908571Y-117012380D01*
X77099047Y-117012380D01*
X77194285Y-117060000D01*
X77289523Y-117155238D01*
X77337142Y-117345714D01*
X77337142Y-117679047D01*
X77289523Y-117869523D01*
X77194285Y-117964761D01*
X77099047Y-118012380D01*
X76908571Y-118012380D01*
X78289523Y-118012380D02*
X77718095Y-118012380D01*
X78003809Y-118012380D02*
X78003809Y-117012380D01*
X77908571Y-117155238D01*
X77813333Y-117250476D01*
X77718095Y-117298095D01*
%TO.C,L1*%
X120333333Y-84002380D02*
X119857142Y-84002380D01*
X119857142Y-83002380D01*
X121190476Y-84002380D02*
X120619047Y-84002380D01*
X120904761Y-84002380D02*
X120904761Y-83002380D01*
X120809523Y-83145238D01*
X120714285Y-83240476D01*
X120619047Y-83288095D01*
%TO.C,J5*%
X58952380Y-64833333D02*
X59666666Y-64833333D01*
X59809523Y-64880952D01*
X59904761Y-64976190D01*
X59952380Y-65119047D01*
X59952380Y-65214285D01*
X58952380Y-63880952D02*
X58952380Y-64357142D01*
X59428571Y-64404761D01*
X59380952Y-64357142D01*
X59333333Y-64261904D01*
X59333333Y-64023809D01*
X59380952Y-63928571D01*
X59428571Y-63880952D01*
X59523809Y-63833333D01*
X59761904Y-63833333D01*
X59857142Y-63880952D01*
X59904761Y-63928571D01*
X59952380Y-64023809D01*
X59952380Y-64261904D01*
X59904761Y-64357142D01*
X59857142Y-64404761D01*
%TO.C,J4*%
X123596666Y-54832380D02*
X123596666Y-55546666D01*
X123549047Y-55689523D01*
X123453809Y-55784761D01*
X123310952Y-55832380D01*
X123215714Y-55832380D01*
X124501428Y-55165714D02*
X124501428Y-55832380D01*
X124263333Y-54784761D02*
X124025238Y-55499047D01*
X124644285Y-55499047D01*
%TO.C,J3*%
X101940380Y-47513333D02*
X102654666Y-47513333D01*
X102797523Y-47560952D01*
X102892761Y-47656190D01*
X102940380Y-47799047D01*
X102940380Y-47894285D01*
X101940380Y-47132380D02*
X101940380Y-46513333D01*
X102321333Y-46846666D01*
X102321333Y-46703809D01*
X102368952Y-46608571D01*
X102416571Y-46560952D01*
X102511809Y-46513333D01*
X102749904Y-46513333D01*
X102845142Y-46560952D01*
X102892761Y-46608571D01*
X102940380Y-46703809D01*
X102940380Y-46989523D01*
X102892761Y-47084761D01*
X102845142Y-47132380D01*
%TO.C,J2*%
X57358380Y-44001333D02*
X58072666Y-44001333D01*
X58215523Y-44048952D01*
X58310761Y-44144190D01*
X58358380Y-44287047D01*
X58358380Y-44382285D01*
X57453619Y-43572761D02*
X57406000Y-43525142D01*
X57358380Y-43429904D01*
X57358380Y-43191809D01*
X57406000Y-43096571D01*
X57453619Y-43048952D01*
X57548857Y-43001333D01*
X57644095Y-43001333D01*
X57786952Y-43048952D01*
X58358380Y-43620380D01*
X58358380Y-43001333D01*
%TO.C,F1*%
X119954166Y-72778571D02*
X119620833Y-72778571D01*
X119620833Y-73302380D02*
X119620833Y-72302380D01*
X120097023Y-72302380D01*
X121001785Y-73302380D02*
X120430357Y-73302380D01*
X120716071Y-73302380D02*
X120716071Y-72302380D01*
X120620833Y-72445238D01*
X120525595Y-72540476D01*
X120430357Y-72588095D01*
%TO.C,D8*%
X106621904Y-44176380D02*
X106621904Y-43176380D01*
X106860000Y-43176380D01*
X107002857Y-43224000D01*
X107098095Y-43319238D01*
X107145714Y-43414476D01*
X107193333Y-43604952D01*
X107193333Y-43747809D01*
X107145714Y-43938285D01*
X107098095Y-44033523D01*
X107002857Y-44128761D01*
X106860000Y-44176380D01*
X106621904Y-44176380D01*
X107764761Y-43604952D02*
X107669523Y-43557333D01*
X107621904Y-43509714D01*
X107574285Y-43414476D01*
X107574285Y-43366857D01*
X107621904Y-43271619D01*
X107669523Y-43224000D01*
X107764761Y-43176380D01*
X107955238Y-43176380D01*
X108050476Y-43224000D01*
X108098095Y-43271619D01*
X108145714Y-43366857D01*
X108145714Y-43414476D01*
X108098095Y-43509714D01*
X108050476Y-43557333D01*
X107955238Y-43604952D01*
X107764761Y-43604952D01*
X107669523Y-43652571D01*
X107621904Y-43700190D01*
X107574285Y-43795428D01*
X107574285Y-43985904D01*
X107621904Y-44081142D01*
X107669523Y-44128761D01*
X107764761Y-44176380D01*
X107955238Y-44176380D01*
X108050476Y-44128761D01*
X108098095Y-44081142D01*
X108145714Y-43985904D01*
X108145714Y-43795428D01*
X108098095Y-43700190D01*
X108050476Y-43652571D01*
X107955238Y-43604952D01*
%TO.C,D7*%
X110571904Y-52952380D02*
X110571904Y-51952380D01*
X110810000Y-51952380D01*
X110952857Y-52000000D01*
X111048095Y-52095238D01*
X111095714Y-52190476D01*
X111143333Y-52380952D01*
X111143333Y-52523809D01*
X111095714Y-52714285D01*
X111048095Y-52809523D01*
X110952857Y-52904761D01*
X110810000Y-52952380D01*
X110571904Y-52952380D01*
X111476666Y-51952380D02*
X112143333Y-51952380D01*
X111714761Y-52952380D01*
%TO.C,C8*%
X59047142Y-89676666D02*
X59094761Y-89724285D01*
X59142380Y-89867142D01*
X59142380Y-89962380D01*
X59094761Y-90105238D01*
X58999523Y-90200476D01*
X58904285Y-90248095D01*
X58713809Y-90295714D01*
X58570952Y-90295714D01*
X58380476Y-90248095D01*
X58285238Y-90200476D01*
X58190000Y-90105238D01*
X58142380Y-89962380D01*
X58142380Y-89867142D01*
X58190000Y-89724285D01*
X58237619Y-89676666D01*
X58570952Y-89105238D02*
X58523333Y-89200476D01*
X58475714Y-89248095D01*
X58380476Y-89295714D01*
X58332857Y-89295714D01*
X58237619Y-89248095D01*
X58190000Y-89200476D01*
X58142380Y-89105238D01*
X58142380Y-88914761D01*
X58190000Y-88819523D01*
X58237619Y-88771904D01*
X58332857Y-88724285D01*
X58380476Y-88724285D01*
X58475714Y-88771904D01*
X58523333Y-88819523D01*
X58570952Y-88914761D01*
X58570952Y-89105238D01*
X58618571Y-89200476D01*
X58666190Y-89248095D01*
X58761428Y-89295714D01*
X58951904Y-89295714D01*
X59047142Y-89248095D01*
X59094761Y-89200476D01*
X59142380Y-89105238D01*
X59142380Y-88914761D01*
X59094761Y-88819523D01*
X59047142Y-88771904D01*
X58951904Y-88724285D01*
X58761428Y-88724285D01*
X58666190Y-88771904D01*
X58618571Y-88819523D01*
X58570952Y-88914761D01*
%TO.C,C7*%
X62983333Y-74757142D02*
X62935714Y-74804761D01*
X62792857Y-74852380D01*
X62697619Y-74852380D01*
X62554761Y-74804761D01*
X62459523Y-74709523D01*
X62411904Y-74614285D01*
X62364285Y-74423809D01*
X62364285Y-74280952D01*
X62411904Y-74090476D01*
X62459523Y-73995238D01*
X62554761Y-73900000D01*
X62697619Y-73852380D01*
X62792857Y-73852380D01*
X62935714Y-73900000D01*
X62983333Y-73947619D01*
X63316666Y-73852380D02*
X63983333Y-73852380D01*
X63554761Y-74852380D01*
%TO.C,C6*%
X50487142Y-84286666D02*
X50534761Y-84334285D01*
X50582380Y-84477142D01*
X50582380Y-84572380D01*
X50534761Y-84715238D01*
X50439523Y-84810476D01*
X50344285Y-84858095D01*
X50153809Y-84905714D01*
X50010952Y-84905714D01*
X49820476Y-84858095D01*
X49725238Y-84810476D01*
X49630000Y-84715238D01*
X49582380Y-84572380D01*
X49582380Y-84477142D01*
X49630000Y-84334285D01*
X49677619Y-84286666D01*
X49582380Y-83429523D02*
X49582380Y-83620000D01*
X49630000Y-83715238D01*
X49677619Y-83762857D01*
X49820476Y-83858095D01*
X50010952Y-83905714D01*
X50391904Y-83905714D01*
X50487142Y-83858095D01*
X50534761Y-83810476D01*
X50582380Y-83715238D01*
X50582380Y-83524761D01*
X50534761Y-83429523D01*
X50487142Y-83381904D01*
X50391904Y-83334285D01*
X50153809Y-83334285D01*
X50058571Y-83381904D01*
X50010952Y-83429523D01*
X49963333Y-83524761D01*
X49963333Y-83715238D01*
X50010952Y-83810476D01*
X50058571Y-83858095D01*
X50153809Y-83905714D01*
%TO.C,C5*%
X55793333Y-73377142D02*
X55745714Y-73424761D01*
X55602857Y-73472380D01*
X55507619Y-73472380D01*
X55364761Y-73424761D01*
X55269523Y-73329523D01*
X55221904Y-73234285D01*
X55174285Y-73043809D01*
X55174285Y-72900952D01*
X55221904Y-72710476D01*
X55269523Y-72615238D01*
X55364761Y-72520000D01*
X55507619Y-72472380D01*
X55602857Y-72472380D01*
X55745714Y-72520000D01*
X55793333Y-72567619D01*
X56698095Y-72472380D02*
X56221904Y-72472380D01*
X56174285Y-72948571D01*
X56221904Y-72900952D01*
X56317142Y-72853333D01*
X56555238Y-72853333D01*
X56650476Y-72900952D01*
X56698095Y-72948571D01*
X56745714Y-73043809D01*
X56745714Y-73281904D01*
X56698095Y-73377142D01*
X56650476Y-73424761D01*
X56555238Y-73472380D01*
X56317142Y-73472380D01*
X56221904Y-73424761D01*
X56174285Y-73377142D01*
%TO.C,C4*%
X121770833Y-94007142D02*
X121723214Y-94054761D01*
X121580357Y-94102380D01*
X121485119Y-94102380D01*
X121342261Y-94054761D01*
X121247023Y-93959523D01*
X121199404Y-93864285D01*
X121151785Y-93673809D01*
X121151785Y-93530952D01*
X121199404Y-93340476D01*
X121247023Y-93245238D01*
X121342261Y-93150000D01*
X121485119Y-93102380D01*
X121580357Y-93102380D01*
X121723214Y-93150000D01*
X121770833Y-93197619D01*
X122627976Y-93435714D02*
X122627976Y-94102380D01*
X122389880Y-93054761D02*
X122151785Y-93769047D01*
X122770833Y-93769047D01*
%TO.C,C3*%
X106533333Y-97757142D02*
X106485714Y-97804761D01*
X106342857Y-97852380D01*
X106247619Y-97852380D01*
X106104761Y-97804761D01*
X106009523Y-97709523D01*
X105961904Y-97614285D01*
X105914285Y-97423809D01*
X105914285Y-97280952D01*
X105961904Y-97090476D01*
X106009523Y-96995238D01*
X106104761Y-96900000D01*
X106247619Y-96852380D01*
X106342857Y-96852380D01*
X106485714Y-96900000D01*
X106533333Y-96947619D01*
X106866666Y-96852380D02*
X107485714Y-96852380D01*
X107152380Y-97233333D01*
X107295238Y-97233333D01*
X107390476Y-97280952D01*
X107438095Y-97328571D01*
X107485714Y-97423809D01*
X107485714Y-97661904D01*
X107438095Y-97757142D01*
X107390476Y-97804761D01*
X107295238Y-97852380D01*
X107009523Y-97852380D01*
X106914285Y-97804761D01*
X106866666Y-97757142D01*
%TO.C,C2*%
X110270833Y-85207142D02*
X110223214Y-85254761D01*
X110080357Y-85302380D01*
X109985119Y-85302380D01*
X109842261Y-85254761D01*
X109747023Y-85159523D01*
X109699404Y-85064285D01*
X109651785Y-84873809D01*
X109651785Y-84730952D01*
X109699404Y-84540476D01*
X109747023Y-84445238D01*
X109842261Y-84350000D01*
X109985119Y-84302380D01*
X110080357Y-84302380D01*
X110223214Y-84350000D01*
X110270833Y-84397619D01*
X110651785Y-84397619D02*
X110699404Y-84350000D01*
X110794642Y-84302380D01*
X111032738Y-84302380D01*
X111127976Y-84350000D01*
X111175595Y-84397619D01*
X111223214Y-84492857D01*
X111223214Y-84588095D01*
X111175595Y-84730952D01*
X110604166Y-85302380D01*
X111223214Y-85302380D01*
%TO.C,C1*%
X110145833Y-81707142D02*
X110098214Y-81754761D01*
X109955357Y-81802380D01*
X109860119Y-81802380D01*
X109717261Y-81754761D01*
X109622023Y-81659523D01*
X109574404Y-81564285D01*
X109526785Y-81373809D01*
X109526785Y-81230952D01*
X109574404Y-81040476D01*
X109622023Y-80945238D01*
X109717261Y-80850000D01*
X109860119Y-80802380D01*
X109955357Y-80802380D01*
X110098214Y-80850000D01*
X110145833Y-80897619D01*
X111098214Y-81802380D02*
X110526785Y-81802380D01*
X110812500Y-81802380D02*
X110812500Y-80802380D01*
X110717261Y-80945238D01*
X110622023Y-81040476D01*
X110526785Y-81088095D01*
%TD*%
%LPC*%
D12*
%TO.C,A1*%
X89840000Y-86310000D03*
X74600000Y-86310000D03*
X89840000Y-50750000D03*
X74600000Y-83770000D03*
X89840000Y-53290000D03*
X74600000Y-81230000D03*
X89840000Y-55830000D03*
X74600000Y-78690000D03*
X89840000Y-58370000D03*
X74600000Y-76150000D03*
X89840000Y-60910000D03*
X74600000Y-73610000D03*
X89840000Y-63450000D03*
X74600000Y-71070000D03*
X89840000Y-65990000D03*
X74600000Y-68530000D03*
X89840000Y-68530000D03*
X74600000Y-65990000D03*
X89840000Y-71070000D03*
X74600000Y-63450000D03*
X89840000Y-73610000D03*
X74600000Y-60910000D03*
X89840000Y-76150000D03*
X74600000Y-58370000D03*
X89840000Y-78690000D03*
X74600000Y-55830000D03*
X89840000Y-81230000D03*
X74600000Y-53290000D03*
X89840000Y-83770000D03*
D13*
X74600000Y-50750000D03*
%TD*%
D14*
%TO.C,H3*%
X81026000Y-42672000D03*
%TD*%
%TO.C,H2*%
X46736000Y-125476000D03*
%TD*%
%TO.C,H1*%
X123190000Y-127000000D03*
%TD*%
D15*
%TO.C,D14*%
X119250000Y-99650000D03*
X124250000Y-99650000D03*
%TD*%
D16*
%TO.C,J1*%
X71800000Y-128800000D03*
X71800000Y-126300000D03*
X71800000Y-123800000D03*
X71800000Y-121300000D03*
G36*
G01*
X71075000Y-117950000D02*
X72525000Y-117950000D01*
G75*
G02*
X72775000Y-118200000I0J-250000D01*
G01*
X72775000Y-119400000D01*
G75*
G02*
X72525000Y-119650000I-250000J0D01*
G01*
X71075000Y-119650000D01*
G75*
G02*
X70825000Y-119400000I0J250000D01*
G01*
X70825000Y-118200000D01*
G75*
G02*
X71075000Y-117950000I250000J0D01*
G01*
G37*
%TD*%
D17*
%TO.C,K2*%
X55850000Y-117060000D03*
X63850000Y-117060000D03*
X55850000Y-111980000D03*
X55850000Y-106900000D03*
X63850000Y-111980000D03*
X63850000Y-106900000D03*
X55850000Y-114520000D03*
X63850000Y-114520000D03*
%TD*%
D18*
%TO.C,K1*%
X53610000Y-92950000D03*
X53610000Y-100950000D03*
X58690000Y-92950000D03*
X63770000Y-92950000D03*
X58690000Y-100950000D03*
X63770000Y-100950000D03*
X56150000Y-92950000D03*
X56150000Y-100950000D03*
%TD*%
D19*
%TO.C,U4*%
X83050000Y-100350000D03*
X82400000Y-100350000D03*
X81750000Y-100350000D03*
X81750000Y-97690000D03*
X82400000Y-97690000D03*
X83050000Y-97690000D03*
%TD*%
%TO.C,U3*%
G36*
G01*
X89633500Y-98643500D02*
X89633500Y-98968500D01*
G75*
G02*
X89471000Y-99131000I-162500J0D01*
G01*
X87821000Y-99131000D01*
G75*
G02*
X87658500Y-98968500I0J162500D01*
G01*
X87658500Y-98643500D01*
G75*
G02*
X87821000Y-98481000I162500J0D01*
G01*
X89471000Y-98481000D01*
G75*
G02*
X89633500Y-98643500I0J-162500D01*
G01*
G37*
G36*
G01*
X89633500Y-97373500D02*
X89633500Y-97698500D01*
G75*
G02*
X89471000Y-97861000I-162500J0D01*
G01*
X87821000Y-97861000D01*
G75*
G02*
X87658500Y-97698500I0J162500D01*
G01*
X87658500Y-97373500D01*
G75*
G02*
X87821000Y-97211000I162500J0D01*
G01*
X89471000Y-97211000D01*
G75*
G02*
X89633500Y-97373500I0J-162500D01*
G01*
G37*
G36*
G01*
X89633500Y-96103500D02*
X89633500Y-96428500D01*
G75*
G02*
X89471000Y-96591000I-162500J0D01*
G01*
X87821000Y-96591000D01*
G75*
G02*
X87658500Y-96428500I0J162500D01*
G01*
X87658500Y-96103500D01*
G75*
G02*
X87821000Y-95941000I162500J0D01*
G01*
X89471000Y-95941000D01*
G75*
G02*
X89633500Y-96103500I0J-162500D01*
G01*
G37*
G36*
G01*
X89633500Y-94833500D02*
X89633500Y-95158500D01*
G75*
G02*
X89471000Y-95321000I-162500J0D01*
G01*
X87821000Y-95321000D01*
G75*
G02*
X87658500Y-95158500I0J162500D01*
G01*
X87658500Y-94833500D01*
G75*
G02*
X87821000Y-94671000I162500J0D01*
G01*
X89471000Y-94671000D01*
G75*
G02*
X89633500Y-94833500I0J-162500D01*
G01*
G37*
G36*
G01*
X94708500Y-94833500D02*
X94708500Y-95158500D01*
G75*
G02*
X94546000Y-95321000I-162500J0D01*
G01*
X92896000Y-95321000D01*
G75*
G02*
X92733500Y-95158500I0J162500D01*
G01*
X92733500Y-94833500D01*
G75*
G02*
X92896000Y-94671000I162500J0D01*
G01*
X94546000Y-94671000D01*
G75*
G02*
X94708500Y-94833500I0J-162500D01*
G01*
G37*
G36*
G01*
X94708500Y-96103500D02*
X94708500Y-96428500D01*
G75*
G02*
X94546000Y-96591000I-162500J0D01*
G01*
X92896000Y-96591000D01*
G75*
G02*
X92733500Y-96428500I0J162500D01*
G01*
X92733500Y-96103500D01*
G75*
G02*
X92896000Y-95941000I162500J0D01*
G01*
X94546000Y-95941000D01*
G75*
G02*
X94708500Y-96103500I0J-162500D01*
G01*
G37*
G36*
G01*
X94708500Y-97373500D02*
X94708500Y-97698500D01*
G75*
G02*
X94546000Y-97861000I-162500J0D01*
G01*
X92896000Y-97861000D01*
G75*
G02*
X92733500Y-97698500I0J162500D01*
G01*
X92733500Y-97373500D01*
G75*
G02*
X92896000Y-97211000I162500J0D01*
G01*
X94546000Y-97211000D01*
G75*
G02*
X94708500Y-97373500I0J-162500D01*
G01*
G37*
G36*
G01*
X94708500Y-98643500D02*
X94708500Y-98968500D01*
G75*
G02*
X94546000Y-99131000I-162500J0D01*
G01*
X92896000Y-99131000D01*
G75*
G02*
X92733500Y-98968500I0J162500D01*
G01*
X92733500Y-98643500D01*
G75*
G02*
X92896000Y-98481000I162500J0D01*
G01*
X94546000Y-98481000D01*
G75*
G02*
X94708500Y-98643500I0J-162500D01*
G01*
G37*
%TD*%
%TO.C,U2*%
G36*
G01*
X61618000Y-47965000D02*
X61318000Y-47965000D01*
G75*
G02*
X61168000Y-47815000I0J150000D01*
G01*
X61168000Y-46165000D01*
G75*
G02*
X61318000Y-46015000I150000J0D01*
G01*
X61618000Y-46015000D01*
G75*
G02*
X61768000Y-46165000I0J-150000D01*
G01*
X61768000Y-47815000D01*
G75*
G02*
X61618000Y-47965000I-150000J0D01*
G01*
G37*
G36*
G01*
X62888000Y-47965000D02*
X62588000Y-47965000D01*
G75*
G02*
X62438000Y-47815000I0J150000D01*
G01*
X62438000Y-46165000D01*
G75*
G02*
X62588000Y-46015000I150000J0D01*
G01*
X62888000Y-46015000D01*
G75*
G02*
X63038000Y-46165000I0J-150000D01*
G01*
X63038000Y-47815000D01*
G75*
G02*
X62888000Y-47965000I-150000J0D01*
G01*
G37*
G36*
G01*
X64158000Y-47965000D02*
X63858000Y-47965000D01*
G75*
G02*
X63708000Y-47815000I0J150000D01*
G01*
X63708000Y-46165000D01*
G75*
G02*
X63858000Y-46015000I150000J0D01*
G01*
X64158000Y-46015000D01*
G75*
G02*
X64308000Y-46165000I0J-150000D01*
G01*
X64308000Y-47815000D01*
G75*
G02*
X64158000Y-47965000I-150000J0D01*
G01*
G37*
G36*
G01*
X65428000Y-47965000D02*
X65128000Y-47965000D01*
G75*
G02*
X64978000Y-47815000I0J150000D01*
G01*
X64978000Y-46165000D01*
G75*
G02*
X65128000Y-46015000I150000J0D01*
G01*
X65428000Y-46015000D01*
G75*
G02*
X65578000Y-46165000I0J-150000D01*
G01*
X65578000Y-47815000D01*
G75*
G02*
X65428000Y-47965000I-150000J0D01*
G01*
G37*
G36*
G01*
X66698000Y-47965000D02*
X66398000Y-47965000D01*
G75*
G02*
X66248000Y-47815000I0J150000D01*
G01*
X66248000Y-46165000D01*
G75*
G02*
X66398000Y-46015000I150000J0D01*
G01*
X66698000Y-46015000D01*
G75*
G02*
X66848000Y-46165000I0J-150000D01*
G01*
X66848000Y-47815000D01*
G75*
G02*
X66698000Y-47965000I-150000J0D01*
G01*
G37*
G36*
G01*
X67968000Y-47965000D02*
X67668000Y-47965000D01*
G75*
G02*
X67518000Y-47815000I0J150000D01*
G01*
X67518000Y-46165000D01*
G75*
G02*
X67668000Y-46015000I150000J0D01*
G01*
X67968000Y-46015000D01*
G75*
G02*
X68118000Y-46165000I0J-150000D01*
G01*
X68118000Y-47815000D01*
G75*
G02*
X67968000Y-47965000I-150000J0D01*
G01*
G37*
G36*
G01*
X69238000Y-47965000D02*
X68938000Y-47965000D01*
G75*
G02*
X68788000Y-47815000I0J150000D01*
G01*
X68788000Y-46165000D01*
G75*
G02*
X68938000Y-46015000I150000J0D01*
G01*
X69238000Y-46015000D01*
G75*
G02*
X69388000Y-46165000I0J-150000D01*
G01*
X69388000Y-47815000D01*
G75*
G02*
X69238000Y-47965000I-150000J0D01*
G01*
G37*
G36*
G01*
X69238000Y-52915000D02*
X68938000Y-52915000D01*
G75*
G02*
X68788000Y-52765000I0J150000D01*
G01*
X68788000Y-51115000D01*
G75*
G02*
X68938000Y-50965000I150000J0D01*
G01*
X69238000Y-50965000D01*
G75*
G02*
X69388000Y-51115000I0J-150000D01*
G01*
X69388000Y-52765000D01*
G75*
G02*
X69238000Y-52915000I-150000J0D01*
G01*
G37*
G36*
G01*
X67968000Y-52915000D02*
X67668000Y-52915000D01*
G75*
G02*
X67518000Y-52765000I0J150000D01*
G01*
X67518000Y-51115000D01*
G75*
G02*
X67668000Y-50965000I150000J0D01*
G01*
X67968000Y-50965000D01*
G75*
G02*
X68118000Y-51115000I0J-150000D01*
G01*
X68118000Y-52765000D01*
G75*
G02*
X67968000Y-52915000I-150000J0D01*
G01*
G37*
G36*
G01*
X66698000Y-52915000D02*
X66398000Y-52915000D01*
G75*
G02*
X66248000Y-52765000I0J150000D01*
G01*
X66248000Y-51115000D01*
G75*
G02*
X66398000Y-50965000I150000J0D01*
G01*
X66698000Y-50965000D01*
G75*
G02*
X66848000Y-51115000I0J-150000D01*
G01*
X66848000Y-52765000D01*
G75*
G02*
X66698000Y-52915000I-150000J0D01*
G01*
G37*
G36*
G01*
X65428000Y-52915000D02*
X65128000Y-52915000D01*
G75*
G02*
X64978000Y-52765000I0J150000D01*
G01*
X64978000Y-51115000D01*
G75*
G02*
X65128000Y-50965000I150000J0D01*
G01*
X65428000Y-50965000D01*
G75*
G02*
X65578000Y-51115000I0J-150000D01*
G01*
X65578000Y-52765000D01*
G75*
G02*
X65428000Y-52915000I-150000J0D01*
G01*
G37*
G36*
G01*
X64158000Y-52915000D02*
X63858000Y-52915000D01*
G75*
G02*
X63708000Y-52765000I0J150000D01*
G01*
X63708000Y-51115000D01*
G75*
G02*
X63858000Y-50965000I150000J0D01*
G01*
X64158000Y-50965000D01*
G75*
G02*
X64308000Y-51115000I0J-150000D01*
G01*
X64308000Y-52765000D01*
G75*
G02*
X64158000Y-52915000I-150000J0D01*
G01*
G37*
G36*
G01*
X62888000Y-52915000D02*
X62588000Y-52915000D01*
G75*
G02*
X62438000Y-52765000I0J150000D01*
G01*
X62438000Y-51115000D01*
G75*
G02*
X62588000Y-50965000I150000J0D01*
G01*
X62888000Y-50965000D01*
G75*
G02*
X63038000Y-51115000I0J-150000D01*
G01*
X63038000Y-52765000D01*
G75*
G02*
X62888000Y-52915000I-150000J0D01*
G01*
G37*
G36*
G01*
X61618000Y-52915000D02*
X61318000Y-52915000D01*
G75*
G02*
X61168000Y-52765000I0J150000D01*
G01*
X61168000Y-51115000D01*
G75*
G02*
X61318000Y-50965000I150000J0D01*
G01*
X61618000Y-50965000D01*
G75*
G02*
X61768000Y-51115000I0J-150000D01*
G01*
X61768000Y-52765000D01*
G75*
G02*
X61618000Y-52915000I-150000J0D01*
G01*
G37*
%TD*%
D20*
%TO.C,U1*%
X108966000Y-88646000D03*
X108966000Y-87696000D03*
X108966000Y-86746000D03*
X111586000Y-86746000D03*
X111586000Y-87696000D03*
X111586000Y-88646000D03*
%TD*%
%TO.C,R27*%
G36*
G01*
X104530999Y-91552000D02*
X105781001Y-91552000D01*
G75*
G02*
X106031000Y-91801999I0J-249999D01*
G01*
X106031000Y-92602001D01*
G75*
G02*
X105781001Y-92852000I-249999J0D01*
G01*
X104530999Y-92852000D01*
G75*
G02*
X104281000Y-92602001I0J249999D01*
G01*
X104281000Y-91801999D01*
G75*
G02*
X104530999Y-91552000I249999J0D01*
G01*
G37*
G36*
G01*
X104530999Y-88452000D02*
X105781001Y-88452000D01*
G75*
G02*
X106031000Y-88701999I0J-249999D01*
G01*
X106031000Y-89502001D01*
G75*
G02*
X105781001Y-89752000I-249999J0D01*
G01*
X104530999Y-89752000D01*
G75*
G02*
X104281000Y-89502001I0J249999D01*
G01*
X104281000Y-88701999D01*
G75*
G02*
X104530999Y-88452000I249999J0D01*
G01*
G37*
%TD*%
%TO.C,R16*%
G36*
G01*
X105430000Y-53218999D02*
X105430000Y-54469001D01*
G75*
G02*
X105180001Y-54719000I-249999J0D01*
G01*
X104379999Y-54719000D01*
G75*
G02*
X104130000Y-54469001I0J249999D01*
G01*
X104130000Y-53218999D01*
G75*
G02*
X104379999Y-52969000I249999J0D01*
G01*
X105180001Y-52969000D01*
G75*
G02*
X105430000Y-53218999I0J-249999D01*
G01*
G37*
G36*
G01*
X108530000Y-53218999D02*
X108530000Y-54469001D01*
G75*
G02*
X108280001Y-54719000I-249999J0D01*
G01*
X107479999Y-54719000D01*
G75*
G02*
X107230000Y-54469001I0J249999D01*
G01*
X107230000Y-53218999D01*
G75*
G02*
X107479999Y-52969000I249999J0D01*
G01*
X108280001Y-52969000D01*
G75*
G02*
X108530000Y-53218999I0J-249999D01*
G01*
G37*
%TD*%
%TO.C,R15*%
G36*
G01*
X107230000Y-57263001D02*
X107230000Y-56012999D01*
G75*
G02*
X107479999Y-55763000I249999J0D01*
G01*
X108280001Y-55763000D01*
G75*
G02*
X108530000Y-56012999I0J-249999D01*
G01*
X108530000Y-57263001D01*
G75*
G02*
X108280001Y-57513000I-249999J0D01*
G01*
X107479999Y-57513000D01*
G75*
G02*
X107230000Y-57263001I0J249999D01*
G01*
G37*
G36*
G01*
X104130000Y-57263001D02*
X104130000Y-56012999D01*
G75*
G02*
X104379999Y-55763000I249999J0D01*
G01*
X105180001Y-55763000D01*
G75*
G02*
X105430000Y-56012999I0J-249999D01*
G01*
X105430000Y-57263001D01*
G75*
G02*
X105180001Y-57513000I-249999J0D01*
G01*
X104379999Y-57513000D01*
G75*
G02*
X104130000Y-57263001I0J249999D01*
G01*
G37*
%TD*%
%TO.C,R2*%
G36*
G01*
X99625001Y-83200000D02*
X98374999Y-83200000D01*
G75*
G02*
X98125000Y-82950001I0J249999D01*
G01*
X98125000Y-82149999D01*
G75*
G02*
X98374999Y-81900000I249999J0D01*
G01*
X99625001Y-81900000D01*
G75*
G02*
X99875000Y-82149999I0J-249999D01*
G01*
X99875000Y-82950001D01*
G75*
G02*
X99625001Y-83200000I-249999J0D01*
G01*
G37*
G36*
G01*
X99625001Y-86300000D02*
X98374999Y-86300000D01*
G75*
G02*
X98125000Y-86050001I0J249999D01*
G01*
X98125000Y-85249999D01*
G75*
G02*
X98374999Y-85000000I249999J0D01*
G01*
X99625001Y-85000000D01*
G75*
G02*
X99875000Y-85249999I0J-249999D01*
G01*
X99875000Y-86050001D01*
G75*
G02*
X99625001Y-86300000I-249999J0D01*
G01*
G37*
%TD*%
%TO.C,R1*%
G36*
G01*
X102874999Y-84974000D02*
X104125001Y-84974000D01*
G75*
G02*
X104375000Y-85223999I0J-249999D01*
G01*
X104375000Y-86024001D01*
G75*
G02*
X104125001Y-86274000I-249999J0D01*
G01*
X102874999Y-86274000D01*
G75*
G02*
X102625000Y-86024001I0J249999D01*
G01*
X102625000Y-85223999D01*
G75*
G02*
X102874999Y-84974000I249999J0D01*
G01*
G37*
G36*
G01*
X102874999Y-81874000D02*
X104125001Y-81874000D01*
G75*
G02*
X104375000Y-82123999I0J-249999D01*
G01*
X104375000Y-82924001D01*
G75*
G02*
X104125001Y-83174000I-249999J0D01*
G01*
X102874999Y-83174000D01*
G75*
G02*
X102625000Y-82924001I0J249999D01*
G01*
X102625000Y-82123999D01*
G75*
G02*
X102874999Y-81874000I249999J0D01*
G01*
G37*
%TD*%
D21*
%TO.C,Q2*%
X75000000Y-102800000D03*
D22*
X72460000Y-102800000D03*
X73730000Y-102800000D03*
%TD*%
D21*
%TO.C,Q1*%
X78750000Y-114000000D03*
D22*
X76210000Y-114000000D03*
X77480000Y-114000000D03*
%TD*%
D23*
%TO.C,L1*%
X123700000Y-88000000D03*
X117300000Y-88000000D03*
%TD*%
%TO.C,J5*%
G36*
G01*
X55335000Y-64564000D02*
X53885000Y-64564000D01*
G75*
G02*
X53635000Y-64314000I0J250000D01*
G01*
X53635000Y-63114000D01*
G75*
G02*
X53885000Y-62864000I250000J0D01*
G01*
X55335000Y-62864000D01*
G75*
G02*
X55585000Y-63114000I0J-250000D01*
G01*
X55585000Y-64314000D01*
G75*
G02*
X55335000Y-64564000I-250000J0D01*
G01*
G37*
D16*
X54610000Y-61214000D03*
X54610000Y-58714000D03*
X54610000Y-56214000D03*
%TD*%
D24*
%TO.C,J4*%
X126430000Y-58930000D03*
X123930000Y-58930000D03*
G36*
G01*
X120580000Y-59655000D02*
X120580000Y-58205000D01*
G75*
G02*
X120830000Y-57955000I250000J0D01*
G01*
X122030000Y-57955000D01*
G75*
G02*
X122280000Y-58205000I0J-250000D01*
G01*
X122280000Y-59655000D01*
G75*
G02*
X122030000Y-59905000I-250000J0D01*
G01*
X120830000Y-59905000D01*
G75*
G02*
X120580000Y-59655000I0J250000D01*
G01*
G37*
%TD*%
D16*
%TO.C,J3*%
X98938000Y-50930000D03*
X98938000Y-48430000D03*
X98938000Y-45930000D03*
G36*
G01*
X98213000Y-42580000D02*
X99663000Y-42580000D01*
G75*
G02*
X99913000Y-42830000I0J-250000D01*
G01*
X99913000Y-44030000D01*
G75*
G02*
X99663000Y-44280000I-250000J0D01*
G01*
X98213000Y-44280000D01*
G75*
G02*
X97963000Y-44030000I0J250000D01*
G01*
X97963000Y-42830000D01*
G75*
G02*
X98213000Y-42580000I250000J0D01*
G01*
G37*
%TD*%
D25*
%TO.C,J2*%
X54356000Y-44918000D03*
G36*
G01*
X53606000Y-41568000D02*
X55106000Y-41568000D01*
G75*
G02*
X55356000Y-41818000I0J-250000D01*
G01*
X55356000Y-43018000D01*
G75*
G02*
X55106000Y-43268000I-250000J0D01*
G01*
X53606000Y-43268000D01*
G75*
G02*
X53356000Y-43018000I0J250000D01*
G01*
X53356000Y-41818000D01*
G75*
G02*
X53606000Y-41568000I250000J0D01*
G01*
G37*
%TD*%
%TO.C,F1*%
G36*
G01*
X119387500Y-70349997D02*
X119387500Y-71650003D01*
G75*
G02*
X119137503Y-71900000I-249997J0D01*
G01*
X118312497Y-71900000D01*
G75*
G02*
X118062500Y-71650003I0J249997D01*
G01*
X118062500Y-70349997D01*
G75*
G02*
X118312497Y-70100000I249997J0D01*
G01*
X119137503Y-70100000D01*
G75*
G02*
X119387500Y-70349997I0J-249997D01*
G01*
G37*
G36*
G01*
X122512500Y-70349997D02*
X122512500Y-71650003D01*
G75*
G02*
X122262503Y-71900000I-249997J0D01*
G01*
X121437497Y-71900000D01*
G75*
G02*
X121187500Y-71650003I0J249997D01*
G01*
X121187500Y-70349997D01*
G75*
G02*
X121437497Y-70100000I249997J0D01*
G01*
X122262503Y-70100000D01*
G75*
G02*
X122512500Y-70349997I0J-249997D01*
G01*
G37*
%TD*%
D15*
%TO.C,D8*%
X109860000Y-46224000D03*
X104860000Y-46224000D03*
%TD*%
%TO.C,D7*%
X109780000Y-50034000D03*
X104780000Y-50034000D03*
%TD*%
D26*
%TO.C,D1*%
X68350000Y-103110000D03*
D27*
X68350000Y-92950000D03*
%TD*%
D28*
%TO.C,C8*%
X61940000Y-85170000D03*
D13*
X61940000Y-87670000D03*
%TD*%
D28*
%TO.C,C7*%
X64400000Y-78800000D03*
D13*
X61900000Y-78800000D03*
%TD*%
D28*
%TO.C,C6*%
X54530000Y-82870000D03*
D13*
X54530000Y-85370000D03*
%TD*%
D28*
%TO.C,C5*%
X56250000Y-78300000D03*
D13*
X56250000Y-75800000D03*
%TD*%
%TO.C,C4*%
G36*
G01*
X122837500Y-96150003D02*
X122837500Y-94849997D01*
G75*
G02*
X123087497Y-94600000I249997J0D01*
G01*
X123912503Y-94600000D01*
G75*
G02*
X124162500Y-94849997I0J-249997D01*
G01*
X124162500Y-96150003D01*
G75*
G02*
X123912503Y-96400000I-249997J0D01*
G01*
X123087497Y-96400000D01*
G75*
G02*
X122837500Y-96150003I0J249997D01*
G01*
G37*
G36*
G01*
X119712500Y-96150003D02*
X119712500Y-94849997D01*
G75*
G02*
X119962497Y-94600000I249997J0D01*
G01*
X120787503Y-94600000D01*
G75*
G02*
X121037500Y-94849997I0J-249997D01*
G01*
X121037500Y-96150003D01*
G75*
G02*
X120787503Y-96400000I-249997J0D01*
G01*
X119962497Y-96400000D01*
G75*
G02*
X119712500Y-96150003I0J249997D01*
G01*
G37*
%TD*%
%TO.C,C3*%
G36*
G01*
X105800000Y-94899997D02*
X105800000Y-96200003D01*
G75*
G02*
X105550003Y-96450000I-249997J0D01*
G01*
X104724997Y-96450000D01*
G75*
G02*
X104475000Y-96200003I0J249997D01*
G01*
X104475000Y-94899997D01*
G75*
G02*
X104724997Y-94650000I249997J0D01*
G01*
X105550003Y-94650000D01*
G75*
G02*
X105800000Y-94899997I0J-249997D01*
G01*
G37*
G36*
G01*
X108925000Y-94899997D02*
X108925000Y-96200003D01*
G75*
G02*
X108675003Y-96450000I-249997J0D01*
G01*
X107849997Y-96450000D01*
G75*
G02*
X107600000Y-96200003I0J249997D01*
G01*
X107600000Y-94899997D01*
G75*
G02*
X107849997Y-94650000I249997J0D01*
G01*
X108675003Y-94650000D01*
G75*
G02*
X108925000Y-94899997I0J-249997D01*
G01*
G37*
%TD*%
%TO.C,C2*%
G36*
G01*
X109537500Y-82349997D02*
X109537500Y-83650003D01*
G75*
G02*
X109287503Y-83900000I-249997J0D01*
G01*
X108462497Y-83900000D01*
G75*
G02*
X108212500Y-83650003I0J249997D01*
G01*
X108212500Y-82349997D01*
G75*
G02*
X108462497Y-82100000I249997J0D01*
G01*
X109287503Y-82100000D01*
G75*
G02*
X109537500Y-82349997I0J-249997D01*
G01*
G37*
G36*
G01*
X112662500Y-82349997D02*
X112662500Y-83650003D01*
G75*
G02*
X112412503Y-83900000I-249997J0D01*
G01*
X111587497Y-83900000D01*
G75*
G02*
X111337500Y-83650003I0J249997D01*
G01*
X111337500Y-82349997D01*
G75*
G02*
X111587497Y-82100000I249997J0D01*
G01*
X112412503Y-82100000D01*
G75*
G02*
X112662500Y-82349997I0J-249997D01*
G01*
G37*
%TD*%
%TO.C,C1*%
G36*
G01*
X109412500Y-78849997D02*
X109412500Y-80150003D01*
G75*
G02*
X109162503Y-80400000I-249997J0D01*
G01*
X108337497Y-80400000D01*
G75*
G02*
X108087500Y-80150003I0J249997D01*
G01*
X108087500Y-78849997D01*
G75*
G02*
X108337497Y-78600000I249997J0D01*
G01*
X109162503Y-78600000D01*
G75*
G02*
X109412500Y-78849997I0J-249997D01*
G01*
G37*
G36*
G01*
X112537500Y-78849997D02*
X112537500Y-80150003D01*
G75*
G02*
X112287503Y-80400000I-249997J0D01*
G01*
X111462497Y-80400000D01*
G75*
G02*
X111212500Y-80150003I0J249997D01*
G01*
X111212500Y-78849997D01*
G75*
G02*
X111462497Y-78600000I249997J0D01*
G01*
X112287503Y-78600000D01*
G75*
G02*
X112537500Y-78849997I0J-249997D01*
G01*
G37*
%TD*%
M02*
