M48
; DRILL file {KiCad 5.1.10-88a1d61d58~88~ubuntu18.04.1} date Wed May 26 02:41:53 2021
; FORMAT={-:-/ absolute / metric / decimal}
; #@! TF.CreationDate,2021-05-26T02:41:53+03:00
; #@! TF.GenerationSoftware,Kicad,Pcbnew,5.1.10-88a1d61d58~88~ubuntu18.04.1
; #@! TF.FileFunction,Plated,1,4,PTH
FMAT,2
METRIC
T1C0.400
T2C0.750
T3C0.800
T4C0.950
T5C1.000
T6C1.100
%
G90
G05
T1
X37.56Y-55.41
X37.61Y-64.9
X37.72Y-39.32
X37.72Y-59.81
X37.77Y-44.45
X37.88Y-42.09
X37.88Y-47.02
X37.91Y-49.6
X38.19Y-70.25
X39.624Y-131.826
X39.878Y-119.126
X39.878Y-122.936
X39.878Y-127.254
X39.94Y-55.01
X39.94Y-58.91
X40.0Y-62.93
X40.0Y-75.0
X40.0Y-80.0
X40.0Y-85.0
X40.0Y-90.0
X40.0Y-95.0
X40.0Y-100.0
X40.0Y-105.0
X40.0Y-110.0
X40.0Y-115.0
X43.0Y-38.0
X44.45Y-131.826
X45.0Y-75.0
X45.0Y-85.0
X45.0Y-90.0
X45.0Y-100.0
X45.0Y-110.0
X48.0Y-38.0
X49.276Y-131.826
X50.0Y-90.0
X51.85Y-106.6
X51.85Y-107.9
X51.9Y-98.05
X51.9Y-105.3
X53.0Y-38.0
X53.34Y-131.826
X53.55Y-105.3
X53.6Y-106.65
X53.6Y-107.95
X56.1Y-96.2
X58.0Y-38.0
X59.14Y-132.2
X63.0Y-38.0
X64.008Y-49.508
X64.76Y-132.19
X65.7Y-91.4
X65.7Y-92.75
X65.7Y-94.3
X66.04Y-55.372
X66.802Y-49.784
X68.0Y-38.0
X69.088Y-54.102
X70.54Y-132.35
X73.0Y-38.0
X73.406Y-42.418
X75.4Y-132.4
X78.0Y-38.0
X79.59Y-132.45
X80.4Y-102.4
X81.79Y-95.61
X82.225Y-102.25
X83.0Y-38.0
X83.45Y-107.25
X84.16Y-132.4
X84.328Y-99.568
X85.793Y-64.575
X88.0Y-38.0
X88.0Y-117.5
X88.0Y-120.0
X88.0Y-127.5
X88.0Y-130.0
X88.06Y-125.04
X88.08Y-122.87
X88.646Y-101.346
X89.64Y-132.47
X93.0Y-38.0
X95.0Y-70.0
X95.0Y-72.5
X95.0Y-75.0
X95.05Y-132.31
X96.25Y-78.25
X96.25Y-80.25
X96.25Y-81.75
X96.25Y-83.75
X97.5Y-70.0
X97.5Y-72.5
X97.5Y-75.0
X98.0Y-38.0
X99.0Y-78.25
X99.0Y-80.25
X101.75Y-87.5
X102.25Y-77.5
X102.25Y-80.0
X102.31Y-132.24
X102.5Y-90.0
X102.5Y-92.5
X102.5Y-95.0
X103.0Y-38.0
X104.25Y-77.75
X104.25Y-80.0
X107.0Y-75.75
X107.0Y-77.5
X107.0Y-78.75
X107.0Y-80.25
X107.0Y-81.5
X107.0Y-82.75
X107.0Y-84.0
X108.0Y-38.0
X108.25Y-132.24
X108.262Y-93.513
X108.75Y-75.75
X108.75Y-77.25
X109.75Y-91.5
X109.75Y-93.0
X110.0Y-55.0
X110.0Y-97.5
X110.25Y-87.0
X110.25Y-88.25
X111.21Y-102.95
X111.21Y-107.95
X111.21Y-115.45
X111.25Y-91.5
X111.25Y-93.0
X111.25Y-94.5
X111.252Y-121.412
X112.5Y-97.5
X112.6Y-45.4
X112.6Y-46.8
X112.6Y-48.4
X112.6Y-49.8
X112.6Y-51.4
X112.65Y-99.14
X113.0Y-38.0
X113.0Y-91.5
X113.0Y-93.0
X113.0Y-94.5
X113.0Y-96.0
X113.284Y-132.334
X113.8Y-45.4
X114.0Y-46.8
X114.0Y-48.4
X114.0Y-49.8
X114.0Y-51.4
X114.91Y-99.02
X115.0Y-55.0
X115.0Y-91.5
X115.0Y-93.0
X115.0Y-94.5
X115.0Y-96.0
X115.0Y-97.5
X115.0Y-100.62
X115.57Y-121.412
X115.9Y-68.8
X116.0Y-108.0
X116.0Y-111.0
X116.0Y-115.0
X116.0Y-119.0
X117.56Y-83.0
X117.856Y-132.334
X118.0Y-38.0
X118.5Y-93.25
X118.5Y-94.75
X118.5Y-96.5
X118.75Y-90.25
X119.888Y-121.412
X120.0Y-42.5
X120.0Y-45.0
X120.0Y-108.0
X120.0Y-111.0
X120.0Y-115.0
X120.0Y-119.0
X120.53Y-81.91
X120.92Y-78.02
X122.5Y-42.5
X122.5Y-45.0
X122.682Y-132.334
X123.0Y-38.0
X123.0Y-82.0
X123.0Y-85.0
X124.0Y-108.0
X124.0Y-111.0
X124.0Y-115.0
X124.0Y-119.0
X125.0Y-42.5
X125.0Y-45.0
X125.476Y-121.412
X126.0Y-82.0
X126.0Y-85.0
X126.64Y-77.98
X127.0Y-88.0
X127.0Y-90.0
X127.0Y-92.0
X127.0Y-94.0
X127.0Y-96.0
X127.254Y-132.334
X127.5Y-42.5
X127.5Y-45.0
X128.0Y-108.0
X128.0Y-111.0
X128.0Y-115.0
X128.0Y-119.0
X129.0Y-82.0
X129.0Y-85.0
X129.0Y-88.0
X129.0Y-90.0
X129.0Y-92.0
X129.0Y-94.0
X129.0Y-96.0
X129.0Y-98.0
X129.0Y-100.0
X129.0Y-102.0
X129.0Y-104.0
X130.0Y-38.0
X130.0Y-42.5
X130.0Y-45.0
X130.0Y-49.0
X130.0Y-53.0
X130.302Y-121.92
X130.302Y-125.222
X130.302Y-128.524
X130.302Y-132.334
X130.44Y-61.56
X130.49Y-57.99
X130.5Y-66.5
X130.5Y-70.0
X130.5Y-73.5
X130.5Y-77.5
T2
X72.46Y-102.8
X73.73Y-102.8
X75.0Y-102.8
X76.21Y-114.0
X77.48Y-114.0
X78.75Y-114.0
T3
X54.53Y-82.87
X54.53Y-85.37
X56.25Y-75.8
X56.25Y-78.3
X61.9Y-78.8
X61.94Y-85.17
X61.94Y-87.67
X64.4Y-78.8
T4
X54.61Y-56.214
X54.61Y-58.714
X54.61Y-61.214
X54.61Y-63.714
X71.8Y-118.8
X71.8Y-121.3
X71.8Y-123.8
X71.8Y-126.3
X71.8Y-128.8
X98.938Y-43.43
X98.938Y-45.93
X98.938Y-48.43
X98.938Y-50.93
X121.43Y-58.93
X123.93Y-58.93
X126.43Y-58.93
T5
X54.356Y-42.418
X54.356Y-44.918
X74.6Y-50.75
X74.6Y-53.29
X74.6Y-55.83
X74.6Y-58.37
X74.6Y-60.91
X74.6Y-63.45
X74.6Y-65.99
X74.6Y-68.53
X74.6Y-71.07
X74.6Y-73.61
X74.6Y-76.15
X74.6Y-78.69
X74.6Y-81.23
X74.6Y-83.77
X74.6Y-86.31
X89.84Y-50.75
X89.84Y-53.29
X89.84Y-55.83
X89.84Y-58.37
X89.84Y-60.91
X89.84Y-63.45
X89.84Y-65.99
X89.84Y-68.53
X89.84Y-71.07
X89.84Y-73.61
X89.84Y-76.15
X89.84Y-78.69
X89.84Y-81.23
X89.84Y-83.77
X89.84Y-86.31
T6
X68.35Y-92.95
X68.35Y-103.11
T0
M30
