%TF.GenerationSoftware,KiCad,Pcbnew,5.1.10-88a1d61d58~88~ubuntu18.04.1*%
%TF.CreationDate,2021-05-26T02:41:18+03:00*%
%TF.ProjectId,Micra Cruise Control Schemantics,4d696372-6120-4437-9275-69736520436f,rev?*%
%TF.SameCoordinates,Original*%
%TF.FileFunction,Legend,Bot*%
%TF.FilePolarity,Positive*%
%FSLAX46Y46*%
G04 Gerber Fmt 4.6, Leading zero omitted, Abs format (unit mm)*
G04 Created by KiCad (PCBNEW 5.1.10-88a1d61d58~88~ubuntu18.04.1) date 2021-05-26 02:41:18*
%MOMM*%
%LPD*%
G01*
G04 APERTURE LIST*
%ADD10C,0.120000*%
%ADD11C,0.150000*%
%ADD12O,1.600000X1.600000*%
%ADD13R,1.600000X1.600000*%
%ADD14C,3.700000*%
%ADD15O,1.950000X1.700000*%
%ADD16R,1.050000X1.500000*%
%ADD17O,1.050000X1.500000*%
%ADD18R,1.500000X1.000000*%
%ADD19O,1.700000X1.950000*%
%ADD20O,2.000000X1.700000*%
%ADD21R,3.500000X1.800000*%
%ADD22R,3.500000X2.300000*%
%ADD23R,1.800000X3.500000*%
%ADD24O,2.200000X2.200000*%
%ADD25R,2.200000X2.200000*%
%ADD26C,1.600000*%
G04 APERTURE END LIST*
D10*
%TO.C,R26*%
X111572936Y-65010000D02*
X113027064Y-65010000D01*
X111572936Y-63190000D02*
X113027064Y-63190000D01*
%TO.C,R25*%
X71410000Y-86577064D02*
X71410000Y-85122936D01*
X69590000Y-86577064D02*
X69590000Y-85122936D01*
%TO.C,R24*%
X67922936Y-76610000D02*
X69377064Y-76610000D01*
X67922936Y-74790000D02*
X69377064Y-74790000D01*
%TO.C,R23*%
X65472936Y-85860000D02*
X66927064Y-85860000D01*
X65472936Y-84040000D02*
X66927064Y-84040000D01*
%TO.C,R22*%
X68910000Y-80677064D02*
X68910000Y-79222936D01*
X67090000Y-80677064D02*
X67090000Y-79222936D01*
%TO.C,R21*%
X43328000Y-69281064D02*
X43328000Y-67826936D01*
X41508000Y-69281064D02*
X41508000Y-67826936D01*
%TO.C,R20*%
X52684000Y-68868936D02*
X52684000Y-70323064D01*
X54504000Y-68868936D02*
X54504000Y-70323064D01*
%TO.C,R19*%
X46122000Y-69333064D02*
X46122000Y-67878936D01*
X44302000Y-69333064D02*
X44302000Y-67878936D01*
%TO.C,R18*%
X80116000Y-68894936D02*
X80116000Y-70349064D01*
X81936000Y-68894936D02*
X81936000Y-70349064D01*
%TO.C,R17*%
X49382000Y-68842936D02*
X49382000Y-70297064D01*
X51202000Y-68842936D02*
X51202000Y-70297064D01*
%TO.C,R14*%
X107727064Y-60490000D02*
X106272936Y-60490000D01*
X107727064Y-62310000D02*
X106272936Y-62310000D01*
%TO.C,R13*%
X106172936Y-65310000D02*
X107627064Y-65310000D01*
X106172936Y-63490000D02*
X107627064Y-63490000D01*
%TO.C,R12*%
X76527064Y-107740000D02*
X75072936Y-107740000D01*
X76527064Y-109560000D02*
X75072936Y-109560000D01*
%TO.C,R11*%
X76627064Y-104990000D02*
X75172936Y-104990000D01*
X76627064Y-106810000D02*
X75172936Y-106810000D01*
%TO.C,R10*%
X89460000Y-111327064D02*
X89460000Y-109872936D01*
X87640000Y-111327064D02*
X87640000Y-109872936D01*
%TO.C,R9*%
X86910000Y-107727064D02*
X86910000Y-106272936D01*
X85090000Y-107727064D02*
X85090000Y-106272936D01*
%TO.C,R8*%
X65422936Y-88460000D02*
X66877064Y-88460000D01*
X65422936Y-86640000D02*
X66877064Y-86640000D01*
%TO.C,R7*%
X62472936Y-76660000D02*
X63927064Y-76660000D01*
X62472936Y-74840000D02*
X63927064Y-74840000D01*
%TO.C,R6*%
X58400000Y-85442936D02*
X58400000Y-86897064D01*
X60220000Y-85442936D02*
X60220000Y-86897064D01*
%TO.C,R5*%
X58240000Y-76422936D02*
X58240000Y-77877064D01*
X60060000Y-76422936D02*
X60060000Y-77877064D01*
%TO.C,R4*%
X68640936Y-43328000D02*
X70095064Y-43328000D01*
X68640936Y-41508000D02*
X70095064Y-41508000D01*
%TO.C,R3*%
X63052936Y-43328000D02*
X64507064Y-43328000D01*
X63052936Y-41508000D02*
X64507064Y-41508000D01*
%TO.C,JP1*%
X117700000Y-61850000D02*
X115700000Y-61850000D01*
X117700000Y-65950000D02*
X117700000Y-61850000D01*
X115700000Y-65950000D02*
X117700000Y-65950000D01*
X115700000Y-61850000D02*
X115700000Y-65950000D01*
%TO.C,D13*%
X50628000Y-60834000D02*
X50628000Y-64134000D01*
X50628000Y-64134000D02*
X43728000Y-64134000D01*
X50628000Y-60834000D02*
X43728000Y-60834000D01*
%TO.C,D12*%
X48636000Y-44850000D02*
X48636000Y-49150000D01*
X48636000Y-49150000D02*
X41336000Y-49150000D01*
X48636000Y-44850000D02*
X41336000Y-44850000D01*
%TO.C,D11*%
X48702000Y-40268000D02*
X48702000Y-44568000D01*
X48702000Y-44568000D02*
X41402000Y-44568000D01*
X48702000Y-40268000D02*
X41402000Y-40268000D01*
%TO.C,D10*%
X122300000Y-54530000D02*
X119000000Y-54530000D01*
X119000000Y-54530000D02*
X119000000Y-47630000D01*
X122300000Y-54530000D02*
X122300000Y-47630000D01*
%TO.C,D9*%
X128400000Y-54530000D02*
X125100000Y-54530000D01*
X125100000Y-54530000D02*
X125100000Y-47630000D01*
X128400000Y-54530000D02*
X128400000Y-47630000D01*
%TO.C,D6*%
X78000000Y-121600000D02*
X78000000Y-117300000D01*
X78000000Y-117300000D02*
X85300000Y-117300000D01*
X78000000Y-121600000D02*
X85300000Y-121600000D01*
%TO.C,D5*%
X50668000Y-57024000D02*
X50668000Y-60324000D01*
X50668000Y-60324000D02*
X43768000Y-60324000D01*
X50668000Y-57024000D02*
X43768000Y-57024000D01*
%TO.C,D4*%
X50628000Y-53214000D02*
X50628000Y-56514000D01*
X50628000Y-56514000D02*
X43728000Y-56514000D01*
X50628000Y-53214000D02*
X43728000Y-53214000D01*
%TO.C,D3*%
X78050000Y-130950000D02*
X78050000Y-126650000D01*
X78050000Y-126650000D02*
X85350000Y-126650000D01*
X78050000Y-130950000D02*
X85350000Y-130950000D01*
%TO.C,D2*%
X78000000Y-126200000D02*
X78000000Y-121900000D01*
X78000000Y-121900000D02*
X85300000Y-121900000D01*
X78000000Y-126200000D02*
X85300000Y-126200000D01*
%TO.C,D1*%
X66880000Y-95310000D02*
X69820000Y-95310000D01*
X69820000Y-95310000D02*
X69820000Y-100750000D01*
X69820000Y-100750000D02*
X66880000Y-100750000D01*
X66880000Y-100750000D02*
X66880000Y-95310000D01*
X68350000Y-94290000D02*
X68350000Y-95310000D01*
X68350000Y-101770000D02*
X68350000Y-100750000D01*
X66880000Y-96210000D02*
X69820000Y-96210000D01*
X66880000Y-96330000D02*
X69820000Y-96330000D01*
X66880000Y-96090000D02*
X69820000Y-96090000D01*
%TO.C,R26*%
D11*
X112942857Y-66372380D02*
X113276190Y-65896190D01*
X113514285Y-66372380D02*
X113514285Y-65372380D01*
X113133333Y-65372380D01*
X113038095Y-65420000D01*
X112990476Y-65467619D01*
X112942857Y-65562857D01*
X112942857Y-65705714D01*
X112990476Y-65800952D01*
X113038095Y-65848571D01*
X113133333Y-65896190D01*
X113514285Y-65896190D01*
X112561904Y-65467619D02*
X112514285Y-65420000D01*
X112419047Y-65372380D01*
X112180952Y-65372380D01*
X112085714Y-65420000D01*
X112038095Y-65467619D01*
X111990476Y-65562857D01*
X111990476Y-65658095D01*
X112038095Y-65800952D01*
X112609523Y-66372380D01*
X111990476Y-66372380D01*
X111133333Y-65372380D02*
X111323809Y-65372380D01*
X111419047Y-65420000D01*
X111466666Y-65467619D01*
X111561904Y-65610476D01*
X111609523Y-65800952D01*
X111609523Y-66181904D01*
X111561904Y-66277142D01*
X111514285Y-66324761D01*
X111419047Y-66372380D01*
X111228571Y-66372380D01*
X111133333Y-66324761D01*
X111085714Y-66277142D01*
X111038095Y-66181904D01*
X111038095Y-65943809D01*
X111085714Y-65848571D01*
X111133333Y-65800952D01*
X111228571Y-65753333D01*
X111419047Y-65753333D01*
X111514285Y-65800952D01*
X111561904Y-65848571D01*
X111609523Y-65943809D01*
%TO.C,R25*%
X72772380Y-85207142D02*
X72296190Y-84873809D01*
X72772380Y-84635714D02*
X71772380Y-84635714D01*
X71772380Y-85016666D01*
X71820000Y-85111904D01*
X71867619Y-85159523D01*
X71962857Y-85207142D01*
X72105714Y-85207142D01*
X72200952Y-85159523D01*
X72248571Y-85111904D01*
X72296190Y-85016666D01*
X72296190Y-84635714D01*
X71867619Y-85588095D02*
X71820000Y-85635714D01*
X71772380Y-85730952D01*
X71772380Y-85969047D01*
X71820000Y-86064285D01*
X71867619Y-86111904D01*
X71962857Y-86159523D01*
X72058095Y-86159523D01*
X72200952Y-86111904D01*
X72772380Y-85540476D01*
X72772380Y-86159523D01*
X71772380Y-87064285D02*
X71772380Y-86588095D01*
X72248571Y-86540476D01*
X72200952Y-86588095D01*
X72153333Y-86683333D01*
X72153333Y-86921428D01*
X72200952Y-87016666D01*
X72248571Y-87064285D01*
X72343809Y-87111904D01*
X72581904Y-87111904D01*
X72677142Y-87064285D01*
X72724761Y-87016666D01*
X72772380Y-86921428D01*
X72772380Y-86683333D01*
X72724761Y-86588095D01*
X72677142Y-86540476D01*
%TO.C,R24*%
X69292857Y-77972380D02*
X69626190Y-77496190D01*
X69864285Y-77972380D02*
X69864285Y-76972380D01*
X69483333Y-76972380D01*
X69388095Y-77020000D01*
X69340476Y-77067619D01*
X69292857Y-77162857D01*
X69292857Y-77305714D01*
X69340476Y-77400952D01*
X69388095Y-77448571D01*
X69483333Y-77496190D01*
X69864285Y-77496190D01*
X68911904Y-77067619D02*
X68864285Y-77020000D01*
X68769047Y-76972380D01*
X68530952Y-76972380D01*
X68435714Y-77020000D01*
X68388095Y-77067619D01*
X68340476Y-77162857D01*
X68340476Y-77258095D01*
X68388095Y-77400952D01*
X68959523Y-77972380D01*
X68340476Y-77972380D01*
X67483333Y-77305714D02*
X67483333Y-77972380D01*
X67721428Y-76924761D02*
X67959523Y-77639047D01*
X67340476Y-77639047D01*
%TO.C,R23*%
X66842857Y-87222380D02*
X67176190Y-86746190D01*
X67414285Y-87222380D02*
X67414285Y-86222380D01*
X67033333Y-86222380D01*
X66938095Y-86270000D01*
X66890476Y-86317619D01*
X66842857Y-86412857D01*
X66842857Y-86555714D01*
X66890476Y-86650952D01*
X66938095Y-86698571D01*
X67033333Y-86746190D01*
X67414285Y-86746190D01*
X66461904Y-86317619D02*
X66414285Y-86270000D01*
X66319047Y-86222380D01*
X66080952Y-86222380D01*
X65985714Y-86270000D01*
X65938095Y-86317619D01*
X65890476Y-86412857D01*
X65890476Y-86508095D01*
X65938095Y-86650952D01*
X66509523Y-87222380D01*
X65890476Y-87222380D01*
X65557142Y-86222380D02*
X64938095Y-86222380D01*
X65271428Y-86603333D01*
X65128571Y-86603333D01*
X65033333Y-86650952D01*
X64985714Y-86698571D01*
X64938095Y-86793809D01*
X64938095Y-87031904D01*
X64985714Y-87127142D01*
X65033333Y-87174761D01*
X65128571Y-87222380D01*
X65414285Y-87222380D01*
X65509523Y-87174761D01*
X65557142Y-87127142D01*
%TO.C,R22*%
X70272380Y-79307142D02*
X69796190Y-78973809D01*
X70272380Y-78735714D02*
X69272380Y-78735714D01*
X69272380Y-79116666D01*
X69320000Y-79211904D01*
X69367619Y-79259523D01*
X69462857Y-79307142D01*
X69605714Y-79307142D01*
X69700952Y-79259523D01*
X69748571Y-79211904D01*
X69796190Y-79116666D01*
X69796190Y-78735714D01*
X69367619Y-79688095D02*
X69320000Y-79735714D01*
X69272380Y-79830952D01*
X69272380Y-80069047D01*
X69320000Y-80164285D01*
X69367619Y-80211904D01*
X69462857Y-80259523D01*
X69558095Y-80259523D01*
X69700952Y-80211904D01*
X70272380Y-79640476D01*
X70272380Y-80259523D01*
X69367619Y-80640476D02*
X69320000Y-80688095D01*
X69272380Y-80783333D01*
X69272380Y-81021428D01*
X69320000Y-81116666D01*
X69367619Y-81164285D01*
X69462857Y-81211904D01*
X69558095Y-81211904D01*
X69700952Y-81164285D01*
X70272380Y-80592857D01*
X70272380Y-81211904D01*
%TO.C,R21*%
X40832380Y-67877142D02*
X40356190Y-67543809D01*
X40832380Y-67305714D02*
X39832380Y-67305714D01*
X39832380Y-67686666D01*
X39880000Y-67781904D01*
X39927619Y-67829523D01*
X40022857Y-67877142D01*
X40165714Y-67877142D01*
X40260952Y-67829523D01*
X40308571Y-67781904D01*
X40356190Y-67686666D01*
X40356190Y-67305714D01*
X39927619Y-68258095D02*
X39880000Y-68305714D01*
X39832380Y-68400952D01*
X39832380Y-68639047D01*
X39880000Y-68734285D01*
X39927619Y-68781904D01*
X40022857Y-68829523D01*
X40118095Y-68829523D01*
X40260952Y-68781904D01*
X40832380Y-68210476D01*
X40832380Y-68829523D01*
X40832380Y-69781904D02*
X40832380Y-69210476D01*
X40832380Y-69496190D02*
X39832380Y-69496190D01*
X39975238Y-69400952D01*
X40070476Y-69305714D01*
X40118095Y-69210476D01*
%TO.C,R20*%
X56092380Y-69007142D02*
X55616190Y-68673809D01*
X56092380Y-68435714D02*
X55092380Y-68435714D01*
X55092380Y-68816666D01*
X55140000Y-68911904D01*
X55187619Y-68959523D01*
X55282857Y-69007142D01*
X55425714Y-69007142D01*
X55520952Y-68959523D01*
X55568571Y-68911904D01*
X55616190Y-68816666D01*
X55616190Y-68435714D01*
X55187619Y-69388095D02*
X55140000Y-69435714D01*
X55092380Y-69530952D01*
X55092380Y-69769047D01*
X55140000Y-69864285D01*
X55187619Y-69911904D01*
X55282857Y-69959523D01*
X55378095Y-69959523D01*
X55520952Y-69911904D01*
X56092380Y-69340476D01*
X56092380Y-69959523D01*
X55092380Y-70578571D02*
X55092380Y-70673809D01*
X55140000Y-70769047D01*
X55187619Y-70816666D01*
X55282857Y-70864285D01*
X55473333Y-70911904D01*
X55711428Y-70911904D01*
X55901904Y-70864285D01*
X55997142Y-70816666D01*
X56044761Y-70769047D01*
X56092380Y-70673809D01*
X56092380Y-70578571D01*
X56044761Y-70483333D01*
X55997142Y-70435714D01*
X55901904Y-70388095D01*
X55711428Y-70340476D01*
X55473333Y-70340476D01*
X55282857Y-70388095D01*
X55187619Y-70435714D01*
X55140000Y-70483333D01*
X55092380Y-70578571D01*
%TO.C,R19*%
X47484380Y-67963142D02*
X47008190Y-67629809D01*
X47484380Y-67391714D02*
X46484380Y-67391714D01*
X46484380Y-67772666D01*
X46532000Y-67867904D01*
X46579619Y-67915523D01*
X46674857Y-67963142D01*
X46817714Y-67963142D01*
X46912952Y-67915523D01*
X46960571Y-67867904D01*
X47008190Y-67772666D01*
X47008190Y-67391714D01*
X47484380Y-68915523D02*
X47484380Y-68344095D01*
X47484380Y-68629809D02*
X46484380Y-68629809D01*
X46627238Y-68534571D01*
X46722476Y-68439333D01*
X46770095Y-68344095D01*
X47484380Y-69391714D02*
X47484380Y-69582190D01*
X47436761Y-69677428D01*
X47389142Y-69725047D01*
X47246285Y-69820285D01*
X47055809Y-69867904D01*
X46674857Y-69867904D01*
X46579619Y-69820285D01*
X46532000Y-69772666D01*
X46484380Y-69677428D01*
X46484380Y-69486952D01*
X46532000Y-69391714D01*
X46579619Y-69344095D01*
X46674857Y-69296476D01*
X46912952Y-69296476D01*
X47008190Y-69344095D01*
X47055809Y-69391714D01*
X47103428Y-69486952D01*
X47103428Y-69677428D01*
X47055809Y-69772666D01*
X47008190Y-69820285D01*
X46912952Y-69867904D01*
%TO.C,R18*%
X79658380Y-68979142D02*
X79182190Y-68645809D01*
X79658380Y-68407714D02*
X78658380Y-68407714D01*
X78658380Y-68788666D01*
X78706000Y-68883904D01*
X78753619Y-68931523D01*
X78848857Y-68979142D01*
X78991714Y-68979142D01*
X79086952Y-68931523D01*
X79134571Y-68883904D01*
X79182190Y-68788666D01*
X79182190Y-68407714D01*
X79658380Y-69931523D02*
X79658380Y-69360095D01*
X79658380Y-69645809D02*
X78658380Y-69645809D01*
X78801238Y-69550571D01*
X78896476Y-69455333D01*
X78944095Y-69360095D01*
X79086952Y-70502952D02*
X79039333Y-70407714D01*
X78991714Y-70360095D01*
X78896476Y-70312476D01*
X78848857Y-70312476D01*
X78753619Y-70360095D01*
X78706000Y-70407714D01*
X78658380Y-70502952D01*
X78658380Y-70693428D01*
X78706000Y-70788666D01*
X78753619Y-70836285D01*
X78848857Y-70883904D01*
X78896476Y-70883904D01*
X78991714Y-70836285D01*
X79039333Y-70788666D01*
X79086952Y-70693428D01*
X79086952Y-70502952D01*
X79134571Y-70407714D01*
X79182190Y-70360095D01*
X79277428Y-70312476D01*
X79467904Y-70312476D01*
X79563142Y-70360095D01*
X79610761Y-70407714D01*
X79658380Y-70502952D01*
X79658380Y-70693428D01*
X79610761Y-70788666D01*
X79563142Y-70836285D01*
X79467904Y-70883904D01*
X79277428Y-70883904D01*
X79182190Y-70836285D01*
X79134571Y-70788666D01*
X79086952Y-70693428D01*
%TO.C,R17*%
X48924380Y-68927142D02*
X48448190Y-68593809D01*
X48924380Y-68355714D02*
X47924380Y-68355714D01*
X47924380Y-68736666D01*
X47972000Y-68831904D01*
X48019619Y-68879523D01*
X48114857Y-68927142D01*
X48257714Y-68927142D01*
X48352952Y-68879523D01*
X48400571Y-68831904D01*
X48448190Y-68736666D01*
X48448190Y-68355714D01*
X48924380Y-69879523D02*
X48924380Y-69308095D01*
X48924380Y-69593809D02*
X47924380Y-69593809D01*
X48067238Y-69498571D01*
X48162476Y-69403333D01*
X48210095Y-69308095D01*
X47924380Y-70212857D02*
X47924380Y-70879523D01*
X48924380Y-70450952D01*
%TO.C,R14*%
X107642857Y-60032380D02*
X107976190Y-59556190D01*
X108214285Y-60032380D02*
X108214285Y-59032380D01*
X107833333Y-59032380D01*
X107738095Y-59080000D01*
X107690476Y-59127619D01*
X107642857Y-59222857D01*
X107642857Y-59365714D01*
X107690476Y-59460952D01*
X107738095Y-59508571D01*
X107833333Y-59556190D01*
X108214285Y-59556190D01*
X106690476Y-60032380D02*
X107261904Y-60032380D01*
X106976190Y-60032380D02*
X106976190Y-59032380D01*
X107071428Y-59175238D01*
X107166666Y-59270476D01*
X107261904Y-59318095D01*
X105833333Y-59365714D02*
X105833333Y-60032380D01*
X106071428Y-58984761D02*
X106309523Y-59699047D01*
X105690476Y-59699047D01*
%TO.C,R13*%
X107542857Y-66672380D02*
X107876190Y-66196190D01*
X108114285Y-66672380D02*
X108114285Y-65672380D01*
X107733333Y-65672380D01*
X107638095Y-65720000D01*
X107590476Y-65767619D01*
X107542857Y-65862857D01*
X107542857Y-66005714D01*
X107590476Y-66100952D01*
X107638095Y-66148571D01*
X107733333Y-66196190D01*
X108114285Y-66196190D01*
X106590476Y-66672380D02*
X107161904Y-66672380D01*
X106876190Y-66672380D02*
X106876190Y-65672380D01*
X106971428Y-65815238D01*
X107066666Y-65910476D01*
X107161904Y-65958095D01*
X106257142Y-65672380D02*
X105638095Y-65672380D01*
X105971428Y-66053333D01*
X105828571Y-66053333D01*
X105733333Y-66100952D01*
X105685714Y-66148571D01*
X105638095Y-66243809D01*
X105638095Y-66481904D01*
X105685714Y-66577142D01*
X105733333Y-66624761D01*
X105828571Y-66672380D01*
X106114285Y-66672380D01*
X106209523Y-66624761D01*
X106257142Y-66577142D01*
%TO.C,R12*%
X76392857Y-111012380D02*
X76726190Y-110536190D01*
X76964285Y-111012380D02*
X76964285Y-110012380D01*
X76583333Y-110012380D01*
X76488095Y-110060000D01*
X76440476Y-110107619D01*
X76392857Y-110202857D01*
X76392857Y-110345714D01*
X76440476Y-110440952D01*
X76488095Y-110488571D01*
X76583333Y-110536190D01*
X76964285Y-110536190D01*
X75440476Y-111012380D02*
X76011904Y-111012380D01*
X75726190Y-111012380D02*
X75726190Y-110012380D01*
X75821428Y-110155238D01*
X75916666Y-110250476D01*
X76011904Y-110298095D01*
X75059523Y-110107619D02*
X75011904Y-110060000D01*
X74916666Y-110012380D01*
X74678571Y-110012380D01*
X74583333Y-110060000D01*
X74535714Y-110107619D01*
X74488095Y-110202857D01*
X74488095Y-110298095D01*
X74535714Y-110440952D01*
X75107142Y-111012380D01*
X74488095Y-111012380D01*
%TO.C,R11*%
X76542857Y-104532380D02*
X76876190Y-104056190D01*
X77114285Y-104532380D02*
X77114285Y-103532380D01*
X76733333Y-103532380D01*
X76638095Y-103580000D01*
X76590476Y-103627619D01*
X76542857Y-103722857D01*
X76542857Y-103865714D01*
X76590476Y-103960952D01*
X76638095Y-104008571D01*
X76733333Y-104056190D01*
X77114285Y-104056190D01*
X75590476Y-104532380D02*
X76161904Y-104532380D01*
X75876190Y-104532380D02*
X75876190Y-103532380D01*
X75971428Y-103675238D01*
X76066666Y-103770476D01*
X76161904Y-103818095D01*
X74638095Y-104532380D02*
X75209523Y-104532380D01*
X74923809Y-104532380D02*
X74923809Y-103532380D01*
X75019047Y-103675238D01*
X75114285Y-103770476D01*
X75209523Y-103818095D01*
%TO.C,R10*%
X90822380Y-109957142D02*
X90346190Y-109623809D01*
X90822380Y-109385714D02*
X89822380Y-109385714D01*
X89822380Y-109766666D01*
X89870000Y-109861904D01*
X89917619Y-109909523D01*
X90012857Y-109957142D01*
X90155714Y-109957142D01*
X90250952Y-109909523D01*
X90298571Y-109861904D01*
X90346190Y-109766666D01*
X90346190Y-109385714D01*
X90822380Y-110909523D02*
X90822380Y-110338095D01*
X90822380Y-110623809D02*
X89822380Y-110623809D01*
X89965238Y-110528571D01*
X90060476Y-110433333D01*
X90108095Y-110338095D01*
X89822380Y-111528571D02*
X89822380Y-111623809D01*
X89870000Y-111719047D01*
X89917619Y-111766666D01*
X90012857Y-111814285D01*
X90203333Y-111861904D01*
X90441428Y-111861904D01*
X90631904Y-111814285D01*
X90727142Y-111766666D01*
X90774761Y-111719047D01*
X90822380Y-111623809D01*
X90822380Y-111528571D01*
X90774761Y-111433333D01*
X90727142Y-111385714D01*
X90631904Y-111338095D01*
X90441428Y-111290476D01*
X90203333Y-111290476D01*
X90012857Y-111338095D01*
X89917619Y-111385714D01*
X89870000Y-111433333D01*
X89822380Y-111528571D01*
%TO.C,R9*%
X88272380Y-106833333D02*
X87796190Y-106500000D01*
X88272380Y-106261904D02*
X87272380Y-106261904D01*
X87272380Y-106642857D01*
X87320000Y-106738095D01*
X87367619Y-106785714D01*
X87462857Y-106833333D01*
X87605714Y-106833333D01*
X87700952Y-106785714D01*
X87748571Y-106738095D01*
X87796190Y-106642857D01*
X87796190Y-106261904D01*
X88272380Y-107309523D02*
X88272380Y-107500000D01*
X88224761Y-107595238D01*
X88177142Y-107642857D01*
X88034285Y-107738095D01*
X87843809Y-107785714D01*
X87462857Y-107785714D01*
X87367619Y-107738095D01*
X87320000Y-107690476D01*
X87272380Y-107595238D01*
X87272380Y-107404761D01*
X87320000Y-107309523D01*
X87367619Y-107261904D01*
X87462857Y-107214285D01*
X87700952Y-107214285D01*
X87796190Y-107261904D01*
X87843809Y-107309523D01*
X87891428Y-107404761D01*
X87891428Y-107595238D01*
X87843809Y-107690476D01*
X87796190Y-107738095D01*
X87700952Y-107785714D01*
%TO.C,R8*%
X66316666Y-89822380D02*
X66650000Y-89346190D01*
X66888095Y-89822380D02*
X66888095Y-88822380D01*
X66507142Y-88822380D01*
X66411904Y-88870000D01*
X66364285Y-88917619D01*
X66316666Y-89012857D01*
X66316666Y-89155714D01*
X66364285Y-89250952D01*
X66411904Y-89298571D01*
X66507142Y-89346190D01*
X66888095Y-89346190D01*
X65745238Y-89250952D02*
X65840476Y-89203333D01*
X65888095Y-89155714D01*
X65935714Y-89060476D01*
X65935714Y-89012857D01*
X65888095Y-88917619D01*
X65840476Y-88870000D01*
X65745238Y-88822380D01*
X65554761Y-88822380D01*
X65459523Y-88870000D01*
X65411904Y-88917619D01*
X65364285Y-89012857D01*
X65364285Y-89060476D01*
X65411904Y-89155714D01*
X65459523Y-89203333D01*
X65554761Y-89250952D01*
X65745238Y-89250952D01*
X65840476Y-89298571D01*
X65888095Y-89346190D01*
X65935714Y-89441428D01*
X65935714Y-89631904D01*
X65888095Y-89727142D01*
X65840476Y-89774761D01*
X65745238Y-89822380D01*
X65554761Y-89822380D01*
X65459523Y-89774761D01*
X65411904Y-89727142D01*
X65364285Y-89631904D01*
X65364285Y-89441428D01*
X65411904Y-89346190D01*
X65459523Y-89298571D01*
X65554761Y-89250952D01*
%TO.C,R7*%
X63366666Y-78022380D02*
X63700000Y-77546190D01*
X63938095Y-78022380D02*
X63938095Y-77022380D01*
X63557142Y-77022380D01*
X63461904Y-77070000D01*
X63414285Y-77117619D01*
X63366666Y-77212857D01*
X63366666Y-77355714D01*
X63414285Y-77450952D01*
X63461904Y-77498571D01*
X63557142Y-77546190D01*
X63938095Y-77546190D01*
X63033333Y-77022380D02*
X62366666Y-77022380D01*
X62795238Y-78022380D01*
%TO.C,R6*%
X57942380Y-86003333D02*
X57466190Y-85670000D01*
X57942380Y-85431904D02*
X56942380Y-85431904D01*
X56942380Y-85812857D01*
X56990000Y-85908095D01*
X57037619Y-85955714D01*
X57132857Y-86003333D01*
X57275714Y-86003333D01*
X57370952Y-85955714D01*
X57418571Y-85908095D01*
X57466190Y-85812857D01*
X57466190Y-85431904D01*
X56942380Y-86860476D02*
X56942380Y-86670000D01*
X56990000Y-86574761D01*
X57037619Y-86527142D01*
X57180476Y-86431904D01*
X57370952Y-86384285D01*
X57751904Y-86384285D01*
X57847142Y-86431904D01*
X57894761Y-86479523D01*
X57942380Y-86574761D01*
X57942380Y-86765238D01*
X57894761Y-86860476D01*
X57847142Y-86908095D01*
X57751904Y-86955714D01*
X57513809Y-86955714D01*
X57418571Y-86908095D01*
X57370952Y-86860476D01*
X57323333Y-86765238D01*
X57323333Y-86574761D01*
X57370952Y-86479523D01*
X57418571Y-86431904D01*
X57513809Y-86384285D01*
%TO.C,R5*%
X57782380Y-76983333D02*
X57306190Y-76650000D01*
X57782380Y-76411904D02*
X56782380Y-76411904D01*
X56782380Y-76792857D01*
X56830000Y-76888095D01*
X56877619Y-76935714D01*
X56972857Y-76983333D01*
X57115714Y-76983333D01*
X57210952Y-76935714D01*
X57258571Y-76888095D01*
X57306190Y-76792857D01*
X57306190Y-76411904D01*
X56782380Y-77888095D02*
X56782380Y-77411904D01*
X57258571Y-77364285D01*
X57210952Y-77411904D01*
X57163333Y-77507142D01*
X57163333Y-77745238D01*
X57210952Y-77840476D01*
X57258571Y-77888095D01*
X57353809Y-77935714D01*
X57591904Y-77935714D01*
X57687142Y-77888095D01*
X57734761Y-77840476D01*
X57782380Y-77745238D01*
X57782380Y-77507142D01*
X57734761Y-77411904D01*
X57687142Y-77364285D01*
%TO.C,R4*%
X69534666Y-44690380D02*
X69868000Y-44214190D01*
X70106095Y-44690380D02*
X70106095Y-43690380D01*
X69725142Y-43690380D01*
X69629904Y-43738000D01*
X69582285Y-43785619D01*
X69534666Y-43880857D01*
X69534666Y-44023714D01*
X69582285Y-44118952D01*
X69629904Y-44166571D01*
X69725142Y-44214190D01*
X70106095Y-44214190D01*
X68677523Y-44023714D02*
X68677523Y-44690380D01*
X68915619Y-43642761D02*
X69153714Y-44357047D01*
X68534666Y-44357047D01*
%TO.C,R3*%
X63946666Y-44690380D02*
X64280000Y-44214190D01*
X64518095Y-44690380D02*
X64518095Y-43690380D01*
X64137142Y-43690380D01*
X64041904Y-43738000D01*
X63994285Y-43785619D01*
X63946666Y-43880857D01*
X63946666Y-44023714D01*
X63994285Y-44118952D01*
X64041904Y-44166571D01*
X64137142Y-44214190D01*
X64518095Y-44214190D01*
X63613333Y-43690380D02*
X62994285Y-43690380D01*
X63327619Y-44071333D01*
X63184761Y-44071333D01*
X63089523Y-44118952D01*
X63041904Y-44166571D01*
X62994285Y-44261809D01*
X62994285Y-44499904D01*
X63041904Y-44595142D01*
X63089523Y-44642761D01*
X63184761Y-44690380D01*
X63470476Y-44690380D01*
X63565714Y-44642761D01*
X63613333Y-44595142D01*
%TO.C,JP1*%
X118242380Y-63466666D02*
X118956666Y-63466666D01*
X119099523Y-63419047D01*
X119194761Y-63323809D01*
X119242380Y-63180952D01*
X119242380Y-63085714D01*
X119242380Y-63942857D02*
X118242380Y-63942857D01*
X118242380Y-64323809D01*
X118290000Y-64419047D01*
X118337619Y-64466666D01*
X118432857Y-64514285D01*
X118575714Y-64514285D01*
X118670952Y-64466666D01*
X118718571Y-64419047D01*
X118766190Y-64323809D01*
X118766190Y-63942857D01*
X119242380Y-65466666D02*
X119242380Y-64895238D01*
X119242380Y-65180952D02*
X118242380Y-65180952D01*
X118385238Y-65085714D01*
X118480476Y-64990476D01*
X118528095Y-64895238D01*
X117152380Y-61585714D02*
X117152380Y-61014285D01*
X117152380Y-61300000D02*
X116152380Y-61300000D01*
X116295238Y-61204761D01*
X116390476Y-61109523D01*
X116438095Y-61014285D01*
X116152380Y-66166666D02*
X116152380Y-66785714D01*
X116533333Y-66452380D01*
X116533333Y-66595238D01*
X116580952Y-66690476D01*
X116628571Y-66738095D01*
X116723809Y-66785714D01*
X116961904Y-66785714D01*
X117057142Y-66738095D01*
X117104761Y-66690476D01*
X117152380Y-66595238D01*
X117152380Y-66309523D01*
X117104761Y-66214285D01*
X117057142Y-66166666D01*
%TO.C,D13*%
X41544285Y-61922380D02*
X41544285Y-60922380D01*
X41306190Y-60922380D01*
X41163333Y-60970000D01*
X41068095Y-61065238D01*
X41020476Y-61160476D01*
X40972857Y-61350952D01*
X40972857Y-61493809D01*
X41020476Y-61684285D01*
X41068095Y-61779523D01*
X41163333Y-61874761D01*
X41306190Y-61922380D01*
X41544285Y-61922380D01*
X40020476Y-61922380D02*
X40591904Y-61922380D01*
X40306190Y-61922380D02*
X40306190Y-60922380D01*
X40401428Y-61065238D01*
X40496666Y-61160476D01*
X40591904Y-61208095D01*
X39687142Y-60922380D02*
X39068095Y-60922380D01*
X39401428Y-61303333D01*
X39258571Y-61303333D01*
X39163333Y-61350952D01*
X39115714Y-61398571D01*
X39068095Y-61493809D01*
X39068095Y-61731904D01*
X39115714Y-61827142D01*
X39163333Y-61874761D01*
X39258571Y-61922380D01*
X39544285Y-61922380D01*
X39639523Y-61874761D01*
X39687142Y-61827142D01*
%TO.C,D12*%
X45250285Y-44452380D02*
X45250285Y-43452380D01*
X45012190Y-43452380D01*
X44869333Y-43500000D01*
X44774095Y-43595238D01*
X44726476Y-43690476D01*
X44678857Y-43880952D01*
X44678857Y-44023809D01*
X44726476Y-44214285D01*
X44774095Y-44309523D01*
X44869333Y-44404761D01*
X45012190Y-44452380D01*
X45250285Y-44452380D01*
X43726476Y-44452380D02*
X44297904Y-44452380D01*
X44012190Y-44452380D02*
X44012190Y-43452380D01*
X44107428Y-43595238D01*
X44202666Y-43690476D01*
X44297904Y-43738095D01*
X43345523Y-43547619D02*
X43297904Y-43500000D01*
X43202666Y-43452380D01*
X42964571Y-43452380D01*
X42869333Y-43500000D01*
X42821714Y-43547619D01*
X42774095Y-43642857D01*
X42774095Y-43738095D01*
X42821714Y-43880952D01*
X43393142Y-44452380D01*
X42774095Y-44452380D01*
%TO.C,D11*%
X45316285Y-39870380D02*
X45316285Y-38870380D01*
X45078190Y-38870380D01*
X44935333Y-38918000D01*
X44840095Y-39013238D01*
X44792476Y-39108476D01*
X44744857Y-39298952D01*
X44744857Y-39441809D01*
X44792476Y-39632285D01*
X44840095Y-39727523D01*
X44935333Y-39822761D01*
X45078190Y-39870380D01*
X45316285Y-39870380D01*
X43792476Y-39870380D02*
X44363904Y-39870380D01*
X44078190Y-39870380D02*
X44078190Y-38870380D01*
X44173428Y-39013238D01*
X44268666Y-39108476D01*
X44363904Y-39156095D01*
X42840095Y-39870380D02*
X43411523Y-39870380D01*
X43125809Y-39870380D02*
X43125809Y-38870380D01*
X43221047Y-39013238D01*
X43316285Y-39108476D01*
X43411523Y-39156095D01*
%TO.C,D10*%
X123602380Y-48915714D02*
X122602380Y-48915714D01*
X122602380Y-49153809D01*
X122650000Y-49296666D01*
X122745238Y-49391904D01*
X122840476Y-49439523D01*
X123030952Y-49487142D01*
X123173809Y-49487142D01*
X123364285Y-49439523D01*
X123459523Y-49391904D01*
X123554761Y-49296666D01*
X123602380Y-49153809D01*
X123602380Y-48915714D01*
X123602380Y-50439523D02*
X123602380Y-49868095D01*
X123602380Y-50153809D02*
X122602380Y-50153809D01*
X122745238Y-50058571D01*
X122840476Y-49963333D01*
X122888095Y-49868095D01*
X122602380Y-51058571D02*
X122602380Y-51153809D01*
X122650000Y-51249047D01*
X122697619Y-51296666D01*
X122792857Y-51344285D01*
X122983333Y-51391904D01*
X123221428Y-51391904D01*
X123411904Y-51344285D01*
X123507142Y-51296666D01*
X123554761Y-51249047D01*
X123602380Y-51153809D01*
X123602380Y-51058571D01*
X123554761Y-50963333D01*
X123507142Y-50915714D01*
X123411904Y-50868095D01*
X123221428Y-50820476D01*
X122983333Y-50820476D01*
X122792857Y-50868095D01*
X122697619Y-50915714D01*
X122650000Y-50963333D01*
X122602380Y-51058571D01*
%TO.C,D9*%
X129702380Y-49391904D02*
X128702380Y-49391904D01*
X128702380Y-49630000D01*
X128750000Y-49772857D01*
X128845238Y-49868095D01*
X128940476Y-49915714D01*
X129130952Y-49963333D01*
X129273809Y-49963333D01*
X129464285Y-49915714D01*
X129559523Y-49868095D01*
X129654761Y-49772857D01*
X129702380Y-49630000D01*
X129702380Y-49391904D01*
X129702380Y-50439523D02*
X129702380Y-50630000D01*
X129654761Y-50725238D01*
X129607142Y-50772857D01*
X129464285Y-50868095D01*
X129273809Y-50915714D01*
X128892857Y-50915714D01*
X128797619Y-50868095D01*
X128750000Y-50820476D01*
X128702380Y-50725238D01*
X128702380Y-50534761D01*
X128750000Y-50439523D01*
X128797619Y-50391904D01*
X128892857Y-50344285D01*
X129130952Y-50344285D01*
X129226190Y-50391904D01*
X129273809Y-50439523D01*
X129321428Y-50534761D01*
X129321428Y-50725238D01*
X129273809Y-50820476D01*
X129226190Y-50868095D01*
X129130952Y-50915714D01*
%TO.C,D6*%
X90378095Y-119422380D02*
X90378095Y-118422380D01*
X90140000Y-118422380D01*
X89997142Y-118470000D01*
X89901904Y-118565238D01*
X89854285Y-118660476D01*
X89806666Y-118850952D01*
X89806666Y-118993809D01*
X89854285Y-119184285D01*
X89901904Y-119279523D01*
X89997142Y-119374761D01*
X90140000Y-119422380D01*
X90378095Y-119422380D01*
X88949523Y-118422380D02*
X89140000Y-118422380D01*
X89235238Y-118470000D01*
X89282857Y-118517619D01*
X89378095Y-118660476D01*
X89425714Y-118850952D01*
X89425714Y-119231904D01*
X89378095Y-119327142D01*
X89330476Y-119374761D01*
X89235238Y-119422380D01*
X89044761Y-119422380D01*
X88949523Y-119374761D01*
X88901904Y-119327142D01*
X88854285Y-119231904D01*
X88854285Y-118993809D01*
X88901904Y-118898571D01*
X88949523Y-118850952D01*
X89044761Y-118803333D01*
X89235238Y-118803333D01*
X89330476Y-118850952D01*
X89378095Y-118898571D01*
X89425714Y-118993809D01*
%TO.C,D5*%
X41398095Y-57702380D02*
X41398095Y-56702380D01*
X41160000Y-56702380D01*
X41017142Y-56750000D01*
X40921904Y-56845238D01*
X40874285Y-56940476D01*
X40826666Y-57130952D01*
X40826666Y-57273809D01*
X40874285Y-57464285D01*
X40921904Y-57559523D01*
X41017142Y-57654761D01*
X41160000Y-57702380D01*
X41398095Y-57702380D01*
X39921904Y-56702380D02*
X40398095Y-56702380D01*
X40445714Y-57178571D01*
X40398095Y-57130952D01*
X40302857Y-57083333D01*
X40064761Y-57083333D01*
X39969523Y-57130952D01*
X39921904Y-57178571D01*
X39874285Y-57273809D01*
X39874285Y-57511904D01*
X39921904Y-57607142D01*
X39969523Y-57654761D01*
X40064761Y-57702380D01*
X40302857Y-57702380D01*
X40398095Y-57654761D01*
X40445714Y-57607142D01*
%TO.C,D4*%
X41248095Y-53842380D02*
X41248095Y-52842380D01*
X41010000Y-52842380D01*
X40867142Y-52890000D01*
X40771904Y-52985238D01*
X40724285Y-53080476D01*
X40676666Y-53270952D01*
X40676666Y-53413809D01*
X40724285Y-53604285D01*
X40771904Y-53699523D01*
X40867142Y-53794761D01*
X41010000Y-53842380D01*
X41248095Y-53842380D01*
X39819523Y-53175714D02*
X39819523Y-53842380D01*
X40057619Y-52794761D02*
X40295714Y-53509047D01*
X39676666Y-53509047D01*
%TO.C,D3*%
X90268095Y-129362380D02*
X90268095Y-128362380D01*
X90030000Y-128362380D01*
X89887142Y-128410000D01*
X89791904Y-128505238D01*
X89744285Y-128600476D01*
X89696666Y-128790952D01*
X89696666Y-128933809D01*
X89744285Y-129124285D01*
X89791904Y-129219523D01*
X89887142Y-129314761D01*
X90030000Y-129362380D01*
X90268095Y-129362380D01*
X89363333Y-128362380D02*
X88744285Y-128362380D01*
X89077619Y-128743333D01*
X88934761Y-128743333D01*
X88839523Y-128790952D01*
X88791904Y-128838571D01*
X88744285Y-128933809D01*
X88744285Y-129171904D01*
X88791904Y-129267142D01*
X88839523Y-129314761D01*
X88934761Y-129362380D01*
X89220476Y-129362380D01*
X89315714Y-129314761D01*
X89363333Y-129267142D01*
%TO.C,D2*%
X89868095Y-124482380D02*
X89868095Y-123482380D01*
X89630000Y-123482380D01*
X89487142Y-123530000D01*
X89391904Y-123625238D01*
X89344285Y-123720476D01*
X89296666Y-123910952D01*
X89296666Y-124053809D01*
X89344285Y-124244285D01*
X89391904Y-124339523D01*
X89487142Y-124434761D01*
X89630000Y-124482380D01*
X89868095Y-124482380D01*
X88915714Y-123577619D02*
X88868095Y-123530000D01*
X88772857Y-123482380D01*
X88534761Y-123482380D01*
X88439523Y-123530000D01*
X88391904Y-123577619D01*
X88344285Y-123672857D01*
X88344285Y-123768095D01*
X88391904Y-123910952D01*
X88963333Y-124482380D01*
X88344285Y-124482380D01*
%TO.C,D1*%
X66332380Y-97291904D02*
X65332380Y-97291904D01*
X65332380Y-97530000D01*
X65380000Y-97672857D01*
X65475238Y-97768095D01*
X65570476Y-97815714D01*
X65760952Y-97863333D01*
X65903809Y-97863333D01*
X66094285Y-97815714D01*
X66189523Y-97768095D01*
X66284761Y-97672857D01*
X66332380Y-97530000D01*
X66332380Y-97291904D01*
X66332380Y-98815714D02*
X66332380Y-98244285D01*
X66332380Y-98530000D02*
X65332380Y-98530000D01*
X65475238Y-98434761D01*
X65570476Y-98339523D01*
X65618095Y-98244285D01*
X66702380Y-92688095D02*
X65702380Y-92688095D01*
X66702380Y-93259523D02*
X66130952Y-92830952D01*
X65702380Y-93259523D02*
X66273809Y-92688095D01*
%TD*%
%LPC*%
D12*
%TO.C,A1*%
X89840000Y-86310000D03*
X74600000Y-86310000D03*
X89840000Y-50750000D03*
X74600000Y-83770000D03*
X89840000Y-53290000D03*
X74600000Y-81230000D03*
X89840000Y-55830000D03*
X74600000Y-78690000D03*
X89840000Y-58370000D03*
X74600000Y-76150000D03*
X89840000Y-60910000D03*
X74600000Y-73610000D03*
X89840000Y-63450000D03*
X74600000Y-71070000D03*
X89840000Y-65990000D03*
X74600000Y-68530000D03*
X89840000Y-68530000D03*
X74600000Y-65990000D03*
X89840000Y-71070000D03*
X74600000Y-63450000D03*
X89840000Y-73610000D03*
X74600000Y-60910000D03*
X89840000Y-76150000D03*
X74600000Y-58370000D03*
X89840000Y-78690000D03*
X74600000Y-55830000D03*
X89840000Y-81230000D03*
X74600000Y-53290000D03*
X89840000Y-83770000D03*
D13*
X74600000Y-50750000D03*
%TD*%
D14*
%TO.C,H3*%
X81026000Y-42672000D03*
%TD*%
%TO.C,H2*%
X46736000Y-125476000D03*
%TD*%
%TO.C,H1*%
X123190000Y-127000000D03*
%TD*%
D15*
%TO.C,J1*%
X71800000Y-128800000D03*
X71800000Y-126300000D03*
X71800000Y-123800000D03*
X71800000Y-121300000D03*
G36*
G01*
X71075000Y-117950000D02*
X72525000Y-117950000D01*
G75*
G02*
X72775000Y-118200000I0J-250000D01*
G01*
X72775000Y-119400000D01*
G75*
G02*
X72525000Y-119650000I-250000J0D01*
G01*
X71075000Y-119650000D01*
G75*
G02*
X70825000Y-119400000I0J250000D01*
G01*
X70825000Y-118200000D01*
G75*
G02*
X71075000Y-117950000I250000J0D01*
G01*
G37*
%TD*%
%TO.C,R26*%
G36*
G01*
X113200000Y-64725001D02*
X113200000Y-63474999D01*
G75*
G02*
X113449999Y-63225000I249999J0D01*
G01*
X114250001Y-63225000D01*
G75*
G02*
X114500000Y-63474999I0J-249999D01*
G01*
X114500000Y-64725001D01*
G75*
G02*
X114250001Y-64975000I-249999J0D01*
G01*
X113449999Y-64975000D01*
G75*
G02*
X113200000Y-64725001I0J249999D01*
G01*
G37*
G36*
G01*
X110100000Y-64725001D02*
X110100000Y-63474999D01*
G75*
G02*
X110349999Y-63225000I249999J0D01*
G01*
X111150001Y-63225000D01*
G75*
G02*
X111400000Y-63474999I0J-249999D01*
G01*
X111400000Y-64725001D01*
G75*
G02*
X111150001Y-64975000I-249999J0D01*
G01*
X110349999Y-64975000D01*
G75*
G02*
X110100000Y-64725001I0J249999D01*
G01*
G37*
%TD*%
%TO.C,R25*%
G36*
G01*
X71125001Y-84950000D02*
X69874999Y-84950000D01*
G75*
G02*
X69625000Y-84700001I0J249999D01*
G01*
X69625000Y-83899999D01*
G75*
G02*
X69874999Y-83650000I249999J0D01*
G01*
X71125001Y-83650000D01*
G75*
G02*
X71375000Y-83899999I0J-249999D01*
G01*
X71375000Y-84700001D01*
G75*
G02*
X71125001Y-84950000I-249999J0D01*
G01*
G37*
G36*
G01*
X71125001Y-88050000D02*
X69874999Y-88050000D01*
G75*
G02*
X69625000Y-87800001I0J249999D01*
G01*
X69625000Y-86999999D01*
G75*
G02*
X69874999Y-86750000I249999J0D01*
G01*
X71125001Y-86750000D01*
G75*
G02*
X71375000Y-86999999I0J-249999D01*
G01*
X71375000Y-87800001D01*
G75*
G02*
X71125001Y-88050000I-249999J0D01*
G01*
G37*
%TD*%
%TO.C,R24*%
G36*
G01*
X69550000Y-76325001D02*
X69550000Y-75074999D01*
G75*
G02*
X69799999Y-74825000I249999J0D01*
G01*
X70600001Y-74825000D01*
G75*
G02*
X70850000Y-75074999I0J-249999D01*
G01*
X70850000Y-76325001D01*
G75*
G02*
X70600001Y-76575000I-249999J0D01*
G01*
X69799999Y-76575000D01*
G75*
G02*
X69550000Y-76325001I0J249999D01*
G01*
G37*
G36*
G01*
X66450000Y-76325001D02*
X66450000Y-75074999D01*
G75*
G02*
X66699999Y-74825000I249999J0D01*
G01*
X67500001Y-74825000D01*
G75*
G02*
X67750000Y-75074999I0J-249999D01*
G01*
X67750000Y-76325001D01*
G75*
G02*
X67500001Y-76575000I-249999J0D01*
G01*
X66699999Y-76575000D01*
G75*
G02*
X66450000Y-76325001I0J249999D01*
G01*
G37*
%TD*%
%TO.C,R23*%
G36*
G01*
X67100000Y-85575001D02*
X67100000Y-84324999D01*
G75*
G02*
X67349999Y-84075000I249999J0D01*
G01*
X68150001Y-84075000D01*
G75*
G02*
X68400000Y-84324999I0J-249999D01*
G01*
X68400000Y-85575001D01*
G75*
G02*
X68150001Y-85825000I-249999J0D01*
G01*
X67349999Y-85825000D01*
G75*
G02*
X67100000Y-85575001I0J249999D01*
G01*
G37*
G36*
G01*
X64000000Y-85575001D02*
X64000000Y-84324999D01*
G75*
G02*
X64249999Y-84075000I249999J0D01*
G01*
X65050001Y-84075000D01*
G75*
G02*
X65300000Y-84324999I0J-249999D01*
G01*
X65300000Y-85575001D01*
G75*
G02*
X65050001Y-85825000I-249999J0D01*
G01*
X64249999Y-85825000D01*
G75*
G02*
X64000000Y-85575001I0J249999D01*
G01*
G37*
%TD*%
%TO.C,R22*%
G36*
G01*
X68625001Y-79050000D02*
X67374999Y-79050000D01*
G75*
G02*
X67125000Y-78800001I0J249999D01*
G01*
X67125000Y-77999999D01*
G75*
G02*
X67374999Y-77750000I249999J0D01*
G01*
X68625001Y-77750000D01*
G75*
G02*
X68875000Y-77999999I0J-249999D01*
G01*
X68875000Y-78800001D01*
G75*
G02*
X68625001Y-79050000I-249999J0D01*
G01*
G37*
G36*
G01*
X68625001Y-82150000D02*
X67374999Y-82150000D01*
G75*
G02*
X67125000Y-81900001I0J249999D01*
G01*
X67125000Y-81099999D01*
G75*
G02*
X67374999Y-80850000I249999J0D01*
G01*
X68625001Y-80850000D01*
G75*
G02*
X68875000Y-81099999I0J-249999D01*
G01*
X68875000Y-81900001D01*
G75*
G02*
X68625001Y-82150000I-249999J0D01*
G01*
G37*
%TD*%
%TO.C,R21*%
G36*
G01*
X43043001Y-67654000D02*
X41792999Y-67654000D01*
G75*
G02*
X41543000Y-67404001I0J249999D01*
G01*
X41543000Y-66603999D01*
G75*
G02*
X41792999Y-66354000I249999J0D01*
G01*
X43043001Y-66354000D01*
G75*
G02*
X43293000Y-66603999I0J-249999D01*
G01*
X43293000Y-67404001D01*
G75*
G02*
X43043001Y-67654000I-249999J0D01*
G01*
G37*
G36*
G01*
X43043001Y-70754000D02*
X41792999Y-70754000D01*
G75*
G02*
X41543000Y-70504001I0J249999D01*
G01*
X41543000Y-69703999D01*
G75*
G02*
X41792999Y-69454000I249999J0D01*
G01*
X43043001Y-69454000D01*
G75*
G02*
X43293000Y-69703999I0J-249999D01*
G01*
X43293000Y-70504001D01*
G75*
G02*
X43043001Y-70754000I-249999J0D01*
G01*
G37*
%TD*%
%TO.C,R20*%
G36*
G01*
X52968999Y-70496000D02*
X54219001Y-70496000D01*
G75*
G02*
X54469000Y-70745999I0J-249999D01*
G01*
X54469000Y-71546001D01*
G75*
G02*
X54219001Y-71796000I-249999J0D01*
G01*
X52968999Y-71796000D01*
G75*
G02*
X52719000Y-71546001I0J249999D01*
G01*
X52719000Y-70745999D01*
G75*
G02*
X52968999Y-70496000I249999J0D01*
G01*
G37*
G36*
G01*
X52968999Y-67396000D02*
X54219001Y-67396000D01*
G75*
G02*
X54469000Y-67645999I0J-249999D01*
G01*
X54469000Y-68446001D01*
G75*
G02*
X54219001Y-68696000I-249999J0D01*
G01*
X52968999Y-68696000D01*
G75*
G02*
X52719000Y-68446001I0J249999D01*
G01*
X52719000Y-67645999D01*
G75*
G02*
X52968999Y-67396000I249999J0D01*
G01*
G37*
%TD*%
%TO.C,R19*%
G36*
G01*
X45837001Y-67706000D02*
X44586999Y-67706000D01*
G75*
G02*
X44337000Y-67456001I0J249999D01*
G01*
X44337000Y-66655999D01*
G75*
G02*
X44586999Y-66406000I249999J0D01*
G01*
X45837001Y-66406000D01*
G75*
G02*
X46087000Y-66655999I0J-249999D01*
G01*
X46087000Y-67456001D01*
G75*
G02*
X45837001Y-67706000I-249999J0D01*
G01*
G37*
G36*
G01*
X45837001Y-70806000D02*
X44586999Y-70806000D01*
G75*
G02*
X44337000Y-70556001I0J249999D01*
G01*
X44337000Y-69755999D01*
G75*
G02*
X44586999Y-69506000I249999J0D01*
G01*
X45837001Y-69506000D01*
G75*
G02*
X46087000Y-69755999I0J-249999D01*
G01*
X46087000Y-70556001D01*
G75*
G02*
X45837001Y-70806000I-249999J0D01*
G01*
G37*
%TD*%
%TO.C,R18*%
G36*
G01*
X80400999Y-70522000D02*
X81651001Y-70522000D01*
G75*
G02*
X81901000Y-70771999I0J-249999D01*
G01*
X81901000Y-71572001D01*
G75*
G02*
X81651001Y-71822000I-249999J0D01*
G01*
X80400999Y-71822000D01*
G75*
G02*
X80151000Y-71572001I0J249999D01*
G01*
X80151000Y-70771999D01*
G75*
G02*
X80400999Y-70522000I249999J0D01*
G01*
G37*
G36*
G01*
X80400999Y-67422000D02*
X81651001Y-67422000D01*
G75*
G02*
X81901000Y-67671999I0J-249999D01*
G01*
X81901000Y-68472001D01*
G75*
G02*
X81651001Y-68722000I-249999J0D01*
G01*
X80400999Y-68722000D01*
G75*
G02*
X80151000Y-68472001I0J249999D01*
G01*
X80151000Y-67671999D01*
G75*
G02*
X80400999Y-67422000I249999J0D01*
G01*
G37*
%TD*%
%TO.C,R17*%
G36*
G01*
X49666999Y-70470000D02*
X50917001Y-70470000D01*
G75*
G02*
X51167000Y-70719999I0J-249999D01*
G01*
X51167000Y-71520001D01*
G75*
G02*
X50917001Y-71770000I-249999J0D01*
G01*
X49666999Y-71770000D01*
G75*
G02*
X49417000Y-71520001I0J249999D01*
G01*
X49417000Y-70719999D01*
G75*
G02*
X49666999Y-70470000I249999J0D01*
G01*
G37*
G36*
G01*
X49666999Y-67370000D02*
X50917001Y-67370000D01*
G75*
G02*
X51167000Y-67619999I0J-249999D01*
G01*
X51167000Y-68420001D01*
G75*
G02*
X50917001Y-68670000I-249999J0D01*
G01*
X49666999Y-68670000D01*
G75*
G02*
X49417000Y-68420001I0J249999D01*
G01*
X49417000Y-67619999D01*
G75*
G02*
X49666999Y-67370000I249999J0D01*
G01*
G37*
%TD*%
%TO.C,R14*%
G36*
G01*
X106100000Y-60774999D02*
X106100000Y-62025001D01*
G75*
G02*
X105850001Y-62275000I-249999J0D01*
G01*
X105049999Y-62275000D01*
G75*
G02*
X104800000Y-62025001I0J249999D01*
G01*
X104800000Y-60774999D01*
G75*
G02*
X105049999Y-60525000I249999J0D01*
G01*
X105850001Y-60525000D01*
G75*
G02*
X106100000Y-60774999I0J-249999D01*
G01*
G37*
G36*
G01*
X109200000Y-60774999D02*
X109200000Y-62025001D01*
G75*
G02*
X108950001Y-62275000I-249999J0D01*
G01*
X108149999Y-62275000D01*
G75*
G02*
X107900000Y-62025001I0J249999D01*
G01*
X107900000Y-60774999D01*
G75*
G02*
X108149999Y-60525000I249999J0D01*
G01*
X108950001Y-60525000D01*
G75*
G02*
X109200000Y-60774999I0J-249999D01*
G01*
G37*
%TD*%
%TO.C,R13*%
G36*
G01*
X107800000Y-65025001D02*
X107800000Y-63774999D01*
G75*
G02*
X108049999Y-63525000I249999J0D01*
G01*
X108850001Y-63525000D01*
G75*
G02*
X109100000Y-63774999I0J-249999D01*
G01*
X109100000Y-65025001D01*
G75*
G02*
X108850001Y-65275000I-249999J0D01*
G01*
X108049999Y-65275000D01*
G75*
G02*
X107800000Y-65025001I0J249999D01*
G01*
G37*
G36*
G01*
X104700000Y-65025001D02*
X104700000Y-63774999D01*
G75*
G02*
X104949999Y-63525000I249999J0D01*
G01*
X105750001Y-63525000D01*
G75*
G02*
X106000000Y-63774999I0J-249999D01*
G01*
X106000000Y-65025001D01*
G75*
G02*
X105750001Y-65275000I-249999J0D01*
G01*
X104949999Y-65275000D01*
G75*
G02*
X104700000Y-65025001I0J249999D01*
G01*
G37*
%TD*%
%TO.C,R12*%
G36*
G01*
X74900000Y-108024999D02*
X74900000Y-109275001D01*
G75*
G02*
X74650001Y-109525000I-249999J0D01*
G01*
X73849999Y-109525000D01*
G75*
G02*
X73600000Y-109275001I0J249999D01*
G01*
X73600000Y-108024999D01*
G75*
G02*
X73849999Y-107775000I249999J0D01*
G01*
X74650001Y-107775000D01*
G75*
G02*
X74900000Y-108024999I0J-249999D01*
G01*
G37*
G36*
G01*
X78000000Y-108024999D02*
X78000000Y-109275001D01*
G75*
G02*
X77750001Y-109525000I-249999J0D01*
G01*
X76949999Y-109525000D01*
G75*
G02*
X76700000Y-109275001I0J249999D01*
G01*
X76700000Y-108024999D01*
G75*
G02*
X76949999Y-107775000I249999J0D01*
G01*
X77750001Y-107775000D01*
G75*
G02*
X78000000Y-108024999I0J-249999D01*
G01*
G37*
%TD*%
%TO.C,R11*%
G36*
G01*
X75000000Y-105274999D02*
X75000000Y-106525001D01*
G75*
G02*
X74750001Y-106775000I-249999J0D01*
G01*
X73949999Y-106775000D01*
G75*
G02*
X73700000Y-106525001I0J249999D01*
G01*
X73700000Y-105274999D01*
G75*
G02*
X73949999Y-105025000I249999J0D01*
G01*
X74750001Y-105025000D01*
G75*
G02*
X75000000Y-105274999I0J-249999D01*
G01*
G37*
G36*
G01*
X78100000Y-105274999D02*
X78100000Y-106525001D01*
G75*
G02*
X77850001Y-106775000I-249999J0D01*
G01*
X77049999Y-106775000D01*
G75*
G02*
X76800000Y-106525001I0J249999D01*
G01*
X76800000Y-105274999D01*
G75*
G02*
X77049999Y-105025000I249999J0D01*
G01*
X77850001Y-105025000D01*
G75*
G02*
X78100000Y-105274999I0J-249999D01*
G01*
G37*
%TD*%
%TO.C,R10*%
G36*
G01*
X89175001Y-109700000D02*
X87924999Y-109700000D01*
G75*
G02*
X87675000Y-109450001I0J249999D01*
G01*
X87675000Y-108649999D01*
G75*
G02*
X87924999Y-108400000I249999J0D01*
G01*
X89175001Y-108400000D01*
G75*
G02*
X89425000Y-108649999I0J-249999D01*
G01*
X89425000Y-109450001D01*
G75*
G02*
X89175001Y-109700000I-249999J0D01*
G01*
G37*
G36*
G01*
X89175001Y-112800000D02*
X87924999Y-112800000D01*
G75*
G02*
X87675000Y-112550001I0J249999D01*
G01*
X87675000Y-111749999D01*
G75*
G02*
X87924999Y-111500000I249999J0D01*
G01*
X89175001Y-111500000D01*
G75*
G02*
X89425000Y-111749999I0J-249999D01*
G01*
X89425000Y-112550001D01*
G75*
G02*
X89175001Y-112800000I-249999J0D01*
G01*
G37*
%TD*%
%TO.C,R9*%
G36*
G01*
X86625001Y-106100000D02*
X85374999Y-106100000D01*
G75*
G02*
X85125000Y-105850001I0J249999D01*
G01*
X85125000Y-105049999D01*
G75*
G02*
X85374999Y-104800000I249999J0D01*
G01*
X86625001Y-104800000D01*
G75*
G02*
X86875000Y-105049999I0J-249999D01*
G01*
X86875000Y-105850001D01*
G75*
G02*
X86625001Y-106100000I-249999J0D01*
G01*
G37*
G36*
G01*
X86625001Y-109200000D02*
X85374999Y-109200000D01*
G75*
G02*
X85125000Y-108950001I0J249999D01*
G01*
X85125000Y-108149999D01*
G75*
G02*
X85374999Y-107900000I249999J0D01*
G01*
X86625001Y-107900000D01*
G75*
G02*
X86875000Y-108149999I0J-249999D01*
G01*
X86875000Y-108950001D01*
G75*
G02*
X86625001Y-109200000I-249999J0D01*
G01*
G37*
%TD*%
%TO.C,R8*%
G36*
G01*
X67050000Y-88175001D02*
X67050000Y-86924999D01*
G75*
G02*
X67299999Y-86675000I249999J0D01*
G01*
X68100001Y-86675000D01*
G75*
G02*
X68350000Y-86924999I0J-249999D01*
G01*
X68350000Y-88175001D01*
G75*
G02*
X68100001Y-88425000I-249999J0D01*
G01*
X67299999Y-88425000D01*
G75*
G02*
X67050000Y-88175001I0J249999D01*
G01*
G37*
G36*
G01*
X63950000Y-88175001D02*
X63950000Y-86924999D01*
G75*
G02*
X64199999Y-86675000I249999J0D01*
G01*
X65000001Y-86675000D01*
G75*
G02*
X65250000Y-86924999I0J-249999D01*
G01*
X65250000Y-88175001D01*
G75*
G02*
X65000001Y-88425000I-249999J0D01*
G01*
X64199999Y-88425000D01*
G75*
G02*
X63950000Y-88175001I0J249999D01*
G01*
G37*
%TD*%
%TO.C,R7*%
G36*
G01*
X64100000Y-76375001D02*
X64100000Y-75124999D01*
G75*
G02*
X64349999Y-74875000I249999J0D01*
G01*
X65150001Y-74875000D01*
G75*
G02*
X65400000Y-75124999I0J-249999D01*
G01*
X65400000Y-76375001D01*
G75*
G02*
X65150001Y-76625000I-249999J0D01*
G01*
X64349999Y-76625000D01*
G75*
G02*
X64100000Y-76375001I0J249999D01*
G01*
G37*
G36*
G01*
X61000000Y-76375001D02*
X61000000Y-75124999D01*
G75*
G02*
X61249999Y-74875000I249999J0D01*
G01*
X62050001Y-74875000D01*
G75*
G02*
X62300000Y-75124999I0J-249999D01*
G01*
X62300000Y-76375001D01*
G75*
G02*
X62050001Y-76625000I-249999J0D01*
G01*
X61249999Y-76625000D01*
G75*
G02*
X61000000Y-76375001I0J249999D01*
G01*
G37*
%TD*%
%TO.C,R6*%
G36*
G01*
X58684999Y-87070000D02*
X59935001Y-87070000D01*
G75*
G02*
X60185000Y-87319999I0J-249999D01*
G01*
X60185000Y-88120001D01*
G75*
G02*
X59935001Y-88370000I-249999J0D01*
G01*
X58684999Y-88370000D01*
G75*
G02*
X58435000Y-88120001I0J249999D01*
G01*
X58435000Y-87319999D01*
G75*
G02*
X58684999Y-87070000I249999J0D01*
G01*
G37*
G36*
G01*
X58684999Y-83970000D02*
X59935001Y-83970000D01*
G75*
G02*
X60185000Y-84219999I0J-249999D01*
G01*
X60185000Y-85020001D01*
G75*
G02*
X59935001Y-85270000I-249999J0D01*
G01*
X58684999Y-85270000D01*
G75*
G02*
X58435000Y-85020001I0J249999D01*
G01*
X58435000Y-84219999D01*
G75*
G02*
X58684999Y-83970000I249999J0D01*
G01*
G37*
%TD*%
%TO.C,R5*%
G36*
G01*
X58524999Y-78050000D02*
X59775001Y-78050000D01*
G75*
G02*
X60025000Y-78299999I0J-249999D01*
G01*
X60025000Y-79100001D01*
G75*
G02*
X59775001Y-79350000I-249999J0D01*
G01*
X58524999Y-79350000D01*
G75*
G02*
X58275000Y-79100001I0J249999D01*
G01*
X58275000Y-78299999D01*
G75*
G02*
X58524999Y-78050000I249999J0D01*
G01*
G37*
G36*
G01*
X58524999Y-74950000D02*
X59775001Y-74950000D01*
G75*
G02*
X60025000Y-75199999I0J-249999D01*
G01*
X60025000Y-76000001D01*
G75*
G02*
X59775001Y-76250000I-249999J0D01*
G01*
X58524999Y-76250000D01*
G75*
G02*
X58275000Y-76000001I0J249999D01*
G01*
X58275000Y-75199999D01*
G75*
G02*
X58524999Y-74950000I249999J0D01*
G01*
G37*
%TD*%
%TO.C,R4*%
G36*
G01*
X70268000Y-43043001D02*
X70268000Y-41792999D01*
G75*
G02*
X70517999Y-41543000I249999J0D01*
G01*
X71318001Y-41543000D01*
G75*
G02*
X71568000Y-41792999I0J-249999D01*
G01*
X71568000Y-43043001D01*
G75*
G02*
X71318001Y-43293000I-249999J0D01*
G01*
X70517999Y-43293000D01*
G75*
G02*
X70268000Y-43043001I0J249999D01*
G01*
G37*
G36*
G01*
X67168000Y-43043001D02*
X67168000Y-41792999D01*
G75*
G02*
X67417999Y-41543000I249999J0D01*
G01*
X68218001Y-41543000D01*
G75*
G02*
X68468000Y-41792999I0J-249999D01*
G01*
X68468000Y-43043001D01*
G75*
G02*
X68218001Y-43293000I-249999J0D01*
G01*
X67417999Y-43293000D01*
G75*
G02*
X67168000Y-43043001I0J249999D01*
G01*
G37*
%TD*%
%TO.C,R3*%
G36*
G01*
X64680000Y-43043001D02*
X64680000Y-41792999D01*
G75*
G02*
X64929999Y-41543000I249999J0D01*
G01*
X65730001Y-41543000D01*
G75*
G02*
X65980000Y-41792999I0J-249999D01*
G01*
X65980000Y-43043001D01*
G75*
G02*
X65730001Y-43293000I-249999J0D01*
G01*
X64929999Y-43293000D01*
G75*
G02*
X64680000Y-43043001I0J249999D01*
G01*
G37*
G36*
G01*
X61580000Y-43043001D02*
X61580000Y-41792999D01*
G75*
G02*
X61829999Y-41543000I249999J0D01*
G01*
X62630001Y-41543000D01*
G75*
G02*
X62880000Y-41792999I0J-249999D01*
G01*
X62880000Y-43043001D01*
G75*
G02*
X62630001Y-43293000I-249999J0D01*
G01*
X61829999Y-43293000D01*
G75*
G02*
X61580000Y-43043001I0J249999D01*
G01*
G37*
%TD*%
D16*
%TO.C,Q2*%
X75000000Y-102800000D03*
D17*
X72460000Y-102800000D03*
X73730000Y-102800000D03*
%TD*%
D16*
%TO.C,Q1*%
X78750000Y-114000000D03*
D17*
X76210000Y-114000000D03*
X77480000Y-114000000D03*
%TD*%
D18*
%TO.C,JP1*%
X116700000Y-62600000D03*
X116700000Y-63900000D03*
X116700000Y-65200000D03*
%TD*%
%TO.C,J5*%
G36*
G01*
X55335000Y-64564000D02*
X53885000Y-64564000D01*
G75*
G02*
X53635000Y-64314000I0J250000D01*
G01*
X53635000Y-63114000D01*
G75*
G02*
X53885000Y-62864000I250000J0D01*
G01*
X55335000Y-62864000D01*
G75*
G02*
X55585000Y-63114000I0J-250000D01*
G01*
X55585000Y-64314000D01*
G75*
G02*
X55335000Y-64564000I-250000J0D01*
G01*
G37*
D15*
X54610000Y-61214000D03*
X54610000Y-58714000D03*
X54610000Y-56214000D03*
%TD*%
D19*
%TO.C,J4*%
X126430000Y-58930000D03*
X123930000Y-58930000D03*
G36*
G01*
X120580000Y-59655000D02*
X120580000Y-58205000D01*
G75*
G02*
X120830000Y-57955000I250000J0D01*
G01*
X122030000Y-57955000D01*
G75*
G02*
X122280000Y-58205000I0J-250000D01*
G01*
X122280000Y-59655000D01*
G75*
G02*
X122030000Y-59905000I-250000J0D01*
G01*
X120830000Y-59905000D01*
G75*
G02*
X120580000Y-59655000I0J250000D01*
G01*
G37*
%TD*%
D15*
%TO.C,J3*%
X98938000Y-50930000D03*
X98938000Y-48430000D03*
X98938000Y-45930000D03*
G36*
G01*
X98213000Y-42580000D02*
X99663000Y-42580000D01*
G75*
G02*
X99913000Y-42830000I0J-250000D01*
G01*
X99913000Y-44030000D01*
G75*
G02*
X99663000Y-44280000I-250000J0D01*
G01*
X98213000Y-44280000D01*
G75*
G02*
X97963000Y-44030000I0J250000D01*
G01*
X97963000Y-42830000D01*
G75*
G02*
X98213000Y-42580000I250000J0D01*
G01*
G37*
%TD*%
D20*
%TO.C,J2*%
X54356000Y-44918000D03*
G36*
G01*
X53606000Y-41568000D02*
X55106000Y-41568000D01*
G75*
G02*
X55356000Y-41818000I0J-250000D01*
G01*
X55356000Y-43018000D01*
G75*
G02*
X55106000Y-43268000I-250000J0D01*
G01*
X53606000Y-43268000D01*
G75*
G02*
X53356000Y-43018000I0J250000D01*
G01*
X53356000Y-41818000D01*
G75*
G02*
X53606000Y-41568000I250000J0D01*
G01*
G37*
%TD*%
D21*
%TO.C,D13*%
X43728000Y-62484000D03*
X48728000Y-62484000D03*
%TD*%
D22*
%TO.C,D12*%
X41336000Y-47000000D03*
X46736000Y-47000000D03*
%TD*%
%TO.C,D11*%
X41402000Y-42418000D03*
X46802000Y-42418000D03*
%TD*%
D23*
%TO.C,D10*%
X120650000Y-47630000D03*
X120650000Y-52630000D03*
%TD*%
%TO.C,D9*%
X126750000Y-47630000D03*
X126750000Y-52630000D03*
%TD*%
D22*
%TO.C,D6*%
X85300000Y-119450000D03*
X79900000Y-119450000D03*
%TD*%
D21*
%TO.C,D5*%
X43768000Y-58674000D03*
X48768000Y-58674000D03*
%TD*%
%TO.C,D4*%
X43728000Y-54864000D03*
X48728000Y-54864000D03*
%TD*%
D22*
%TO.C,D3*%
X85350000Y-128800000D03*
X79950000Y-128800000D03*
%TD*%
%TO.C,D2*%
X85300000Y-124050000D03*
X79900000Y-124050000D03*
%TD*%
D24*
%TO.C,D1*%
X68350000Y-103110000D03*
D25*
X68350000Y-92950000D03*
%TD*%
D26*
%TO.C,C8*%
X61940000Y-85170000D03*
D13*
X61940000Y-87670000D03*
%TD*%
D26*
%TO.C,C7*%
X64400000Y-78800000D03*
D13*
X61900000Y-78800000D03*
%TD*%
D26*
%TO.C,C6*%
X54530000Y-82870000D03*
D13*
X54530000Y-85370000D03*
%TD*%
D26*
%TO.C,C5*%
X56250000Y-78300000D03*
D13*
X56250000Y-75800000D03*
%TD*%
M02*
