%TF.GenerationSoftware,KiCad,Pcbnew,5.1.10-88a1d61d58~88~ubuntu18.04.1*%
%TF.CreationDate,2021-05-26T02:41:18+03:00*%
%TF.ProjectId,Micra Cruise Control Schemantics,4d696372-6120-4437-9275-69736520436f,rev?*%
%TF.SameCoordinates,Original*%
%TF.FileFunction,Soldermask,Top*%
%TF.FilePolarity,Negative*%
%FSLAX46Y46*%
G04 Gerber Fmt 4.6, Leading zero omitted, Abs format (unit mm)*
G04 Created by KiCad (PCBNEW 5.1.10-88a1d61d58~88~ubuntu18.04.1) date 2021-05-26 02:41:18*
%MOMM*%
%LPD*%
G01*
G04 APERTURE LIST*
%ADD10O,1.600000X1.600000*%
%ADD11R,1.600000X1.600000*%
%ADD12C,3.700000*%
%ADD13R,3.500000X1.800000*%
%ADD14O,1.950000X1.700000*%
%ADD15R,2.200000X1.000000*%
%ADD16R,1.000000X2.200000*%
%ADD17R,0.400000X1.500000*%
%ADD18R,1.220000X0.650000*%
%ADD19R,1.050000X1.500000*%
%ADD20O,1.050000X1.500000*%
%ADD21R,1.500000X2.200000*%
%ADD22O,1.700000X1.950000*%
%ADD23O,2.000000X1.700000*%
%ADD24O,2.200000X2.200000*%
%ADD25R,2.200000X2.200000*%
%ADD26C,1.600000*%
G04 APERTURE END LIST*
D10*
%TO.C,A1*%
X89840000Y-86310000D03*
X74600000Y-86310000D03*
X89840000Y-50750000D03*
X74600000Y-83770000D03*
X89840000Y-53290000D03*
X74600000Y-81230000D03*
X89840000Y-55830000D03*
X74600000Y-78690000D03*
X89840000Y-58370000D03*
X74600000Y-76150000D03*
X89840000Y-60910000D03*
X74600000Y-73610000D03*
X89840000Y-63450000D03*
X74600000Y-71070000D03*
X89840000Y-65990000D03*
X74600000Y-68530000D03*
X89840000Y-68530000D03*
X74600000Y-65990000D03*
X89840000Y-71070000D03*
X74600000Y-63450000D03*
X89840000Y-73610000D03*
X74600000Y-60910000D03*
X89840000Y-76150000D03*
X74600000Y-58370000D03*
X89840000Y-78690000D03*
X74600000Y-55830000D03*
X89840000Y-81230000D03*
X74600000Y-53290000D03*
X89840000Y-83770000D03*
D11*
X74600000Y-50750000D03*
%TD*%
D12*
%TO.C,H3*%
X81026000Y-42672000D03*
%TD*%
%TO.C,H2*%
X46736000Y-125476000D03*
%TD*%
%TO.C,H1*%
X123190000Y-127000000D03*
%TD*%
D13*
%TO.C,D14*%
X119250000Y-99650000D03*
X124250000Y-99650000D03*
%TD*%
D14*
%TO.C,J1*%
X71800000Y-128800000D03*
X71800000Y-126300000D03*
X71800000Y-123800000D03*
X71800000Y-121300000D03*
G36*
G01*
X71075000Y-117950000D02*
X72525000Y-117950000D01*
G75*
G02*
X72775000Y-118200000I0J-250000D01*
G01*
X72775000Y-119400000D01*
G75*
G02*
X72525000Y-119650000I-250000J0D01*
G01*
X71075000Y-119650000D01*
G75*
G02*
X70825000Y-119400000I0J250000D01*
G01*
X70825000Y-118200000D01*
G75*
G02*
X71075000Y-117950000I250000J0D01*
G01*
G37*
%TD*%
D15*
%TO.C,K2*%
X55850000Y-117060000D03*
X63850000Y-117060000D03*
X55850000Y-111980000D03*
X55850000Y-106900000D03*
X63850000Y-111980000D03*
X63850000Y-106900000D03*
X55850000Y-114520000D03*
X63850000Y-114520000D03*
%TD*%
D16*
%TO.C,K1*%
X53610000Y-92950000D03*
X53610000Y-100950000D03*
X58690000Y-92950000D03*
X63770000Y-92950000D03*
X58690000Y-100950000D03*
X63770000Y-100950000D03*
X56150000Y-92950000D03*
X56150000Y-100950000D03*
%TD*%
D17*
%TO.C,U4*%
X83050000Y-100350000D03*
X82400000Y-100350000D03*
X81750000Y-100350000D03*
X81750000Y-97690000D03*
X82400000Y-97690000D03*
X83050000Y-97690000D03*
%TD*%
%TO.C,U3*%
G36*
G01*
X89633500Y-98643500D02*
X89633500Y-98968500D01*
G75*
G02*
X89471000Y-99131000I-162500J0D01*
G01*
X87821000Y-99131000D01*
G75*
G02*
X87658500Y-98968500I0J162500D01*
G01*
X87658500Y-98643500D01*
G75*
G02*
X87821000Y-98481000I162500J0D01*
G01*
X89471000Y-98481000D01*
G75*
G02*
X89633500Y-98643500I0J-162500D01*
G01*
G37*
G36*
G01*
X89633500Y-97373500D02*
X89633500Y-97698500D01*
G75*
G02*
X89471000Y-97861000I-162500J0D01*
G01*
X87821000Y-97861000D01*
G75*
G02*
X87658500Y-97698500I0J162500D01*
G01*
X87658500Y-97373500D01*
G75*
G02*
X87821000Y-97211000I162500J0D01*
G01*
X89471000Y-97211000D01*
G75*
G02*
X89633500Y-97373500I0J-162500D01*
G01*
G37*
G36*
G01*
X89633500Y-96103500D02*
X89633500Y-96428500D01*
G75*
G02*
X89471000Y-96591000I-162500J0D01*
G01*
X87821000Y-96591000D01*
G75*
G02*
X87658500Y-96428500I0J162500D01*
G01*
X87658500Y-96103500D01*
G75*
G02*
X87821000Y-95941000I162500J0D01*
G01*
X89471000Y-95941000D01*
G75*
G02*
X89633500Y-96103500I0J-162500D01*
G01*
G37*
G36*
G01*
X89633500Y-94833500D02*
X89633500Y-95158500D01*
G75*
G02*
X89471000Y-95321000I-162500J0D01*
G01*
X87821000Y-95321000D01*
G75*
G02*
X87658500Y-95158500I0J162500D01*
G01*
X87658500Y-94833500D01*
G75*
G02*
X87821000Y-94671000I162500J0D01*
G01*
X89471000Y-94671000D01*
G75*
G02*
X89633500Y-94833500I0J-162500D01*
G01*
G37*
G36*
G01*
X94708500Y-94833500D02*
X94708500Y-95158500D01*
G75*
G02*
X94546000Y-95321000I-162500J0D01*
G01*
X92896000Y-95321000D01*
G75*
G02*
X92733500Y-95158500I0J162500D01*
G01*
X92733500Y-94833500D01*
G75*
G02*
X92896000Y-94671000I162500J0D01*
G01*
X94546000Y-94671000D01*
G75*
G02*
X94708500Y-94833500I0J-162500D01*
G01*
G37*
G36*
G01*
X94708500Y-96103500D02*
X94708500Y-96428500D01*
G75*
G02*
X94546000Y-96591000I-162500J0D01*
G01*
X92896000Y-96591000D01*
G75*
G02*
X92733500Y-96428500I0J162500D01*
G01*
X92733500Y-96103500D01*
G75*
G02*
X92896000Y-95941000I162500J0D01*
G01*
X94546000Y-95941000D01*
G75*
G02*
X94708500Y-96103500I0J-162500D01*
G01*
G37*
G36*
G01*
X94708500Y-97373500D02*
X94708500Y-97698500D01*
G75*
G02*
X94546000Y-97861000I-162500J0D01*
G01*
X92896000Y-97861000D01*
G75*
G02*
X92733500Y-97698500I0J162500D01*
G01*
X92733500Y-97373500D01*
G75*
G02*
X92896000Y-97211000I162500J0D01*
G01*
X94546000Y-97211000D01*
G75*
G02*
X94708500Y-97373500I0J-162500D01*
G01*
G37*
G36*
G01*
X94708500Y-98643500D02*
X94708500Y-98968500D01*
G75*
G02*
X94546000Y-99131000I-162500J0D01*
G01*
X92896000Y-99131000D01*
G75*
G02*
X92733500Y-98968500I0J162500D01*
G01*
X92733500Y-98643500D01*
G75*
G02*
X92896000Y-98481000I162500J0D01*
G01*
X94546000Y-98481000D01*
G75*
G02*
X94708500Y-98643500I0J-162500D01*
G01*
G37*
%TD*%
%TO.C,U2*%
G36*
G01*
X61618000Y-47965000D02*
X61318000Y-47965000D01*
G75*
G02*
X61168000Y-47815000I0J150000D01*
G01*
X61168000Y-46165000D01*
G75*
G02*
X61318000Y-46015000I150000J0D01*
G01*
X61618000Y-46015000D01*
G75*
G02*
X61768000Y-46165000I0J-150000D01*
G01*
X61768000Y-47815000D01*
G75*
G02*
X61618000Y-47965000I-150000J0D01*
G01*
G37*
G36*
G01*
X62888000Y-47965000D02*
X62588000Y-47965000D01*
G75*
G02*
X62438000Y-47815000I0J150000D01*
G01*
X62438000Y-46165000D01*
G75*
G02*
X62588000Y-46015000I150000J0D01*
G01*
X62888000Y-46015000D01*
G75*
G02*
X63038000Y-46165000I0J-150000D01*
G01*
X63038000Y-47815000D01*
G75*
G02*
X62888000Y-47965000I-150000J0D01*
G01*
G37*
G36*
G01*
X64158000Y-47965000D02*
X63858000Y-47965000D01*
G75*
G02*
X63708000Y-47815000I0J150000D01*
G01*
X63708000Y-46165000D01*
G75*
G02*
X63858000Y-46015000I150000J0D01*
G01*
X64158000Y-46015000D01*
G75*
G02*
X64308000Y-46165000I0J-150000D01*
G01*
X64308000Y-47815000D01*
G75*
G02*
X64158000Y-47965000I-150000J0D01*
G01*
G37*
G36*
G01*
X65428000Y-47965000D02*
X65128000Y-47965000D01*
G75*
G02*
X64978000Y-47815000I0J150000D01*
G01*
X64978000Y-46165000D01*
G75*
G02*
X65128000Y-46015000I150000J0D01*
G01*
X65428000Y-46015000D01*
G75*
G02*
X65578000Y-46165000I0J-150000D01*
G01*
X65578000Y-47815000D01*
G75*
G02*
X65428000Y-47965000I-150000J0D01*
G01*
G37*
G36*
G01*
X66698000Y-47965000D02*
X66398000Y-47965000D01*
G75*
G02*
X66248000Y-47815000I0J150000D01*
G01*
X66248000Y-46165000D01*
G75*
G02*
X66398000Y-46015000I150000J0D01*
G01*
X66698000Y-46015000D01*
G75*
G02*
X66848000Y-46165000I0J-150000D01*
G01*
X66848000Y-47815000D01*
G75*
G02*
X66698000Y-47965000I-150000J0D01*
G01*
G37*
G36*
G01*
X67968000Y-47965000D02*
X67668000Y-47965000D01*
G75*
G02*
X67518000Y-47815000I0J150000D01*
G01*
X67518000Y-46165000D01*
G75*
G02*
X67668000Y-46015000I150000J0D01*
G01*
X67968000Y-46015000D01*
G75*
G02*
X68118000Y-46165000I0J-150000D01*
G01*
X68118000Y-47815000D01*
G75*
G02*
X67968000Y-47965000I-150000J0D01*
G01*
G37*
G36*
G01*
X69238000Y-47965000D02*
X68938000Y-47965000D01*
G75*
G02*
X68788000Y-47815000I0J150000D01*
G01*
X68788000Y-46165000D01*
G75*
G02*
X68938000Y-46015000I150000J0D01*
G01*
X69238000Y-46015000D01*
G75*
G02*
X69388000Y-46165000I0J-150000D01*
G01*
X69388000Y-47815000D01*
G75*
G02*
X69238000Y-47965000I-150000J0D01*
G01*
G37*
G36*
G01*
X69238000Y-52915000D02*
X68938000Y-52915000D01*
G75*
G02*
X68788000Y-52765000I0J150000D01*
G01*
X68788000Y-51115000D01*
G75*
G02*
X68938000Y-50965000I150000J0D01*
G01*
X69238000Y-50965000D01*
G75*
G02*
X69388000Y-51115000I0J-150000D01*
G01*
X69388000Y-52765000D01*
G75*
G02*
X69238000Y-52915000I-150000J0D01*
G01*
G37*
G36*
G01*
X67968000Y-52915000D02*
X67668000Y-52915000D01*
G75*
G02*
X67518000Y-52765000I0J150000D01*
G01*
X67518000Y-51115000D01*
G75*
G02*
X67668000Y-50965000I150000J0D01*
G01*
X67968000Y-50965000D01*
G75*
G02*
X68118000Y-51115000I0J-150000D01*
G01*
X68118000Y-52765000D01*
G75*
G02*
X67968000Y-52915000I-150000J0D01*
G01*
G37*
G36*
G01*
X66698000Y-52915000D02*
X66398000Y-52915000D01*
G75*
G02*
X66248000Y-52765000I0J150000D01*
G01*
X66248000Y-51115000D01*
G75*
G02*
X66398000Y-50965000I150000J0D01*
G01*
X66698000Y-50965000D01*
G75*
G02*
X66848000Y-51115000I0J-150000D01*
G01*
X66848000Y-52765000D01*
G75*
G02*
X66698000Y-52915000I-150000J0D01*
G01*
G37*
G36*
G01*
X65428000Y-52915000D02*
X65128000Y-52915000D01*
G75*
G02*
X64978000Y-52765000I0J150000D01*
G01*
X64978000Y-51115000D01*
G75*
G02*
X65128000Y-50965000I150000J0D01*
G01*
X65428000Y-50965000D01*
G75*
G02*
X65578000Y-51115000I0J-150000D01*
G01*
X65578000Y-52765000D01*
G75*
G02*
X65428000Y-52915000I-150000J0D01*
G01*
G37*
G36*
G01*
X64158000Y-52915000D02*
X63858000Y-52915000D01*
G75*
G02*
X63708000Y-52765000I0J150000D01*
G01*
X63708000Y-51115000D01*
G75*
G02*
X63858000Y-50965000I150000J0D01*
G01*
X64158000Y-50965000D01*
G75*
G02*
X64308000Y-51115000I0J-150000D01*
G01*
X64308000Y-52765000D01*
G75*
G02*
X64158000Y-52915000I-150000J0D01*
G01*
G37*
G36*
G01*
X62888000Y-52915000D02*
X62588000Y-52915000D01*
G75*
G02*
X62438000Y-52765000I0J150000D01*
G01*
X62438000Y-51115000D01*
G75*
G02*
X62588000Y-50965000I150000J0D01*
G01*
X62888000Y-50965000D01*
G75*
G02*
X63038000Y-51115000I0J-150000D01*
G01*
X63038000Y-52765000D01*
G75*
G02*
X62888000Y-52915000I-150000J0D01*
G01*
G37*
G36*
G01*
X61618000Y-52915000D02*
X61318000Y-52915000D01*
G75*
G02*
X61168000Y-52765000I0J150000D01*
G01*
X61168000Y-51115000D01*
G75*
G02*
X61318000Y-50965000I150000J0D01*
G01*
X61618000Y-50965000D01*
G75*
G02*
X61768000Y-51115000I0J-150000D01*
G01*
X61768000Y-52765000D01*
G75*
G02*
X61618000Y-52915000I-150000J0D01*
G01*
G37*
%TD*%
D18*
%TO.C,U1*%
X108966000Y-88646000D03*
X108966000Y-87696000D03*
X108966000Y-86746000D03*
X111586000Y-86746000D03*
X111586000Y-87696000D03*
X111586000Y-88646000D03*
%TD*%
%TO.C,R27*%
G36*
G01*
X104530999Y-91552000D02*
X105781001Y-91552000D01*
G75*
G02*
X106031000Y-91801999I0J-249999D01*
G01*
X106031000Y-92602001D01*
G75*
G02*
X105781001Y-92852000I-249999J0D01*
G01*
X104530999Y-92852000D01*
G75*
G02*
X104281000Y-92602001I0J249999D01*
G01*
X104281000Y-91801999D01*
G75*
G02*
X104530999Y-91552000I249999J0D01*
G01*
G37*
G36*
G01*
X104530999Y-88452000D02*
X105781001Y-88452000D01*
G75*
G02*
X106031000Y-88701999I0J-249999D01*
G01*
X106031000Y-89502001D01*
G75*
G02*
X105781001Y-89752000I-249999J0D01*
G01*
X104530999Y-89752000D01*
G75*
G02*
X104281000Y-89502001I0J249999D01*
G01*
X104281000Y-88701999D01*
G75*
G02*
X104530999Y-88452000I249999J0D01*
G01*
G37*
%TD*%
%TO.C,R16*%
G36*
G01*
X105430000Y-53218999D02*
X105430000Y-54469001D01*
G75*
G02*
X105180001Y-54719000I-249999J0D01*
G01*
X104379999Y-54719000D01*
G75*
G02*
X104130000Y-54469001I0J249999D01*
G01*
X104130000Y-53218999D01*
G75*
G02*
X104379999Y-52969000I249999J0D01*
G01*
X105180001Y-52969000D01*
G75*
G02*
X105430000Y-53218999I0J-249999D01*
G01*
G37*
G36*
G01*
X108530000Y-53218999D02*
X108530000Y-54469001D01*
G75*
G02*
X108280001Y-54719000I-249999J0D01*
G01*
X107479999Y-54719000D01*
G75*
G02*
X107230000Y-54469001I0J249999D01*
G01*
X107230000Y-53218999D01*
G75*
G02*
X107479999Y-52969000I249999J0D01*
G01*
X108280001Y-52969000D01*
G75*
G02*
X108530000Y-53218999I0J-249999D01*
G01*
G37*
%TD*%
%TO.C,R15*%
G36*
G01*
X107230000Y-57263001D02*
X107230000Y-56012999D01*
G75*
G02*
X107479999Y-55763000I249999J0D01*
G01*
X108280001Y-55763000D01*
G75*
G02*
X108530000Y-56012999I0J-249999D01*
G01*
X108530000Y-57263001D01*
G75*
G02*
X108280001Y-57513000I-249999J0D01*
G01*
X107479999Y-57513000D01*
G75*
G02*
X107230000Y-57263001I0J249999D01*
G01*
G37*
G36*
G01*
X104130000Y-57263001D02*
X104130000Y-56012999D01*
G75*
G02*
X104379999Y-55763000I249999J0D01*
G01*
X105180001Y-55763000D01*
G75*
G02*
X105430000Y-56012999I0J-249999D01*
G01*
X105430000Y-57263001D01*
G75*
G02*
X105180001Y-57513000I-249999J0D01*
G01*
X104379999Y-57513000D01*
G75*
G02*
X104130000Y-57263001I0J249999D01*
G01*
G37*
%TD*%
%TO.C,R2*%
G36*
G01*
X99625001Y-83200000D02*
X98374999Y-83200000D01*
G75*
G02*
X98125000Y-82950001I0J249999D01*
G01*
X98125000Y-82149999D01*
G75*
G02*
X98374999Y-81900000I249999J0D01*
G01*
X99625001Y-81900000D01*
G75*
G02*
X99875000Y-82149999I0J-249999D01*
G01*
X99875000Y-82950001D01*
G75*
G02*
X99625001Y-83200000I-249999J0D01*
G01*
G37*
G36*
G01*
X99625001Y-86300000D02*
X98374999Y-86300000D01*
G75*
G02*
X98125000Y-86050001I0J249999D01*
G01*
X98125000Y-85249999D01*
G75*
G02*
X98374999Y-85000000I249999J0D01*
G01*
X99625001Y-85000000D01*
G75*
G02*
X99875000Y-85249999I0J-249999D01*
G01*
X99875000Y-86050001D01*
G75*
G02*
X99625001Y-86300000I-249999J0D01*
G01*
G37*
%TD*%
%TO.C,R1*%
G36*
G01*
X102874999Y-84974000D02*
X104125001Y-84974000D01*
G75*
G02*
X104375000Y-85223999I0J-249999D01*
G01*
X104375000Y-86024001D01*
G75*
G02*
X104125001Y-86274000I-249999J0D01*
G01*
X102874999Y-86274000D01*
G75*
G02*
X102625000Y-86024001I0J249999D01*
G01*
X102625000Y-85223999D01*
G75*
G02*
X102874999Y-84974000I249999J0D01*
G01*
G37*
G36*
G01*
X102874999Y-81874000D02*
X104125001Y-81874000D01*
G75*
G02*
X104375000Y-82123999I0J-249999D01*
G01*
X104375000Y-82924001D01*
G75*
G02*
X104125001Y-83174000I-249999J0D01*
G01*
X102874999Y-83174000D01*
G75*
G02*
X102625000Y-82924001I0J249999D01*
G01*
X102625000Y-82123999D01*
G75*
G02*
X102874999Y-81874000I249999J0D01*
G01*
G37*
%TD*%
D19*
%TO.C,Q2*%
X75000000Y-102800000D03*
D20*
X72460000Y-102800000D03*
X73730000Y-102800000D03*
%TD*%
D19*
%TO.C,Q1*%
X78750000Y-114000000D03*
D20*
X76210000Y-114000000D03*
X77480000Y-114000000D03*
%TD*%
D21*
%TO.C,L1*%
X123700000Y-88000000D03*
X117300000Y-88000000D03*
%TD*%
%TO.C,J5*%
G36*
G01*
X55335000Y-64564000D02*
X53885000Y-64564000D01*
G75*
G02*
X53635000Y-64314000I0J250000D01*
G01*
X53635000Y-63114000D01*
G75*
G02*
X53885000Y-62864000I250000J0D01*
G01*
X55335000Y-62864000D01*
G75*
G02*
X55585000Y-63114000I0J-250000D01*
G01*
X55585000Y-64314000D01*
G75*
G02*
X55335000Y-64564000I-250000J0D01*
G01*
G37*
D14*
X54610000Y-61214000D03*
X54610000Y-58714000D03*
X54610000Y-56214000D03*
%TD*%
D22*
%TO.C,J4*%
X126430000Y-58930000D03*
X123930000Y-58930000D03*
G36*
G01*
X120580000Y-59655000D02*
X120580000Y-58205000D01*
G75*
G02*
X120830000Y-57955000I250000J0D01*
G01*
X122030000Y-57955000D01*
G75*
G02*
X122280000Y-58205000I0J-250000D01*
G01*
X122280000Y-59655000D01*
G75*
G02*
X122030000Y-59905000I-250000J0D01*
G01*
X120830000Y-59905000D01*
G75*
G02*
X120580000Y-59655000I0J250000D01*
G01*
G37*
%TD*%
D14*
%TO.C,J3*%
X98938000Y-50930000D03*
X98938000Y-48430000D03*
X98938000Y-45930000D03*
G36*
G01*
X98213000Y-42580000D02*
X99663000Y-42580000D01*
G75*
G02*
X99913000Y-42830000I0J-250000D01*
G01*
X99913000Y-44030000D01*
G75*
G02*
X99663000Y-44280000I-250000J0D01*
G01*
X98213000Y-44280000D01*
G75*
G02*
X97963000Y-44030000I0J250000D01*
G01*
X97963000Y-42830000D01*
G75*
G02*
X98213000Y-42580000I250000J0D01*
G01*
G37*
%TD*%
D23*
%TO.C,J2*%
X54356000Y-44918000D03*
G36*
G01*
X53606000Y-41568000D02*
X55106000Y-41568000D01*
G75*
G02*
X55356000Y-41818000I0J-250000D01*
G01*
X55356000Y-43018000D01*
G75*
G02*
X55106000Y-43268000I-250000J0D01*
G01*
X53606000Y-43268000D01*
G75*
G02*
X53356000Y-43018000I0J250000D01*
G01*
X53356000Y-41818000D01*
G75*
G02*
X53606000Y-41568000I250000J0D01*
G01*
G37*
%TD*%
%TO.C,F1*%
G36*
G01*
X119387500Y-70349997D02*
X119387500Y-71650003D01*
G75*
G02*
X119137503Y-71900000I-249997J0D01*
G01*
X118312497Y-71900000D01*
G75*
G02*
X118062500Y-71650003I0J249997D01*
G01*
X118062500Y-70349997D01*
G75*
G02*
X118312497Y-70100000I249997J0D01*
G01*
X119137503Y-70100000D01*
G75*
G02*
X119387500Y-70349997I0J-249997D01*
G01*
G37*
G36*
G01*
X122512500Y-70349997D02*
X122512500Y-71650003D01*
G75*
G02*
X122262503Y-71900000I-249997J0D01*
G01*
X121437497Y-71900000D01*
G75*
G02*
X121187500Y-71650003I0J249997D01*
G01*
X121187500Y-70349997D01*
G75*
G02*
X121437497Y-70100000I249997J0D01*
G01*
X122262503Y-70100000D01*
G75*
G02*
X122512500Y-70349997I0J-249997D01*
G01*
G37*
%TD*%
D13*
%TO.C,D8*%
X109860000Y-46224000D03*
X104860000Y-46224000D03*
%TD*%
%TO.C,D7*%
X109780000Y-50034000D03*
X104780000Y-50034000D03*
%TD*%
D24*
%TO.C,D1*%
X68350000Y-103110000D03*
D25*
X68350000Y-92950000D03*
%TD*%
D26*
%TO.C,C8*%
X61940000Y-85170000D03*
D11*
X61940000Y-87670000D03*
%TD*%
D26*
%TO.C,C7*%
X64400000Y-78800000D03*
D11*
X61900000Y-78800000D03*
%TD*%
D26*
%TO.C,C6*%
X54530000Y-82870000D03*
D11*
X54530000Y-85370000D03*
%TD*%
D26*
%TO.C,C5*%
X56250000Y-78300000D03*
D11*
X56250000Y-75800000D03*
%TD*%
%TO.C,C4*%
G36*
G01*
X122837500Y-96150003D02*
X122837500Y-94849997D01*
G75*
G02*
X123087497Y-94600000I249997J0D01*
G01*
X123912503Y-94600000D01*
G75*
G02*
X124162500Y-94849997I0J-249997D01*
G01*
X124162500Y-96150003D01*
G75*
G02*
X123912503Y-96400000I-249997J0D01*
G01*
X123087497Y-96400000D01*
G75*
G02*
X122837500Y-96150003I0J249997D01*
G01*
G37*
G36*
G01*
X119712500Y-96150003D02*
X119712500Y-94849997D01*
G75*
G02*
X119962497Y-94600000I249997J0D01*
G01*
X120787503Y-94600000D01*
G75*
G02*
X121037500Y-94849997I0J-249997D01*
G01*
X121037500Y-96150003D01*
G75*
G02*
X120787503Y-96400000I-249997J0D01*
G01*
X119962497Y-96400000D01*
G75*
G02*
X119712500Y-96150003I0J249997D01*
G01*
G37*
%TD*%
%TO.C,C3*%
G36*
G01*
X105800000Y-94899997D02*
X105800000Y-96200003D01*
G75*
G02*
X105550003Y-96450000I-249997J0D01*
G01*
X104724997Y-96450000D01*
G75*
G02*
X104475000Y-96200003I0J249997D01*
G01*
X104475000Y-94899997D01*
G75*
G02*
X104724997Y-94650000I249997J0D01*
G01*
X105550003Y-94650000D01*
G75*
G02*
X105800000Y-94899997I0J-249997D01*
G01*
G37*
G36*
G01*
X108925000Y-94899997D02*
X108925000Y-96200003D01*
G75*
G02*
X108675003Y-96450000I-249997J0D01*
G01*
X107849997Y-96450000D01*
G75*
G02*
X107600000Y-96200003I0J249997D01*
G01*
X107600000Y-94899997D01*
G75*
G02*
X107849997Y-94650000I249997J0D01*
G01*
X108675003Y-94650000D01*
G75*
G02*
X108925000Y-94899997I0J-249997D01*
G01*
G37*
%TD*%
%TO.C,C2*%
G36*
G01*
X109537500Y-82349997D02*
X109537500Y-83650003D01*
G75*
G02*
X109287503Y-83900000I-249997J0D01*
G01*
X108462497Y-83900000D01*
G75*
G02*
X108212500Y-83650003I0J249997D01*
G01*
X108212500Y-82349997D01*
G75*
G02*
X108462497Y-82100000I249997J0D01*
G01*
X109287503Y-82100000D01*
G75*
G02*
X109537500Y-82349997I0J-249997D01*
G01*
G37*
G36*
G01*
X112662500Y-82349997D02*
X112662500Y-83650003D01*
G75*
G02*
X112412503Y-83900000I-249997J0D01*
G01*
X111587497Y-83900000D01*
G75*
G02*
X111337500Y-83650003I0J249997D01*
G01*
X111337500Y-82349997D01*
G75*
G02*
X111587497Y-82100000I249997J0D01*
G01*
X112412503Y-82100000D01*
G75*
G02*
X112662500Y-82349997I0J-249997D01*
G01*
G37*
%TD*%
%TO.C,C1*%
G36*
G01*
X109412500Y-78849997D02*
X109412500Y-80150003D01*
G75*
G02*
X109162503Y-80400000I-249997J0D01*
G01*
X108337497Y-80400000D01*
G75*
G02*
X108087500Y-80150003I0J249997D01*
G01*
X108087500Y-78849997D01*
G75*
G02*
X108337497Y-78600000I249997J0D01*
G01*
X109162503Y-78600000D01*
G75*
G02*
X109412500Y-78849997I0J-249997D01*
G01*
G37*
G36*
G01*
X112537500Y-78849997D02*
X112537500Y-80150003D01*
G75*
G02*
X112287503Y-80400000I-249997J0D01*
G01*
X111462497Y-80400000D01*
G75*
G02*
X111212500Y-80150003I0J249997D01*
G01*
X111212500Y-78849997D01*
G75*
G02*
X111462497Y-78600000I249997J0D01*
G01*
X112287503Y-78600000D01*
G75*
G02*
X112537500Y-78849997I0J-249997D01*
G01*
G37*
%TD*%
M02*
