M48
; DRILL file {KiCad 5.1.10-88a1d61d58~88~ubuntu18.04.1} date Sun May 16 21:16:42 2021
; FORMAT={-:-/ absolute / inch / decimal}
; #@! TF.CreationDate,2021-05-16T21:16:42+03:00
; #@! TF.GenerationSoftware,Kicad,Pcbnew,5.1.10-88a1d61d58~88~ubuntu18.04.1
; #@! TF.FileFunction,Plated,1,4,PTH
FMAT,2
INCH
T1C0.0157
T2C0.0295
T3C0.0315
T4C0.0374
T5C0.0394
T6C0.0433
%
G90
G05
T1
X4.1693Y-4.8799
X4.19Y-1.615
X4.215Y-1.87
X4.2525Y-1.32
X4.3325Y-1.5775
X4.3475Y-1.9175
X4.3775Y-2.415
X4.38Y-2.555
X4.4425Y-2.7125
X4.4425Y-2.775
X4.445Y-2.88
X4.4975Y-1.3225
X4.5138Y-3.3268
X4.5217Y-3.4311
X4.5425Y-2.6975
X4.5475Y-2.8
X4.5475Y-2.88
X4.5825Y-1.585
X4.6Y-2.415
X4.6125Y-2.5575
X4.62Y-2.695
X4.624Y-5.3346
X4.6275Y-2.7825
X4.6325Y-2.8675
X4.6775Y-1.9075
X4.7775Y-2.415
X4.7775Y-2.5575
X4.7775Y-2.695
X4.8225Y-1.32
X4.885Y-1.9075
X4.9075Y-1.585
X4.9825Y-2.6975
X5.0787Y-5.8071
X5.125Y-1.905
X5.145Y-1.315
X5.155Y-2.6975
X5.18Y-6.0
X5.18Y-6.04
X5.24Y-4.32
X5.26Y-6.0
X5.26Y-6.04
X5.2675Y-1.5725
X5.34Y-5.9
X5.34Y-5.96
X5.34Y-6.02
X5.3625Y-1.9025
X5.3925Y-1.3275
X5.4Y-5.9
X5.4Y-5.96
X5.4Y-6.02
X5.485Y-2.91
X5.5807Y-4.4213
X5.7475Y-1.9
X5.77Y-1.3225
X5.7925Y-1.5925
X5.84Y-5.48
X5.8413Y-5.7335
X5.94Y-6.0425
X6.03Y-6.0425
X6.063Y-5.1969
X6.1Y-4.32
X6.1025Y-6.0
X6.1075Y-5.9175
X6.1614Y-5.1969
X6.17Y-5.92
X6.1725Y-5.9975
T2
X4.6539Y-6.2343
X4.7039Y-6.2343
X4.7539Y-6.2343
X6.5059Y-5.0177
X6.5559Y-5.0177
X6.6059Y-5.0177
T3
X4.0709Y-4.4724
X4.1693Y-4.4724
X4.2146Y-5.2067
X4.2146Y-5.3051
X4.4154Y-4.0965
X4.4154Y-4.1949
X4.5413Y-5.0276
X4.6398Y-5.0276
T4
X5.7165Y-4.7953
X5.815Y-4.7953
X5.9134Y-4.7953
X5.9449Y-3.878
X5.9449Y-3.9764
X5.9449Y-4.0748
X5.9449Y-4.1732
X6.0118Y-4.7953
X6.0175Y-2.6325
X6.0175Y-2.7309
X6.0175Y-2.8294
X6.1102Y-4.7953
T5
X4.8346Y-3.1654
X4.8346Y-3.2654
X4.8346Y-3.3654
X4.8346Y-3.4654
X4.8346Y-3.5654
X4.8346Y-3.6654
X4.8346Y-3.7654
X4.8346Y-3.8654
X4.8346Y-3.9654
X4.8346Y-4.0654
X4.8346Y-4.1654
X4.8346Y-4.2654
X4.8346Y-4.3654
X4.8346Y-4.4654
X4.8346Y-4.5654
X5.4346Y-3.1654
X5.4346Y-3.2654
X5.4346Y-3.3654
X5.4346Y-3.4654
X5.4346Y-3.5654
X5.4346Y-3.6654
X5.4346Y-3.7654
X5.4346Y-3.8654
X5.4346Y-3.9654
X5.4346Y-4.0654
X5.4346Y-4.1654
X5.4346Y-4.2654
X5.4346Y-4.3654
X5.4346Y-4.4654
X5.4346Y-4.5654
X5.9075Y-3.5374
X5.9075Y-3.6358
T6
X5.5272Y-6.189
X5.9272Y-6.189
T0
M30
